G75*
%MOIN*%
%OFA0B0*%
%FSLAX24Y24*%
%IPPOS*%
%LPD*%
%AMOC8*
5,1,8,0,0,1.08239X$1,22.5*
%
%ADD10C,0.0050*%
%ADD11C,0.0030*%
%ADD12C,0.0040*%
D10*
X008930Y004743D02*
X013130Y004743D01*
X013130Y004643D01*
X014730Y004643D01*
X014730Y004743D01*
X018930Y004743D01*
X018930Y007243D01*
X008930Y007243D02*
X008930Y004743D01*
D11*
X009568Y005358D02*
X009815Y005358D01*
X009692Y005358D02*
X009692Y005729D01*
X009815Y005605D01*
X009815Y006358D02*
X009568Y006358D01*
X009815Y006358D02*
X009568Y006605D01*
X009568Y006667D01*
X009630Y006729D01*
X009753Y006729D01*
X009815Y006667D01*
X017900Y006582D02*
X017962Y006643D01*
X018147Y006643D01*
X018147Y006520D01*
X018085Y006458D01*
X017962Y006458D01*
X017900Y006520D01*
X017900Y006582D01*
X018023Y006767D02*
X018147Y006643D01*
X018023Y006767D02*
X017900Y006829D01*
X018392Y006829D02*
X018392Y006458D01*
X018515Y006458D02*
X018268Y006458D01*
X018515Y006705D02*
X018392Y006829D01*
X018392Y005729D02*
X018392Y005358D01*
X018515Y005358D02*
X018268Y005358D01*
X018147Y005420D02*
X018085Y005358D01*
X017962Y005358D01*
X017900Y005420D01*
X017900Y005543D01*
X017962Y005605D01*
X018023Y005605D01*
X018147Y005543D01*
X018147Y005729D01*
X017900Y005729D01*
X018392Y005729D02*
X018515Y005605D01*
D12*
X019150Y005517D02*
X019150Y005440D01*
X019227Y005363D01*
X019150Y005517D02*
X019227Y005594D01*
X019610Y005594D01*
X019610Y005670D02*
X019610Y005517D01*
X019457Y005824D02*
X019610Y005977D01*
X019150Y005977D01*
X019150Y005824D02*
X019150Y006131D01*
M02*
