G75*
%MOIN*%
%OFA0B0*%
%FSLAX24Y24*%
%IPPOS*%
%LPD*%
%AMOC8*
5,1,8,0,0,1.08239X$1,22.5*
%
%ADD10R,0.0515X0.0515*%
%ADD11R,0.0750X0.0750*%
%ADD12OC8,0.0850*%
%ADD13R,0.0600X0.0600*%
%ADD14R,0.0276X0.0354*%
%ADD15C,0.0396*%
%ADD16C,0.0160*%
%ADD17C,0.0750*%
%ADD18C,0.0500*%
%ADD19C,0.0250*%
D10*
X003680Y016833D03*
X004380Y017233D03*
X003680Y017633D03*
X004380Y018033D03*
X003680Y018433D03*
X004380Y018833D03*
X003680Y019233D03*
X004380Y019633D03*
X021580Y019633D03*
X022280Y019233D03*
X021580Y018833D03*
X022280Y018433D03*
X021580Y018033D03*
X022280Y017633D03*
X021580Y017233D03*
X022280Y020033D03*
D11*
X021680Y008333D03*
X021680Y007333D03*
X021680Y006333D03*
X006180Y006333D03*
X006180Y007333D03*
X006180Y008333D03*
D12*
X004380Y015433D03*
X006680Y018533D03*
X005880Y019333D03*
X004380Y022833D03*
D13*
X008730Y005283D03*
X008730Y004283D03*
X009730Y004283D03*
X010730Y004283D03*
X011730Y004283D03*
X012730Y004283D03*
X013730Y004283D03*
X014730Y004283D03*
X015730Y004283D03*
X015730Y005283D03*
X014730Y005283D03*
X013730Y005283D03*
X012730Y005283D03*
X011730Y005283D03*
X010730Y005283D03*
X009730Y005283D03*
D14*
X014024Y010083D03*
X014536Y010083D03*
X011786Y012133D03*
X011274Y012133D03*
D15*
X010730Y012133D03*
X012730Y012133D03*
X013230Y010083D03*
X015230Y010083D03*
X015230Y012133D03*
X017280Y012333D03*
X017280Y013833D03*
X017280Y014933D03*
X017280Y010733D03*
X017580Y009533D03*
X017280Y008333D03*
X019880Y004633D03*
X019330Y004283D03*
X018780Y003833D03*
X025380Y002933D03*
X025380Y002333D03*
X025980Y002333D03*
X025980Y002933D03*
X026580Y002933D03*
X026580Y002333D03*
X025120Y011753D03*
X013880Y018883D03*
X012580Y018383D03*
X012380Y016883D03*
X010780Y015383D03*
X008580Y016033D03*
X007780Y016633D03*
X008880Y017733D03*
X007580Y014433D03*
X013080Y014883D03*
X008780Y008133D03*
X003080Y003033D03*
X002480Y003033D03*
X001880Y003033D03*
X001880Y002433D03*
X002480Y002433D03*
X003080Y002433D03*
X001880Y009833D03*
X006880Y023933D03*
X008680Y024033D03*
X010480Y024033D03*
X012280Y024033D03*
X014080Y024033D03*
X015780Y024033D03*
X017480Y024033D03*
X002680Y024533D03*
X002080Y024533D03*
X001480Y024533D03*
X001480Y025133D03*
X002080Y025133D03*
X002680Y025133D03*
D16*
X000660Y025533D02*
X000660Y002013D01*
X027670Y002013D01*
X027670Y025533D01*
X000660Y025533D01*
X000660Y025467D02*
X027670Y025467D01*
X027670Y025308D02*
X000660Y025308D01*
X000660Y025150D02*
X027670Y025150D01*
X027670Y024991D02*
X000660Y024991D01*
X000660Y024833D02*
X027670Y024833D01*
X027670Y024674D02*
X000660Y024674D01*
X000660Y024516D02*
X027670Y024516D01*
X027670Y024357D02*
X017832Y024357D01*
X017885Y024304D02*
X017751Y024439D01*
X017575Y024511D01*
X017385Y024511D01*
X017209Y024439D01*
X017075Y024304D01*
X017002Y024128D01*
X017002Y023938D01*
X017075Y023763D01*
X017209Y023628D01*
X017293Y023593D01*
X016229Y023593D01*
X016140Y023682D01*
X016140Y023717D01*
X016185Y023763D01*
X016258Y023938D01*
X016258Y024128D01*
X016185Y024304D01*
X016051Y024439D01*
X015875Y024511D01*
X015685Y024511D01*
X015509Y024439D01*
X015375Y024304D01*
X015302Y024128D01*
X015302Y023938D01*
X015375Y023763D01*
X015420Y023717D01*
X015420Y023462D01*
X015475Y023329D01*
X015511Y023293D01*
X015029Y023293D01*
X014507Y023815D01*
X014558Y023938D01*
X014558Y024128D01*
X014485Y024304D01*
X014351Y024439D01*
X014175Y024511D01*
X013985Y024511D01*
X013809Y024439D01*
X013675Y024304D01*
X013602Y024128D01*
X013602Y023938D01*
X013675Y023763D01*
X013720Y023717D01*
X013720Y023662D01*
X013775Y023529D01*
X014311Y022993D01*
X013429Y022993D01*
X012673Y023750D01*
X012685Y023763D01*
X012758Y023938D01*
X012758Y024128D01*
X012685Y024304D01*
X012551Y024439D01*
X012375Y024511D01*
X012185Y024511D01*
X012009Y024439D01*
X011875Y024304D01*
X011802Y024128D01*
X011802Y023938D01*
X011875Y023763D01*
X011920Y023717D01*
X011920Y023562D01*
X011975Y023429D01*
X012711Y022693D01*
X011829Y022693D01*
X010840Y023682D01*
X010840Y023717D01*
X010885Y023763D01*
X010958Y023938D01*
X010958Y024128D01*
X010885Y024304D01*
X010751Y024439D01*
X010575Y024511D01*
X010385Y024511D01*
X010209Y024439D01*
X010075Y024304D01*
X010002Y024128D01*
X010002Y023938D01*
X010075Y023763D01*
X010120Y023717D01*
X010120Y023462D01*
X010175Y023329D01*
X011111Y022393D01*
X010329Y022393D01*
X009040Y023682D01*
X009040Y023717D01*
X009085Y023763D01*
X009158Y023938D01*
X009158Y024128D01*
X009085Y024304D01*
X008951Y024439D01*
X008775Y024511D01*
X008585Y024511D01*
X008409Y024439D01*
X008275Y024304D01*
X008202Y024128D01*
X008202Y023938D01*
X008275Y023763D01*
X008320Y023717D01*
X008320Y023462D01*
X008375Y023329D01*
X009875Y021829D01*
X009976Y021728D01*
X010108Y021673D01*
X022287Y021673D01*
X022227Y021569D01*
X022150Y021282D01*
X022150Y020985D01*
X022227Y020697D01*
X022358Y020471D01*
X022280Y020471D01*
X021999Y020471D01*
X021953Y020459D01*
X021912Y020435D01*
X021878Y020401D01*
X021855Y020360D01*
X021843Y020315D01*
X021843Y020171D01*
X021267Y020171D01*
X021164Y020128D01*
X021085Y020049D01*
X021043Y019947D01*
X021043Y019320D01*
X021078Y019233D01*
X021062Y019193D01*
X019908Y019193D01*
X019776Y019139D01*
X017981Y017343D01*
X013379Y017343D01*
X012940Y017782D01*
X012940Y018067D01*
X012985Y018113D01*
X013058Y018288D01*
X013058Y018478D01*
X012985Y018654D01*
X012851Y018789D01*
X012675Y018861D01*
X012485Y018861D01*
X012309Y018789D01*
X012175Y018654D01*
X012102Y018478D01*
X012102Y018288D01*
X012175Y018113D01*
X012220Y018067D01*
X012220Y017562D01*
X012275Y017429D01*
X012343Y017361D01*
X012285Y017361D01*
X012109Y017289D01*
X011975Y017154D01*
X011902Y016978D01*
X011902Y016788D01*
X011975Y016613D01*
X012109Y016478D01*
X012285Y016405D01*
X012349Y016405D01*
X012376Y016378D01*
X012508Y016323D01*
X018752Y016323D01*
X018884Y016378D01*
X018985Y016479D01*
X020179Y017673D01*
X021062Y017673D01*
X021078Y017633D01*
X021043Y017547D01*
X021043Y016920D01*
X021085Y016817D01*
X021164Y016738D01*
X021267Y016696D01*
X021633Y016696D01*
X020231Y015293D01*
X017596Y015293D01*
X017551Y015339D01*
X017375Y015411D01*
X017185Y015411D01*
X017009Y015339D01*
X016875Y015204D01*
X016802Y015028D01*
X016802Y014838D01*
X016875Y014663D01*
X017009Y014528D01*
X017185Y014455D01*
X017375Y014455D01*
X017551Y014528D01*
X017596Y014573D01*
X019911Y014573D01*
X019531Y014193D01*
X017596Y014193D01*
X017551Y014239D01*
X017375Y014311D01*
X017185Y014311D01*
X017009Y014239D01*
X016875Y014104D01*
X016811Y013951D01*
X015579Y015184D01*
X015430Y015333D01*
X015235Y015413D01*
X011500Y015413D01*
X011080Y015833D01*
X010885Y015913D01*
X010675Y015913D01*
X010480Y015833D01*
X010331Y015684D01*
X010250Y015489D01*
X010250Y015278D01*
X010331Y015083D01*
X010980Y014434D01*
X011175Y014353D01*
X014910Y014353D01*
X016100Y013164D01*
X016100Y011493D01*
X011634Y011493D01*
X011634Y011776D01*
X011786Y011776D01*
X011947Y011776D01*
X011993Y011788D01*
X012034Y011812D01*
X012068Y011846D01*
X012091Y011887D01*
X012104Y011932D01*
X012104Y012133D01*
X011786Y012133D01*
X011786Y011776D01*
X011786Y012133D01*
X011786Y012133D01*
X011786Y012133D01*
X012730Y012133D01*
X012104Y012133D02*
X012104Y012334D01*
X012091Y012380D01*
X012068Y012421D01*
X012034Y012455D01*
X011993Y012478D01*
X011947Y012490D01*
X011786Y012490D01*
X011786Y012133D01*
X012104Y012133D01*
X012104Y012153D02*
X016100Y012153D01*
X016100Y012311D02*
X012104Y012311D01*
X012008Y012470D02*
X016100Y012470D01*
X016100Y012628D02*
X007940Y012628D01*
X007940Y012470D02*
X010390Y012470D01*
X010325Y012404D02*
X010252Y012228D01*
X010252Y012038D01*
X010325Y011863D01*
X010459Y011728D01*
X010635Y011655D01*
X010825Y011655D01*
X010914Y011692D01*
X010914Y011218D01*
X010969Y011085D01*
X011125Y010929D01*
X011226Y010828D01*
X011358Y010773D01*
X016100Y010773D01*
X016100Y010443D01*
X015546Y010443D01*
X015501Y010489D01*
X015325Y010561D01*
X015135Y010561D01*
X014959Y010489D01*
X014914Y010443D01*
X014887Y010443D01*
X014832Y010498D01*
X014729Y010540D01*
X014342Y010540D01*
X014240Y010498D01*
X014182Y010440D01*
X014024Y010440D01*
X013863Y010440D01*
X013817Y010428D01*
X013776Y010405D01*
X013742Y010371D01*
X013719Y010330D01*
X013706Y010284D01*
X013706Y010083D01*
X013706Y009882D01*
X013719Y009837D01*
X013742Y009796D01*
X013776Y009762D01*
X013817Y009738D01*
X013863Y009726D01*
X014024Y009726D01*
X014024Y010083D01*
X014024Y010083D01*
X014024Y009726D01*
X014182Y009726D01*
X014240Y009669D01*
X014342Y009626D01*
X014729Y009626D01*
X014832Y009669D01*
X014887Y009723D01*
X014914Y009723D01*
X014959Y009678D01*
X015135Y009605D01*
X015325Y009605D01*
X015501Y009678D01*
X015546Y009723D01*
X016100Y009723D01*
X016100Y007988D01*
X009237Y007988D01*
X009258Y008038D01*
X009258Y008228D01*
X009185Y008404D01*
X009051Y008539D01*
X008875Y008611D01*
X008811Y008611D01*
X007940Y009482D01*
X007940Y013605D01*
X007885Y013737D01*
X007784Y013839D01*
X007667Y013955D01*
X007675Y013955D01*
X007851Y014028D01*
X007985Y014163D01*
X008058Y014338D01*
X008058Y014528D01*
X007985Y014704D01*
X007851Y014839D01*
X007675Y014911D01*
X007485Y014911D01*
X007309Y014839D01*
X007264Y014793D01*
X004737Y014793D01*
X005085Y015141D01*
X005085Y015725D01*
X004740Y016070D01*
X004740Y016715D01*
X004796Y016738D01*
X004875Y016817D01*
X004917Y016920D01*
X004917Y017547D01*
X004882Y017633D01*
X004898Y017673D01*
X005331Y017673D01*
X005520Y017484D01*
X005520Y016262D01*
X005575Y016129D01*
X005875Y015829D01*
X005976Y015728D01*
X006108Y015673D01*
X008264Y015673D01*
X008309Y015628D01*
X008485Y015555D01*
X008675Y015555D01*
X008851Y015628D01*
X008985Y015763D01*
X009058Y015938D01*
X009058Y016128D01*
X008985Y016304D01*
X008940Y016349D01*
X008940Y017255D01*
X008975Y017255D01*
X009151Y017328D01*
X009285Y017463D01*
X009358Y017638D01*
X009358Y017828D01*
X009285Y018004D01*
X009151Y018139D01*
X008975Y018211D01*
X008785Y018211D01*
X008609Y018139D01*
X008475Y018004D01*
X008402Y017828D01*
X008402Y017764D01*
X008275Y017637D01*
X008220Y017505D01*
X008220Y016820D01*
X008185Y016904D01*
X008051Y017039D01*
X007875Y017111D01*
X007685Y017111D01*
X007509Y017039D01*
X007464Y016993D01*
X007040Y016993D01*
X007040Y017505D01*
X006985Y017637D01*
X006884Y017739D01*
X006794Y017828D01*
X006972Y017828D01*
X007385Y018241D01*
X007385Y018825D01*
X006972Y019238D01*
X006585Y019238D01*
X006585Y019625D01*
X006172Y020038D01*
X005588Y020038D01*
X005175Y019625D01*
X005175Y019193D01*
X004898Y019193D01*
X004882Y019233D01*
X004917Y019320D01*
X004917Y019947D01*
X004875Y020049D01*
X004796Y020128D01*
X004740Y020151D01*
X004740Y021473D01*
X004852Y021473D01*
X004984Y021528D01*
X005085Y021629D01*
X006911Y023455D01*
X006975Y023455D01*
X007151Y023528D01*
X007285Y023663D01*
X007358Y023838D01*
X007358Y024028D01*
X007285Y024204D01*
X007151Y024339D01*
X006975Y024411D01*
X006785Y024411D01*
X006609Y024339D01*
X006475Y024204D01*
X006402Y024028D01*
X006402Y023964D01*
X005085Y022647D01*
X005085Y023125D01*
X004672Y023538D01*
X004088Y023538D01*
X003675Y023125D01*
X003675Y022541D01*
X004020Y022196D01*
X004020Y022193D01*
X002108Y022193D01*
X001976Y022139D01*
X001176Y021339D01*
X001075Y021237D01*
X001020Y021105D01*
X001020Y014362D01*
X001075Y014229D01*
X001475Y013829D01*
X001576Y013728D01*
X001708Y013673D01*
X006931Y013673D01*
X007220Y013384D01*
X007220Y009262D01*
X007275Y009129D01*
X008302Y008102D01*
X008302Y008038D01*
X008323Y007988D01*
X006735Y007988D01*
X006735Y008288D01*
X006225Y008288D01*
X006225Y008378D01*
X006735Y008378D01*
X006735Y008732D01*
X006723Y008778D01*
X006699Y008819D01*
X006666Y008852D01*
X006624Y008876D01*
X006579Y008888D01*
X006225Y008888D01*
X006225Y008378D01*
X006135Y008378D01*
X006135Y008288D01*
X005625Y008288D01*
X005625Y007935D01*
X005627Y007926D01*
X005568Y007867D01*
X005525Y007764D01*
X005525Y006903D01*
X005554Y006833D01*
X005525Y006764D01*
X005525Y005903D01*
X005568Y005800D01*
X005646Y005721D01*
X005749Y005678D01*
X008166Y005678D01*
X008150Y005639D01*
X008150Y004928D01*
X008193Y004825D01*
X008271Y004746D01*
X008319Y004726D01*
X008286Y004694D01*
X008262Y004653D01*
X008250Y004607D01*
X008250Y004303D01*
X008710Y004303D01*
X008710Y004263D01*
X008750Y004263D01*
X008750Y003803D01*
X009054Y003803D01*
X009099Y003816D01*
X009141Y003839D01*
X009173Y003872D01*
X009193Y003825D01*
X009271Y003746D01*
X009325Y003724D01*
X009325Y003553D01*
X009387Y003404D01*
X010237Y002554D01*
X010351Y002440D01*
X010499Y002378D01*
X019511Y002378D01*
X019659Y002440D01*
X020109Y002890D01*
X020223Y003004D01*
X020285Y003153D01*
X020285Y004362D01*
X020285Y004363D01*
X020330Y004469D01*
X020550Y004378D01*
X022710Y004378D01*
X022951Y004478D01*
X023251Y004778D01*
X023435Y004962D01*
X023535Y005203D01*
X023535Y008164D01*
X023435Y008404D01*
X023135Y008704D01*
X022951Y008889D01*
X022710Y008988D01*
X021249Y008988D01*
X021146Y008946D01*
X021068Y008867D01*
X021025Y008764D01*
X021025Y007988D01*
X020388Y007988D01*
X020484Y008028D01*
X020585Y008129D01*
X020585Y008129D01*
X020784Y008328D01*
X020885Y008429D01*
X020940Y008562D01*
X020940Y012384D01*
X022429Y013873D01*
X024052Y013873D01*
X024184Y013928D01*
X024285Y014029D01*
X025485Y015229D01*
X025540Y015362D01*
X025540Y019484D01*
X026085Y020029D01*
X026140Y020162D01*
X026140Y022105D01*
X026085Y022237D01*
X025984Y022339D01*
X024484Y023839D01*
X024352Y023893D01*
X018029Y023893D01*
X017958Y023964D01*
X017958Y024128D01*
X017885Y024304D01*
X017929Y024199D02*
X027670Y024199D01*
X027670Y024040D02*
X017958Y024040D01*
X017480Y024033D02*
X017480Y023933D01*
X017880Y023533D01*
X024280Y023533D01*
X025780Y022033D01*
X025780Y020233D01*
X025180Y019633D01*
X025180Y015433D01*
X023980Y014233D01*
X022280Y014233D01*
X020580Y012533D01*
X020580Y008633D01*
X020280Y008333D01*
X017280Y008333D01*
X017580Y009533D02*
X017580Y010133D01*
X021980Y014533D01*
X023880Y014533D01*
X024880Y015533D01*
X024880Y019733D01*
X025480Y020333D01*
X025480Y021933D01*
X024180Y023233D01*
X016080Y023233D01*
X015780Y023533D01*
X015780Y024033D01*
X015302Y024040D02*
X014558Y024040D01*
X014535Y023882D02*
X015325Y023882D01*
X015414Y023723D02*
X014599Y023723D01*
X014758Y023565D02*
X015420Y023565D01*
X015443Y023406D02*
X014916Y023406D01*
X014880Y022933D02*
X024080Y022933D01*
X025180Y021833D01*
X025180Y020433D01*
X024580Y019833D01*
X024580Y015633D01*
X023780Y014833D01*
X021680Y014833D01*
X017580Y010733D01*
X017280Y010733D01*
X017380Y010733D01*
X016630Y011033D02*
X016530Y011133D01*
X011430Y011133D01*
X011274Y011289D01*
X011274Y012133D01*
X010730Y012133D01*
X010286Y012311D02*
X007940Y012311D01*
X007940Y012153D02*
X010252Y012153D01*
X010270Y011994D02*
X007940Y011994D01*
X007940Y011836D02*
X010351Y011836D01*
X010581Y011677D02*
X007940Y011677D01*
X007940Y011519D02*
X010914Y011519D01*
X010914Y011677D02*
X010879Y011677D01*
X010914Y011360D02*
X007940Y011360D01*
X007940Y011202D02*
X010921Y011202D01*
X011011Y011043D02*
X007940Y011043D01*
X007940Y010885D02*
X011169Y010885D01*
X011634Y011519D02*
X016100Y011519D01*
X016100Y011677D02*
X011634Y011677D01*
X011786Y011836D02*
X011786Y011836D01*
X011786Y011994D02*
X011786Y011994D01*
X011786Y012133D02*
X011786Y012490D01*
X011628Y012490D01*
X011570Y012548D01*
X011468Y012590D01*
X011081Y012590D01*
X010978Y012548D01*
X010825Y012611D01*
X010635Y012611D01*
X010459Y012539D01*
X010325Y012404D01*
X011786Y012470D02*
X011786Y012470D01*
X011786Y012311D02*
X011786Y012311D01*
X011786Y012153D02*
X011786Y012153D01*
X011786Y012133D02*
X011786Y012133D01*
X012104Y011994D02*
X016100Y011994D01*
X016100Y011836D02*
X012058Y011836D01*
X013784Y010409D02*
X007940Y010409D01*
X007940Y010251D02*
X013706Y010251D01*
X013706Y010092D02*
X007940Y010092D01*
X007940Y009934D02*
X013706Y009934D01*
X013706Y010083D02*
X014024Y010083D01*
X014024Y010083D01*
X013230Y010083D01*
X013706Y010083D02*
X014024Y010083D01*
X014024Y010440D01*
X014024Y010083D01*
X014024Y010083D01*
X014024Y010092D02*
X014024Y010092D01*
X014024Y009934D02*
X014024Y009934D01*
X014024Y009775D02*
X014024Y009775D01*
X013763Y009775D02*
X007940Y009775D01*
X007940Y009617D02*
X015107Y009617D01*
X015353Y009617D02*
X016100Y009617D01*
X016100Y009458D02*
X007964Y009458D01*
X008123Y009300D02*
X016100Y009300D01*
X016100Y009141D02*
X008281Y009141D01*
X008440Y008983D02*
X016100Y008983D01*
X016100Y008824D02*
X008598Y008824D01*
X008757Y008666D02*
X016100Y008666D01*
X016100Y008507D02*
X009082Y008507D01*
X009208Y008349D02*
X016100Y008349D01*
X016100Y008190D02*
X009258Y008190D01*
X009255Y008032D02*
X016100Y008032D01*
X016530Y010083D02*
X015230Y010083D01*
X014536Y010083D01*
X014024Y010251D02*
X014024Y010251D01*
X014024Y010409D02*
X014024Y010409D01*
X016100Y010568D02*
X007940Y010568D01*
X007940Y010726D02*
X016100Y010726D01*
X016630Y010183D02*
X016530Y010083D01*
X017280Y012333D02*
X018680Y012333D01*
X021480Y015133D01*
X023680Y015133D01*
X024280Y015733D01*
X024280Y019933D01*
X024880Y020533D01*
X024880Y021733D01*
X023980Y022633D01*
X013280Y022633D01*
X012280Y023633D01*
X012280Y024033D01*
X011914Y023723D02*
X010846Y023723D01*
X010935Y023882D02*
X011825Y023882D01*
X011802Y024040D02*
X010958Y024040D01*
X010929Y024199D02*
X011831Y024199D01*
X011928Y024357D02*
X010832Y024357D01*
X010480Y024033D02*
X010480Y023533D01*
X011680Y022333D01*
X023880Y022333D01*
X024580Y021633D01*
X024580Y020633D01*
X023180Y019233D01*
X023180Y017333D01*
X019680Y013833D01*
X017280Y013833D01*
X016984Y014213D02*
X016550Y014213D01*
X016708Y014055D02*
X016854Y014055D01*
X016391Y014372D02*
X019709Y014372D01*
X019551Y014213D02*
X017576Y014213D01*
X017553Y014530D02*
X019868Y014530D01*
X020380Y014933D02*
X022880Y017433D01*
X022880Y019333D01*
X024280Y020733D01*
X024280Y021533D01*
X023780Y022033D01*
X010180Y022033D01*
X008680Y023533D01*
X008680Y024033D01*
X008202Y024040D02*
X007353Y024040D01*
X007358Y023882D02*
X008225Y023882D01*
X008314Y023723D02*
X007311Y023723D01*
X007188Y023565D02*
X008320Y023565D01*
X008343Y023406D02*
X006862Y023406D01*
X006704Y023248D02*
X008456Y023248D01*
X008615Y023089D02*
X006545Y023089D01*
X006387Y022931D02*
X008773Y022931D01*
X008932Y022772D02*
X006228Y022772D01*
X006070Y022614D02*
X009090Y022614D01*
X009249Y022455D02*
X005911Y022455D01*
X005753Y022297D02*
X009407Y022297D01*
X009566Y022138D02*
X005594Y022138D01*
X005436Y021980D02*
X009724Y021980D01*
X009883Y021821D02*
X005277Y021821D01*
X005119Y021663D02*
X022281Y021663D01*
X022210Y021504D02*
X004927Y021504D01*
X004740Y021346D02*
X022167Y021346D01*
X022150Y021187D02*
X004740Y021187D01*
X004740Y021029D02*
X022150Y021029D01*
X022181Y020870D02*
X004740Y020870D01*
X004740Y020712D02*
X022223Y020712D01*
X022310Y020553D02*
X004740Y020553D01*
X004740Y020395D02*
X021875Y020395D01*
X021843Y020236D02*
X004740Y020236D01*
X004846Y020078D02*
X021114Y020078D01*
X021043Y019919D02*
X006291Y019919D01*
X006449Y019761D02*
X021043Y019761D01*
X021043Y019602D02*
X006585Y019602D01*
X006585Y019444D02*
X021043Y019444D01*
X021057Y019285D02*
X006585Y019285D01*
X007083Y019127D02*
X019764Y019127D01*
X019606Y018968D02*
X007242Y018968D01*
X007385Y018810D02*
X012360Y018810D01*
X012174Y018651D02*
X007385Y018651D01*
X007385Y018493D02*
X012108Y018493D01*
X012102Y018334D02*
X007385Y018334D01*
X007320Y018176D02*
X008699Y018176D01*
X008488Y018017D02*
X007161Y018017D01*
X007003Y017859D02*
X008414Y017859D01*
X008338Y017700D02*
X006922Y017700D01*
X007025Y017542D02*
X008235Y017542D01*
X008220Y017383D02*
X007040Y017383D01*
X007040Y017225D02*
X008220Y017225D01*
X008220Y017066D02*
X007984Y017066D01*
X008182Y016908D02*
X008220Y016908D01*
X007780Y016633D02*
X006880Y016633D01*
X006680Y016833D01*
X006680Y017433D01*
X005280Y018833D01*
X004380Y018833D01*
X004903Y019285D02*
X005175Y019285D01*
X005175Y019444D02*
X004917Y019444D01*
X004917Y019602D02*
X005175Y019602D01*
X005311Y019761D02*
X004917Y019761D01*
X004917Y019919D02*
X005469Y019919D01*
X004380Y019633D02*
X004080Y019933D01*
X003280Y019933D01*
X001780Y018433D01*
X001780Y014733D01*
X002080Y014433D01*
X007580Y014433D01*
X007878Y014055D02*
X015209Y014055D01*
X015050Y014213D02*
X008006Y014213D01*
X008058Y014372D02*
X011130Y014372D01*
X010883Y014530D02*
X008057Y014530D01*
X007992Y014689D02*
X010725Y014689D01*
X010566Y014847D02*
X007830Y014847D01*
X007330Y014847D02*
X004791Y014847D01*
X004950Y015006D02*
X010408Y015006D01*
X010297Y015164D02*
X005085Y015164D01*
X005085Y015323D02*
X010250Y015323D01*
X010250Y015481D02*
X005085Y015481D01*
X005085Y015640D02*
X008297Y015640D01*
X008580Y016033D02*
X008580Y017433D01*
X008880Y017733D01*
X009318Y017542D02*
X012228Y017542D01*
X012220Y017700D02*
X009358Y017700D01*
X009346Y017859D02*
X012220Y017859D01*
X012220Y018017D02*
X009272Y018017D01*
X009061Y018176D02*
X012148Y018176D01*
X012580Y018383D02*
X012580Y017633D01*
X013230Y016983D01*
X018130Y016983D01*
X019980Y018833D01*
X021580Y018833D01*
X022280Y018810D02*
X022280Y018810D01*
X022280Y018871D02*
X022280Y018433D01*
X022280Y017633D01*
X022280Y018071D01*
X022280Y018433D01*
X022280Y018433D01*
X022280Y018433D01*
X022280Y019233D01*
X022280Y019233D01*
X022280Y018871D01*
X022280Y018968D02*
X022280Y018968D01*
X022280Y019127D02*
X022280Y019127D01*
X022280Y019233D02*
X022280Y019671D01*
X022280Y020033D01*
X022280Y019233D01*
X022280Y019233D01*
X022280Y019285D02*
X022280Y019285D01*
X022280Y019444D02*
X022280Y019444D01*
X022280Y019602D02*
X022280Y019602D01*
X022280Y019761D02*
X022280Y019761D01*
X022280Y019919D02*
X022280Y019919D01*
X022280Y020033D02*
X022280Y020033D01*
X022280Y020033D01*
X022717Y020033D01*
X022717Y019752D01*
X022705Y019706D01*
X022682Y019665D01*
X022650Y019633D01*
X022660Y019623D01*
X023060Y020022D01*
X022844Y020080D01*
X022717Y020153D01*
X022717Y020033D01*
X022280Y020033D01*
X022280Y020471D01*
X022280Y020033D01*
X022280Y020033D01*
X022280Y020078D02*
X022280Y020078D01*
X022280Y020236D02*
X022280Y020236D01*
X022280Y020395D02*
X022280Y020395D01*
X022717Y020078D02*
X022853Y020078D01*
X022957Y019919D02*
X022717Y019919D01*
X022717Y019761D02*
X022798Y019761D01*
X022280Y018651D02*
X022280Y018651D01*
X022280Y018493D02*
X022280Y018493D01*
X022280Y018334D02*
X022280Y018334D01*
X022280Y018176D02*
X022280Y018176D01*
X022280Y018017D02*
X022280Y018017D01*
X022280Y017859D02*
X022280Y017859D01*
X022280Y017700D02*
X022280Y017700D01*
X022280Y017633D02*
X022280Y017633D01*
X021580Y018033D02*
X020030Y018033D01*
X018680Y016683D01*
X012580Y016683D01*
X012380Y016883D01*
X011938Y017066D02*
X008940Y017066D01*
X008940Y016908D02*
X011902Y016908D01*
X011918Y016749D02*
X008940Y016749D01*
X008940Y016591D02*
X011996Y016591D01*
X012219Y016432D02*
X008940Y016432D01*
X008998Y016274D02*
X021211Y016274D01*
X021053Y016115D02*
X009058Y016115D01*
X009058Y015957D02*
X020894Y015957D01*
X020736Y015798D02*
X011115Y015798D01*
X011273Y015640D02*
X020577Y015640D01*
X020419Y015481D02*
X011432Y015481D01*
X010445Y015798D02*
X009000Y015798D01*
X008863Y015640D02*
X010313Y015640D01*
X008940Y017225D02*
X012045Y017225D01*
X012321Y017383D02*
X009206Y017383D01*
X008580Y016033D02*
X006180Y016033D01*
X005880Y016333D01*
X005880Y017633D01*
X005480Y018033D01*
X004380Y018033D01*
X003680Y018017D02*
X003680Y018017D01*
X003680Y017996D02*
X003680Y018433D01*
X003680Y018433D01*
X003680Y017633D01*
X003680Y017196D01*
X003680Y016833D01*
X003680Y016396D01*
X003961Y016396D01*
X004007Y016408D01*
X004020Y016416D01*
X004020Y016070D01*
X003810Y015860D01*
X003810Y015882D01*
X003733Y016169D01*
X003602Y016396D01*
X003680Y016396D01*
X003680Y016833D01*
X003680Y016833D01*
X003243Y016833D01*
X003243Y016713D01*
X003116Y016786D01*
X002829Y016863D01*
X002531Y016863D01*
X002244Y016786D01*
X002140Y016726D01*
X002140Y018284D01*
X003243Y019387D01*
X003243Y019233D01*
X003243Y018952D01*
X003255Y018906D01*
X003278Y018865D01*
X003310Y018833D01*
X003278Y018801D01*
X003255Y018760D01*
X003243Y018715D01*
X003243Y018433D01*
X003243Y018152D01*
X003255Y018106D01*
X003278Y018065D01*
X003310Y018033D01*
X003278Y018001D01*
X003255Y017960D01*
X003243Y017915D01*
X003243Y017633D01*
X003243Y017352D01*
X003255Y017306D01*
X003278Y017265D01*
X003310Y017233D01*
X003278Y017201D01*
X003255Y017160D01*
X003243Y017115D01*
X003243Y016833D01*
X003680Y016833D01*
X003680Y016833D01*
X003680Y017633D01*
X003680Y017633D01*
X003243Y017633D01*
X003680Y017633D01*
X003680Y017633D01*
X003680Y017633D01*
X003680Y017996D01*
X003680Y017859D02*
X003680Y017859D01*
X003680Y017700D02*
X003680Y017700D01*
X003680Y017542D02*
X003680Y017542D01*
X003680Y017383D02*
X003680Y017383D01*
X003680Y017225D02*
X003680Y017225D01*
X003680Y017066D02*
X003680Y017066D01*
X003680Y016908D02*
X003680Y016908D01*
X003680Y016833D02*
X003680Y016833D01*
X003680Y016749D02*
X003680Y016749D01*
X003680Y016591D02*
X003680Y016591D01*
X003680Y016432D02*
X003680Y016432D01*
X003673Y016274D02*
X004020Y016274D01*
X004020Y016115D02*
X003747Y016115D01*
X003790Y015957D02*
X003907Y015957D01*
X004380Y015433D02*
X004380Y017233D01*
X004917Y017225D02*
X005520Y017225D01*
X005520Y017383D02*
X004917Y017383D01*
X004917Y017542D02*
X005462Y017542D01*
X005520Y017066D02*
X004917Y017066D01*
X004912Y016908D02*
X005520Y016908D01*
X005520Y016749D02*
X004807Y016749D01*
X004740Y016591D02*
X005520Y016591D01*
X005520Y016432D02*
X004740Y016432D01*
X004740Y016274D02*
X005520Y016274D01*
X005589Y016115D02*
X004740Y016115D01*
X004853Y015957D02*
X005747Y015957D01*
X005875Y015829D02*
X005875Y015829D01*
X005906Y015798D02*
X005012Y015798D01*
X003243Y016749D02*
X003180Y016749D01*
X003243Y016908D02*
X002140Y016908D01*
X002140Y017066D02*
X003243Y017066D01*
X003302Y017225D02*
X002140Y017225D01*
X002140Y017383D02*
X003243Y017383D01*
X003243Y017542D02*
X002140Y017542D01*
X002140Y017700D02*
X003243Y017700D01*
X003243Y017859D02*
X002140Y017859D01*
X002140Y018017D02*
X003295Y018017D01*
X003243Y018176D02*
X002140Y018176D01*
X002190Y018334D02*
X003243Y018334D01*
X003243Y018433D02*
X003680Y018433D01*
X003680Y018433D01*
X003243Y018433D01*
X003243Y018493D02*
X002349Y018493D01*
X002507Y018651D02*
X003243Y018651D01*
X003287Y018810D02*
X002666Y018810D01*
X002824Y018968D02*
X003243Y018968D01*
X003243Y019127D02*
X002983Y019127D01*
X003141Y019285D02*
X003243Y019285D01*
X003243Y019233D02*
X003680Y019233D01*
X003680Y018796D01*
X003680Y018433D01*
X003680Y019233D01*
X003680Y019233D01*
X003243Y019233D01*
X003680Y019233D02*
X003680Y019233D01*
X003680Y019127D02*
X003680Y019127D01*
X003680Y018968D02*
X003680Y018968D01*
X003680Y018810D02*
X003680Y018810D01*
X003680Y018651D02*
X003680Y018651D01*
X003680Y018493D02*
X003680Y018493D01*
X003680Y018433D02*
X003680Y018433D01*
X003680Y018334D02*
X003680Y018334D01*
X003680Y018176D02*
X003680Y018176D01*
X004380Y019633D02*
X004380Y022833D01*
X003919Y022297D02*
X000660Y022297D01*
X000660Y022455D02*
X003761Y022455D01*
X003675Y022614D02*
X000660Y022614D01*
X000660Y022772D02*
X003675Y022772D01*
X003675Y022931D02*
X000660Y022931D01*
X000660Y023089D02*
X003675Y023089D01*
X003798Y023248D02*
X000660Y023248D01*
X000660Y023406D02*
X003956Y023406D01*
X004804Y023406D02*
X005844Y023406D01*
X005685Y023248D02*
X004962Y023248D01*
X005085Y023089D02*
X005527Y023089D01*
X005368Y022931D02*
X005085Y022931D01*
X005085Y022772D02*
X005210Y022772D01*
X006002Y023565D02*
X000660Y023565D01*
X000660Y023723D02*
X006161Y023723D01*
X006319Y023882D02*
X000660Y023882D01*
X000660Y024040D02*
X006407Y024040D01*
X006472Y024199D02*
X000660Y024199D01*
X000660Y024357D02*
X006654Y024357D01*
X007106Y024357D02*
X008328Y024357D01*
X008231Y024199D02*
X007288Y024199D01*
X006880Y023933D02*
X004780Y021833D01*
X002180Y021833D01*
X001380Y021033D01*
X001380Y014433D01*
X001780Y014033D01*
X007080Y014033D01*
X007580Y013533D01*
X007580Y009333D01*
X008780Y008133D01*
X008305Y008032D02*
X006735Y008032D01*
X006735Y008190D02*
X008214Y008190D01*
X008055Y008349D02*
X006225Y008349D01*
X006135Y008349D02*
X003863Y008349D01*
X003880Y008378D02*
X003960Y008678D01*
X003960Y008989D01*
X003880Y009289D01*
X003724Y009558D01*
X003505Y009778D01*
X003235Y009933D01*
X002935Y010013D01*
X002625Y010013D01*
X002325Y009933D01*
X002055Y009778D01*
X001836Y009558D01*
X001680Y009289D01*
X001600Y008989D01*
X001600Y008678D01*
X001680Y008378D01*
X001836Y008109D01*
X002055Y007889D01*
X002325Y007734D01*
X002625Y007653D01*
X002935Y007653D01*
X003235Y007734D01*
X003505Y007889D01*
X003724Y008109D01*
X003880Y008378D01*
X003914Y008507D02*
X005625Y008507D01*
X005625Y008378D02*
X005625Y008732D01*
X005637Y008778D01*
X005661Y008819D01*
X005694Y008852D01*
X005736Y008876D01*
X005781Y008888D01*
X006135Y008888D01*
X006135Y008378D01*
X005625Y008378D01*
X005625Y008190D02*
X003771Y008190D01*
X003647Y008032D02*
X005625Y008032D01*
X005574Y007873D02*
X003477Y007873D01*
X003165Y007715D02*
X005525Y007715D01*
X005525Y007556D02*
X000660Y007556D01*
X000660Y007398D02*
X005525Y007398D01*
X005525Y007239D02*
X000660Y007239D01*
X000660Y007081D02*
X005525Y007081D01*
X005525Y006922D02*
X003254Y006922D01*
X003235Y006933D02*
X002935Y007013D01*
X002625Y007013D01*
X002325Y006933D01*
X002055Y006778D01*
X001836Y006558D01*
X001680Y006289D01*
X001600Y005989D01*
X001600Y005678D01*
X001680Y005378D01*
X001836Y005109D01*
X002055Y004889D01*
X002325Y004734D01*
X002625Y004653D01*
X002935Y004653D01*
X003235Y004734D01*
X003505Y004889D01*
X003724Y005109D01*
X003880Y005378D01*
X003960Y005678D01*
X003960Y005989D01*
X003880Y006289D01*
X003724Y006558D01*
X003505Y006778D01*
X003235Y006933D01*
X003518Y006764D02*
X005525Y006764D01*
X005525Y006605D02*
X003677Y006605D01*
X003788Y006447D02*
X005525Y006447D01*
X005525Y006288D02*
X003880Y006288D01*
X003922Y006130D02*
X005525Y006130D01*
X005525Y005971D02*
X003960Y005971D01*
X003960Y005813D02*
X005562Y005813D01*
X003954Y005654D02*
X008156Y005654D01*
X008150Y005496D02*
X003911Y005496D01*
X003856Y005337D02*
X008150Y005337D01*
X008150Y005179D02*
X003765Y005179D01*
X003636Y005020D02*
X008150Y005020D01*
X008177Y004862D02*
X003457Y004862D01*
X003122Y004703D02*
X008295Y004703D01*
X008250Y004545D02*
X000660Y004545D01*
X000660Y004703D02*
X002438Y004703D01*
X002103Y004862D02*
X000660Y004862D01*
X000660Y005020D02*
X001924Y005020D01*
X001795Y005179D02*
X000660Y005179D01*
X000660Y005337D02*
X001704Y005337D01*
X001649Y005496D02*
X000660Y005496D01*
X000660Y005654D02*
X001606Y005654D01*
X001600Y005813D02*
X000660Y005813D01*
X000660Y005971D02*
X001600Y005971D01*
X001638Y006130D02*
X000660Y006130D01*
X000660Y006288D02*
X001680Y006288D01*
X001772Y006447D02*
X000660Y006447D01*
X000660Y006605D02*
X001883Y006605D01*
X002042Y006764D02*
X000660Y006764D01*
X000660Y006922D02*
X002306Y006922D01*
X002395Y007715D02*
X000660Y007715D01*
X000660Y007873D02*
X002083Y007873D01*
X001913Y008032D02*
X000660Y008032D01*
X000660Y008190D02*
X001789Y008190D01*
X001697Y008349D02*
X000660Y008349D01*
X000660Y008507D02*
X001646Y008507D01*
X001603Y008666D02*
X000660Y008666D01*
X000660Y008824D02*
X001600Y008824D01*
X001600Y008983D02*
X000660Y008983D01*
X000660Y009141D02*
X001641Y009141D01*
X001687Y009300D02*
X000660Y009300D01*
X000660Y009458D02*
X001778Y009458D01*
X001895Y009617D02*
X000660Y009617D01*
X000660Y009775D02*
X002053Y009775D01*
X002328Y009934D02*
X000660Y009934D01*
X000660Y010092D02*
X007220Y010092D01*
X007220Y009934D02*
X003232Y009934D01*
X003507Y009775D02*
X007220Y009775D01*
X007220Y009617D02*
X003665Y009617D01*
X003782Y009458D02*
X007220Y009458D01*
X007220Y009300D02*
X003873Y009300D01*
X003919Y009141D02*
X007270Y009141D01*
X007421Y008983D02*
X003960Y008983D01*
X003960Y008824D02*
X005666Y008824D01*
X005625Y008666D02*
X003957Y008666D01*
X006135Y008666D02*
X006225Y008666D01*
X006225Y008824D02*
X006135Y008824D01*
X006135Y008507D02*
X006225Y008507D01*
X006735Y008507D02*
X007897Y008507D01*
X007738Y008666D02*
X006735Y008666D01*
X006694Y008824D02*
X007580Y008824D01*
X007220Y010251D02*
X000660Y010251D01*
X000660Y010409D02*
X007220Y010409D01*
X007220Y010568D02*
X000660Y010568D01*
X000660Y010726D02*
X007220Y010726D01*
X007220Y010885D02*
X000660Y010885D01*
X000660Y011043D02*
X007220Y011043D01*
X007220Y011202D02*
X000660Y011202D01*
X000660Y011360D02*
X007220Y011360D01*
X007220Y011519D02*
X000660Y011519D01*
X000660Y011677D02*
X007220Y011677D01*
X007220Y011836D02*
X000660Y011836D01*
X000660Y011994D02*
X007220Y011994D01*
X007220Y012153D02*
X000660Y012153D01*
X000660Y012311D02*
X007220Y012311D01*
X007220Y012470D02*
X000660Y012470D01*
X000660Y012628D02*
X007220Y012628D01*
X007220Y012787D02*
X000660Y012787D01*
X000660Y012945D02*
X007220Y012945D01*
X007220Y013104D02*
X000660Y013104D01*
X000660Y013262D02*
X007220Y013262D01*
X007183Y013421D02*
X000660Y013421D01*
X000660Y013579D02*
X007025Y013579D01*
X007726Y013896D02*
X015367Y013896D01*
X015526Y013738D02*
X007885Y013738D01*
X007940Y013579D02*
X015684Y013579D01*
X015843Y013421D02*
X007940Y013421D01*
X007940Y013262D02*
X016001Y013262D01*
X016100Y013104D02*
X007940Y013104D01*
X007940Y012945D02*
X016100Y012945D01*
X016100Y012787D02*
X007940Y012787D01*
X007576Y017066D02*
X007040Y017066D01*
X002180Y016749D02*
X002140Y016749D01*
X001020Y016749D02*
X000660Y016749D01*
X000660Y016591D02*
X001020Y016591D01*
X001020Y016432D02*
X000660Y016432D01*
X000660Y016274D02*
X001020Y016274D01*
X001020Y016115D02*
X000660Y016115D01*
X000660Y015957D02*
X001020Y015957D01*
X001020Y015798D02*
X000660Y015798D01*
X000660Y015640D02*
X001020Y015640D01*
X001020Y015481D02*
X000660Y015481D01*
X000660Y015323D02*
X001020Y015323D01*
X001020Y015164D02*
X000660Y015164D01*
X000660Y015006D02*
X001020Y015006D01*
X001020Y014847D02*
X000660Y014847D01*
X000660Y014689D02*
X001020Y014689D01*
X001020Y014530D02*
X000660Y014530D01*
X000660Y014372D02*
X001020Y014372D01*
X001091Y014213D02*
X000660Y014213D01*
X000660Y014055D02*
X001249Y014055D01*
X001408Y013896D02*
X000660Y013896D01*
X000660Y013738D02*
X001566Y013738D01*
X001020Y016908D02*
X000660Y016908D01*
X000660Y017066D02*
X001020Y017066D01*
X001020Y017225D02*
X000660Y017225D01*
X000660Y017383D02*
X001020Y017383D01*
X001020Y017542D02*
X000660Y017542D01*
X000660Y017700D02*
X001020Y017700D01*
X001020Y017859D02*
X000660Y017859D01*
X000660Y018017D02*
X001020Y018017D01*
X001020Y018176D02*
X000660Y018176D01*
X000660Y018334D02*
X001020Y018334D01*
X001020Y018493D02*
X000660Y018493D01*
X000660Y018651D02*
X001020Y018651D01*
X001020Y018810D02*
X000660Y018810D01*
X000660Y018968D02*
X001020Y018968D01*
X001020Y019127D02*
X000660Y019127D01*
X000660Y019285D02*
X001020Y019285D01*
X001020Y019444D02*
X000660Y019444D01*
X000660Y019602D02*
X001020Y019602D01*
X001020Y019761D02*
X000660Y019761D01*
X000660Y019919D02*
X001020Y019919D01*
X001020Y020078D02*
X000660Y020078D01*
X000660Y020236D02*
X001020Y020236D01*
X001020Y020395D02*
X000660Y020395D01*
X000660Y020553D02*
X001020Y020553D01*
X001020Y020712D02*
X000660Y020712D01*
X000660Y020870D02*
X001020Y020870D01*
X001020Y021029D02*
X000660Y021029D01*
X000660Y021187D02*
X001054Y021187D01*
X001183Y021346D02*
X000660Y021346D01*
X000660Y021504D02*
X001342Y021504D01*
X001500Y021663D02*
X000660Y021663D01*
X000660Y021821D02*
X001659Y021821D01*
X001817Y021980D02*
X000660Y021980D01*
X000660Y022138D02*
X001976Y022138D01*
X009032Y024357D02*
X010128Y024357D01*
X010031Y024199D02*
X009129Y024199D01*
X009158Y024040D02*
X010002Y024040D01*
X010025Y023882D02*
X009135Y023882D01*
X009046Y023723D02*
X010114Y023723D01*
X010120Y023565D02*
X009158Y023565D01*
X009316Y023406D02*
X010143Y023406D01*
X010256Y023248D02*
X009475Y023248D01*
X009633Y023089D02*
X010415Y023089D01*
X010573Y022931D02*
X009792Y022931D01*
X009950Y022772D02*
X010732Y022772D01*
X010890Y022614D02*
X010109Y022614D01*
X010267Y022455D02*
X011049Y022455D01*
X011592Y022931D02*
X012473Y022931D01*
X012315Y023089D02*
X011433Y023089D01*
X011275Y023248D02*
X012156Y023248D01*
X011998Y023406D02*
X011116Y023406D01*
X010958Y023565D02*
X011920Y023565D01*
X012699Y023723D02*
X013714Y023723D01*
X013760Y023565D02*
X012858Y023565D01*
X013016Y023406D02*
X013898Y023406D01*
X014056Y023248D02*
X013175Y023248D01*
X013333Y023089D02*
X014215Y023089D01*
X014080Y023733D02*
X014880Y022933D01*
X014080Y023733D02*
X014080Y024033D01*
X013602Y024040D02*
X012758Y024040D01*
X012735Y023882D02*
X013625Y023882D01*
X013631Y024199D02*
X012729Y024199D01*
X012632Y024357D02*
X013728Y024357D01*
X014432Y024357D02*
X015428Y024357D01*
X015331Y024199D02*
X014529Y024199D01*
X016132Y024357D02*
X017128Y024357D01*
X017031Y024199D02*
X016229Y024199D01*
X016258Y024040D02*
X017002Y024040D01*
X017025Y023882D02*
X016235Y023882D01*
X016146Y023723D02*
X017114Y023723D01*
X012632Y022772D02*
X011750Y022772D01*
X012800Y018810D02*
X019447Y018810D01*
X019289Y018651D02*
X012986Y018651D01*
X013052Y018493D02*
X019130Y018493D01*
X018972Y018334D02*
X013058Y018334D01*
X013012Y018176D02*
X018813Y018176D01*
X018655Y018017D02*
X012940Y018017D01*
X012940Y017859D02*
X018496Y017859D01*
X018338Y017700D02*
X013022Y017700D01*
X013181Y017542D02*
X018179Y017542D01*
X018021Y017383D02*
X013339Y017383D01*
X015440Y015323D02*
X016993Y015323D01*
X016858Y015164D02*
X015599Y015164D01*
X015757Y015006D02*
X016802Y015006D01*
X016802Y014847D02*
X015916Y014847D01*
X016074Y014689D02*
X016864Y014689D01*
X017007Y014530D02*
X016233Y014530D01*
X017280Y014933D02*
X020380Y014933D01*
X020260Y015323D02*
X017567Y015323D01*
X018938Y016432D02*
X021370Y016432D01*
X021528Y016591D02*
X019097Y016591D01*
X019255Y016749D02*
X021153Y016749D01*
X021048Y016908D02*
X019414Y016908D01*
X019572Y017066D02*
X021043Y017066D01*
X021043Y017225D02*
X019731Y017225D01*
X019889Y017383D02*
X021043Y017383D01*
X021043Y017542D02*
X020048Y017542D01*
X022294Y013738D02*
X027670Y013738D01*
X027670Y013896D02*
X024107Y013896D01*
X024311Y014055D02*
X027670Y014055D01*
X027670Y014213D02*
X024469Y014213D01*
X024628Y014372D02*
X027670Y014372D01*
X027670Y014530D02*
X024786Y014530D01*
X024945Y014689D02*
X027670Y014689D01*
X027670Y014847D02*
X025103Y014847D01*
X025262Y015006D02*
X027670Y015006D01*
X027670Y015164D02*
X025420Y015164D01*
X025524Y015323D02*
X027670Y015323D01*
X027670Y015481D02*
X025540Y015481D01*
X025540Y015640D02*
X027670Y015640D01*
X027670Y015798D02*
X025540Y015798D01*
X025540Y015957D02*
X027670Y015957D01*
X027670Y016115D02*
X025540Y016115D01*
X025540Y016274D02*
X027670Y016274D01*
X027670Y016432D02*
X025540Y016432D01*
X025540Y016591D02*
X027670Y016591D01*
X027670Y016749D02*
X025540Y016749D01*
X025540Y016908D02*
X027670Y016908D01*
X027670Y017066D02*
X025540Y017066D01*
X025540Y017225D02*
X027670Y017225D01*
X027670Y017383D02*
X025540Y017383D01*
X025540Y017542D02*
X027670Y017542D01*
X027670Y017700D02*
X025540Y017700D01*
X025540Y017859D02*
X027670Y017859D01*
X027670Y018017D02*
X025540Y018017D01*
X025540Y018176D02*
X027670Y018176D01*
X027670Y018334D02*
X025540Y018334D01*
X025540Y018493D02*
X027670Y018493D01*
X027670Y018651D02*
X025540Y018651D01*
X025540Y018810D02*
X027670Y018810D01*
X027670Y018968D02*
X025540Y018968D01*
X025540Y019127D02*
X027670Y019127D01*
X027670Y019285D02*
X025540Y019285D01*
X025540Y019444D02*
X027670Y019444D01*
X027670Y019602D02*
X025658Y019602D01*
X025817Y019761D02*
X027670Y019761D01*
X027670Y019919D02*
X025975Y019919D01*
X026105Y020078D02*
X027670Y020078D01*
X027670Y020236D02*
X026140Y020236D01*
X026140Y020395D02*
X027670Y020395D01*
X027670Y020553D02*
X026140Y020553D01*
X026140Y020712D02*
X027670Y020712D01*
X027670Y020870D02*
X026140Y020870D01*
X026140Y021029D02*
X027670Y021029D01*
X027670Y021187D02*
X026140Y021187D01*
X026140Y021346D02*
X027670Y021346D01*
X027670Y021504D02*
X026140Y021504D01*
X026140Y021663D02*
X027670Y021663D01*
X027670Y021821D02*
X026140Y021821D01*
X026140Y021980D02*
X027670Y021980D01*
X027670Y022138D02*
X026126Y022138D01*
X026026Y022297D02*
X027670Y022297D01*
X027670Y022455D02*
X025867Y022455D01*
X025709Y022614D02*
X027670Y022614D01*
X027670Y022772D02*
X025550Y022772D01*
X025392Y022931D02*
X027670Y022931D01*
X027670Y023089D02*
X025233Y023089D01*
X025075Y023248D02*
X027670Y023248D01*
X027670Y023406D02*
X024916Y023406D01*
X024758Y023565D02*
X027670Y023565D01*
X027670Y023723D02*
X024599Y023723D01*
X024379Y023882D02*
X027670Y023882D01*
X027670Y013579D02*
X022135Y013579D01*
X021977Y013421D02*
X027670Y013421D01*
X027670Y013262D02*
X021818Y013262D01*
X021660Y013104D02*
X027670Y013104D01*
X027670Y012945D02*
X021501Y012945D01*
X021343Y012787D02*
X027670Y012787D01*
X027670Y012628D02*
X021184Y012628D01*
X021026Y012470D02*
X027670Y012470D01*
X027670Y012311D02*
X020940Y012311D01*
X020940Y012153D02*
X024843Y012153D01*
X024849Y012159D02*
X024715Y012024D01*
X024642Y011848D01*
X024642Y011658D01*
X024715Y011483D01*
X024849Y011348D01*
X025025Y011275D01*
X025215Y011275D01*
X025391Y011348D01*
X025525Y011483D01*
X025598Y011658D01*
X025598Y011848D01*
X025525Y012024D01*
X025391Y012159D01*
X025215Y012231D01*
X025025Y012231D01*
X024849Y012159D01*
X024702Y011994D02*
X020940Y011994D01*
X020940Y011836D02*
X024642Y011836D01*
X024642Y011677D02*
X020940Y011677D01*
X020940Y011519D02*
X024700Y011519D01*
X024837Y011360D02*
X020940Y011360D01*
X020940Y011202D02*
X027670Y011202D01*
X027670Y011360D02*
X025403Y011360D01*
X025540Y011519D02*
X027670Y011519D01*
X027670Y011677D02*
X025598Y011677D01*
X025598Y011836D02*
X027670Y011836D01*
X027670Y011994D02*
X025538Y011994D01*
X025397Y012153D02*
X027670Y012153D01*
X027670Y011043D02*
X020940Y011043D01*
X020940Y010885D02*
X027670Y010885D01*
X027670Y010726D02*
X020940Y010726D01*
X020940Y010568D02*
X027670Y010568D01*
X027670Y010409D02*
X020940Y010409D01*
X020940Y010251D02*
X027670Y010251D01*
X027670Y010092D02*
X020940Y010092D01*
X020940Y009934D02*
X024628Y009934D01*
X024625Y009933D02*
X024355Y009778D01*
X024136Y009558D01*
X023980Y009289D01*
X023900Y008989D01*
X023900Y008678D01*
X023980Y008378D01*
X024136Y008109D01*
X024355Y007889D01*
X024625Y007734D01*
X024925Y007653D01*
X025235Y007653D01*
X025535Y007734D01*
X025805Y007889D01*
X026024Y008109D01*
X026180Y008378D01*
X026260Y008678D01*
X026260Y008989D01*
X026180Y009289D01*
X026024Y009558D01*
X025805Y009778D01*
X025535Y009933D01*
X025235Y010013D01*
X024925Y010013D01*
X024625Y009933D01*
X024353Y009775D02*
X020940Y009775D01*
X020940Y009617D02*
X024195Y009617D01*
X024078Y009458D02*
X020940Y009458D01*
X020940Y009300D02*
X023987Y009300D01*
X023941Y009141D02*
X020940Y009141D01*
X020940Y008983D02*
X021236Y008983D01*
X021050Y008824D02*
X020940Y008824D01*
X020940Y008666D02*
X021025Y008666D01*
X021025Y008507D02*
X020917Y008507D01*
X021025Y008349D02*
X020805Y008349D01*
X020784Y008328D02*
X020784Y008328D01*
X020646Y008190D02*
X021025Y008190D01*
X021025Y008032D02*
X020488Y008032D01*
X020561Y006678D02*
X021125Y006678D01*
X021125Y006378D01*
X021635Y006378D01*
X021635Y006288D01*
X021725Y006288D01*
X021725Y005778D01*
X022079Y005778D01*
X022124Y005791D01*
X022166Y005814D01*
X022199Y005848D01*
X022223Y005889D01*
X022225Y005897D01*
X022225Y005688D01*
X020951Y005688D01*
X020835Y005805D01*
X020835Y006264D01*
X020735Y006504D01*
X020561Y006678D01*
X020634Y006605D02*
X021125Y006605D01*
X021125Y006447D02*
X020759Y006447D01*
X020825Y006288D02*
X021635Y006288D01*
X021635Y005778D01*
X021281Y005778D01*
X021236Y005791D01*
X021194Y005814D01*
X021161Y005848D01*
X021137Y005889D01*
X021125Y005935D01*
X021125Y006288D01*
X021635Y006288D01*
X021635Y006130D02*
X021725Y006130D01*
X021725Y005971D02*
X021635Y005971D01*
X021635Y005813D02*
X021725Y005813D01*
X021197Y005813D02*
X020835Y005813D01*
X020835Y005971D02*
X021125Y005971D01*
X021125Y006130D02*
X020835Y006130D01*
X022163Y005813D02*
X022225Y005813D01*
X023176Y004703D02*
X024738Y004703D01*
X024625Y004734D02*
X024925Y004653D01*
X025235Y004653D01*
X025535Y004734D01*
X025805Y004889D01*
X026024Y005109D01*
X026180Y005378D01*
X026260Y005678D01*
X026260Y005989D01*
X026180Y006289D01*
X026024Y006558D01*
X025805Y006778D01*
X025535Y006933D01*
X025235Y007013D01*
X024925Y007013D01*
X024625Y006933D01*
X024355Y006778D01*
X024136Y006558D01*
X023980Y006289D01*
X023900Y005989D01*
X023900Y005678D01*
X023980Y005378D01*
X024136Y005109D01*
X024355Y004889D01*
X024625Y004734D01*
X024403Y004862D02*
X023335Y004862D01*
X023459Y005020D02*
X024224Y005020D01*
X024095Y005179D02*
X023525Y005179D01*
X023535Y005337D02*
X024004Y005337D01*
X023949Y005496D02*
X023535Y005496D01*
X023535Y005654D02*
X023906Y005654D01*
X023900Y005813D02*
X023535Y005813D01*
X023535Y005971D02*
X023900Y005971D01*
X023938Y006130D02*
X023535Y006130D01*
X023535Y006288D02*
X023980Y006288D01*
X024072Y006447D02*
X023535Y006447D01*
X023535Y006605D02*
X024183Y006605D01*
X024342Y006764D02*
X023535Y006764D01*
X023535Y006922D02*
X024606Y006922D01*
X024695Y007715D02*
X023535Y007715D01*
X023535Y007873D02*
X024383Y007873D01*
X024213Y008032D02*
X023535Y008032D01*
X023524Y008190D02*
X024089Y008190D01*
X023997Y008349D02*
X023458Y008349D01*
X023332Y008507D02*
X023946Y008507D01*
X023903Y008666D02*
X023174Y008666D01*
X023015Y008824D02*
X023900Y008824D01*
X023900Y008983D02*
X022724Y008983D01*
X023535Y007556D02*
X027670Y007556D01*
X027670Y007398D02*
X023535Y007398D01*
X023535Y007239D02*
X027670Y007239D01*
X027670Y007081D02*
X023535Y007081D01*
X025554Y006922D02*
X027670Y006922D01*
X027670Y006764D02*
X025818Y006764D01*
X025977Y006605D02*
X027670Y006605D01*
X027670Y006447D02*
X026088Y006447D01*
X026180Y006288D02*
X027670Y006288D01*
X027670Y006130D02*
X026222Y006130D01*
X026260Y005971D02*
X027670Y005971D01*
X027670Y005813D02*
X026260Y005813D01*
X026254Y005654D02*
X027670Y005654D01*
X027670Y005496D02*
X026211Y005496D01*
X026156Y005337D02*
X027670Y005337D01*
X027670Y005179D02*
X026065Y005179D01*
X025936Y005020D02*
X027670Y005020D01*
X027670Y004862D02*
X025757Y004862D01*
X025422Y004703D02*
X027670Y004703D01*
X027670Y004545D02*
X023018Y004545D01*
X022730Y004386D02*
X027670Y004386D01*
X027670Y004228D02*
X020285Y004228D01*
X020285Y004069D02*
X027670Y004069D01*
X027670Y003911D02*
X020285Y003911D01*
X020285Y003752D02*
X027670Y003752D01*
X027670Y003594D02*
X020285Y003594D01*
X020285Y003435D02*
X027670Y003435D01*
X027670Y003277D02*
X020285Y003277D01*
X020271Y003118D02*
X027670Y003118D01*
X027670Y002960D02*
X020179Y002960D01*
X020021Y002801D02*
X027670Y002801D01*
X027670Y002643D02*
X019862Y002643D01*
X019704Y002484D02*
X027670Y002484D01*
X027670Y002326D02*
X000660Y002326D01*
X000660Y002484D02*
X010306Y002484D01*
X010148Y002643D02*
X000660Y002643D01*
X000660Y002801D02*
X009989Y002801D01*
X009831Y002960D02*
X000660Y002960D01*
X000660Y003118D02*
X009672Y003118D01*
X009514Y003277D02*
X000660Y003277D01*
X000660Y003435D02*
X009374Y003435D01*
X009325Y003594D02*
X000660Y003594D01*
X000660Y003752D02*
X009265Y003752D01*
X008750Y003911D02*
X008710Y003911D01*
X008710Y003803D02*
X008406Y003803D01*
X008361Y003816D01*
X008319Y003839D01*
X008286Y003873D01*
X008262Y003914D01*
X008250Y003960D01*
X008250Y004263D01*
X008710Y004263D01*
X008710Y003803D01*
X008710Y004069D02*
X008750Y004069D01*
X008750Y004228D02*
X008710Y004228D01*
X008250Y004228D02*
X000660Y004228D01*
X000660Y004386D02*
X008250Y004386D01*
X008250Y004069D02*
X000660Y004069D01*
X000660Y003911D02*
X008264Y003911D01*
X000660Y002167D02*
X027670Y002167D01*
X027670Y007715D02*
X025465Y007715D01*
X025777Y007873D02*
X027670Y007873D01*
X027670Y008032D02*
X025947Y008032D01*
X026071Y008190D02*
X027670Y008190D01*
X027670Y008349D02*
X026163Y008349D01*
X026214Y008507D02*
X027670Y008507D01*
X027670Y008666D02*
X026257Y008666D01*
X026260Y008824D02*
X027670Y008824D01*
X027670Y008983D02*
X026260Y008983D01*
X026219Y009141D02*
X027670Y009141D01*
X027670Y009300D02*
X026173Y009300D01*
X026082Y009458D02*
X027670Y009458D01*
X027670Y009617D02*
X025965Y009617D01*
X025807Y009775D02*
X027670Y009775D01*
X027670Y009934D02*
X025532Y009934D01*
X020530Y004386D02*
X020295Y004386D01*
D17*
X020680Y005033D02*
X022580Y005033D01*
X022880Y005333D01*
X022880Y008033D01*
X022580Y008333D01*
X021680Y008333D01*
X021680Y007333D02*
X016730Y007333D01*
X006180Y007333D01*
X006180Y006333D02*
X016680Y006333D01*
X016680Y004533D01*
X016430Y004283D01*
X015730Y004283D01*
X016680Y006333D02*
X019980Y006333D01*
X020180Y006133D01*
X020180Y005533D01*
X020680Y005033D01*
D18*
X016730Y007333D02*
X016630Y007433D01*
X016630Y010183D01*
X016630Y011033D01*
X016630Y013383D01*
X015130Y014883D01*
X013080Y014883D01*
X011280Y014883D01*
X010780Y015383D01*
D19*
X019880Y004633D02*
X019880Y003233D01*
X019430Y002783D01*
X010580Y002783D01*
X009730Y003633D01*
X009730Y004283D01*
X010730Y004283D02*
X010730Y004083D01*
X011630Y003183D01*
X019030Y003183D01*
X019330Y003483D01*
X019330Y004283D01*
X018780Y003833D02*
X018580Y003633D01*
X012080Y003633D01*
X011730Y003983D01*
X011730Y004283D01*
M02*
