G75*
%MOIN*%
%OFA0B0*%
%FSLAX24Y24*%
%IPPOS*%
%LPD*%
%AMOC8*
5,1,8,0,0,1.08239X$1,22.5*
%
%ADD10R,0.0515X0.0515*%
%ADD11R,0.0750X0.0750*%
%ADD12R,0.0472X0.0315*%
%ADD13OC8,0.0850*%
%ADD14R,0.0709X0.0236*%
%ADD15R,0.0236X0.0709*%
%ADD16R,0.0600X0.0600*%
%ADD17R,0.1496X0.0551*%
%ADD18R,0.0551X0.0472*%
%ADD19R,0.0709X0.1260*%
%ADD20R,0.1260X0.0709*%
%ADD21R,0.0315X0.0472*%
%ADD22C,0.0160*%
%ADD23C,0.0250*%
%ADD24C,0.0396*%
D10*
X003680Y016833D03*
X004380Y017233D03*
X003680Y017633D03*
X004380Y018033D03*
X003680Y018433D03*
X004380Y018833D03*
X003680Y019233D03*
X004380Y019633D03*
X021580Y019633D03*
X022280Y019233D03*
X021580Y018833D03*
X022280Y018433D03*
X021580Y018033D03*
X022280Y017633D03*
X021580Y017233D03*
X022280Y020033D03*
D11*
X021680Y008333D03*
X021680Y007333D03*
X021680Y006333D03*
X006180Y006333D03*
X006180Y007333D03*
X006180Y008333D03*
D12*
X005880Y010479D03*
X005880Y011188D03*
X004880Y011188D03*
X004880Y010479D03*
X003880Y010479D03*
X003880Y011188D03*
X009980Y016279D03*
X009980Y016988D03*
X009980Y017779D03*
X009980Y018488D03*
X015380Y017988D03*
X015380Y017279D03*
X015380Y016338D03*
X015380Y015629D03*
D13*
X006680Y018533D03*
X005880Y019333D03*
X004380Y022833D03*
X004380Y015433D03*
D14*
X011669Y015383D03*
X011669Y015883D03*
X011669Y016383D03*
X011669Y016883D03*
X011669Y017383D03*
X011669Y017883D03*
X011669Y018383D03*
X013891Y018383D03*
X013891Y017883D03*
X013891Y017383D03*
X013891Y016883D03*
X013891Y016383D03*
X013891Y015883D03*
X013891Y015383D03*
D15*
X013730Y012894D03*
X013230Y012894D03*
X012730Y012894D03*
X012230Y012894D03*
X011730Y012894D03*
X011230Y012894D03*
X010730Y012894D03*
X010230Y012894D03*
X010230Y009272D03*
X010730Y009272D03*
X011230Y009272D03*
X011730Y009272D03*
X012230Y009272D03*
X012730Y009272D03*
X013230Y009272D03*
X013730Y009272D03*
X014230Y009272D03*
X014730Y009272D03*
X015230Y009272D03*
X015730Y009272D03*
X015730Y012894D03*
X015230Y012894D03*
X014730Y012894D03*
X014230Y012894D03*
D16*
X013730Y005283D03*
X012730Y005283D03*
X012730Y004283D03*
X013730Y004283D03*
X014730Y004283D03*
X015730Y004283D03*
X015730Y005283D03*
X014730Y005283D03*
X011730Y005283D03*
X011730Y004283D03*
X010730Y004283D03*
X009730Y004283D03*
X008730Y004283D03*
X008730Y005283D03*
X009730Y005283D03*
X010730Y005283D03*
D17*
X022749Y012533D03*
X025111Y012533D03*
D18*
X017480Y023443D03*
X017480Y024624D03*
X015780Y024624D03*
X015780Y023443D03*
X014080Y023443D03*
X014080Y024624D03*
X012280Y024624D03*
X012280Y023443D03*
X010480Y023443D03*
X010480Y024624D03*
X008680Y024624D03*
X008680Y023443D03*
X006880Y023443D03*
X006880Y024624D03*
X002880Y011824D03*
X001780Y011824D03*
X001780Y010643D03*
X002880Y010643D03*
D19*
X003678Y013533D03*
X005882Y013533D03*
X011678Y007133D03*
X013882Y007133D03*
D20*
X014080Y020231D03*
X015780Y020231D03*
X017480Y020231D03*
X017480Y022436D03*
X015780Y022436D03*
X014080Y022436D03*
X012280Y022436D03*
X010480Y022436D03*
X008680Y022436D03*
X006880Y022436D03*
X006880Y020231D03*
X008680Y020231D03*
X010480Y020231D03*
X012280Y020231D03*
D21*
X006034Y012233D03*
X005326Y012233D03*
D22*
X000660Y002013D02*
X000660Y025533D01*
X027670Y025533D01*
X027670Y002013D01*
X000660Y002013D01*
X000660Y002167D02*
X027670Y002167D01*
X027670Y002326D02*
X000660Y002326D01*
X000660Y002484D02*
X013456Y002484D01*
X013501Y002440D02*
X013387Y002554D01*
X012387Y003554D01*
X012325Y003703D01*
X012325Y003724D01*
X012271Y003746D01*
X012230Y003787D01*
X012189Y003746D01*
X012086Y003703D01*
X011374Y003703D01*
X011271Y003746D01*
X011230Y003787D01*
X011189Y003746D01*
X011086Y003703D01*
X010374Y003703D01*
X010271Y003746D01*
X010230Y003787D01*
X010189Y003746D01*
X010086Y003703D01*
X009374Y003703D01*
X009271Y003746D01*
X009193Y003825D01*
X009173Y003872D01*
X009141Y003839D01*
X009099Y003816D01*
X009054Y003803D01*
X008750Y003803D01*
X008750Y004263D01*
X008710Y004263D01*
X008710Y003803D01*
X008406Y003803D01*
X008361Y003816D01*
X008319Y003839D01*
X008286Y003873D01*
X008262Y003914D01*
X008250Y003960D01*
X008250Y004263D01*
X008710Y004263D01*
X008710Y004303D01*
X008250Y004303D01*
X008250Y004607D01*
X008262Y004653D01*
X008286Y004694D01*
X008319Y004726D01*
X008271Y004746D01*
X008193Y004825D01*
X008150Y004928D01*
X008150Y005639D01*
X008193Y005742D01*
X008271Y005821D01*
X008325Y005843D01*
X008325Y007982D01*
X008302Y008038D01*
X008302Y008228D01*
X008375Y008404D01*
X008509Y008539D01*
X008685Y008611D01*
X008735Y008611D01*
X008799Y008638D01*
X009066Y008638D01*
X007675Y010029D01*
X007620Y010162D01*
X007620Y013884D01*
X007549Y013955D01*
X007485Y013955D01*
X007309Y014028D01*
X007175Y014163D01*
X007102Y014338D01*
X007102Y014528D01*
X007175Y014704D01*
X007309Y014839D01*
X007485Y014911D01*
X007493Y014911D01*
X007431Y014973D01*
X006208Y014973D01*
X006076Y015028D01*
X004408Y016696D01*
X004117Y016696D01*
X004117Y016552D01*
X004105Y016506D01*
X004082Y016465D01*
X004048Y016432D01*
X004007Y016408D01*
X003961Y016396D01*
X003680Y016396D01*
X003680Y016833D01*
X003680Y016833D01*
X003680Y016396D01*
X003602Y016396D01*
X003733Y016169D01*
X003810Y015882D01*
X003810Y015860D01*
X004088Y016138D01*
X004672Y016138D01*
X005085Y015725D01*
X005085Y015141D01*
X004672Y014728D01*
X004088Y014728D01*
X003675Y015141D01*
X003675Y015197D01*
X003584Y015039D01*
X003374Y014829D01*
X003116Y014680D01*
X002829Y014603D01*
X002531Y014603D01*
X002244Y014680D01*
X001986Y014829D01*
X001776Y015039D01*
X001627Y015297D01*
X001550Y015585D01*
X001550Y015882D01*
X001627Y016169D01*
X001776Y016427D01*
X001986Y016638D01*
X002244Y016786D01*
X002531Y016863D01*
X002829Y016863D01*
X003116Y016786D01*
X003243Y016713D01*
X003243Y016833D01*
X003680Y016833D01*
X003680Y016833D01*
X003243Y016833D01*
X003243Y017115D01*
X003255Y017160D01*
X003278Y017201D01*
X003310Y017233D01*
X003278Y017265D01*
X003255Y017306D01*
X003243Y017352D01*
X003243Y017633D01*
X003680Y017633D01*
X003680Y017196D01*
X003680Y016833D01*
X003680Y017633D01*
X003680Y017633D01*
X003680Y017633D01*
X003243Y017633D01*
X003243Y017915D01*
X003255Y017960D01*
X003278Y018001D01*
X003310Y018033D01*
X003278Y018065D01*
X003255Y018106D01*
X003243Y018152D01*
X003243Y018433D01*
X003680Y018433D01*
X003680Y017996D01*
X003680Y017633D01*
X003680Y018433D01*
X003680Y018433D01*
X003680Y018433D01*
X003243Y018433D01*
X003243Y018715D01*
X003255Y018760D01*
X003278Y018801D01*
X003310Y018833D01*
X003278Y018865D01*
X003255Y018906D01*
X003243Y018952D01*
X003243Y019233D01*
X003680Y019233D01*
X003680Y018796D01*
X003680Y018433D01*
X003680Y019233D01*
X003680Y019233D01*
X003680Y019233D01*
X003243Y019233D01*
X003243Y019515D01*
X003255Y019560D01*
X003278Y019601D01*
X003312Y019635D01*
X003353Y019659D01*
X003399Y019671D01*
X003680Y019671D01*
X003680Y019233D01*
X003680Y019233D01*
X003680Y019671D01*
X003843Y019671D01*
X003843Y019947D01*
X003885Y020049D01*
X003964Y020128D01*
X004067Y020171D01*
X004693Y020171D01*
X004796Y020128D01*
X004875Y020049D01*
X004917Y019947D01*
X004917Y019493D01*
X004931Y019493D01*
X005076Y019639D01*
X005208Y019693D01*
X005243Y019693D01*
X005588Y020038D01*
X005970Y020038D01*
X005970Y020641D01*
X006013Y020744D01*
X006091Y020823D01*
X006194Y020865D01*
X007566Y020865D01*
X007669Y020823D01*
X007747Y020744D01*
X007780Y020665D01*
X007813Y020744D01*
X007891Y020823D01*
X007994Y020865D01*
X009366Y020865D01*
X009469Y020823D01*
X009547Y020744D01*
X009580Y020665D01*
X009613Y020744D01*
X009691Y020823D01*
X009794Y020865D01*
X011166Y020865D01*
X011269Y020823D01*
X011347Y020744D01*
X011380Y020665D01*
X011413Y020744D01*
X011491Y020823D01*
X011594Y020865D01*
X012966Y020865D01*
X013069Y020823D01*
X013147Y020744D01*
X013180Y020665D01*
X013213Y020744D01*
X013291Y020823D01*
X013394Y020865D01*
X014766Y020865D01*
X014869Y020823D01*
X014930Y020761D01*
X014991Y020823D01*
X015094Y020865D01*
X016466Y020865D01*
X016569Y020823D01*
X016630Y020761D01*
X016691Y020823D01*
X016794Y020865D01*
X018166Y020865D01*
X018269Y020823D01*
X018347Y020744D01*
X018390Y020641D01*
X018390Y020636D01*
X019710Y020636D01*
X020775Y021701D01*
X020775Y024114D01*
X020837Y024263D01*
X021137Y024563D01*
X021251Y024677D01*
X021399Y024738D01*
X024761Y024738D01*
X024909Y024677D01*
X026609Y022977D01*
X026723Y022863D01*
X026785Y022714D01*
X026785Y008153D01*
X026723Y008004D01*
X025923Y007204D01*
X025809Y007090D01*
X025661Y007028D01*
X023399Y007028D01*
X023251Y007090D01*
X022412Y007928D01*
X022335Y007928D01*
X022335Y007903D01*
X022306Y007833D01*
X022335Y007764D01*
X022335Y006903D01*
X022292Y006800D01*
X022233Y006740D01*
X022235Y006732D01*
X022235Y006378D01*
X021725Y006378D01*
X021725Y006288D01*
X021725Y005778D01*
X022079Y005778D01*
X022124Y005791D01*
X022166Y005814D01*
X022199Y005848D01*
X022223Y005889D01*
X022235Y005935D01*
X022235Y006288D01*
X021725Y006288D01*
X021635Y006288D01*
X021635Y005778D01*
X021281Y005778D01*
X021236Y005791D01*
X021194Y005814D01*
X021161Y005848D01*
X021137Y005889D01*
X021125Y005935D01*
X021125Y006288D01*
X021635Y006288D01*
X021635Y006378D01*
X021125Y006378D01*
X021125Y006732D01*
X021127Y006740D01*
X021068Y006800D01*
X021025Y006903D01*
X021025Y007764D01*
X021054Y007833D01*
X021025Y007903D01*
X021025Y008764D01*
X021068Y008867D01*
X021146Y008946D01*
X021249Y008988D01*
X021762Y008988D01*
X022344Y009570D01*
X022344Y011978D01*
X021945Y011978D01*
X021842Y012020D01*
X021763Y012099D01*
X021721Y012202D01*
X021721Y012865D01*
X021763Y012968D01*
X021842Y013046D01*
X021945Y013089D01*
X023553Y013089D01*
X023656Y013046D01*
X023734Y012968D01*
X023777Y012865D01*
X023777Y012202D01*
X023734Y012099D01*
X023656Y012020D01*
X023553Y011978D01*
X023154Y011978D01*
X023154Y009322D01*
X023092Y009173D01*
X022658Y008738D01*
X022661Y008738D01*
X022809Y008677D01*
X022923Y008563D01*
X023648Y007838D01*
X024443Y007838D01*
X024355Y007889D01*
X024136Y008109D01*
X023980Y008378D01*
X023900Y008678D01*
X023900Y008989D01*
X023980Y009289D01*
X024136Y009558D01*
X024355Y009778D01*
X024625Y009933D01*
X024925Y010013D01*
X025235Y010013D01*
X025535Y009933D01*
X025805Y009778D01*
X025975Y009607D01*
X025975Y012119D01*
X025970Y012114D01*
X025929Y012090D01*
X025883Y012078D01*
X025472Y012078D01*
X025525Y012024D01*
X025598Y011848D01*
X025598Y011658D01*
X025525Y011483D01*
X025391Y011348D01*
X025215Y011275D01*
X025025Y011275D01*
X024849Y011348D01*
X024715Y011483D01*
X024642Y011658D01*
X024642Y011848D01*
X024715Y012024D01*
X024768Y012078D01*
X024339Y012078D01*
X024294Y012090D01*
X024253Y012114D01*
X024219Y012147D01*
X024195Y012188D01*
X024183Y012234D01*
X024183Y012476D01*
X025053Y012476D01*
X025053Y012591D01*
X024183Y012591D01*
X024183Y012833D01*
X024195Y012878D01*
X024219Y012919D01*
X024253Y012953D01*
X024294Y012977D01*
X024339Y012989D01*
X025053Y012989D01*
X025053Y012591D01*
X025169Y012591D01*
X025169Y012989D01*
X025883Y012989D01*
X025929Y012977D01*
X025970Y012953D01*
X025975Y012948D01*
X025975Y022466D01*
X024512Y023928D01*
X021648Y023928D01*
X021585Y023866D01*
X021585Y021453D01*
X021523Y021304D01*
X021409Y021190D01*
X020213Y019993D01*
X021062Y019993D01*
X021085Y020049D01*
X021164Y020128D01*
X021267Y020171D01*
X021843Y020171D01*
X021843Y020315D01*
X021855Y020360D01*
X021878Y020401D01*
X021912Y020435D01*
X021953Y020459D01*
X021999Y020471D01*
X022280Y020471D01*
X022280Y020033D01*
X022280Y019671D01*
X022280Y019233D01*
X022280Y018433D01*
X022280Y017633D01*
X022280Y017196D01*
X022561Y017196D01*
X022607Y017208D01*
X022648Y017232D01*
X022682Y017265D01*
X022705Y017306D01*
X022717Y017352D01*
X022717Y017633D01*
X022280Y017633D01*
X022280Y017633D01*
X022280Y017196D01*
X022117Y017196D01*
X022117Y016920D01*
X022075Y016817D01*
X021996Y016738D01*
X021893Y016696D01*
X021552Y016696D01*
X020888Y016032D01*
X020756Y015978D01*
X015821Y015978D01*
X015854Y015945D01*
X015896Y015842D01*
X015896Y015416D01*
X015864Y015338D01*
X017009Y015338D01*
X017009Y015339D01*
X017185Y015411D01*
X017375Y015411D01*
X017551Y015339D01*
X017685Y015204D01*
X017758Y015028D01*
X017758Y015028D01*
X020223Y012563D01*
X020285Y012414D01*
X020285Y004904D01*
X020285Y004904D01*
X020358Y004728D01*
X020358Y004538D01*
X020285Y004363D01*
X020151Y004228D01*
X019975Y004155D01*
X019794Y004155D01*
X019735Y004013D01*
X019601Y003878D01*
X019425Y003805D01*
X019258Y003805D01*
X019258Y003738D01*
X019185Y003563D01*
X019051Y003428D01*
X018875Y003355D01*
X018685Y003355D01*
X018642Y003373D01*
X018559Y003290D01*
X017709Y002440D01*
X017561Y002378D01*
X013649Y002378D01*
X013501Y002440D01*
X013298Y002643D02*
X000660Y002643D01*
X000660Y002801D02*
X013139Y002801D01*
X012981Y002960D02*
X000660Y002960D01*
X000660Y003118D02*
X012822Y003118D01*
X012664Y003277D02*
X000660Y003277D01*
X000660Y003435D02*
X012505Y003435D01*
X012370Y003594D02*
X000660Y003594D01*
X000660Y003752D02*
X009265Y003752D01*
X008750Y003911D02*
X008710Y003911D01*
X008710Y004069D02*
X008750Y004069D01*
X008750Y004228D02*
X008710Y004228D01*
X008250Y004228D02*
X000660Y004228D01*
X000660Y004386D02*
X008250Y004386D01*
X008250Y004545D02*
X000660Y004545D01*
X000660Y004703D02*
X002438Y004703D01*
X002325Y004734D02*
X002625Y004653D01*
X002935Y004653D01*
X003235Y004734D01*
X003505Y004889D01*
X003724Y005109D01*
X003880Y005378D01*
X003960Y005678D01*
X003960Y005989D01*
X003880Y006289D01*
X003724Y006558D01*
X003505Y006778D01*
X003235Y006933D01*
X002935Y007013D01*
X002625Y007013D01*
X002325Y006933D01*
X002055Y006778D01*
X001836Y006558D01*
X001680Y006289D01*
X001600Y005989D01*
X001600Y005678D01*
X001680Y005378D01*
X001836Y005109D01*
X002055Y004889D01*
X002325Y004734D01*
X002103Y004862D02*
X000660Y004862D01*
X000660Y005020D02*
X001924Y005020D01*
X001795Y005179D02*
X000660Y005179D01*
X000660Y005337D02*
X001704Y005337D01*
X001649Y005496D02*
X000660Y005496D01*
X000660Y005654D02*
X001606Y005654D01*
X001600Y005813D02*
X000660Y005813D01*
X000660Y005971D02*
X001600Y005971D01*
X001638Y006130D02*
X000660Y006130D01*
X000660Y006288D02*
X001680Y006288D01*
X001772Y006447D02*
X000660Y006447D01*
X000660Y006605D02*
X001883Y006605D01*
X002042Y006764D02*
X000660Y006764D01*
X000660Y006922D02*
X002306Y006922D01*
X002625Y007653D02*
X002935Y007653D01*
X003235Y007734D01*
X003505Y007889D01*
X003724Y008109D01*
X003880Y008378D01*
X003960Y008678D01*
X003960Y008989D01*
X003880Y009289D01*
X003724Y009558D01*
X003505Y009778D01*
X003235Y009933D01*
X002935Y010013D01*
X002625Y010013D01*
X002325Y009933D01*
X002055Y009778D01*
X001836Y009558D01*
X001680Y009289D01*
X001600Y008989D01*
X001600Y008678D01*
X001680Y008378D01*
X001836Y008109D01*
X002055Y007889D01*
X002325Y007734D01*
X002625Y007653D01*
X002395Y007715D02*
X000660Y007715D01*
X000660Y007873D02*
X002083Y007873D01*
X001913Y008032D02*
X000660Y008032D01*
X000660Y008190D02*
X001789Y008190D01*
X001697Y008349D02*
X000660Y008349D01*
X000660Y008507D02*
X001646Y008507D01*
X001603Y008666D02*
X000660Y008666D01*
X000660Y008824D02*
X001600Y008824D01*
X001600Y008983D02*
X000660Y008983D01*
X000660Y009141D02*
X001641Y009141D01*
X001687Y009300D02*
X000660Y009300D01*
X000660Y009458D02*
X001778Y009458D01*
X001895Y009617D02*
X000660Y009617D01*
X000660Y009775D02*
X002053Y009775D01*
X002328Y009934D02*
X000660Y009934D01*
X000660Y010092D02*
X003477Y010092D01*
X003485Y010084D02*
X003588Y010042D01*
X004172Y010042D01*
X004250Y010074D01*
X004475Y010074D01*
X004475Y007753D01*
X004537Y007604D01*
X004651Y007490D01*
X005151Y006990D01*
X005299Y006928D01*
X005525Y006928D01*
X005525Y006903D01*
X005554Y006833D01*
X005525Y006764D01*
X005525Y005903D01*
X005568Y005800D01*
X005646Y005721D01*
X005749Y005678D01*
X006611Y005678D01*
X006714Y005721D01*
X006792Y005800D01*
X006835Y005903D01*
X006835Y005973D01*
X007052Y005973D01*
X007184Y006028D01*
X007285Y006129D01*
X007485Y006329D01*
X007540Y006462D01*
X007540Y013405D01*
X007485Y013537D01*
X007384Y013639D01*
X007384Y013639D01*
X007184Y013839D01*
X007052Y013893D01*
X006517Y013893D01*
X006517Y014219D01*
X006474Y014322D01*
X006395Y014401D01*
X006292Y014443D01*
X005472Y014443D01*
X005369Y014401D01*
X005291Y014322D01*
X005248Y014219D01*
X005248Y012848D01*
X005289Y012750D01*
X005112Y012750D01*
X005010Y012707D01*
X004931Y012628D01*
X004916Y012593D01*
X004608Y012593D01*
X004476Y012539D01*
X004131Y012193D01*
X003403Y012193D01*
X003393Y012219D01*
X003314Y012297D01*
X003211Y012340D01*
X002549Y012340D01*
X002446Y012297D01*
X002367Y012219D01*
X002330Y012129D01*
X002293Y012219D01*
X002214Y012297D01*
X002140Y012328D01*
X002140Y012884D01*
X002429Y013173D01*
X003043Y013173D01*
X003043Y012848D01*
X003086Y012745D01*
X003165Y012666D01*
X003268Y012623D01*
X004088Y012623D01*
X004191Y012666D01*
X004269Y012745D01*
X004312Y012848D01*
X004312Y014219D01*
X004269Y014322D01*
X004191Y014401D01*
X004088Y014443D01*
X003268Y014443D01*
X003165Y014401D01*
X003086Y014322D01*
X003043Y014219D01*
X003043Y013893D01*
X002208Y013893D01*
X002076Y013839D01*
X001576Y013339D01*
X001475Y013237D01*
X001420Y013105D01*
X001420Y012328D01*
X001346Y012297D01*
X001267Y012219D01*
X001224Y012116D01*
X001224Y011532D01*
X001267Y011429D01*
X001346Y011350D01*
X001449Y011308D01*
X002111Y011308D01*
X002214Y011350D01*
X002293Y011429D01*
X002330Y011518D01*
X002367Y011429D01*
X002446Y011350D01*
X002549Y011308D01*
X003211Y011308D01*
X003314Y011350D01*
X003393Y011429D01*
X003411Y011473D01*
X003517Y011473D01*
X003500Y011456D01*
X003476Y011415D01*
X003464Y011369D01*
X003464Y011188D01*
X003880Y011188D01*
X003880Y011188D01*
X004296Y011188D01*
X004296Y011369D01*
X004284Y011415D01*
X004260Y011456D01*
X004243Y011473D01*
X004352Y011473D01*
X004484Y011528D01*
X004585Y011629D01*
X004829Y011873D01*
X004916Y011873D01*
X004931Y011839D01*
X005010Y011760D01*
X005112Y011717D01*
X005539Y011717D01*
X005642Y011760D01*
X005680Y011798D01*
X005718Y011760D01*
X005821Y011717D01*
X006248Y011717D01*
X006350Y011760D01*
X006397Y011807D01*
X006420Y011784D01*
X006420Y010793D01*
X006354Y010793D01*
X006354Y010795D01*
X006275Y010874D01*
X006232Y010892D01*
X006260Y010920D01*
X006284Y010961D01*
X006296Y011006D01*
X006296Y011188D01*
X006296Y011369D01*
X006284Y011415D01*
X006260Y011456D01*
X006227Y011489D01*
X006186Y011513D01*
X006140Y011525D01*
X005880Y011525D01*
X005620Y011525D01*
X005574Y011513D01*
X005533Y011489D01*
X005500Y011456D01*
X005476Y011415D01*
X005464Y011369D01*
X005464Y011188D01*
X005880Y011188D01*
X005880Y011525D01*
X005880Y011188D01*
X005880Y011188D01*
X005880Y011188D01*
X006296Y011188D01*
X005880Y011188D01*
X005880Y011188D01*
X005464Y011188D01*
X005464Y011006D01*
X005476Y010961D01*
X005500Y010920D01*
X005528Y010892D01*
X005510Y010884D01*
X005250Y010884D01*
X005232Y010892D01*
X005260Y010920D01*
X005284Y010961D01*
X005296Y011006D01*
X005296Y011188D01*
X005296Y011369D01*
X005284Y011415D01*
X005260Y011456D01*
X005227Y011489D01*
X005186Y011513D01*
X005140Y011525D01*
X004880Y011525D01*
X004620Y011525D01*
X004574Y011513D01*
X004533Y011489D01*
X004500Y011456D01*
X004476Y011415D01*
X004464Y011369D01*
X004464Y011188D01*
X004880Y011188D01*
X004880Y011525D01*
X004880Y011188D01*
X004880Y011188D01*
X004880Y011188D01*
X005296Y011188D01*
X004880Y011188D01*
X004880Y011188D01*
X004464Y011188D01*
X004464Y011006D01*
X004476Y010961D01*
X004500Y010920D01*
X004528Y010892D01*
X004510Y010884D01*
X004250Y010884D01*
X004232Y010892D01*
X004260Y010920D01*
X004284Y010961D01*
X004296Y011006D01*
X004296Y011188D01*
X003880Y011188D01*
X003880Y011188D01*
X003464Y011188D01*
X003464Y011006D01*
X003476Y010961D01*
X003500Y010920D01*
X003528Y010892D01*
X003485Y010874D01*
X003406Y010795D01*
X003364Y010692D01*
X003364Y010266D01*
X003406Y010163D01*
X003485Y010084D01*
X003370Y010251D02*
X003246Y010251D01*
X003266Y010263D02*
X003300Y010296D01*
X003323Y010337D01*
X003336Y010383D01*
X003336Y010605D01*
X002918Y010605D01*
X002918Y010681D01*
X002842Y010681D01*
X002842Y011059D01*
X002581Y011059D01*
X002535Y011047D01*
X002494Y011023D01*
X002460Y010990D01*
X002437Y010948D01*
X002424Y010903D01*
X002424Y010681D01*
X002842Y010681D01*
X002842Y010605D01*
X002424Y010605D01*
X002424Y010383D01*
X002437Y010337D01*
X002460Y010296D01*
X002494Y010263D01*
X002535Y010239D01*
X002581Y010227D01*
X002842Y010227D01*
X002842Y010605D01*
X002918Y010605D01*
X002918Y010227D01*
X003179Y010227D01*
X003225Y010239D01*
X003266Y010263D01*
X003336Y010409D02*
X003364Y010409D01*
X003364Y010568D02*
X003336Y010568D01*
X003336Y010681D02*
X002918Y010681D01*
X002918Y011059D01*
X003179Y011059D01*
X003225Y011047D01*
X003266Y011023D01*
X003300Y010990D01*
X003323Y010948D01*
X003336Y010903D01*
X003336Y010681D01*
X003336Y010726D02*
X003378Y010726D01*
X003336Y010885D02*
X003512Y010885D01*
X003464Y011043D02*
X003231Y011043D01*
X003464Y011202D02*
X000660Y011202D01*
X000660Y011360D02*
X001336Y011360D01*
X001230Y011519D02*
X000660Y011519D01*
X000660Y011677D02*
X001224Y011677D01*
X001224Y011836D02*
X000660Y011836D01*
X000660Y011994D02*
X001224Y011994D01*
X001240Y012153D02*
X000660Y012153D01*
X000660Y012311D02*
X001379Y012311D01*
X001420Y012470D02*
X000660Y012470D01*
X000660Y012628D02*
X001420Y012628D01*
X001420Y012787D02*
X000660Y012787D01*
X000660Y012945D02*
X001420Y012945D01*
X001420Y013104D02*
X000660Y013104D01*
X000660Y013262D02*
X001500Y013262D01*
X001658Y013421D02*
X000660Y013421D01*
X000660Y013579D02*
X001817Y013579D01*
X001975Y013738D02*
X000660Y013738D01*
X000660Y013896D02*
X003043Y013896D01*
X003043Y014055D02*
X000660Y014055D01*
X000660Y014213D02*
X003043Y014213D01*
X003136Y014372D02*
X000660Y014372D01*
X000660Y014530D02*
X007103Y014530D01*
X007102Y014372D02*
X006424Y014372D01*
X006517Y014213D02*
X007154Y014213D01*
X007282Y014055D02*
X006517Y014055D01*
X006517Y013896D02*
X007608Y013896D01*
X007620Y013738D02*
X007285Y013738D01*
X007443Y013579D02*
X007620Y013579D01*
X007620Y013421D02*
X007533Y013421D01*
X007540Y013262D02*
X007620Y013262D01*
X007620Y013104D02*
X007540Y013104D01*
X007540Y012945D02*
X007620Y012945D01*
X007620Y012787D02*
X007540Y012787D01*
X007540Y012628D02*
X007620Y012628D01*
X007620Y012470D02*
X007540Y012470D01*
X007540Y012311D02*
X007620Y012311D01*
X007620Y012153D02*
X007540Y012153D01*
X007540Y011994D02*
X007620Y011994D01*
X007620Y011836D02*
X007540Y011836D01*
X007540Y011677D02*
X007620Y011677D01*
X007620Y011519D02*
X007540Y011519D01*
X007540Y011360D02*
X007620Y011360D01*
X007620Y011202D02*
X007540Y011202D01*
X007540Y011043D02*
X007620Y011043D01*
X007620Y010885D02*
X007540Y010885D01*
X007540Y010726D02*
X007620Y010726D01*
X007620Y010568D02*
X007540Y010568D01*
X007540Y010409D02*
X007620Y010409D01*
X007620Y010251D02*
X007540Y010251D01*
X007540Y010092D02*
X007649Y010092D01*
X007540Y009934D02*
X007770Y009934D01*
X007929Y009775D02*
X007540Y009775D01*
X007540Y009617D02*
X008087Y009617D01*
X008246Y009458D02*
X007540Y009458D01*
X007540Y009300D02*
X008404Y009300D01*
X008563Y009141D02*
X007540Y009141D01*
X007540Y008983D02*
X008721Y008983D01*
X008880Y008824D02*
X007540Y008824D01*
X007540Y008666D02*
X009038Y008666D01*
X008478Y008507D02*
X007540Y008507D01*
X007540Y008349D02*
X008352Y008349D01*
X008302Y008190D02*
X007540Y008190D01*
X007540Y008032D02*
X008305Y008032D01*
X008325Y007873D02*
X007540Y007873D01*
X007540Y007715D02*
X008325Y007715D01*
X008325Y007556D02*
X007540Y007556D01*
X007540Y007398D02*
X008325Y007398D01*
X008325Y007239D02*
X007540Y007239D01*
X007540Y007081D02*
X008325Y007081D01*
X008325Y006922D02*
X007540Y006922D01*
X007540Y006764D02*
X008325Y006764D01*
X008325Y006605D02*
X007540Y006605D01*
X007534Y006447D02*
X008325Y006447D01*
X008325Y006288D02*
X007444Y006288D01*
X007286Y006130D02*
X008325Y006130D01*
X008325Y005971D02*
X006835Y005971D01*
X006798Y005813D02*
X008264Y005813D01*
X008156Y005654D02*
X003954Y005654D01*
X003960Y005813D02*
X005562Y005813D01*
X005525Y005971D02*
X003960Y005971D01*
X003922Y006130D02*
X005525Y006130D01*
X005525Y006288D02*
X003880Y006288D01*
X003788Y006447D02*
X005525Y006447D01*
X005525Y006605D02*
X003677Y006605D01*
X003518Y006764D02*
X005525Y006764D01*
X005525Y006922D02*
X003254Y006922D01*
X003165Y007715D02*
X004491Y007715D01*
X004475Y007873D02*
X003477Y007873D01*
X003647Y008032D02*
X004475Y008032D01*
X004475Y008190D02*
X003771Y008190D01*
X003863Y008349D02*
X004475Y008349D01*
X004475Y008507D02*
X003914Y008507D01*
X003957Y008666D02*
X004475Y008666D01*
X004475Y008824D02*
X003960Y008824D01*
X003960Y008983D02*
X004475Y008983D01*
X004475Y009141D02*
X003919Y009141D01*
X003873Y009300D02*
X004475Y009300D01*
X004475Y009458D02*
X003782Y009458D01*
X003665Y009617D02*
X004475Y009617D01*
X004475Y009775D02*
X003507Y009775D01*
X003232Y009934D02*
X004475Y009934D01*
X005285Y009934D02*
X006820Y009934D01*
X006820Y010092D02*
X006698Y010092D01*
X006652Y010073D02*
X006784Y010128D01*
X006820Y010164D01*
X006820Y007800D01*
X006792Y007867D01*
X006733Y007926D01*
X006735Y007935D01*
X006735Y008288D01*
X006225Y008288D01*
X006225Y008378D01*
X006735Y008378D01*
X006735Y008732D01*
X006723Y008778D01*
X006699Y008819D01*
X006666Y008852D01*
X006624Y008876D01*
X006579Y008888D01*
X006225Y008888D01*
X006225Y008378D01*
X006135Y008378D01*
X006135Y008288D01*
X005625Y008288D01*
X005625Y007935D01*
X005627Y007926D01*
X005568Y007867D01*
X005525Y007764D01*
X005525Y007761D01*
X005285Y008001D01*
X005285Y010074D01*
X005510Y010074D01*
X005588Y010042D01*
X006172Y010042D01*
X006249Y010073D01*
X006652Y010073D01*
X006820Y009775D02*
X005285Y009775D01*
X005285Y009617D02*
X006820Y009617D01*
X006820Y009458D02*
X005285Y009458D01*
X005285Y009300D02*
X006820Y009300D01*
X006820Y009141D02*
X005285Y009141D01*
X005285Y008983D02*
X006820Y008983D01*
X006820Y008824D02*
X006694Y008824D01*
X006735Y008666D02*
X006820Y008666D01*
X006820Y008507D02*
X006735Y008507D01*
X006820Y008349D02*
X006225Y008349D01*
X006135Y008349D02*
X005285Y008349D01*
X005285Y008507D02*
X005625Y008507D01*
X005625Y008378D02*
X005625Y008732D01*
X005637Y008778D01*
X005661Y008819D01*
X005694Y008852D01*
X005736Y008876D01*
X005781Y008888D01*
X006135Y008888D01*
X006135Y008378D01*
X005625Y008378D01*
X005625Y008190D02*
X005285Y008190D01*
X005285Y008032D02*
X005625Y008032D01*
X005574Y007873D02*
X005413Y007873D01*
X004901Y007239D02*
X000660Y007239D01*
X000660Y007081D02*
X005060Y007081D01*
X004743Y007398D02*
X000660Y007398D01*
X000660Y007556D02*
X004584Y007556D01*
X004651Y007490D02*
X004651Y007490D01*
X005285Y008666D02*
X005625Y008666D01*
X005666Y008824D02*
X005285Y008824D01*
X006135Y008824D02*
X006225Y008824D01*
X006225Y008666D02*
X006135Y008666D01*
X006135Y008507D02*
X006225Y008507D01*
X006735Y008190D02*
X006820Y008190D01*
X006820Y008032D02*
X006735Y008032D01*
X006786Y007873D02*
X006820Y007873D01*
X007180Y006533D02*
X006980Y006333D01*
X006180Y006333D01*
X007180Y006533D02*
X007180Y013333D01*
X006980Y013533D01*
X005882Y013533D01*
X005248Y013579D02*
X004312Y013579D01*
X004312Y013421D02*
X005248Y013421D01*
X005248Y013262D02*
X004312Y013262D01*
X004312Y013104D02*
X005248Y013104D01*
X005248Y012945D02*
X004312Y012945D01*
X004287Y012787D02*
X005273Y012787D01*
X004931Y012628D02*
X004100Y012628D01*
X004407Y012470D02*
X002140Y012470D01*
X002140Y012628D02*
X003256Y012628D01*
X003069Y012787D02*
X002140Y012787D01*
X002201Y012945D02*
X003043Y012945D01*
X003043Y013104D02*
X002360Y013104D01*
X002280Y013533D02*
X001780Y013033D01*
X001780Y011824D01*
X002181Y012311D02*
X002479Y012311D01*
X002340Y012153D02*
X002320Y012153D01*
X002880Y011824D02*
X002889Y011833D01*
X004280Y011833D01*
X004680Y012233D01*
X005326Y012233D01*
X004933Y011836D02*
X004792Y011836D01*
X004633Y011677D02*
X006420Y011677D01*
X006420Y011519D02*
X006163Y011519D01*
X006296Y011360D02*
X006420Y011360D01*
X006420Y011202D02*
X006296Y011202D01*
X006296Y011043D02*
X006420Y011043D01*
X006420Y010885D02*
X006248Y010885D01*
X005926Y010433D02*
X006580Y010433D01*
X006780Y010633D01*
X006780Y011933D01*
X006480Y012233D01*
X006034Y012233D01*
X005880Y011519D02*
X005880Y011519D01*
X005880Y011360D02*
X005880Y011360D01*
X005880Y011202D02*
X005880Y011202D01*
X005464Y011202D02*
X005296Y011202D01*
X005296Y011360D02*
X005464Y011360D01*
X005597Y011519D02*
X005163Y011519D01*
X004880Y011519D02*
X004880Y011519D01*
X004880Y011360D02*
X004880Y011360D01*
X004880Y011202D02*
X004880Y011202D01*
X005296Y011043D02*
X005464Y011043D01*
X005512Y010885D02*
X005248Y010885D01*
X005880Y010479D02*
X005926Y010433D01*
X004597Y011519D02*
X004461Y011519D01*
X004464Y011360D02*
X004296Y011360D01*
X004296Y011202D02*
X004464Y011202D01*
X004464Y011043D02*
X004296Y011043D01*
X004248Y010885D02*
X004512Y010885D01*
X003464Y011360D02*
X003324Y011360D01*
X002918Y011043D02*
X002842Y011043D01*
X002880Y011033D02*
X002880Y010643D01*
X002842Y010568D02*
X002918Y010568D01*
X002918Y010726D02*
X002842Y010726D01*
X002842Y010885D02*
X002918Y010885D01*
X002918Y010409D02*
X002842Y010409D01*
X002842Y010251D02*
X002918Y010251D01*
X002514Y010251D02*
X002146Y010251D01*
X002166Y010263D02*
X002200Y010296D01*
X002223Y010337D01*
X002236Y010383D01*
X002236Y010605D01*
X001818Y010605D01*
X001818Y010681D01*
X001742Y010681D01*
X001742Y011059D01*
X001481Y011059D01*
X001435Y011047D01*
X001394Y011023D01*
X001360Y010990D01*
X001337Y010948D01*
X001324Y010903D01*
X001324Y010681D01*
X001742Y010681D01*
X001742Y010605D01*
X001324Y010605D01*
X001324Y010383D01*
X001337Y010337D01*
X001360Y010296D01*
X001394Y010263D01*
X001435Y010239D01*
X001481Y010227D01*
X001742Y010227D01*
X001742Y010605D01*
X001818Y010605D01*
X001818Y010227D01*
X002079Y010227D01*
X002125Y010239D01*
X002166Y010263D01*
X002236Y010409D02*
X002424Y010409D01*
X002424Y010568D02*
X002236Y010568D01*
X002236Y010681D02*
X001818Y010681D01*
X001818Y011059D01*
X002079Y011059D01*
X002125Y011047D01*
X002166Y011023D01*
X002200Y010990D01*
X002223Y010948D01*
X002236Y010903D01*
X002236Y010681D01*
X002236Y010726D02*
X002424Y010726D01*
X002424Y010885D02*
X002236Y010885D01*
X002131Y011043D02*
X002529Y011043D01*
X002436Y011360D02*
X002224Y011360D01*
X001818Y011043D02*
X001742Y011043D01*
X001742Y010885D02*
X001818Y010885D01*
X001818Y010726D02*
X001742Y010726D01*
X001780Y010643D02*
X001871Y010643D01*
X001880Y010633D01*
X001818Y010568D02*
X001742Y010568D01*
X001742Y010409D02*
X001818Y010409D01*
X001818Y010251D02*
X001742Y010251D01*
X001414Y010251D02*
X000660Y010251D01*
X000660Y010409D02*
X001324Y010409D01*
X001324Y010568D02*
X000660Y010568D01*
X000660Y010726D02*
X001324Y010726D01*
X001324Y010885D02*
X000660Y010885D01*
X000660Y011043D02*
X001429Y011043D01*
X003281Y012311D02*
X004249Y012311D01*
X003678Y013533D02*
X002280Y013533D01*
X002229Y014689D02*
X000660Y014689D01*
X000660Y014847D02*
X001968Y014847D01*
X001809Y015006D02*
X000660Y015006D01*
X000660Y015164D02*
X001704Y015164D01*
X001620Y015323D02*
X000660Y015323D01*
X000660Y015481D02*
X001578Y015481D01*
X001550Y015640D02*
X000660Y015640D01*
X000660Y015798D02*
X001550Y015798D01*
X001570Y015957D02*
X000660Y015957D01*
X000660Y016115D02*
X001613Y016115D01*
X001687Y016274D02*
X000660Y016274D01*
X000660Y016432D02*
X001781Y016432D01*
X001939Y016591D02*
X000660Y016591D01*
X000660Y016749D02*
X002180Y016749D01*
X003180Y016749D02*
X003243Y016749D01*
X003243Y016908D02*
X000660Y016908D01*
X000660Y017066D02*
X003243Y017066D01*
X003302Y017225D02*
X000660Y017225D01*
X000660Y017383D02*
X003243Y017383D01*
X003243Y017542D02*
X000660Y017542D01*
X000660Y017700D02*
X003243Y017700D01*
X003243Y017859D02*
X000660Y017859D01*
X000660Y018017D02*
X003295Y018017D01*
X003243Y018176D02*
X000660Y018176D01*
X000660Y018334D02*
X003243Y018334D01*
X003243Y018493D02*
X000660Y018493D01*
X000660Y018651D02*
X003243Y018651D01*
X003287Y018810D02*
X000660Y018810D01*
X000660Y018968D02*
X003243Y018968D01*
X003243Y019127D02*
X000660Y019127D01*
X000660Y019285D02*
X003243Y019285D01*
X003243Y019444D02*
X000660Y019444D01*
X000660Y019602D02*
X003280Y019602D01*
X003256Y019761D02*
X003843Y019761D01*
X003843Y019919D02*
X003464Y019919D01*
X003374Y019829D02*
X003116Y019680D01*
X002829Y019603D01*
X002531Y019603D01*
X002244Y019680D01*
X001986Y019829D01*
X001776Y020039D01*
X001627Y020297D01*
X001550Y020585D01*
X001550Y020882D01*
X001627Y021169D01*
X001776Y021427D01*
X001986Y021638D01*
X002244Y021786D01*
X002531Y021863D01*
X002829Y021863D01*
X003116Y021786D01*
X003374Y021638D01*
X003584Y021427D01*
X003733Y021169D01*
X003810Y020882D01*
X003810Y020585D01*
X003733Y020297D01*
X003584Y020039D01*
X003374Y019829D01*
X003606Y020078D02*
X003914Y020078D01*
X003698Y020236D02*
X005970Y020236D01*
X005970Y020078D02*
X004846Y020078D01*
X004917Y019919D02*
X005469Y019919D01*
X005311Y019761D02*
X004917Y019761D01*
X004917Y019602D02*
X005040Y019602D01*
X005280Y019333D02*
X005080Y019133D01*
X004680Y019133D01*
X004380Y018833D01*
X004580Y018233D02*
X004380Y018033D01*
X004580Y018233D02*
X005580Y018233D01*
X005880Y018533D01*
X006680Y018533D01*
X007161Y018017D02*
X007455Y018017D01*
X007320Y018176D02*
X007613Y018176D01*
X007772Y018334D02*
X007385Y018334D01*
X007385Y018241D02*
X007385Y018825D01*
X006972Y019238D01*
X006585Y019238D01*
X006585Y019597D01*
X007566Y019597D01*
X007669Y019639D01*
X007747Y019718D01*
X007780Y019797D01*
X007813Y019718D01*
X007891Y019639D01*
X007994Y019597D01*
X009366Y019597D01*
X009469Y019639D01*
X009547Y019718D01*
X009580Y019797D01*
X009613Y019718D01*
X009691Y019639D01*
X009794Y019597D01*
X011166Y019597D01*
X011269Y019639D01*
X011347Y019718D01*
X011380Y019797D01*
X011413Y019718D01*
X011491Y019639D01*
X011594Y019597D01*
X012966Y019597D01*
X013069Y019639D01*
X013147Y019718D01*
X013180Y019797D01*
X013213Y019718D01*
X013291Y019639D01*
X013394Y019597D01*
X014766Y019597D01*
X014869Y019639D01*
X014930Y019701D01*
X014991Y019639D01*
X015094Y019597D01*
X016466Y019597D01*
X016569Y019639D01*
X016630Y019701D01*
X016691Y019639D01*
X016794Y019597D01*
X018166Y019597D01*
X018269Y019639D01*
X018347Y019718D01*
X018390Y019821D01*
X018390Y019826D01*
X019064Y019826D01*
X017585Y018348D01*
X015810Y018348D01*
X015775Y018383D01*
X015672Y018425D01*
X015088Y018425D01*
X015011Y018393D01*
X014708Y018393D01*
X014576Y018339D01*
X014481Y018243D01*
X014425Y018243D01*
X014425Y018383D01*
X013891Y018383D01*
X013891Y018383D01*
X013891Y018872D01*
X013880Y018883D01*
X013891Y018681D02*
X013513Y018681D01*
X013467Y018669D01*
X013440Y018653D01*
X013440Y018955D01*
X013385Y019087D01*
X012984Y019489D01*
X012852Y019543D01*
X009058Y019543D01*
X008926Y019489D01*
X008825Y019387D01*
X007031Y017593D01*
X004898Y017593D01*
X004882Y017633D01*
X004917Y017720D01*
X004917Y017873D01*
X005652Y017873D01*
X005784Y017928D01*
X005885Y018029D01*
X006029Y018173D01*
X006043Y018173D01*
X006388Y017828D01*
X006972Y017828D01*
X007385Y018241D01*
X007385Y018493D02*
X007930Y018493D01*
X008089Y018651D02*
X007385Y018651D01*
X007385Y018810D02*
X008247Y018810D01*
X008406Y018968D02*
X007242Y018968D01*
X007083Y019127D02*
X008564Y019127D01*
X008723Y019285D02*
X006585Y019285D01*
X006585Y019444D02*
X008881Y019444D01*
X009130Y019183D02*
X012780Y019183D01*
X013080Y018883D01*
X013080Y017633D01*
X013330Y017383D01*
X013891Y017383D01*
X014530Y017383D01*
X014680Y017233D01*
X015334Y017233D01*
X015380Y017279D01*
X015380Y017988D02*
X017734Y017988D01*
X019380Y019633D01*
X021580Y019633D01*
X021114Y020078D02*
X020297Y020078D01*
X020456Y020236D02*
X021843Y020236D01*
X021875Y020395D02*
X020614Y020395D01*
X020773Y020553D02*
X022310Y020553D01*
X022280Y020471D02*
X022280Y020033D01*
X022280Y019233D01*
X022280Y019233D01*
X022280Y018871D01*
X022280Y018433D01*
X022280Y018433D01*
X022280Y018071D01*
X022280Y017633D01*
X022280Y017633D01*
X022717Y017633D01*
X022717Y017915D01*
X022705Y017960D01*
X022682Y018001D01*
X022650Y018033D01*
X022682Y018065D01*
X022705Y018106D01*
X022717Y018152D01*
X022717Y018433D01*
X022280Y018433D01*
X022280Y018433D01*
X022717Y018433D01*
X022717Y018715D01*
X022705Y018760D01*
X022682Y018801D01*
X022650Y018833D01*
X022682Y018865D01*
X022705Y018906D01*
X022717Y018952D01*
X022717Y019233D01*
X022280Y019233D01*
X022280Y019233D01*
X022717Y019233D01*
X022717Y019515D01*
X022705Y019560D01*
X022682Y019601D01*
X022650Y019633D01*
X022682Y019665D01*
X022705Y019706D01*
X022717Y019752D01*
X022717Y020033D01*
X022280Y020033D01*
X022280Y020033D01*
X022280Y020033D01*
X022717Y020033D01*
X022717Y020153D01*
X022844Y020080D01*
X023131Y020003D01*
X023429Y020003D01*
X023716Y020080D01*
X023974Y020229D01*
X024184Y020439D01*
X024333Y020697D01*
X024410Y020985D01*
X024410Y021282D01*
X024333Y021569D01*
X024184Y021827D01*
X023974Y022038D01*
X023716Y022186D01*
X023429Y022263D01*
X023131Y022263D01*
X022844Y022186D01*
X022586Y022038D01*
X022376Y021827D01*
X022227Y021569D01*
X022150Y021282D01*
X022150Y020985D01*
X022227Y020697D01*
X022358Y020471D01*
X022280Y020471D01*
X022280Y020395D02*
X022280Y020395D01*
X022280Y020236D02*
X022280Y020236D01*
X022280Y020078D02*
X022280Y020078D01*
X022280Y020033D02*
X022280Y020033D01*
X022280Y019919D02*
X022280Y019919D01*
X022280Y019761D02*
X022280Y019761D01*
X022280Y019602D02*
X022280Y019602D01*
X022280Y019444D02*
X022280Y019444D01*
X022280Y019285D02*
X022280Y019285D01*
X022280Y019233D02*
X022280Y019233D01*
X022280Y019127D02*
X022280Y019127D01*
X022280Y018968D02*
X022280Y018968D01*
X022280Y018810D02*
X022280Y018810D01*
X022280Y018651D02*
X022280Y018651D01*
X022280Y018493D02*
X022280Y018493D01*
X022280Y018433D02*
X022280Y018433D01*
X022280Y018334D02*
X022280Y018334D01*
X022280Y018176D02*
X022280Y018176D01*
X022280Y018017D02*
X022280Y018017D01*
X022280Y017859D02*
X022280Y017859D01*
X022280Y017700D02*
X022280Y017700D01*
X022280Y017633D02*
X022280Y017633D01*
X022280Y017542D02*
X022280Y017542D01*
X022280Y017383D02*
X022280Y017383D01*
X022280Y017225D02*
X022280Y017225D01*
X022117Y017066D02*
X022636Y017066D01*
X022586Y017038D02*
X022844Y017186D01*
X023131Y017263D01*
X023429Y017263D01*
X023716Y017186D01*
X023974Y017038D01*
X024184Y016827D01*
X024333Y016569D01*
X024410Y016282D01*
X024410Y015985D01*
X024333Y015697D01*
X024184Y015439D01*
X023974Y015229D01*
X023716Y015080D01*
X023429Y015003D01*
X023131Y015003D01*
X022844Y015080D01*
X022586Y015229D01*
X022376Y015439D01*
X022227Y015697D01*
X022150Y015985D01*
X022150Y016282D01*
X022227Y016569D01*
X022376Y016827D01*
X022586Y017038D01*
X022456Y016908D02*
X022112Y016908D01*
X022007Y016749D02*
X022331Y016749D01*
X022239Y016591D02*
X021447Y016591D01*
X021288Y016432D02*
X022190Y016432D01*
X022150Y016274D02*
X021130Y016274D01*
X020971Y016115D02*
X022150Y016115D01*
X022157Y015957D02*
X015842Y015957D01*
X015896Y015798D02*
X022200Y015798D01*
X022260Y015640D02*
X015896Y015640D01*
X015896Y015481D02*
X022352Y015481D01*
X022492Y015323D02*
X017567Y015323D01*
X017702Y015164D02*
X022698Y015164D01*
X023122Y015006D02*
X017780Y015006D01*
X017939Y014847D02*
X025975Y014847D01*
X025975Y014689D02*
X018097Y014689D01*
X018256Y014530D02*
X025975Y014530D01*
X025975Y014372D02*
X018414Y014372D01*
X018573Y014213D02*
X025975Y014213D01*
X025975Y014055D02*
X018731Y014055D01*
X018890Y013896D02*
X025975Y013896D01*
X025975Y013738D02*
X019048Y013738D01*
X019207Y013579D02*
X025975Y013579D01*
X025975Y013421D02*
X019365Y013421D01*
X019524Y013262D02*
X025975Y013262D01*
X025975Y013104D02*
X019682Y013104D01*
X019841Y012945D02*
X021754Y012945D01*
X021721Y012787D02*
X019999Y012787D01*
X020158Y012628D02*
X021721Y012628D01*
X021721Y012470D02*
X020262Y012470D01*
X020285Y012311D02*
X021721Y012311D01*
X021741Y012153D02*
X020285Y012153D01*
X020285Y011994D02*
X021905Y011994D01*
X022344Y011836D02*
X020285Y011836D01*
X020285Y011677D02*
X022344Y011677D01*
X022344Y011519D02*
X020285Y011519D01*
X020285Y011360D02*
X022344Y011360D01*
X022344Y011202D02*
X020285Y011202D01*
X020285Y011043D02*
X022344Y011043D01*
X022344Y010885D02*
X020285Y010885D01*
X020285Y010726D02*
X022344Y010726D01*
X022344Y010568D02*
X020285Y010568D01*
X020285Y010409D02*
X022344Y010409D01*
X022344Y010251D02*
X020285Y010251D01*
X020285Y010092D02*
X022344Y010092D01*
X022344Y009934D02*
X020285Y009934D01*
X020285Y009775D02*
X022344Y009775D01*
X022344Y009617D02*
X020285Y009617D01*
X020285Y009458D02*
X022232Y009458D01*
X022074Y009300D02*
X020285Y009300D01*
X020285Y009141D02*
X021915Y009141D01*
X021236Y008983D02*
X020285Y008983D01*
X020285Y008824D02*
X021050Y008824D01*
X021025Y008666D02*
X020285Y008666D01*
X020285Y008507D02*
X021025Y008507D01*
X021025Y008349D02*
X020285Y008349D01*
X020285Y008190D02*
X021025Y008190D01*
X021025Y008032D02*
X020285Y008032D01*
X020285Y007873D02*
X021037Y007873D01*
X021025Y007715D02*
X020285Y007715D01*
X020285Y007556D02*
X021025Y007556D01*
X021025Y007398D02*
X020285Y007398D01*
X020285Y007239D02*
X021025Y007239D01*
X021025Y007081D02*
X020285Y007081D01*
X020285Y006922D02*
X021025Y006922D01*
X021104Y006764D02*
X020285Y006764D01*
X020285Y006605D02*
X021125Y006605D01*
X021125Y006447D02*
X020285Y006447D01*
X020285Y006288D02*
X021635Y006288D01*
X021725Y006288D02*
X023980Y006288D01*
X023980Y006289D02*
X023900Y005989D01*
X023900Y005678D01*
X023980Y005378D01*
X024136Y005109D01*
X024355Y004889D01*
X024625Y004734D01*
X024925Y004653D01*
X025235Y004653D01*
X025535Y004734D01*
X025805Y004889D01*
X026024Y005109D01*
X026180Y005378D01*
X026260Y005678D01*
X026260Y005989D01*
X026180Y006289D01*
X026024Y006558D01*
X025805Y006778D01*
X025535Y006933D01*
X025235Y007013D01*
X024925Y007013D01*
X024625Y006933D01*
X024355Y006778D01*
X024136Y006558D01*
X023980Y006289D01*
X023938Y006130D02*
X022235Y006130D01*
X022235Y005971D02*
X023900Y005971D01*
X023900Y005813D02*
X022163Y005813D01*
X021725Y005813D02*
X021635Y005813D01*
X021635Y005971D02*
X021725Y005971D01*
X021725Y006130D02*
X021635Y006130D01*
X021197Y005813D02*
X020285Y005813D01*
X020285Y005971D02*
X021125Y005971D01*
X021125Y006130D02*
X020285Y006130D01*
X020285Y005654D02*
X023906Y005654D01*
X023949Y005496D02*
X020285Y005496D01*
X020285Y005337D02*
X024004Y005337D01*
X024095Y005179D02*
X020285Y005179D01*
X020285Y005020D02*
X024224Y005020D01*
X024403Y004862D02*
X020303Y004862D01*
X020358Y004703D02*
X024738Y004703D01*
X025422Y004703D02*
X027670Y004703D01*
X027670Y004545D02*
X020358Y004545D01*
X020295Y004386D02*
X027670Y004386D01*
X027670Y004228D02*
X020150Y004228D01*
X019759Y004069D02*
X027670Y004069D01*
X027670Y003911D02*
X019634Y003911D01*
X019258Y003752D02*
X027670Y003752D01*
X027670Y003594D02*
X019198Y003594D01*
X019058Y003435D02*
X027670Y003435D01*
X027670Y003277D02*
X018546Y003277D01*
X018388Y003118D02*
X027670Y003118D01*
X027670Y002960D02*
X018229Y002960D01*
X018071Y002801D02*
X027670Y002801D01*
X027670Y002643D02*
X017912Y002643D01*
X017754Y002484D02*
X027670Y002484D01*
X027670Y004862D02*
X025757Y004862D01*
X025936Y005020D02*
X027670Y005020D01*
X027670Y005179D02*
X026065Y005179D01*
X026156Y005337D02*
X027670Y005337D01*
X027670Y005496D02*
X026211Y005496D01*
X026254Y005654D02*
X027670Y005654D01*
X027670Y005813D02*
X026260Y005813D01*
X026260Y005971D02*
X027670Y005971D01*
X027670Y006130D02*
X026222Y006130D01*
X026180Y006288D02*
X027670Y006288D01*
X027670Y006447D02*
X026088Y006447D01*
X025977Y006605D02*
X027670Y006605D01*
X027670Y006764D02*
X025818Y006764D01*
X025554Y006922D02*
X027670Y006922D01*
X027670Y007081D02*
X025787Y007081D01*
X025959Y007239D02*
X027670Y007239D01*
X027670Y007398D02*
X026117Y007398D01*
X026276Y007556D02*
X027670Y007556D01*
X027670Y007715D02*
X026434Y007715D01*
X026593Y007873D02*
X027670Y007873D01*
X027670Y008032D02*
X026735Y008032D01*
X026785Y008190D02*
X027670Y008190D01*
X027670Y008349D02*
X026785Y008349D01*
X026785Y008507D02*
X027670Y008507D01*
X027670Y008666D02*
X026785Y008666D01*
X026785Y008824D02*
X027670Y008824D01*
X027670Y008983D02*
X026785Y008983D01*
X026785Y009141D02*
X027670Y009141D01*
X027670Y009300D02*
X026785Y009300D01*
X026785Y009458D02*
X027670Y009458D01*
X027670Y009617D02*
X026785Y009617D01*
X026785Y009775D02*
X027670Y009775D01*
X027670Y009934D02*
X026785Y009934D01*
X026785Y010092D02*
X027670Y010092D01*
X027670Y010251D02*
X026785Y010251D01*
X026785Y010409D02*
X027670Y010409D01*
X027670Y010568D02*
X026785Y010568D01*
X026785Y010726D02*
X027670Y010726D01*
X027670Y010885D02*
X026785Y010885D01*
X026785Y011043D02*
X027670Y011043D01*
X027670Y011202D02*
X026785Y011202D01*
X026785Y011360D02*
X027670Y011360D01*
X027670Y011519D02*
X026785Y011519D01*
X026785Y011677D02*
X027670Y011677D01*
X027670Y011836D02*
X026785Y011836D01*
X026785Y011994D02*
X027670Y011994D01*
X027670Y012153D02*
X026785Y012153D01*
X026785Y012311D02*
X027670Y012311D01*
X027670Y012470D02*
X026785Y012470D01*
X026785Y012628D02*
X027670Y012628D01*
X027670Y012787D02*
X026785Y012787D01*
X026785Y012945D02*
X027670Y012945D01*
X027670Y013104D02*
X026785Y013104D01*
X026785Y013262D02*
X027670Y013262D01*
X027670Y013421D02*
X026785Y013421D01*
X026785Y013579D02*
X027670Y013579D01*
X027670Y013738D02*
X026785Y013738D01*
X026785Y013896D02*
X027670Y013896D01*
X027670Y014055D02*
X026785Y014055D01*
X026785Y014213D02*
X027670Y014213D01*
X027670Y014372D02*
X026785Y014372D01*
X026785Y014530D02*
X027670Y014530D01*
X027670Y014689D02*
X026785Y014689D01*
X026785Y014847D02*
X027670Y014847D01*
X027670Y015006D02*
X026785Y015006D01*
X026785Y015164D02*
X027670Y015164D01*
X027670Y015323D02*
X026785Y015323D01*
X026785Y015481D02*
X027670Y015481D01*
X027670Y015640D02*
X026785Y015640D01*
X026785Y015798D02*
X027670Y015798D01*
X027670Y015957D02*
X026785Y015957D01*
X026785Y016115D02*
X027670Y016115D01*
X027670Y016274D02*
X026785Y016274D01*
X026785Y016432D02*
X027670Y016432D01*
X027670Y016591D02*
X026785Y016591D01*
X026785Y016749D02*
X027670Y016749D01*
X027670Y016908D02*
X026785Y016908D01*
X026785Y017066D02*
X027670Y017066D01*
X027670Y017225D02*
X026785Y017225D01*
X026785Y017383D02*
X027670Y017383D01*
X027670Y017542D02*
X026785Y017542D01*
X026785Y017700D02*
X027670Y017700D01*
X027670Y017859D02*
X026785Y017859D01*
X026785Y018017D02*
X027670Y018017D01*
X027670Y018176D02*
X026785Y018176D01*
X026785Y018334D02*
X027670Y018334D01*
X027670Y018493D02*
X026785Y018493D01*
X026785Y018651D02*
X027670Y018651D01*
X027670Y018810D02*
X026785Y018810D01*
X026785Y018968D02*
X027670Y018968D01*
X027670Y019127D02*
X026785Y019127D01*
X026785Y019285D02*
X027670Y019285D01*
X027670Y019444D02*
X026785Y019444D01*
X026785Y019602D02*
X027670Y019602D01*
X027670Y019761D02*
X026785Y019761D01*
X026785Y019919D02*
X027670Y019919D01*
X027670Y020078D02*
X026785Y020078D01*
X026785Y020236D02*
X027670Y020236D01*
X027670Y020395D02*
X026785Y020395D01*
X026785Y020553D02*
X027670Y020553D01*
X027670Y020712D02*
X026785Y020712D01*
X026785Y020870D02*
X027670Y020870D01*
X027670Y021029D02*
X026785Y021029D01*
X026785Y021187D02*
X027670Y021187D01*
X027670Y021346D02*
X026785Y021346D01*
X026785Y021504D02*
X027670Y021504D01*
X027670Y021663D02*
X026785Y021663D01*
X026785Y021821D02*
X027670Y021821D01*
X027670Y021980D02*
X026785Y021980D01*
X026785Y022138D02*
X027670Y022138D01*
X027670Y022297D02*
X026785Y022297D01*
X026785Y022455D02*
X027670Y022455D01*
X027670Y022614D02*
X026785Y022614D01*
X026761Y022772D02*
X027670Y022772D01*
X027670Y022931D02*
X026655Y022931D01*
X026497Y023089D02*
X027670Y023089D01*
X027670Y023248D02*
X026338Y023248D01*
X026180Y023406D02*
X027670Y023406D01*
X027670Y023565D02*
X026021Y023565D01*
X025863Y023723D02*
X027670Y023723D01*
X027670Y023882D02*
X025704Y023882D01*
X025546Y024040D02*
X027670Y024040D01*
X027670Y024199D02*
X025387Y024199D01*
X025229Y024357D02*
X027670Y024357D01*
X027670Y024516D02*
X025070Y024516D01*
X024912Y024674D02*
X027670Y024674D01*
X027670Y024833D02*
X018036Y024833D01*
X018036Y024916D02*
X017993Y025019D01*
X017914Y025097D01*
X017811Y025140D01*
X017149Y025140D01*
X017046Y025097D01*
X016967Y025019D01*
X016924Y024916D01*
X016924Y024332D01*
X016967Y024229D01*
X017021Y024175D01*
X017002Y024128D01*
X017002Y023938D01*
X017021Y023892D01*
X016967Y023838D01*
X016924Y023735D01*
X016924Y023151D01*
X016958Y023070D01*
X016794Y023070D01*
X016691Y023027D01*
X016630Y022966D01*
X016569Y023027D01*
X016466Y023070D01*
X016302Y023070D01*
X016336Y023151D01*
X016336Y023735D01*
X016293Y023838D01*
X016239Y023892D01*
X016258Y023938D01*
X016258Y024128D01*
X016239Y024175D01*
X016293Y024229D01*
X016336Y024332D01*
X016336Y024916D01*
X016293Y025019D01*
X016214Y025097D01*
X016111Y025140D01*
X015449Y025140D01*
X015346Y025097D01*
X015267Y025019D01*
X015224Y024916D01*
X015224Y024332D01*
X015267Y024229D01*
X015321Y024175D01*
X015302Y024128D01*
X015302Y023938D01*
X015321Y023892D01*
X015267Y023838D01*
X015224Y023735D01*
X015224Y023151D01*
X015258Y023070D01*
X015094Y023070D01*
X014991Y023027D01*
X014930Y022966D01*
X014869Y023027D01*
X014766Y023070D01*
X014602Y023070D01*
X014636Y023151D01*
X014636Y023735D01*
X014593Y023838D01*
X014539Y023892D01*
X014558Y023938D01*
X014558Y024128D01*
X014539Y024175D01*
X014593Y024229D01*
X014636Y024332D01*
X014636Y024916D01*
X014593Y025019D01*
X014514Y025097D01*
X014411Y025140D01*
X013749Y025140D01*
X013646Y025097D01*
X013567Y025019D01*
X013524Y024916D01*
X013524Y024332D01*
X013567Y024229D01*
X013621Y024175D01*
X013602Y024128D01*
X013602Y023938D01*
X013621Y023892D01*
X013567Y023838D01*
X013524Y023735D01*
X013524Y023151D01*
X013558Y023070D01*
X013394Y023070D01*
X013291Y023027D01*
X013213Y022949D01*
X013180Y022870D01*
X013147Y022949D01*
X013069Y023027D01*
X012966Y023070D01*
X012802Y023070D01*
X012836Y023151D01*
X012836Y023735D01*
X012793Y023838D01*
X012739Y023892D01*
X012758Y023938D01*
X012758Y024128D01*
X012739Y024175D01*
X012793Y024229D01*
X012836Y024332D01*
X012836Y024916D01*
X012793Y025019D01*
X012714Y025097D01*
X012611Y025140D01*
X011949Y025140D01*
X011846Y025097D01*
X011767Y025019D01*
X011724Y024916D01*
X011724Y024332D01*
X011767Y024229D01*
X011821Y024175D01*
X011802Y024128D01*
X011802Y023938D01*
X011821Y023892D01*
X011767Y023838D01*
X011724Y023735D01*
X011724Y023151D01*
X011758Y023070D01*
X011594Y023070D01*
X011491Y023027D01*
X011413Y022949D01*
X011380Y022870D01*
X011347Y022949D01*
X011269Y023027D01*
X011166Y023070D01*
X011002Y023070D01*
X011036Y023151D01*
X011036Y023361D01*
X011040Y023371D01*
X011040Y023605D01*
X011036Y023616D01*
X011036Y023735D01*
X010993Y023838D01*
X010939Y023892D01*
X010958Y023938D01*
X010958Y024128D01*
X010939Y024175D01*
X010993Y024229D01*
X011036Y024332D01*
X011036Y024916D01*
X010993Y025019D01*
X010914Y025097D01*
X010811Y025140D01*
X010149Y025140D01*
X010046Y025097D01*
X009967Y025019D01*
X009924Y024916D01*
X009924Y024332D01*
X009967Y024229D01*
X010021Y024175D01*
X010002Y024128D01*
X010002Y023938D01*
X010021Y023892D01*
X009967Y023838D01*
X009924Y023735D01*
X009924Y023151D01*
X009958Y023070D01*
X009794Y023070D01*
X009691Y023027D01*
X009613Y022949D01*
X009580Y022870D01*
X009547Y022949D01*
X009469Y023027D01*
X009366Y023070D01*
X009202Y023070D01*
X009236Y023151D01*
X009236Y023735D01*
X009193Y023838D01*
X009139Y023892D01*
X009158Y023938D01*
X009158Y024128D01*
X009139Y024175D01*
X009193Y024229D01*
X009236Y024332D01*
X009236Y024916D01*
X009193Y025019D01*
X009114Y025097D01*
X009011Y025140D01*
X008349Y025140D01*
X008246Y025097D01*
X008167Y025019D01*
X008124Y024916D01*
X008124Y024332D01*
X008167Y024229D01*
X008221Y024175D01*
X008202Y024128D01*
X008202Y023938D01*
X008221Y023892D01*
X008167Y023838D01*
X008124Y023735D01*
X008124Y023151D01*
X008158Y023070D01*
X007994Y023070D01*
X007891Y023027D01*
X007813Y022949D01*
X007780Y022870D01*
X007747Y022949D01*
X007669Y023027D01*
X007566Y023070D01*
X007402Y023070D01*
X007436Y023151D01*
X007436Y023735D01*
X007393Y023838D01*
X007358Y023872D01*
X007358Y024028D01*
X007309Y024148D01*
X007314Y024150D01*
X007393Y024229D01*
X007436Y024332D01*
X007436Y024916D01*
X007393Y025019D01*
X007314Y025097D01*
X007211Y025140D01*
X006549Y025140D01*
X006446Y025097D01*
X006367Y025019D01*
X006324Y024916D01*
X006324Y024332D01*
X006367Y024229D01*
X006446Y024150D01*
X006451Y024148D01*
X006402Y024028D01*
X006402Y023872D01*
X006367Y023838D01*
X006324Y023735D01*
X006324Y023151D01*
X006358Y023070D01*
X006194Y023070D01*
X006091Y023027D01*
X006013Y022949D01*
X005970Y022846D01*
X005970Y022026D01*
X006013Y021923D01*
X006091Y021844D01*
X006194Y021801D01*
X007566Y021801D01*
X007669Y021844D01*
X007747Y021923D01*
X007780Y022002D01*
X007813Y021923D01*
X007891Y021844D01*
X007994Y021801D01*
X009366Y021801D01*
X009469Y021844D01*
X009547Y021923D01*
X009580Y022002D01*
X009613Y021923D01*
X009691Y021844D01*
X009794Y021801D01*
X011166Y021801D01*
X011269Y021844D01*
X011347Y021923D01*
X011380Y022002D01*
X011413Y021923D01*
X011491Y021844D01*
X011594Y021801D01*
X012966Y021801D01*
X013069Y021844D01*
X013147Y021923D01*
X013180Y022002D01*
X013213Y021923D01*
X013291Y021844D01*
X013394Y021801D01*
X014766Y021801D01*
X014869Y021844D01*
X014930Y021905D01*
X014991Y021844D01*
X015094Y021801D01*
X016466Y021801D01*
X016569Y021844D01*
X016630Y021905D01*
X016691Y021844D01*
X016794Y021801D01*
X018166Y021801D01*
X018269Y021844D01*
X018347Y021923D01*
X018390Y022026D01*
X018390Y022846D01*
X018347Y022949D01*
X018269Y023027D01*
X018166Y023070D01*
X018002Y023070D01*
X018036Y023151D01*
X018036Y023735D01*
X017993Y023838D01*
X017939Y023892D01*
X017958Y023938D01*
X017958Y024128D01*
X017939Y024175D01*
X017993Y024229D01*
X018036Y024332D01*
X018036Y024916D01*
X018004Y024991D02*
X027670Y024991D01*
X027670Y025150D02*
X000660Y025150D01*
X000660Y025308D02*
X027670Y025308D01*
X027670Y025467D02*
X000660Y025467D01*
X000660Y024991D02*
X006356Y024991D01*
X006324Y024833D02*
X000660Y024833D01*
X000660Y024674D02*
X006324Y024674D01*
X006324Y024516D02*
X000660Y024516D01*
X000660Y024357D02*
X006324Y024357D01*
X006397Y024199D02*
X000660Y024199D01*
X000660Y024040D02*
X006407Y024040D01*
X006402Y023882D02*
X000660Y023882D01*
X000660Y023723D02*
X006324Y023723D01*
X006324Y023565D02*
X000660Y023565D01*
X000660Y023406D02*
X003956Y023406D01*
X004088Y023538D02*
X003675Y023125D01*
X003675Y022541D01*
X004088Y022128D01*
X004672Y022128D01*
X005085Y022541D01*
X005085Y023125D01*
X004672Y023538D01*
X004088Y023538D01*
X003798Y023248D02*
X000660Y023248D01*
X000660Y023089D02*
X003675Y023089D01*
X003675Y022931D02*
X000660Y022931D01*
X000660Y022772D02*
X003675Y022772D01*
X003675Y022614D02*
X000660Y022614D01*
X000660Y022455D02*
X003761Y022455D01*
X003919Y022297D02*
X000660Y022297D01*
X000660Y022138D02*
X004078Y022138D01*
X004682Y022138D02*
X005970Y022138D01*
X005970Y022297D02*
X004841Y022297D01*
X004999Y022455D02*
X005970Y022455D01*
X005970Y022614D02*
X005085Y022614D01*
X005085Y022772D02*
X005970Y022772D01*
X006005Y022931D02*
X005085Y022931D01*
X005085Y023089D02*
X006350Y023089D01*
X006324Y023248D02*
X004962Y023248D01*
X004804Y023406D02*
X006324Y023406D01*
X006880Y023443D02*
X006880Y022436D01*
X007614Y021821D02*
X007946Y021821D01*
X007789Y021980D02*
X007771Y021980D01*
X007755Y022931D02*
X007805Y022931D01*
X008150Y023089D02*
X007410Y023089D01*
X007436Y023248D02*
X008124Y023248D01*
X008124Y023406D02*
X007436Y023406D01*
X007436Y023565D02*
X008124Y023565D01*
X008124Y023723D02*
X007436Y023723D01*
X007358Y023882D02*
X008211Y023882D01*
X008202Y024040D02*
X007353Y024040D01*
X007363Y024199D02*
X008197Y024199D01*
X008124Y024357D02*
X007436Y024357D01*
X007436Y024516D02*
X008124Y024516D01*
X008124Y024674D02*
X007436Y024674D01*
X007436Y024833D02*
X008124Y024833D01*
X008156Y024991D02*
X007404Y024991D01*
X006880Y024624D02*
X006880Y023933D01*
X008680Y024033D02*
X008680Y024624D01*
X009236Y024674D02*
X009924Y024674D01*
X009924Y024516D02*
X009236Y024516D01*
X009236Y024357D02*
X009924Y024357D01*
X009997Y024199D02*
X009163Y024199D01*
X009158Y024040D02*
X010002Y024040D01*
X010011Y023882D02*
X009149Y023882D01*
X009236Y023723D02*
X009924Y023723D01*
X009924Y023565D02*
X009236Y023565D01*
X009236Y023406D02*
X009924Y023406D01*
X009924Y023248D02*
X009236Y023248D01*
X009210Y023089D02*
X009950Y023089D01*
X009605Y022931D02*
X009555Y022931D01*
X009571Y021980D02*
X009589Y021980D01*
X009746Y021821D02*
X009414Y021821D01*
X008680Y022436D02*
X008680Y023443D01*
X009236Y024833D02*
X009924Y024833D01*
X009956Y024991D02*
X009204Y024991D01*
X010480Y024624D02*
X010480Y024033D01*
X010958Y024040D02*
X011802Y024040D01*
X011811Y023882D02*
X010949Y023882D01*
X011036Y023723D02*
X011724Y023723D01*
X011724Y023565D02*
X011040Y023565D01*
X011040Y023406D02*
X011724Y023406D01*
X011724Y023248D02*
X011036Y023248D01*
X011010Y023089D02*
X011750Y023089D01*
X011405Y022931D02*
X011355Y022931D01*
X010680Y023443D02*
X010680Y023533D01*
X010480Y023533D01*
X010480Y022436D01*
X011214Y021821D02*
X011546Y021821D01*
X011389Y021980D02*
X011371Y021980D01*
X012280Y022436D02*
X012280Y023443D01*
X012836Y023406D02*
X013524Y023406D01*
X013524Y023248D02*
X012836Y023248D01*
X012810Y023089D02*
X013550Y023089D01*
X013205Y022931D02*
X013155Y022931D01*
X012836Y023565D02*
X013524Y023565D01*
X013524Y023723D02*
X012836Y023723D01*
X012749Y023882D02*
X013611Y023882D01*
X013602Y024040D02*
X012758Y024040D01*
X012763Y024199D02*
X013597Y024199D01*
X013524Y024357D02*
X012836Y024357D01*
X012836Y024516D02*
X013524Y024516D01*
X013524Y024674D02*
X012836Y024674D01*
X012836Y024833D02*
X013524Y024833D01*
X013556Y024991D02*
X012804Y024991D01*
X012280Y024624D02*
X012280Y024033D01*
X011797Y024199D02*
X010963Y024199D01*
X011036Y024357D02*
X011724Y024357D01*
X011724Y024516D02*
X011036Y024516D01*
X011036Y024674D02*
X011724Y024674D01*
X011724Y024833D02*
X011036Y024833D01*
X011004Y024991D02*
X011756Y024991D01*
X010680Y023443D02*
X010480Y023443D01*
X013014Y021821D02*
X013346Y021821D01*
X013189Y021980D02*
X013171Y021980D01*
X014080Y022436D02*
X014080Y023443D01*
X014636Y023406D02*
X015224Y023406D01*
X015224Y023248D02*
X014636Y023248D01*
X014610Y023089D02*
X015250Y023089D01*
X015224Y023565D02*
X014636Y023565D01*
X014636Y023723D02*
X015224Y023723D01*
X015311Y023882D02*
X014549Y023882D01*
X014558Y024040D02*
X015302Y024040D01*
X015297Y024199D02*
X014563Y024199D01*
X014636Y024357D02*
X015224Y024357D01*
X015224Y024516D02*
X014636Y024516D01*
X014636Y024674D02*
X015224Y024674D01*
X015224Y024833D02*
X014636Y024833D01*
X014604Y024991D02*
X015256Y024991D01*
X015780Y024624D02*
X015780Y024033D01*
X016258Y024040D02*
X017002Y024040D01*
X017011Y023882D02*
X016249Y023882D01*
X016336Y023723D02*
X016924Y023723D01*
X016924Y023565D02*
X016336Y023565D01*
X016336Y023406D02*
X016924Y023406D01*
X016924Y023248D02*
X016336Y023248D01*
X016310Y023089D02*
X016950Y023089D01*
X017480Y023443D02*
X017480Y022436D01*
X016746Y021821D02*
X016514Y021821D01*
X015780Y022436D02*
X015780Y023443D01*
X016263Y024199D02*
X016997Y024199D01*
X016924Y024357D02*
X016336Y024357D01*
X016336Y024516D02*
X016924Y024516D01*
X016924Y024674D02*
X016336Y024674D01*
X016336Y024833D02*
X016924Y024833D01*
X016956Y024991D02*
X016304Y024991D01*
X017480Y024624D02*
X017480Y024033D01*
X017958Y024040D02*
X020775Y024040D01*
X020775Y023882D02*
X017949Y023882D01*
X018036Y023723D02*
X020775Y023723D01*
X020775Y023565D02*
X018036Y023565D01*
X018036Y023406D02*
X020775Y023406D01*
X020775Y023248D02*
X018036Y023248D01*
X018010Y023089D02*
X020775Y023089D01*
X020775Y022931D02*
X018355Y022931D01*
X018390Y022772D02*
X020775Y022772D01*
X020775Y022614D02*
X018390Y022614D01*
X018390Y022455D02*
X020775Y022455D01*
X020775Y022297D02*
X018390Y022297D01*
X018390Y022138D02*
X020775Y022138D01*
X020775Y021980D02*
X018371Y021980D01*
X018214Y021821D02*
X020775Y021821D01*
X020737Y021663D02*
X003330Y021663D01*
X003507Y021504D02*
X020578Y021504D01*
X020420Y021346D02*
X003631Y021346D01*
X003723Y021187D02*
X020261Y021187D01*
X020103Y021029D02*
X003771Y021029D01*
X003810Y020870D02*
X019944Y020870D01*
X019786Y020712D02*
X018361Y020712D01*
X018365Y019761D02*
X018998Y019761D01*
X018840Y019602D02*
X018179Y019602D01*
X018523Y019285D02*
X013187Y019285D01*
X013346Y019127D02*
X018364Y019127D01*
X018206Y018968D02*
X013434Y018968D01*
X013440Y018810D02*
X018047Y018810D01*
X017889Y018651D02*
X014346Y018651D01*
X014356Y018645D02*
X014315Y018669D01*
X014269Y018681D01*
X013891Y018681D01*
X013891Y018383D01*
X014425Y018383D01*
X014425Y018525D01*
X014413Y018571D01*
X014389Y018612D01*
X014356Y018645D01*
X014425Y018493D02*
X017730Y018493D01*
X018681Y019444D02*
X013029Y019444D01*
X012979Y019602D02*
X013381Y019602D01*
X013195Y019761D02*
X013165Y019761D01*
X013161Y020712D02*
X013199Y020712D01*
X014080Y020231D02*
X012280Y020231D01*
X010480Y020231D01*
X008680Y020231D01*
X006880Y020231D01*
X007579Y019602D02*
X007981Y019602D01*
X007795Y019761D02*
X007765Y019761D01*
X007761Y020712D02*
X007799Y020712D01*
X009130Y019183D02*
X007180Y017233D01*
X004380Y017233D01*
X006280Y015333D01*
X007580Y015333D01*
X008480Y014433D01*
X008480Y010333D01*
X009541Y009272D01*
X010230Y009272D01*
X010730Y009272D02*
X010730Y008783D01*
X010580Y008633D01*
X009580Y008633D01*
X007980Y010233D01*
X007980Y014033D01*
X007580Y014433D01*
X007168Y014689D02*
X003131Y014689D01*
X003392Y014847D02*
X003969Y014847D01*
X003810Y015006D02*
X003551Y015006D01*
X003656Y015164D02*
X003675Y015164D01*
X003790Y015957D02*
X003907Y015957D01*
X004065Y016115D02*
X003747Y016115D01*
X003673Y016274D02*
X004830Y016274D01*
X004695Y016115D02*
X004989Y016115D01*
X004853Y015957D02*
X005147Y015957D01*
X005012Y015798D02*
X005306Y015798D01*
X005464Y015640D02*
X005085Y015640D01*
X005085Y015481D02*
X005623Y015481D01*
X005781Y015323D02*
X005085Y015323D01*
X005085Y015164D02*
X005940Y015164D01*
X006130Y015006D02*
X004950Y015006D01*
X004791Y014847D02*
X007330Y014847D01*
X008580Y016033D02*
X008980Y015633D01*
X008980Y011133D01*
X009480Y010633D01*
X015480Y010633D01*
X015730Y010383D01*
X015730Y009272D01*
X015230Y009272D02*
X015230Y010083D01*
X014786Y009907D02*
X014556Y009907D01*
X014480Y009875D01*
X014404Y009907D01*
X014056Y009907D01*
X013953Y009864D01*
X013891Y009802D01*
X013872Y009807D01*
X013730Y009807D01*
X013588Y009807D01*
X013542Y009794D01*
X013501Y009771D01*
X013480Y009749D01*
X013459Y009771D01*
X013418Y009794D01*
X013372Y009807D01*
X013230Y009807D01*
X013088Y009807D01*
X013042Y009794D01*
X013001Y009771D01*
X012980Y009749D01*
X012959Y009771D01*
X012918Y009794D01*
X012872Y009807D01*
X012730Y009807D01*
X012588Y009807D01*
X012542Y009794D01*
X012501Y009771D01*
X012480Y009749D01*
X012459Y009771D01*
X012418Y009794D01*
X012372Y009807D01*
X012230Y009807D01*
X012088Y009807D01*
X012069Y009802D01*
X012007Y009864D01*
X011904Y009907D01*
X011556Y009907D01*
X011480Y009875D01*
X011404Y009907D01*
X011056Y009907D01*
X010980Y009875D01*
X010904Y009907D01*
X010556Y009907D01*
X010480Y009875D01*
X010404Y009907D01*
X010056Y009907D01*
X009953Y009864D01*
X009875Y009785D01*
X009832Y009682D01*
X009832Y009632D01*
X009690Y009632D01*
X008840Y010482D01*
X008840Y010764D01*
X009175Y010429D01*
X009276Y010328D01*
X009408Y010273D01*
X014791Y010273D01*
X014752Y010178D01*
X014752Y009988D01*
X014786Y009907D01*
X014774Y009934D02*
X009389Y009934D01*
X009547Y009775D02*
X009870Y009775D01*
X009230Y010092D02*
X014752Y010092D01*
X014782Y010251D02*
X009072Y010251D01*
X009195Y010409D02*
X008913Y010409D01*
X008840Y010568D02*
X009036Y010568D01*
X009175Y010429D02*
X009175Y010429D01*
X008878Y010726D02*
X008840Y010726D01*
X010080Y011583D02*
X009580Y012083D01*
X009580Y015233D01*
X009980Y015633D01*
X009980Y016279D01*
X009926Y016333D01*
X009280Y016333D01*
X008980Y016633D01*
X007780Y016633D01*
X007138Y017700D02*
X004909Y017700D01*
X004917Y017859D02*
X006357Y017859D01*
X006199Y018017D02*
X005873Y018017D01*
X007003Y017859D02*
X007296Y017859D01*
X005880Y019333D02*
X005280Y019333D01*
X005970Y020395D02*
X003759Y020395D01*
X003802Y020553D02*
X005970Y020553D01*
X005999Y020712D02*
X003810Y020712D01*
X003680Y019602D02*
X003680Y019602D01*
X003680Y019444D02*
X003680Y019444D01*
X003680Y019285D02*
X003680Y019285D01*
X003680Y019127D02*
X003680Y019127D01*
X003680Y018968D02*
X003680Y018968D01*
X003680Y018810D02*
X003680Y018810D01*
X003680Y018651D02*
X003680Y018651D01*
X003680Y018493D02*
X003680Y018493D01*
X003680Y018433D02*
X003680Y018433D01*
X003680Y018334D02*
X003680Y018334D01*
X003680Y018176D02*
X003680Y018176D01*
X003680Y018017D02*
X003680Y018017D01*
X003680Y017859D02*
X003680Y017859D01*
X003680Y017700D02*
X003680Y017700D01*
X003680Y017633D02*
X003680Y017633D01*
X003680Y017542D02*
X003680Y017542D01*
X003680Y017383D02*
X003680Y017383D01*
X003680Y017225D02*
X003680Y017225D01*
X003680Y017066D02*
X003680Y017066D01*
X003680Y016908D02*
X003680Y016908D01*
X003680Y016833D02*
X003680Y016833D01*
X003680Y016749D02*
X003680Y016749D01*
X003680Y016591D02*
X003680Y016591D01*
X003680Y016432D02*
X003680Y016432D01*
X004049Y016432D02*
X004672Y016432D01*
X004513Y016591D02*
X004117Y016591D01*
X004219Y014372D02*
X005341Y014372D01*
X005248Y014213D02*
X004312Y014213D01*
X004312Y014055D02*
X005248Y014055D01*
X005248Y013896D02*
X004312Y013896D01*
X004312Y013738D02*
X005248Y013738D01*
X008880Y017733D02*
X008926Y017779D01*
X009980Y017779D01*
X010926Y017779D01*
X011080Y017883D01*
X011669Y017883D01*
X011669Y017383D02*
X012480Y017383D01*
X012955Y016908D01*
X012930Y016883D01*
X012580Y016533D01*
X012580Y016283D01*
X012180Y015883D01*
X011669Y015883D01*
X011669Y015383D01*
X010780Y015383D01*
X010630Y014733D02*
X012180Y014733D01*
X012530Y015083D01*
X012530Y015683D01*
X012730Y015883D01*
X013891Y015883D01*
X014630Y015883D01*
X014830Y015683D01*
X015326Y015683D01*
X015380Y015629D01*
X015380Y016338D02*
X020684Y016338D01*
X021580Y017233D01*
X022636Y017225D02*
X022988Y017225D01*
X022717Y017383D02*
X025975Y017383D01*
X025975Y017225D02*
X023572Y017225D01*
X023924Y017066D02*
X025975Y017066D01*
X025975Y016908D02*
X024104Y016908D01*
X024229Y016749D02*
X025975Y016749D01*
X025975Y016591D02*
X024321Y016591D01*
X024370Y016432D02*
X025975Y016432D01*
X025975Y016274D02*
X024410Y016274D01*
X024410Y016115D02*
X025975Y016115D01*
X025975Y015957D02*
X024403Y015957D01*
X024360Y015798D02*
X025975Y015798D01*
X025975Y015640D02*
X024300Y015640D01*
X024208Y015481D02*
X025975Y015481D01*
X025975Y015323D02*
X024068Y015323D01*
X023862Y015164D02*
X025975Y015164D01*
X025975Y015006D02*
X023438Y015006D01*
X023743Y012945D02*
X024245Y012945D01*
X024183Y012787D02*
X023777Y012787D01*
X023777Y012628D02*
X024183Y012628D01*
X024183Y012470D02*
X023777Y012470D01*
X023777Y012311D02*
X024183Y012311D01*
X024216Y012153D02*
X023757Y012153D01*
X023593Y011994D02*
X024702Y011994D01*
X024642Y011836D02*
X023154Y011836D01*
X023154Y011677D02*
X024642Y011677D01*
X024700Y011519D02*
X023154Y011519D01*
X023154Y011360D02*
X024837Y011360D01*
X025403Y011360D02*
X025975Y011360D01*
X025975Y011202D02*
X023154Y011202D01*
X023154Y011043D02*
X025975Y011043D01*
X025975Y010885D02*
X023154Y010885D01*
X023154Y010726D02*
X025975Y010726D01*
X025975Y010568D02*
X023154Y010568D01*
X023154Y010409D02*
X025975Y010409D01*
X025975Y010251D02*
X023154Y010251D01*
X023154Y010092D02*
X025975Y010092D01*
X025975Y009934D02*
X025532Y009934D01*
X025807Y009775D02*
X025975Y009775D01*
X025965Y009617D02*
X025975Y009617D01*
X024628Y009934D02*
X023154Y009934D01*
X023154Y009775D02*
X024353Y009775D01*
X024195Y009617D02*
X023154Y009617D01*
X023154Y009458D02*
X024078Y009458D01*
X023987Y009300D02*
X023145Y009300D01*
X023061Y009141D02*
X023941Y009141D01*
X023900Y008983D02*
X022902Y008983D01*
X022744Y008824D02*
X023900Y008824D01*
X023903Y008666D02*
X022820Y008666D01*
X022979Y008507D02*
X023946Y008507D01*
X023997Y008349D02*
X023137Y008349D01*
X023296Y008190D02*
X024089Y008190D01*
X024213Y008032D02*
X023454Y008032D01*
X023613Y007873D02*
X024383Y007873D01*
X024606Y006922D02*
X022335Y006922D01*
X022335Y007081D02*
X023273Y007081D01*
X023101Y007239D02*
X022335Y007239D01*
X022335Y007398D02*
X022943Y007398D01*
X022784Y007556D02*
X022335Y007556D01*
X022335Y007715D02*
X022626Y007715D01*
X022467Y007873D02*
X022323Y007873D01*
X022256Y006764D02*
X024342Y006764D01*
X024183Y006605D02*
X022235Y006605D01*
X022235Y006447D02*
X024072Y006447D01*
X025540Y011519D02*
X025975Y011519D01*
X025975Y011677D02*
X025598Y011677D01*
X025598Y011836D02*
X025975Y011836D01*
X025975Y011994D02*
X025538Y011994D01*
X025169Y012628D02*
X025053Y012628D01*
X025053Y012787D02*
X025169Y012787D01*
X025169Y012945D02*
X025053Y012945D01*
X025975Y017542D02*
X022717Y017542D01*
X022717Y017700D02*
X025975Y017700D01*
X025975Y017859D02*
X022717Y017859D01*
X022665Y018017D02*
X025975Y018017D01*
X025975Y018176D02*
X022717Y018176D01*
X022717Y018334D02*
X025975Y018334D01*
X025975Y018493D02*
X022717Y018493D01*
X022717Y018651D02*
X025975Y018651D01*
X025975Y018810D02*
X022673Y018810D01*
X022717Y018968D02*
X025975Y018968D01*
X025975Y019127D02*
X022717Y019127D01*
X022717Y019285D02*
X025975Y019285D01*
X025975Y019444D02*
X022717Y019444D01*
X022680Y019602D02*
X025975Y019602D01*
X025975Y019761D02*
X022717Y019761D01*
X022717Y019919D02*
X025975Y019919D01*
X025975Y020078D02*
X023707Y020078D01*
X023981Y020236D02*
X025975Y020236D01*
X025975Y020395D02*
X024140Y020395D01*
X024250Y020553D02*
X025975Y020553D01*
X025975Y020712D02*
X024337Y020712D01*
X024379Y020870D02*
X025975Y020870D01*
X025975Y021029D02*
X024410Y021029D01*
X024410Y021187D02*
X025975Y021187D01*
X025975Y021346D02*
X024393Y021346D01*
X024350Y021504D02*
X025975Y021504D01*
X025975Y021663D02*
X024279Y021663D01*
X024188Y021821D02*
X025975Y021821D01*
X025975Y021980D02*
X024032Y021980D01*
X023799Y022138D02*
X025975Y022138D01*
X025975Y022297D02*
X021585Y022297D01*
X021585Y022455D02*
X025975Y022455D01*
X025827Y022614D02*
X021585Y022614D01*
X021585Y022772D02*
X025668Y022772D01*
X025510Y022931D02*
X021585Y022931D01*
X021585Y023089D02*
X025351Y023089D01*
X025193Y023248D02*
X021585Y023248D01*
X021585Y023406D02*
X025034Y023406D01*
X024876Y023565D02*
X021585Y023565D01*
X021585Y023723D02*
X024717Y023723D01*
X024559Y023882D02*
X021601Y023882D01*
X021090Y024516D02*
X018036Y024516D01*
X018036Y024674D02*
X021248Y024674D01*
X020931Y024357D02*
X018036Y024357D01*
X017963Y024199D02*
X020810Y024199D01*
X021585Y022138D02*
X022761Y022138D01*
X022528Y021980D02*
X021585Y021980D01*
X021585Y021821D02*
X022372Y021821D01*
X022281Y021663D02*
X021585Y021663D01*
X021585Y021504D02*
X022210Y021504D01*
X022167Y021346D02*
X021541Y021346D01*
X021407Y021187D02*
X022150Y021187D01*
X022150Y021029D02*
X021248Y021029D01*
X021090Y020870D02*
X022181Y020870D01*
X022223Y020712D02*
X020931Y020712D01*
X022717Y020078D02*
X022853Y020078D01*
X017480Y020231D02*
X015780Y020231D01*
X014080Y020231D01*
X014779Y019602D02*
X015081Y019602D01*
X013891Y018681D02*
X013891Y018383D01*
X013891Y018383D01*
X013891Y018493D02*
X013891Y018493D01*
X013891Y018651D02*
X013891Y018651D01*
X014425Y018334D02*
X014572Y018334D01*
X014780Y018033D02*
X014630Y017883D01*
X013891Y017883D01*
X014780Y018033D02*
X015334Y018033D01*
X015380Y017988D01*
X013891Y016883D02*
X012930Y016883D01*
X012955Y016908D02*
X012980Y016883D01*
X012380Y016883D02*
X011669Y016883D01*
X011030Y016883D01*
X010926Y016988D01*
X009980Y016988D01*
X009980Y016279D02*
X010926Y016279D01*
X011080Y016383D01*
X011669Y016383D01*
X013080Y015183D02*
X013080Y014883D01*
X013080Y015183D02*
X013280Y015383D01*
X013891Y015383D01*
X013891Y015344D01*
X013891Y016383D02*
X015334Y016383D01*
X015380Y016338D01*
X013825Y013478D02*
X013825Y013429D01*
X013730Y013429D01*
X013588Y013429D01*
X013542Y013416D01*
X013501Y013393D01*
X013480Y013371D01*
X013459Y013393D01*
X013418Y013416D01*
X013372Y013429D01*
X013230Y013429D01*
X013088Y013429D01*
X013042Y013416D01*
X013001Y013393D01*
X012980Y013371D01*
X012959Y013393D01*
X012918Y013416D01*
X012872Y013429D01*
X012730Y013429D01*
X012588Y013429D01*
X012542Y013416D01*
X012501Y013393D01*
X012480Y013371D01*
X012459Y013393D01*
X012418Y013416D01*
X012372Y013429D01*
X012230Y013429D01*
X012135Y013429D01*
X012135Y013478D01*
X013825Y013478D01*
X013730Y013429D02*
X013730Y012894D01*
X013730Y012360D01*
X013730Y012894D01*
X013730Y012894D01*
X013528Y012894D01*
X013230Y012894D01*
X013230Y012360D01*
X013230Y012894D01*
X013230Y012894D01*
X012730Y012894D01*
X012730Y012360D01*
X012588Y012360D01*
X012542Y012372D01*
X012501Y012396D01*
X012480Y012417D01*
X012459Y012396D01*
X012418Y012372D01*
X012372Y012360D01*
X012230Y012360D01*
X012230Y012894D01*
X012230Y012360D01*
X012088Y012360D01*
X012069Y012365D01*
X012007Y012303D01*
X011904Y012260D01*
X011556Y012260D01*
X011480Y012292D01*
X011404Y012260D01*
X011195Y012260D01*
X011208Y012228D01*
X011208Y012038D01*
X011169Y011943D01*
X015281Y011943D01*
X015370Y012032D01*
X015370Y012360D01*
X015230Y012360D01*
X015230Y012894D01*
X015230Y012360D01*
X015088Y012360D01*
X015069Y012365D01*
X015007Y012303D01*
X014904Y012260D01*
X014556Y012260D01*
X014480Y012292D01*
X014404Y012260D01*
X014056Y012260D01*
X013953Y012303D01*
X013891Y012365D01*
X013872Y012360D01*
X013730Y012360D01*
X013588Y012360D01*
X013542Y012372D01*
X013501Y012396D01*
X013480Y012417D01*
X013459Y012396D01*
X013418Y012372D01*
X013372Y012360D01*
X013230Y012360D01*
X013088Y012360D01*
X013042Y012372D01*
X013001Y012396D01*
X012980Y012417D01*
X012959Y012396D01*
X012918Y012372D01*
X012872Y012360D01*
X012730Y012360D01*
X012730Y012894D01*
X012730Y012894D01*
X012230Y012894D01*
X012230Y012894D01*
X012230Y012894D01*
X012730Y012894D01*
X012730Y012894D01*
X012730Y012894D01*
X013230Y012894D01*
X013230Y012894D01*
X013230Y012894D01*
X013730Y012894D01*
X013730Y012894D01*
X013230Y012894D01*
X012932Y012894D01*
X012730Y012894D01*
X012730Y012133D01*
X012730Y012470D02*
X012730Y012470D01*
X012730Y012628D02*
X012730Y012628D01*
X012730Y012787D02*
X012730Y012787D01*
X012730Y012894D02*
X012528Y012894D01*
X012230Y012894D01*
X012230Y013429D01*
X012230Y012894D01*
X012230Y012894D01*
X012230Y012945D02*
X012230Y012945D01*
X012230Y012787D02*
X012230Y012787D01*
X012230Y012628D02*
X012230Y012628D01*
X012230Y012470D02*
X012230Y012470D01*
X012015Y012311D02*
X013945Y012311D01*
X013730Y012470D02*
X013730Y012470D01*
X013730Y012628D02*
X013730Y012628D01*
X013730Y012787D02*
X013730Y012787D01*
X013730Y012894D02*
X013730Y013429D01*
X013730Y013421D02*
X013730Y013421D01*
X013730Y013262D02*
X013730Y013262D01*
X013730Y013104D02*
X013730Y013104D01*
X013730Y012945D02*
X013730Y012945D01*
X013730Y012894D02*
X013730Y012894D01*
X013230Y012894D02*
X013230Y013429D01*
X013230Y012894D01*
X013230Y012894D01*
X013230Y012945D02*
X013230Y012945D01*
X013230Y012787D02*
X013230Y012787D01*
X013230Y012628D02*
X013230Y012628D01*
X013230Y012470D02*
X013230Y012470D01*
X013230Y013104D02*
X013230Y013104D01*
X013230Y013262D02*
X013230Y013262D01*
X013230Y013421D02*
X013230Y013421D01*
X013059Y013421D02*
X012901Y013421D01*
X012730Y013421D02*
X012730Y013421D01*
X012730Y013429D02*
X012730Y012894D01*
X012730Y012894D01*
X012730Y013429D01*
X012730Y013262D02*
X012730Y013262D01*
X012730Y013104D02*
X012730Y013104D01*
X012730Y012945D02*
X012730Y012945D01*
X012559Y013421D02*
X012401Y013421D01*
X012230Y013421D02*
X012230Y013421D01*
X012230Y013262D02*
X012230Y013262D01*
X012230Y013104D02*
X012230Y013104D01*
X013401Y013421D02*
X013559Y013421D01*
X015230Y012894D02*
X015230Y012894D01*
X015230Y012133D01*
X015370Y012153D02*
X011208Y012153D01*
X011190Y011994D02*
X015332Y011994D01*
X015370Y012311D02*
X015015Y012311D01*
X015230Y012470D02*
X015230Y012470D01*
X015230Y012628D02*
X015230Y012628D01*
X015230Y012787D02*
X015230Y012787D01*
X015730Y012894D02*
X015730Y011883D01*
X015430Y011583D01*
X010080Y011583D01*
X010730Y012133D02*
X010730Y012894D01*
X010230Y012894D02*
X010230Y014333D01*
X010630Y014733D01*
X009980Y016233D02*
X009980Y016279D01*
X009980Y018488D02*
X010926Y018488D01*
X011030Y018383D01*
X011669Y018383D01*
X012580Y018383D01*
X011581Y019602D02*
X011179Y019602D01*
X011365Y019761D02*
X011395Y019761D01*
X011361Y020712D02*
X011399Y020712D01*
X009781Y019602D02*
X009379Y019602D01*
X009565Y019761D02*
X009595Y019761D01*
X009561Y020712D02*
X009599Y020712D01*
X006146Y021821D02*
X002985Y021821D01*
X002375Y021821D02*
X000660Y021821D01*
X000660Y021663D02*
X002030Y021663D01*
X001853Y021504D02*
X000660Y021504D01*
X000660Y021346D02*
X001729Y021346D01*
X001637Y021187D02*
X000660Y021187D01*
X000660Y021029D02*
X001589Y021029D01*
X001550Y020870D02*
X000660Y020870D01*
X000660Y020712D02*
X001550Y020712D01*
X001558Y020553D02*
X000660Y020553D01*
X000660Y020395D02*
X001601Y020395D01*
X001662Y020236D02*
X000660Y020236D01*
X000660Y020078D02*
X001754Y020078D01*
X001896Y019919D02*
X000660Y019919D01*
X000660Y019761D02*
X002104Y019761D01*
X000660Y021980D02*
X005989Y021980D01*
X014080Y024033D02*
X014080Y024624D01*
X014814Y021821D02*
X015046Y021821D01*
X016479Y019602D02*
X016781Y019602D01*
X013230Y010083D02*
X013230Y009272D01*
X013230Y008738D01*
X013372Y008738D01*
X013418Y008750D01*
X013459Y008774D01*
X013480Y008795D01*
X013501Y008774D01*
X013542Y008750D01*
X013588Y008738D01*
X013730Y008738D01*
X013825Y008738D01*
X013825Y008403D01*
X013887Y008254D01*
X014097Y008043D01*
X013472Y008043D01*
X013369Y008001D01*
X013291Y007922D01*
X013248Y007819D01*
X013248Y006448D01*
X013291Y006345D01*
X013369Y006266D01*
X013472Y006223D01*
X014292Y006223D01*
X014395Y006266D01*
X014474Y006345D01*
X014517Y006448D01*
X014517Y006728D01*
X015712Y006728D01*
X016275Y006166D01*
X016275Y005724D01*
X016267Y005742D01*
X016189Y005821D01*
X016086Y005863D01*
X015374Y005863D01*
X015271Y005821D01*
X015230Y005779D01*
X015189Y005821D01*
X015086Y005863D01*
X014374Y005863D01*
X014271Y005821D01*
X014230Y005779D01*
X014189Y005821D01*
X014086Y005863D01*
X013374Y005863D01*
X013271Y005821D01*
X013230Y005779D01*
X013189Y005821D01*
X013086Y005863D01*
X012374Y005863D01*
X012271Y005821D01*
X012230Y005779D01*
X012189Y005821D01*
X012086Y005863D01*
X011374Y005863D01*
X011271Y005821D01*
X011230Y005779D01*
X011189Y005821D01*
X011086Y005863D01*
X010374Y005863D01*
X010271Y005821D01*
X010230Y005779D01*
X010189Y005821D01*
X010086Y005863D01*
X009374Y005863D01*
X009271Y005821D01*
X009230Y005779D01*
X009189Y005821D01*
X009135Y005843D01*
X009135Y007812D01*
X009151Y007828D01*
X010811Y007828D01*
X010959Y007890D01*
X011073Y008004D01*
X011325Y008256D01*
X011325Y008043D01*
X011268Y008043D01*
X011165Y008001D01*
X011086Y007922D01*
X011043Y007819D01*
X011043Y006448D01*
X011086Y006345D01*
X011165Y006266D01*
X011268Y006223D01*
X012088Y006223D01*
X012191Y006266D01*
X012269Y006345D01*
X012312Y006448D01*
X012312Y007819D01*
X012269Y007922D01*
X012191Y008001D01*
X012135Y008024D01*
X012135Y008738D01*
X012230Y008738D01*
X012372Y008738D01*
X012418Y008750D01*
X012459Y008774D01*
X012480Y008795D01*
X012501Y008774D01*
X012542Y008750D01*
X012588Y008738D01*
X012730Y008738D01*
X012872Y008738D01*
X012918Y008750D01*
X012959Y008774D01*
X012980Y008795D01*
X013001Y008774D01*
X013042Y008750D01*
X013088Y008738D01*
X013230Y008738D01*
X013230Y009272D01*
X013230Y009272D01*
X013230Y009272D01*
X013432Y009272D01*
X013730Y009272D01*
X013730Y008738D01*
X013730Y009272D01*
X013730Y009272D01*
X013730Y009272D01*
X013230Y009272D01*
X013028Y009272D01*
X012730Y009272D01*
X012730Y008738D01*
X012730Y009272D01*
X012730Y009272D01*
X012432Y009272D01*
X012230Y009272D01*
X012230Y008738D01*
X012230Y009272D01*
X012230Y009272D01*
X012230Y009272D01*
X012730Y009272D01*
X012730Y009272D01*
X012730Y009272D01*
X013230Y009272D01*
X013230Y009272D01*
X013730Y009272D01*
X013730Y009807D01*
X013730Y009272D01*
X013730Y009272D01*
X013730Y009300D02*
X013730Y009300D01*
X013730Y009458D02*
X013730Y009458D01*
X013730Y009617D02*
X013730Y009617D01*
X013730Y009775D02*
X013730Y009775D01*
X013509Y009775D02*
X013451Y009775D01*
X013230Y009775D02*
X013230Y009775D01*
X013230Y009807D02*
X013230Y009272D01*
X012730Y009272D01*
X012230Y009272D01*
X012230Y009807D01*
X012230Y009272D01*
X012230Y009272D01*
X012230Y009300D02*
X012230Y009300D01*
X012230Y009458D02*
X012230Y009458D01*
X012230Y009617D02*
X012230Y009617D01*
X012230Y009775D02*
X012230Y009775D01*
X012451Y009775D02*
X012509Y009775D01*
X012730Y009775D02*
X012730Y009775D01*
X012730Y009807D02*
X012730Y009272D01*
X012730Y009272D01*
X012730Y009807D01*
X012730Y009617D02*
X012730Y009617D01*
X012730Y009458D02*
X012730Y009458D01*
X012730Y009300D02*
X012730Y009300D01*
X012730Y009141D02*
X012730Y009141D01*
X012730Y008983D02*
X012730Y008983D01*
X012730Y008824D02*
X012730Y008824D01*
X013230Y008824D02*
X013230Y008824D01*
X013230Y008983D02*
X013230Y008983D01*
X013230Y009141D02*
X013230Y009141D01*
X013230Y009272D02*
X013230Y009272D01*
X013230Y009807D01*
X013230Y009617D02*
X013230Y009617D01*
X013230Y009458D02*
X013230Y009458D01*
X013230Y009300D02*
X013230Y009300D01*
X013009Y009775D02*
X012951Y009775D01*
X012230Y009141D02*
X012230Y009141D01*
X012230Y008983D02*
X012230Y008983D01*
X012230Y008824D02*
X012230Y008824D01*
X012135Y008666D02*
X013825Y008666D01*
X013825Y008507D02*
X012135Y008507D01*
X012135Y008349D02*
X013847Y008349D01*
X013950Y008190D02*
X012135Y008190D01*
X012135Y008032D02*
X013445Y008032D01*
X013271Y007873D02*
X012289Y007873D01*
X012312Y007715D02*
X013248Y007715D01*
X013248Y007556D02*
X012312Y007556D01*
X012312Y007398D02*
X013248Y007398D01*
X013248Y007239D02*
X012312Y007239D01*
X012312Y007081D02*
X013248Y007081D01*
X013248Y006922D02*
X012312Y006922D01*
X012312Y006764D02*
X013248Y006764D01*
X013248Y006605D02*
X012312Y006605D01*
X012312Y006447D02*
X013248Y006447D01*
X013347Y006288D02*
X012213Y006288D01*
X012196Y005813D02*
X012264Y005813D01*
X013196Y005813D02*
X013264Y005813D01*
X014196Y005813D02*
X014264Y005813D01*
X014418Y006288D02*
X016152Y006288D01*
X016275Y006130D02*
X009135Y006130D01*
X009135Y006288D02*
X011142Y006288D01*
X011044Y006447D02*
X009135Y006447D01*
X009135Y006605D02*
X011043Y006605D01*
X011043Y006764D02*
X009135Y006764D01*
X009135Y006922D02*
X011043Y006922D01*
X011043Y007081D02*
X009135Y007081D01*
X009135Y007239D02*
X011043Y007239D01*
X011043Y007398D02*
X009135Y007398D01*
X009135Y007556D02*
X011043Y007556D01*
X011043Y007715D02*
X009135Y007715D01*
X010919Y007873D02*
X011066Y007873D01*
X011101Y008032D02*
X011240Y008032D01*
X011260Y008190D02*
X011325Y008190D01*
X011264Y005813D02*
X011196Y005813D01*
X010264Y005813D02*
X010196Y005813D01*
X009264Y005813D02*
X009196Y005813D01*
X009135Y005971D02*
X016275Y005971D01*
X016275Y005813D02*
X016196Y005813D01*
X015994Y006447D02*
X014516Y006447D01*
X014517Y006605D02*
X015835Y006605D01*
X015264Y005813D02*
X015196Y005813D01*
X012265Y003752D02*
X012195Y003752D01*
X011265Y003752D02*
X011195Y003752D01*
X010265Y003752D02*
X010195Y003752D01*
X008264Y003911D02*
X000660Y003911D01*
X000660Y004069D02*
X008250Y004069D01*
X008295Y004703D02*
X003122Y004703D01*
X003457Y004862D02*
X008177Y004862D01*
X008150Y005020D02*
X003636Y005020D01*
X003765Y005179D02*
X008150Y005179D01*
X008150Y005337D02*
X003856Y005337D01*
X003911Y005496D02*
X008150Y005496D01*
X013730Y008824D02*
X013730Y008824D01*
X013730Y008983D02*
X013730Y008983D01*
X013730Y009141D02*
X013730Y009141D01*
D23*
X014230Y009272D02*
X014230Y008483D01*
X014680Y008033D01*
X016480Y008033D01*
X016780Y008333D01*
X017280Y008333D01*
X017430Y008183D01*
X017430Y003883D01*
X017130Y003583D01*
X014980Y003583D01*
X014730Y003833D01*
X014730Y004283D01*
X015730Y004283D02*
X016430Y004283D01*
X016680Y004533D01*
X016680Y006333D01*
X015880Y007133D01*
X013882Y007133D01*
X014930Y008483D02*
X016030Y008483D01*
X016280Y008733D01*
X016280Y009233D01*
X016580Y009533D01*
X017580Y009533D01*
X017880Y009233D01*
X017880Y003783D01*
X017280Y003183D01*
X014280Y003183D01*
X013730Y003733D01*
X013730Y004283D01*
X012730Y004283D02*
X012730Y003783D01*
X013730Y002783D01*
X017480Y002783D01*
X018330Y003633D01*
X018330Y010033D01*
X017630Y010733D01*
X017280Y010733D01*
X016280Y011733D01*
X016280Y013333D01*
X016030Y013583D01*
X014930Y013583D01*
X014730Y013383D01*
X014730Y012894D01*
X014230Y012894D02*
X014230Y013483D01*
X014780Y014033D01*
X016280Y014033D01*
X016880Y013433D01*
X016880Y012733D01*
X017280Y012333D01*
X018780Y010833D01*
X018780Y003833D01*
X019330Y004283D02*
X019330Y011783D01*
X017280Y013833D01*
X016630Y014483D01*
X014580Y014483D01*
X013980Y013883D01*
X011880Y013883D01*
X011730Y013733D01*
X011730Y012894D01*
X011230Y012894D02*
X011230Y013883D01*
X011680Y014333D01*
X013780Y014333D01*
X014380Y014933D01*
X017280Y014933D01*
X019880Y012333D01*
X019880Y004633D01*
X023480Y007433D02*
X022580Y008333D01*
X021680Y008333D01*
X022749Y009402D01*
X022749Y012533D01*
X025111Y012533D02*
X025111Y011764D01*
X025110Y011763D01*
X026380Y008233D02*
X025580Y007433D01*
X023480Y007433D01*
X026380Y008233D02*
X026380Y022633D01*
X024680Y024333D01*
X021480Y024333D01*
X021180Y024033D01*
X021180Y021533D01*
X019878Y020231D01*
X017480Y020231D01*
X014730Y009272D02*
X014730Y008683D01*
X014930Y008483D01*
X011730Y009272D02*
X011730Y007186D01*
X011678Y007133D01*
X010730Y008233D02*
X008880Y008233D01*
X008780Y008133D01*
X008730Y008083D01*
X008730Y005283D01*
X006180Y007333D02*
X005380Y007333D01*
X004880Y007833D01*
X004880Y010479D01*
X005880Y010479D01*
X004880Y010479D02*
X003880Y010479D01*
X002880Y010643D02*
X001780Y010643D01*
X001880Y010633D02*
X001880Y009833D01*
X002871Y010633D02*
X002880Y010643D01*
X010730Y008233D02*
X011230Y008733D01*
X011230Y009272D01*
D24*
X013230Y010083D03*
X015230Y010083D03*
X015230Y012133D03*
X017280Y012333D03*
X017280Y013833D03*
X017280Y014933D03*
X017280Y010733D03*
X017580Y009533D03*
X017280Y008333D03*
X019880Y004633D03*
X019330Y004283D03*
X018780Y003833D03*
X025380Y002933D03*
X025380Y002333D03*
X025980Y002333D03*
X025980Y002933D03*
X026580Y002933D03*
X026580Y002333D03*
X025120Y011753D03*
X013880Y018883D03*
X012580Y018383D03*
X012380Y016883D03*
X010780Y015383D03*
X008580Y016033D03*
X007780Y016633D03*
X008880Y017733D03*
X007580Y014433D03*
X010730Y012133D03*
X012730Y012133D03*
X013080Y014883D03*
X008780Y008133D03*
X003080Y003033D03*
X002480Y003033D03*
X001880Y003033D03*
X001880Y002433D03*
X002480Y002433D03*
X003080Y002433D03*
X001880Y009833D03*
X006880Y023933D03*
X008680Y024033D03*
X010480Y024033D03*
X012280Y024033D03*
X014080Y024033D03*
X015780Y024033D03*
X017480Y024033D03*
X002680Y024533D03*
X002080Y024533D03*
X001480Y024533D03*
X001480Y025133D03*
X002080Y025133D03*
X002680Y025133D03*
M02*
