G75*
%MOIN*%
%OFA0B0*%
%FSLAX24Y24*%
%IPPOS*%
%LPD*%
%AMOC8*
5,1,8,0,0,1.08239X$1,22.5*
%
%ADD10R,0.0595X0.0595*%
%ADD11C,0.1380*%
%ADD12R,0.0830X0.0830*%
%ADD13C,0.1480*%
%ADD14R,0.0552X0.0395*%
%ADD15OC8,0.0930*%
%ADD16R,0.0789X0.0316*%
%ADD17R,0.0316X0.0789*%
%ADD18R,0.1576X0.0631*%
%ADD19R,0.0631X0.0552*%
%ADD20R,0.0789X0.1340*%
%ADD21R,0.0395X0.0552*%
%ADD22R,0.0789X0.0710*%
%ADD23R,0.0710X0.0789*%
%ADD24C,0.0675*%
%ADD25C,0.1182*%
%ADD26C,0.0476*%
D10*
X003680Y019793D03*
X003680Y020593D03*
X004380Y020193D03*
X004380Y020993D03*
X004380Y021793D03*
X003680Y021393D03*
X003680Y022193D03*
X004380Y022593D03*
X021580Y022593D03*
X022280Y022193D03*
X022280Y022993D03*
X021580Y021793D03*
X021580Y020993D03*
X022280Y020593D03*
X021580Y020193D03*
X022280Y021393D03*
D11*
X023280Y019093D03*
X023280Y024093D03*
X002680Y023693D03*
X002680Y018693D03*
D12*
X006180Y011293D03*
X006180Y010293D03*
X006180Y009293D03*
X021680Y009293D03*
X021680Y010293D03*
X021680Y011293D03*
D13*
X025080Y011793D03*
X025080Y008793D03*
X002780Y008793D03*
X002780Y011793D03*
D14*
X003880Y013439D03*
X003880Y014148D03*
X004880Y014148D03*
X004880Y013439D03*
X005880Y013439D03*
X005880Y014148D03*
X009980Y019239D03*
X009980Y019948D03*
X009980Y020739D03*
X009980Y021448D03*
X015380Y020948D03*
X015380Y020239D03*
X015380Y019298D03*
X015380Y018589D03*
D15*
X006680Y021493D03*
X005880Y022293D03*
X004380Y025793D03*
X004380Y018393D03*
D16*
X011669Y018343D03*
X011669Y018843D03*
X011669Y019343D03*
X011669Y019843D03*
X011669Y020343D03*
X011669Y020843D03*
X011669Y021343D03*
X013891Y021343D03*
X013891Y020843D03*
X013891Y020343D03*
X013891Y019843D03*
X013891Y019343D03*
X013891Y018843D03*
X013891Y018343D03*
D17*
X013730Y015854D03*
X013230Y015854D03*
X012730Y015854D03*
X012230Y015854D03*
X011730Y015854D03*
X011230Y015854D03*
X010730Y015854D03*
X010230Y015854D03*
X010230Y012232D03*
X010730Y012232D03*
X011230Y012232D03*
X011730Y012232D03*
X012230Y012232D03*
X012730Y012232D03*
X013230Y012232D03*
X013730Y012232D03*
X014230Y012232D03*
X014730Y012232D03*
X015230Y012232D03*
X015730Y012232D03*
X015730Y015854D03*
X015230Y015854D03*
X014730Y015854D03*
X014230Y015854D03*
D18*
X022749Y015493D03*
X025111Y015493D03*
D19*
X017480Y026403D03*
X017480Y027584D03*
X015780Y027584D03*
X015780Y026403D03*
X014080Y026403D03*
X014080Y027584D03*
X012280Y027584D03*
X012280Y026403D03*
X010480Y026403D03*
X010480Y027584D03*
X008680Y027584D03*
X008680Y026403D03*
X006880Y026403D03*
X006880Y027584D03*
X002880Y014784D03*
X001780Y014784D03*
X001780Y013603D03*
X002880Y013603D03*
D20*
X003678Y016493D03*
X005882Y016493D03*
D21*
X006034Y015193D03*
X005326Y015193D03*
X010176Y017193D03*
X010884Y017193D03*
X014826Y011043D03*
X015534Y011043D03*
D22*
X015780Y024292D03*
X015780Y025394D03*
X014080Y025394D03*
X014080Y024292D03*
X012280Y024292D03*
X012280Y025394D03*
X010480Y025394D03*
X010480Y024292D03*
X008730Y024292D03*
X008730Y025394D03*
X006880Y025394D03*
X006880Y024292D03*
X017480Y024292D03*
X017480Y025394D03*
D23*
X010931Y008243D03*
X009829Y008243D03*
D24*
X010430Y006543D03*
X010430Y005543D03*
X011430Y005543D03*
X012430Y005543D03*
X013430Y005543D03*
X014430Y005543D03*
X015430Y005543D03*
X016430Y005543D03*
X017430Y005543D03*
X017430Y006543D03*
X016430Y006543D03*
X015430Y006543D03*
X014430Y006543D03*
X013430Y006543D03*
X012430Y006543D03*
X011430Y006543D03*
D25*
X001730Y006043D03*
X001730Y027443D03*
X026630Y027543D03*
X026630Y006043D03*
D26*
X004680Y005493D03*
X005180Y005493D03*
X005180Y005993D03*
X005180Y005993D03*
X004680Y005993D03*
X005680Y005993D03*
X005680Y005493D03*
X008780Y011093D03*
X010730Y015093D03*
X010880Y016693D03*
X010780Y018343D03*
X012380Y019843D03*
X012580Y021343D03*
X013880Y021843D03*
X016630Y017893D03*
X017630Y016943D03*
X017630Y016293D03*
X017630Y015593D03*
X017630Y014993D03*
X015230Y015093D03*
X015230Y013043D03*
X013230Y013043D03*
X012730Y015093D03*
X015930Y011043D03*
X020680Y005993D03*
X020680Y005493D03*
X021180Y005493D03*
X021680Y005493D03*
X021680Y005993D03*
X021180Y005993D03*
X021180Y005993D03*
X007580Y017393D03*
X008580Y018993D03*
X007780Y019593D03*
X008880Y020693D03*
X006880Y026893D03*
X008680Y026993D03*
X010480Y026993D03*
X012280Y026993D03*
X014080Y026993D03*
X016530Y027593D03*
X017480Y026943D03*
X019080Y023693D03*
X019080Y023193D03*
X019580Y023193D03*
X020080Y023193D03*
X020080Y023693D03*
X019580Y023693D03*
X019580Y023693D03*
X001880Y012793D03*
M02*
