G75*
%MOIN*%
%OFA0B0*%
%FSLAX24Y24*%
%IPPOS*%
%LPD*%
%AMOC8*
5,1,8,0,0,1.08239X$1,22.5*
%
%ADD10C,0.0050*%
%ADD11C,0.0030*%
%ADD12C,0.0040*%
%ADD13C,0.0160*%
%ADD14C,0.0010*%
D10*
X007230Y003483D02*
X011430Y003483D01*
X011430Y003383D01*
X013030Y003383D01*
X013030Y003483D01*
X017230Y003483D01*
X017230Y005983D01*
X007230Y005983D01*
X007230Y003483D01*
D11*
X007662Y004098D02*
X007785Y004098D01*
X007847Y004160D01*
X007847Y004283D02*
X007723Y004345D01*
X007662Y004345D01*
X007600Y004283D01*
X007600Y004160D01*
X007662Y004098D01*
X007847Y004283D02*
X007847Y004469D01*
X007600Y004469D01*
X008092Y004469D02*
X008092Y004098D01*
X008215Y004098D02*
X007968Y004098D01*
X008215Y004345D02*
X008092Y004469D01*
X008092Y005098D02*
X008092Y005469D01*
X008215Y005345D01*
X008215Y005098D02*
X007968Y005098D01*
X007847Y005160D02*
X007847Y005283D01*
X007662Y005283D01*
X007600Y005222D01*
X007600Y005160D01*
X007662Y005098D01*
X007785Y005098D01*
X007847Y005160D01*
X007847Y005283D02*
X007723Y005407D01*
X007600Y005469D01*
X016268Y005407D02*
X016330Y005469D01*
X016453Y005469D01*
X016515Y005407D01*
X016268Y005407D02*
X016268Y005345D01*
X016515Y005098D01*
X016268Y005098D01*
X016392Y004469D02*
X016392Y004098D01*
X016515Y004098D02*
X016268Y004098D01*
X016515Y004345D02*
X016392Y004469D01*
D12*
X017450Y004564D02*
X017450Y004871D01*
X017450Y004717D02*
X017910Y004717D01*
X017757Y004564D01*
X017910Y004410D02*
X017910Y004257D01*
X017910Y004334D02*
X017527Y004334D01*
X017450Y004257D01*
X017450Y004180D01*
X017527Y004103D01*
D13*
X014280Y010071D02*
X014280Y010095D01*
X011530Y012121D02*
X011530Y012145D01*
D14*
X011445Y011853D02*
X011470Y011828D01*
X011470Y011728D01*
X011445Y011703D01*
X011395Y011703D01*
X011370Y011728D01*
X011322Y011703D02*
X011222Y011703D01*
X011272Y011703D02*
X011272Y011853D01*
X011322Y011803D01*
X011370Y011828D02*
X011395Y011853D01*
X011445Y011853D01*
X014378Y010513D02*
X014478Y010513D01*
X014478Y010438D01*
X014428Y010463D01*
X014403Y010463D01*
X014378Y010438D01*
X014378Y010388D01*
X014403Y010363D01*
X014453Y010363D01*
X014478Y010388D01*
X014525Y010388D02*
X014550Y010363D01*
X014600Y010363D01*
X014625Y010388D01*
X014625Y010488D01*
X014600Y010513D01*
X014550Y010513D01*
X014525Y010488D01*
M02*
