G75*
%MOIN*%
%OFA0B0*%
%FSLAX24Y24*%
%IPPOS*%
%LPD*%
%AMOC8*
5,1,8,0,0,1.08239X$1,22.5*
%
%ADD10R,0.0595X0.0595*%
%ADD11C,0.1380*%
%ADD12R,0.0830X0.0830*%
%ADD13C,0.1480*%
%ADD14OC8,0.0930*%
%ADD15R,0.0680X0.0680*%
%ADD16R,0.0356X0.0434*%
%ADD17C,0.0476*%
D10*
X003680Y016833D03*
X004380Y017233D03*
X003680Y017633D03*
X004380Y018033D03*
X003680Y018433D03*
X004380Y018833D03*
X003680Y019233D03*
X004380Y019633D03*
X021580Y019633D03*
X022280Y019233D03*
X021580Y018833D03*
X022280Y018433D03*
X021580Y018033D03*
X022280Y017633D03*
X021580Y017233D03*
X022280Y020033D03*
D11*
X023280Y021133D03*
X023280Y016133D03*
X002680Y015733D03*
X002680Y020733D03*
D12*
X006180Y008333D03*
X006180Y007333D03*
X006180Y006333D03*
X021680Y006333D03*
X021680Y007333D03*
X021680Y008333D03*
D13*
X025080Y008833D03*
X025080Y005833D03*
X002780Y005833D03*
X002780Y008833D03*
D14*
X004380Y015433D03*
X006680Y018533D03*
X005880Y019333D03*
X004380Y022833D03*
D15*
X008730Y005283D03*
X008730Y004283D03*
X009730Y004283D03*
X010730Y004283D03*
X011730Y004283D03*
X012730Y004283D03*
X013730Y004283D03*
X014730Y004283D03*
X015730Y004283D03*
X015730Y005283D03*
X014730Y005283D03*
X013730Y005283D03*
X012730Y005283D03*
X011730Y005283D03*
X010730Y005283D03*
X009730Y005283D03*
D16*
X014024Y010083D03*
X014536Y010083D03*
X011786Y012133D03*
X011274Y012133D03*
D17*
X001880Y002433D03*
X002480Y002433D03*
X003080Y002433D03*
X003080Y003033D03*
X002480Y003033D03*
X001880Y003033D03*
X001880Y009833D03*
X007580Y014433D03*
X008580Y016033D03*
X007780Y016633D03*
X008880Y017733D03*
X010780Y015383D03*
X012380Y016883D03*
X012580Y018383D03*
X013880Y018883D03*
X013080Y014883D03*
X012730Y012133D03*
X010730Y012133D03*
X013230Y010083D03*
X015230Y010083D03*
X015230Y012133D03*
X017280Y012333D03*
X017280Y013833D03*
X017280Y014933D03*
X017280Y010733D03*
X017580Y009533D03*
X017280Y008333D03*
X019880Y004633D03*
X019330Y004283D03*
X018780Y003833D03*
X025380Y002933D03*
X025380Y002333D03*
X025980Y002333D03*
X025980Y002933D03*
X026580Y002933D03*
X026580Y002333D03*
X025120Y011753D03*
X017480Y024033D03*
X015780Y024033D03*
X014080Y024033D03*
X012280Y024033D03*
X010480Y024033D03*
X008680Y024033D03*
X006880Y023933D03*
X002680Y024533D03*
X002080Y024533D03*
X001480Y024533D03*
X001480Y025133D03*
X002080Y025133D03*
X002680Y025133D03*
X008780Y008133D03*
M02*
