G75*
%MOIN*%
%OFA0B0*%
%FSLAX24Y24*%
%IPPOS*%
%LPD*%
%AMOC8*
5,1,8,0,0,1.08239X$1,22.5*
%
%ADD10R,0.0515X0.0515*%
%ADD11R,0.0750X0.0750*%
%ADD12R,0.0472X0.0315*%
%ADD13OC8,0.0850*%
%ADD14R,0.0709X0.0236*%
%ADD15R,0.0236X0.0709*%
%ADD16R,0.1496X0.0551*%
%ADD17R,0.0551X0.0472*%
%ADD18R,0.0709X0.1260*%
%ADD19R,0.0315X0.0472*%
%ADD20R,0.0709X0.0630*%
%ADD21R,0.0630X0.0709*%
%ADD22C,0.0595*%
%ADD23C,0.0160*%
%ADD24C,0.0250*%
%ADD25C,0.0396*%
D10*
X003680Y019793D03*
X003680Y020593D03*
X004380Y020193D03*
X004380Y020993D03*
X004380Y021793D03*
X003680Y021393D03*
X003680Y022193D03*
X004380Y022593D03*
X021580Y022593D03*
X022280Y022193D03*
X022280Y022993D03*
X021580Y021793D03*
X021580Y020993D03*
X022280Y020593D03*
X021580Y020193D03*
X022280Y021393D03*
D11*
X021680Y011293D03*
X021680Y010293D03*
X021680Y009293D03*
X006180Y009293D03*
X006180Y010293D03*
X006180Y011293D03*
D12*
X005880Y013439D03*
X005880Y014148D03*
X004880Y014148D03*
X004880Y013439D03*
X003880Y013439D03*
X003880Y014148D03*
X009980Y019239D03*
X009980Y019948D03*
X009980Y020739D03*
X009980Y021448D03*
X015380Y020948D03*
X015380Y020239D03*
X015380Y019298D03*
X015380Y018589D03*
D13*
X006680Y021493D03*
X005880Y022293D03*
X004380Y025793D03*
X004380Y018393D03*
D14*
X011669Y018343D03*
X011669Y018843D03*
X011669Y019343D03*
X011669Y019843D03*
X011669Y020343D03*
X011669Y020843D03*
X011669Y021343D03*
X013891Y021343D03*
X013891Y020843D03*
X013891Y020343D03*
X013891Y019843D03*
X013891Y019343D03*
X013891Y018843D03*
X013891Y018343D03*
D15*
X013730Y015854D03*
X013230Y015854D03*
X012730Y015854D03*
X012230Y015854D03*
X011730Y015854D03*
X011230Y015854D03*
X010730Y015854D03*
X010230Y015854D03*
X010230Y012232D03*
X010730Y012232D03*
X011230Y012232D03*
X011730Y012232D03*
X012230Y012232D03*
X012730Y012232D03*
X013230Y012232D03*
X013730Y012232D03*
X014230Y012232D03*
X014730Y012232D03*
X015230Y012232D03*
X015730Y012232D03*
X015730Y015854D03*
X015230Y015854D03*
X014730Y015854D03*
X014230Y015854D03*
D16*
X022749Y015493D03*
X025111Y015493D03*
D17*
X017480Y026403D03*
X017480Y027584D03*
X015780Y027584D03*
X015780Y026403D03*
X014080Y026403D03*
X014080Y027584D03*
X012280Y027584D03*
X012280Y026403D03*
X010480Y026403D03*
X010480Y027584D03*
X008680Y027584D03*
X008680Y026403D03*
X006880Y026403D03*
X006880Y027584D03*
X002880Y014784D03*
X001780Y014784D03*
X001780Y013603D03*
X002880Y013603D03*
D18*
X003678Y016493D03*
X005882Y016493D03*
D19*
X006034Y015193D03*
X005326Y015193D03*
X010176Y017193D03*
X010884Y017193D03*
X014826Y011043D03*
X015534Y011043D03*
D20*
X015780Y024292D03*
X015780Y025394D03*
X014080Y025394D03*
X014080Y024292D03*
X012280Y024292D03*
X012280Y025394D03*
X010480Y025394D03*
X010480Y024292D03*
X008730Y024292D03*
X008730Y025394D03*
X006880Y025394D03*
X006880Y024292D03*
X017480Y024292D03*
X017480Y025394D03*
D21*
X010931Y008243D03*
X009829Y008243D03*
D22*
X010430Y006543D03*
X010430Y005543D03*
X011430Y005543D03*
X012430Y005543D03*
X013430Y005543D03*
X014430Y005543D03*
X015430Y005543D03*
X016430Y005543D03*
X017430Y005543D03*
X017430Y006543D03*
X016430Y006543D03*
X015430Y006543D03*
X014430Y006543D03*
X013430Y006543D03*
X012430Y006543D03*
X011430Y006543D03*
D23*
X003118Y005097D02*
X003003Y004973D01*
X008440Y004973D01*
X008420Y005022D01*
X008420Y010777D01*
X008375Y010822D01*
X008302Y010998D01*
X008302Y011188D01*
X008375Y011364D01*
X008509Y011499D01*
X008685Y011571D01*
X008875Y011571D01*
X009051Y011499D01*
X009096Y011453D01*
X009211Y011453D01*
X007675Y012989D01*
X007620Y013122D01*
X007620Y016844D01*
X007549Y016915D01*
X007485Y016915D01*
X007309Y016988D01*
X007175Y017122D01*
X007102Y017298D01*
X007102Y017488D01*
X007175Y017664D01*
X007309Y017799D01*
X007485Y017871D01*
X007493Y017871D01*
X007431Y017933D01*
X006208Y017933D01*
X006076Y017988D01*
X004408Y019656D01*
X004117Y019656D01*
X004117Y019512D01*
X004105Y019466D01*
X004082Y019425D01*
X004048Y019392D01*
X004007Y019368D01*
X003961Y019356D01*
X003680Y019356D01*
X003680Y019793D01*
X003680Y019793D01*
X003680Y019356D01*
X003602Y019356D01*
X003733Y019129D01*
X003810Y018842D01*
X003810Y018820D01*
X004088Y019098D01*
X004672Y019098D01*
X005085Y018685D01*
X005085Y018101D01*
X004672Y017688D01*
X004088Y017688D01*
X003675Y018101D01*
X003675Y018157D01*
X003584Y017999D01*
X003374Y017789D01*
X003116Y017640D01*
X002829Y017563D01*
X002531Y017563D01*
X002244Y017640D01*
X001986Y017789D01*
X001776Y017999D01*
X001627Y018257D01*
X001550Y018545D01*
X001550Y018842D01*
X001627Y019129D01*
X001776Y019387D01*
X001986Y019598D01*
X002244Y019746D01*
X002531Y019823D01*
X002829Y019823D01*
X003116Y019746D01*
X003243Y019673D01*
X003243Y019793D01*
X003680Y019793D01*
X003680Y019793D01*
X003243Y019793D01*
X003243Y020074D01*
X003255Y020120D01*
X003278Y020161D01*
X003310Y020193D01*
X003278Y020225D01*
X003255Y020266D01*
X003243Y020312D01*
X003243Y020593D01*
X003680Y020593D01*
X003680Y020156D01*
X003680Y019793D01*
X003680Y020593D01*
X003680Y020593D01*
X003680Y020593D01*
X003243Y020593D01*
X003243Y020874D01*
X003255Y020920D01*
X003278Y020961D01*
X003310Y020993D01*
X003278Y021025D01*
X003255Y021066D01*
X003243Y021112D01*
X003243Y021393D01*
X003680Y021393D01*
X003680Y020956D01*
X003680Y020593D01*
X003680Y021393D01*
X003680Y021393D01*
X003680Y021393D01*
X003243Y021393D01*
X003243Y021674D01*
X003255Y021720D01*
X003278Y021761D01*
X003310Y021793D01*
X003278Y021825D01*
X003255Y021866D01*
X003243Y021912D01*
X003243Y022193D01*
X003680Y022193D01*
X003680Y021756D01*
X003680Y021393D01*
X003680Y022193D01*
X003680Y022193D01*
X003680Y022193D01*
X003243Y022193D01*
X003243Y022474D01*
X003255Y022520D01*
X003278Y022561D01*
X003312Y022595D01*
X003353Y022619D01*
X003399Y022631D01*
X003680Y022631D01*
X003680Y022193D01*
X003680Y022193D01*
X003680Y022631D01*
X003843Y022631D01*
X003843Y022906D01*
X003885Y023009D01*
X003964Y023088D01*
X004067Y023131D01*
X004693Y023131D01*
X004796Y023088D01*
X004875Y023009D01*
X004917Y022906D01*
X004917Y022453D01*
X004931Y022453D01*
X005076Y022598D01*
X005208Y022653D01*
X005243Y022653D01*
X005588Y022998D01*
X006172Y022998D01*
X006585Y022585D01*
X006585Y022198D01*
X006972Y022198D01*
X007385Y021785D01*
X007385Y021201D01*
X006972Y020788D01*
X006388Y020788D01*
X006043Y021133D01*
X006029Y021133D01*
X005885Y020989D01*
X005784Y020888D01*
X005652Y020833D01*
X004917Y020833D01*
X004917Y020680D01*
X004882Y020593D01*
X004898Y020553D01*
X007031Y020553D01*
X008825Y022347D01*
X008926Y022448D01*
X009058Y022503D01*
X012852Y022503D01*
X012984Y022448D01*
X013385Y022047D01*
X013440Y021915D01*
X013440Y021613D01*
X013467Y021629D01*
X013513Y021641D01*
X013891Y021641D01*
X013891Y021343D01*
X013891Y021343D01*
X014425Y021343D01*
X014425Y021203D01*
X014481Y021203D01*
X014576Y021298D01*
X014708Y021353D01*
X015011Y021353D01*
X015088Y021385D01*
X015672Y021385D01*
X015775Y021342D01*
X015810Y021308D01*
X017585Y021308D01*
X019075Y022797D01*
X019176Y022898D01*
X019308Y022953D01*
X021062Y022953D01*
X021085Y023009D01*
X021164Y023088D01*
X021267Y023131D01*
X021843Y023131D01*
X021843Y023274D01*
X021855Y023320D01*
X021878Y023361D01*
X021912Y023395D01*
X021953Y023419D01*
X021999Y023431D01*
X022280Y023431D01*
X022280Y022993D01*
X022280Y022631D01*
X022280Y022193D01*
X022280Y021393D01*
X022280Y020593D01*
X022280Y020156D01*
X022561Y020156D01*
X022607Y020168D01*
X022648Y020192D01*
X022682Y020225D01*
X022705Y020266D01*
X022717Y020312D01*
X022717Y020593D01*
X022280Y020593D01*
X022280Y020593D01*
X022280Y020156D01*
X022117Y020156D01*
X022117Y019880D01*
X022075Y019777D01*
X021996Y019698D01*
X021893Y019656D01*
X021552Y019656D01*
X020888Y018992D01*
X020756Y018938D01*
X015821Y018938D01*
X015854Y018905D01*
X015896Y018802D01*
X015896Y018376D01*
X015854Y018273D01*
X015834Y018253D01*
X016314Y018253D01*
X016359Y018299D01*
X016535Y018371D01*
X016725Y018371D01*
X016901Y018299D01*
X017035Y018164D01*
X017108Y017988D01*
X017108Y017798D01*
X017090Y017753D01*
X017252Y017753D01*
X017384Y017698D01*
X017661Y017421D01*
X017725Y017421D01*
X017901Y017349D01*
X018035Y017214D01*
X018108Y017038D01*
X018108Y016974D01*
X019685Y015397D01*
X019740Y015265D01*
X019740Y009772D01*
X019685Y009639D01*
X019584Y009538D01*
X017290Y007244D01*
X017290Y007110D01*
X017315Y007121D01*
X017545Y007121D01*
X017757Y007033D01*
X017887Y006903D01*
X018002Y006903D01*
X018134Y006848D01*
X018384Y006598D01*
X018384Y006598D01*
X018485Y006497D01*
X018540Y006365D01*
X018540Y005272D01*
X018485Y005139D01*
X018319Y004973D01*
X025349Y004973D01*
X025116Y005314D01*
X025116Y005314D01*
X024969Y005793D01*
X024969Y006294D01*
X025116Y006772D01*
X025116Y006772D01*
X025398Y007186D01*
X025398Y007186D01*
X025398Y007186D01*
X025790Y007498D01*
X025790Y007498D01*
X026256Y007681D01*
X026256Y007681D01*
X026756Y007719D01*
X026756Y007719D01*
X027244Y007607D01*
X027244Y007607D01*
X027670Y007361D01*
X027670Y026226D01*
X027244Y025979D01*
X027244Y025979D01*
X026756Y025868D01*
X026756Y025868D01*
X026256Y025905D01*
X026256Y025905D01*
X025790Y026088D01*
X025790Y026088D01*
X025398Y026401D01*
X025398Y026401D01*
X025398Y026401D01*
X025116Y026814D01*
X025116Y026814D01*
X024969Y027293D01*
X024969Y027794D01*
X025116Y028272D01*
X025116Y028272D01*
X025267Y028493D01*
X003022Y028493D01*
X003118Y028390D01*
X003118Y028390D01*
X003335Y027938D01*
X003410Y027443D01*
X003335Y026948D01*
X003335Y026948D01*
X003118Y026497D01*
X003118Y026497D01*
X002777Y026130D01*
X002777Y026130D01*
X002344Y025879D01*
X002344Y025879D01*
X001856Y025768D01*
X001856Y025768D01*
X001356Y025805D01*
X001356Y025805D01*
X000890Y025988D01*
X000890Y025988D01*
X000660Y026172D01*
X000660Y007315D01*
X000890Y007498D01*
X000890Y007498D01*
X001356Y007681D01*
X001356Y007681D01*
X001856Y007719D01*
X001856Y007719D01*
X002344Y007607D01*
X002344Y007607D01*
X002777Y007357D01*
X002777Y007357D01*
X003118Y006990D01*
X003118Y006990D01*
X003335Y006538D01*
X003335Y006538D01*
X003410Y006043D01*
X003335Y005548D01*
X003335Y005548D01*
X003118Y005097D01*
X003118Y005097D01*
X003133Y005127D02*
X008420Y005127D01*
X008420Y005286D02*
X003209Y005286D01*
X003285Y005444D02*
X008420Y005444D01*
X008420Y005603D02*
X003344Y005603D01*
X003367Y005761D02*
X008420Y005761D01*
X008420Y005920D02*
X003391Y005920D01*
X003405Y006078D02*
X008420Y006078D01*
X008420Y006237D02*
X003381Y006237D01*
X003357Y006395D02*
X008420Y006395D01*
X008420Y006554D02*
X003328Y006554D01*
X003252Y006712D02*
X008420Y006712D01*
X008420Y006871D02*
X003175Y006871D01*
X003081Y007029D02*
X008420Y007029D01*
X008420Y007188D02*
X002934Y007188D01*
X002787Y007346D02*
X008420Y007346D01*
X008420Y007505D02*
X002521Y007505D01*
X002625Y007613D02*
X002935Y007613D01*
X003235Y007694D01*
X003505Y007849D01*
X003724Y008069D01*
X003880Y008338D01*
X003960Y008638D01*
X003960Y008949D01*
X003880Y009249D01*
X003724Y009518D01*
X003505Y009738D01*
X003235Y009893D01*
X002935Y009973D01*
X002625Y009973D01*
X002325Y009893D01*
X002055Y009738D01*
X001836Y009518D01*
X001680Y009249D01*
X001600Y008949D01*
X001600Y008638D01*
X001680Y008338D01*
X001836Y008069D01*
X002055Y007849D01*
X002325Y007694D01*
X002625Y007613D01*
X002438Y007663D02*
X002098Y007663D01*
X002103Y007822D02*
X000660Y007822D01*
X000660Y007980D02*
X001924Y007980D01*
X001795Y008139D02*
X000660Y008139D01*
X000660Y008297D02*
X001704Y008297D01*
X001649Y008456D02*
X000660Y008456D01*
X000660Y008614D02*
X001606Y008614D01*
X001600Y008773D02*
X000660Y008773D01*
X000660Y008931D02*
X001600Y008931D01*
X001638Y009090D02*
X000660Y009090D01*
X000660Y009248D02*
X001680Y009248D01*
X001772Y009407D02*
X000660Y009407D01*
X000660Y009565D02*
X001883Y009565D01*
X002042Y009724D02*
X000660Y009724D01*
X000660Y009882D02*
X002306Y009882D01*
X002625Y010613D02*
X002935Y010613D01*
X003235Y010694D01*
X003505Y010849D01*
X003724Y011069D01*
X003880Y011338D01*
X003960Y011638D01*
X003960Y011949D01*
X003880Y012249D01*
X003724Y012518D01*
X003505Y012738D01*
X003235Y012893D01*
X002935Y012973D01*
X002625Y012973D01*
X002325Y012893D01*
X002055Y012738D01*
X001836Y012518D01*
X001680Y012249D01*
X001600Y011949D01*
X001600Y011638D01*
X001680Y011338D01*
X001836Y011069D01*
X002055Y010849D01*
X002325Y010694D01*
X002625Y010613D01*
X002395Y010675D02*
X000660Y010675D01*
X000660Y010833D02*
X002083Y010833D01*
X001913Y010992D02*
X000660Y010992D01*
X000660Y011150D02*
X001789Y011150D01*
X001697Y011309D02*
X000660Y011309D01*
X000660Y011467D02*
X001646Y011467D01*
X001603Y011626D02*
X000660Y011626D01*
X000660Y011784D02*
X001600Y011784D01*
X001600Y011943D02*
X000660Y011943D01*
X000660Y012101D02*
X001641Y012101D01*
X001687Y012260D02*
X000660Y012260D01*
X000660Y012418D02*
X001778Y012418D01*
X001895Y012577D02*
X000660Y012577D01*
X000660Y012735D02*
X002053Y012735D01*
X002328Y012894D02*
X000660Y012894D01*
X000660Y013052D02*
X003477Y013052D01*
X003485Y013044D02*
X003588Y013001D01*
X004172Y013001D01*
X004250Y013034D01*
X004475Y013034D01*
X004475Y010713D01*
X004537Y010564D01*
X004651Y010450D01*
X005151Y009950D01*
X005299Y009888D01*
X005525Y009888D01*
X005525Y009863D01*
X005554Y009793D01*
X005525Y009724D01*
X005525Y008863D01*
X005568Y008760D01*
X005646Y008681D01*
X005749Y008638D01*
X006611Y008638D01*
X006714Y008681D01*
X006792Y008760D01*
X006835Y008863D01*
X006835Y008933D01*
X007052Y008933D01*
X007184Y008988D01*
X007285Y009089D01*
X007485Y009289D01*
X007540Y009422D01*
X007540Y016365D01*
X007485Y016497D01*
X007384Y016598D01*
X007184Y016798D01*
X007052Y016853D01*
X006517Y016853D01*
X006517Y017179D01*
X006474Y017282D01*
X006395Y017361D01*
X006292Y017403D01*
X005472Y017403D01*
X005369Y017361D01*
X005291Y017282D01*
X005248Y017179D01*
X005248Y015808D01*
X005289Y015710D01*
X005112Y015710D01*
X005010Y015667D01*
X004931Y015588D01*
X004916Y015553D01*
X004608Y015553D01*
X004476Y015498D01*
X004131Y015153D01*
X003403Y015153D01*
X003393Y015179D01*
X003314Y015257D01*
X003211Y015300D01*
X002549Y015300D01*
X002446Y015257D01*
X002367Y015179D01*
X002330Y015089D01*
X002293Y015179D01*
X002214Y015257D01*
X002140Y015288D01*
X002140Y015844D01*
X002429Y016133D01*
X003043Y016133D01*
X003043Y015808D01*
X003086Y015705D01*
X003165Y015626D01*
X003268Y015583D01*
X004088Y015583D01*
X004191Y015626D01*
X004269Y015705D01*
X004312Y015808D01*
X004312Y017179D01*
X004269Y017282D01*
X004191Y017361D01*
X004088Y017403D01*
X003268Y017403D01*
X003165Y017361D01*
X003086Y017282D01*
X003043Y017179D01*
X003043Y016853D01*
X002208Y016853D01*
X002076Y016798D01*
X001576Y016298D01*
X001475Y016197D01*
X001420Y016065D01*
X001420Y015288D01*
X001346Y015257D01*
X001267Y015179D01*
X001224Y015076D01*
X001224Y014492D01*
X001267Y014389D01*
X001346Y014310D01*
X001449Y014268D01*
X002111Y014268D01*
X002214Y014310D01*
X002293Y014389D01*
X002330Y014478D01*
X002367Y014389D01*
X002446Y014310D01*
X002549Y014268D01*
X003211Y014268D01*
X003314Y014310D01*
X003393Y014389D01*
X003411Y014433D01*
X003517Y014433D01*
X003500Y014416D01*
X003476Y014375D01*
X003464Y014329D01*
X003464Y014148D01*
X003880Y014148D01*
X003880Y014148D01*
X004296Y014148D01*
X004296Y014329D01*
X004284Y014375D01*
X004260Y014416D01*
X004243Y014433D01*
X004352Y014433D01*
X004484Y014488D01*
X004585Y014589D01*
X004829Y014833D01*
X004916Y014833D01*
X004931Y014798D01*
X005010Y014720D01*
X005112Y014677D01*
X005539Y014677D01*
X005642Y014720D01*
X005680Y014758D01*
X005718Y014720D01*
X005821Y014677D01*
X006248Y014677D01*
X006350Y014720D01*
X006397Y014767D01*
X006420Y014744D01*
X006420Y013753D01*
X006354Y013753D01*
X006354Y013755D01*
X006275Y013834D01*
X006232Y013852D01*
X006260Y013880D01*
X006284Y013921D01*
X006296Y013966D01*
X006296Y014148D01*
X006296Y014329D01*
X006284Y014375D01*
X006260Y014416D01*
X006227Y014449D01*
X006186Y014473D01*
X006140Y014485D01*
X005880Y014485D01*
X005620Y014485D01*
X005574Y014473D01*
X005533Y014449D01*
X005500Y014416D01*
X005476Y014375D01*
X005464Y014329D01*
X005464Y014148D01*
X005880Y014148D01*
X005880Y014485D01*
X005880Y014148D01*
X005880Y014148D01*
X005880Y014148D01*
X006296Y014148D01*
X005880Y014148D01*
X005880Y014148D01*
X005464Y014148D01*
X005464Y013966D01*
X005476Y013921D01*
X005500Y013880D01*
X005528Y013852D01*
X005510Y013844D01*
X005250Y013844D01*
X005232Y013852D01*
X005260Y013880D01*
X005284Y013921D01*
X005296Y013966D01*
X005296Y014148D01*
X005296Y014329D01*
X005284Y014375D01*
X005260Y014416D01*
X005227Y014449D01*
X005186Y014473D01*
X005140Y014485D01*
X004880Y014485D01*
X004620Y014485D01*
X004574Y014473D01*
X004533Y014449D01*
X004500Y014416D01*
X004476Y014375D01*
X004464Y014329D01*
X004464Y014148D01*
X004880Y014148D01*
X004880Y014485D01*
X004880Y014148D01*
X004880Y014148D01*
X004880Y014148D01*
X005296Y014148D01*
X004880Y014148D01*
X004880Y014148D01*
X004464Y014148D01*
X004464Y013966D01*
X004476Y013921D01*
X004500Y013880D01*
X004528Y013852D01*
X004510Y013844D01*
X004250Y013844D01*
X004232Y013852D01*
X004260Y013880D01*
X004284Y013921D01*
X004296Y013966D01*
X004296Y014148D01*
X003880Y014148D01*
X003880Y014148D01*
X003464Y014148D01*
X003464Y013966D01*
X003476Y013921D01*
X003500Y013880D01*
X003528Y013852D01*
X003485Y013834D01*
X003406Y013755D01*
X003364Y013652D01*
X003364Y013226D01*
X003406Y013123D01*
X003485Y013044D01*
X003370Y013211D02*
X003246Y013211D01*
X003266Y013222D02*
X003300Y013256D01*
X003323Y013297D01*
X003336Y013343D01*
X003336Y013565D01*
X002918Y013565D01*
X002918Y013641D01*
X002842Y013641D01*
X002842Y014019D01*
X002581Y014019D01*
X002535Y014007D01*
X002494Y013983D01*
X002460Y013949D01*
X002437Y013908D01*
X002424Y013863D01*
X002424Y013641D01*
X002842Y013641D01*
X002842Y013565D01*
X002424Y013565D01*
X002424Y013343D01*
X002437Y013297D01*
X002460Y013256D01*
X002494Y013222D01*
X002535Y013199D01*
X002581Y013187D01*
X002842Y013187D01*
X002842Y013565D01*
X002918Y013565D01*
X002918Y013187D01*
X003179Y013187D01*
X003225Y013199D01*
X003266Y013222D01*
X003336Y013369D02*
X003364Y013369D01*
X003364Y013528D02*
X003336Y013528D01*
X003336Y013641D02*
X003336Y013863D01*
X003323Y013908D01*
X003300Y013949D01*
X003266Y013983D01*
X003225Y014007D01*
X003179Y014019D01*
X002918Y014019D01*
X002918Y013641D01*
X003336Y013641D01*
X003336Y013686D02*
X003378Y013686D01*
X003336Y013845D02*
X003512Y013845D01*
X003464Y014003D02*
X003231Y014003D01*
X003464Y014162D02*
X000660Y014162D01*
X000660Y014320D02*
X001336Y014320D01*
X001230Y014479D02*
X000660Y014479D01*
X000660Y014637D02*
X001224Y014637D01*
X001224Y014796D02*
X000660Y014796D01*
X000660Y014954D02*
X001224Y014954D01*
X001240Y015113D02*
X000660Y015113D01*
X000660Y015271D02*
X001379Y015271D01*
X001420Y015430D02*
X000660Y015430D01*
X000660Y015588D02*
X001420Y015588D01*
X001420Y015747D02*
X000660Y015747D01*
X000660Y015905D02*
X001420Y015905D01*
X001420Y016064D02*
X000660Y016064D01*
X000660Y016222D02*
X001500Y016222D01*
X001658Y016381D02*
X000660Y016381D01*
X000660Y016539D02*
X001817Y016539D01*
X001975Y016698D02*
X000660Y016698D01*
X000660Y016856D02*
X003043Y016856D01*
X003043Y017015D02*
X000660Y017015D01*
X000660Y017173D02*
X003043Y017173D01*
X003136Y017332D02*
X000660Y017332D01*
X000660Y017490D02*
X007103Y017490D01*
X007102Y017332D02*
X006424Y017332D01*
X006517Y017173D02*
X007154Y017173D01*
X007282Y017015D02*
X006517Y017015D01*
X006517Y016856D02*
X007608Y016856D01*
X007620Y016698D02*
X007285Y016698D01*
X007443Y016539D02*
X007620Y016539D01*
X007620Y016381D02*
X007533Y016381D01*
X007540Y016222D02*
X007620Y016222D01*
X007620Y016064D02*
X007540Y016064D01*
X007540Y015905D02*
X007620Y015905D01*
X007620Y015747D02*
X007540Y015747D01*
X007540Y015588D02*
X007620Y015588D01*
X007620Y015430D02*
X007540Y015430D01*
X007540Y015271D02*
X007620Y015271D01*
X007620Y015113D02*
X007540Y015113D01*
X007540Y014954D02*
X007620Y014954D01*
X007620Y014796D02*
X007540Y014796D01*
X007540Y014637D02*
X007620Y014637D01*
X007620Y014479D02*
X007540Y014479D01*
X007540Y014320D02*
X007620Y014320D01*
X007620Y014162D02*
X007540Y014162D01*
X007540Y014003D02*
X007620Y014003D01*
X007620Y013845D02*
X007540Y013845D01*
X007540Y013686D02*
X007620Y013686D01*
X007620Y013528D02*
X007540Y013528D01*
X007540Y013369D02*
X007620Y013369D01*
X007620Y013211D02*
X007540Y013211D01*
X007540Y013052D02*
X007649Y013052D01*
X007540Y012894D02*
X007770Y012894D01*
X007929Y012735D02*
X007540Y012735D01*
X007540Y012577D02*
X008087Y012577D01*
X008246Y012418D02*
X007540Y012418D01*
X007540Y012260D02*
X008404Y012260D01*
X008563Y012101D02*
X007540Y012101D01*
X007540Y011943D02*
X008721Y011943D01*
X008880Y011784D02*
X007540Y011784D01*
X007540Y011626D02*
X009038Y011626D01*
X009082Y011467D02*
X009197Y011467D01*
X009580Y011593D02*
X010580Y011593D01*
X010730Y011743D01*
X010730Y012232D01*
X011230Y012232D02*
X011230Y011643D01*
X010680Y011093D01*
X008780Y011093D01*
X008780Y005093D01*
X008930Y004943D01*
X017780Y004943D01*
X018180Y005343D01*
X018180Y006293D01*
X017930Y006543D01*
X017430Y006543D01*
X017761Y007029D02*
X025292Y007029D01*
X025184Y006871D02*
X018080Y006871D01*
X018270Y006712D02*
X025098Y006712D01*
X025049Y006554D02*
X018429Y006554D01*
X018527Y006395D02*
X025000Y006395D01*
X024969Y006237D02*
X018540Y006237D01*
X018540Y006078D02*
X024969Y006078D01*
X024969Y005920D02*
X018540Y005920D01*
X018540Y005761D02*
X024979Y005761D01*
X025027Y005603D02*
X018540Y005603D01*
X018540Y005444D02*
X025076Y005444D01*
X025136Y005286D02*
X018540Y005286D01*
X018473Y005127D02*
X025244Y005127D01*
X025401Y007188D02*
X017290Y007188D01*
X017392Y007346D02*
X025600Y007346D01*
X025807Y007505D02*
X017551Y007505D01*
X017709Y007663D02*
X024738Y007663D01*
X024625Y007694D02*
X024925Y007613D01*
X025235Y007613D01*
X025535Y007694D01*
X025805Y007849D01*
X026024Y008069D01*
X026180Y008338D01*
X026260Y008638D01*
X026260Y008949D01*
X026180Y009249D01*
X026024Y009518D01*
X025805Y009738D01*
X025535Y009893D01*
X025235Y009973D01*
X024925Y009973D01*
X024625Y009893D01*
X024355Y009738D01*
X024136Y009518D01*
X023980Y009249D01*
X023900Y008949D01*
X023900Y008638D01*
X023980Y008338D01*
X024136Y008069D01*
X024355Y007849D01*
X024625Y007694D01*
X024403Y007822D02*
X017868Y007822D01*
X018026Y007980D02*
X024224Y007980D01*
X024095Y008139D02*
X018185Y008139D01*
X018343Y008297D02*
X024004Y008297D01*
X023949Y008456D02*
X018502Y008456D01*
X018660Y008614D02*
X023906Y008614D01*
X023900Y008773D02*
X022163Y008773D01*
X022166Y008774D02*
X022199Y008808D01*
X022223Y008849D01*
X022235Y008895D01*
X022235Y009248D01*
X021725Y009248D01*
X021725Y008738D01*
X022079Y008738D01*
X022124Y008751D01*
X022166Y008774D01*
X022235Y008931D02*
X023900Y008931D01*
X023938Y009090D02*
X022235Y009090D01*
X022235Y009338D02*
X022235Y009692D01*
X022233Y009700D01*
X022292Y009760D01*
X022335Y009863D01*
X022335Y010724D01*
X022306Y010793D01*
X022335Y010863D01*
X022335Y011376D01*
X023092Y012133D01*
X023154Y012282D01*
X023154Y014938D01*
X023553Y014938D01*
X023656Y014980D01*
X023734Y015059D01*
X023777Y015162D01*
X023777Y015825D01*
X023734Y015928D01*
X023656Y016006D01*
X023553Y016049D01*
X023135Y016049D01*
X023135Y016426D01*
X025423Y018714D01*
X025485Y018863D01*
X025485Y023874D01*
X025423Y024023D01*
X025309Y024137D01*
X024059Y025387D01*
X023911Y025448D01*
X021599Y025448D01*
X021451Y025387D01*
X021337Y025273D01*
X020761Y024697D01*
X018100Y024697D01*
X018072Y024766D01*
X017994Y024843D01*
X018072Y024921D01*
X018114Y025024D01*
X018114Y025765D01*
X018072Y025868D01*
X017993Y025947D01*
X017950Y025965D01*
X017993Y026008D01*
X018036Y026111D01*
X018036Y026695D01*
X017993Y026798D01*
X017953Y026837D01*
X017958Y026848D01*
X017958Y027038D01*
X017924Y027120D01*
X017993Y027189D01*
X018036Y027292D01*
X018036Y027876D01*
X017993Y027979D01*
X017914Y028057D01*
X017811Y028100D01*
X017149Y028100D01*
X017046Y028057D01*
X016967Y027979D01*
X016924Y027876D01*
X016924Y027875D01*
X016801Y027999D01*
X016625Y028071D01*
X016435Y028071D01*
X016269Y028003D01*
X016214Y028057D01*
X016111Y028100D01*
X015449Y028100D01*
X015346Y028057D01*
X015267Y027979D01*
X015224Y027876D01*
X015224Y027292D01*
X015267Y027189D01*
X015346Y027110D01*
X015449Y027068D01*
X016111Y027068D01*
X016214Y027110D01*
X016282Y027178D01*
X016435Y027115D01*
X016625Y027115D01*
X016801Y027188D01*
X016924Y027312D01*
X016924Y027292D01*
X016967Y027189D01*
X017036Y027120D01*
X017002Y027038D01*
X017002Y026848D01*
X017007Y026837D01*
X016967Y026798D01*
X016924Y026695D01*
X016924Y026111D01*
X016967Y026008D01*
X017010Y025965D01*
X016967Y025947D01*
X016888Y025868D01*
X016846Y025765D01*
X016846Y025024D01*
X016888Y024921D01*
X016966Y024843D01*
X016888Y024766D01*
X016860Y024697D01*
X016400Y024697D01*
X016372Y024766D01*
X016294Y024843D01*
X016372Y024921D01*
X016414Y025024D01*
X016414Y025765D01*
X016372Y025868D01*
X016293Y025947D01*
X016250Y025965D01*
X016293Y026008D01*
X016336Y026111D01*
X016336Y026695D01*
X016293Y026798D01*
X016214Y026876D01*
X016111Y026919D01*
X015449Y026919D01*
X015346Y026876D01*
X015267Y026798D01*
X015224Y026695D01*
X015224Y026111D01*
X015267Y026008D01*
X015310Y025965D01*
X015267Y025947D01*
X015188Y025868D01*
X015146Y025765D01*
X015146Y025024D01*
X015188Y024921D01*
X015266Y024843D01*
X015188Y024766D01*
X015160Y024697D01*
X014700Y024697D01*
X014672Y024766D01*
X014594Y024843D01*
X014672Y024921D01*
X014714Y025024D01*
X014714Y025765D01*
X014672Y025868D01*
X014593Y025947D01*
X014550Y025965D01*
X014593Y026008D01*
X014636Y026111D01*
X014636Y026695D01*
X014593Y026798D01*
X014539Y026852D01*
X014558Y026898D01*
X014558Y027088D01*
X014539Y027135D01*
X014593Y027189D01*
X014636Y027292D01*
X014636Y027876D01*
X014593Y027979D01*
X014514Y028057D01*
X014411Y028100D01*
X013749Y028100D01*
X013646Y028057D01*
X013567Y027979D01*
X013524Y027876D01*
X013524Y027292D01*
X013567Y027189D01*
X013621Y027135D01*
X013602Y027088D01*
X013602Y026898D01*
X013621Y026852D01*
X013567Y026798D01*
X013524Y026695D01*
X013524Y026111D01*
X013567Y026008D01*
X013610Y025965D01*
X013567Y025947D01*
X013488Y025868D01*
X013446Y025765D01*
X013446Y025024D01*
X013488Y024921D01*
X013566Y024843D01*
X013488Y024766D01*
X013460Y024697D01*
X012900Y024697D01*
X012872Y024766D01*
X012794Y024843D01*
X012872Y024921D01*
X012914Y025024D01*
X012914Y025765D01*
X012872Y025868D01*
X012793Y025947D01*
X012750Y025965D01*
X012793Y026008D01*
X012836Y026111D01*
X012836Y026695D01*
X012793Y026798D01*
X012739Y026852D01*
X012758Y026898D01*
X012758Y027088D01*
X012739Y027135D01*
X012793Y027189D01*
X012836Y027292D01*
X012836Y027876D01*
X012793Y027979D01*
X012714Y028057D01*
X012611Y028100D01*
X011949Y028100D01*
X011846Y028057D01*
X011767Y027979D01*
X011724Y027876D01*
X011724Y027292D01*
X011767Y027189D01*
X011821Y027135D01*
X011802Y027088D01*
X011802Y026898D01*
X011821Y026852D01*
X011767Y026798D01*
X011724Y026695D01*
X011724Y026111D01*
X011767Y026008D01*
X011810Y025965D01*
X011767Y025947D01*
X011688Y025868D01*
X011646Y025765D01*
X011646Y025024D01*
X011688Y024921D01*
X011766Y024843D01*
X011688Y024766D01*
X011660Y024697D01*
X011100Y024697D01*
X011072Y024766D01*
X010994Y024843D01*
X011072Y024921D01*
X011114Y025024D01*
X011114Y025765D01*
X011072Y025868D01*
X010993Y025947D01*
X010950Y025965D01*
X010993Y026008D01*
X011036Y026111D01*
X011036Y026321D01*
X011040Y026331D01*
X011040Y026565D01*
X011036Y026576D01*
X011036Y026695D01*
X010993Y026798D01*
X010939Y026852D01*
X010958Y026898D01*
X010958Y027088D01*
X010939Y027135D01*
X010993Y027189D01*
X011036Y027292D01*
X011036Y027876D01*
X010993Y027979D01*
X010914Y028057D01*
X010811Y028100D01*
X010149Y028100D01*
X010046Y028057D01*
X009967Y027979D01*
X009924Y027876D01*
X009924Y027292D01*
X009967Y027189D01*
X010021Y027135D01*
X010002Y027088D01*
X010002Y026898D01*
X010021Y026852D01*
X009967Y026798D01*
X009924Y026695D01*
X009924Y026111D01*
X009967Y026008D01*
X010010Y025965D01*
X009967Y025947D01*
X009888Y025868D01*
X009846Y025765D01*
X009846Y025024D01*
X009888Y024921D01*
X009966Y024843D01*
X009888Y024766D01*
X009860Y024697D01*
X009350Y024697D01*
X009322Y024766D01*
X009244Y024843D01*
X009322Y024921D01*
X009364Y025024D01*
X009364Y025765D01*
X009322Y025868D01*
X009243Y025947D01*
X009164Y025979D01*
X009193Y026008D01*
X009236Y026111D01*
X009236Y026695D01*
X009193Y026798D01*
X009139Y026852D01*
X009158Y026898D01*
X009158Y027088D01*
X009139Y027135D01*
X009193Y027189D01*
X009236Y027292D01*
X009236Y027876D01*
X009193Y027979D01*
X009114Y028057D01*
X009011Y028100D01*
X008349Y028100D01*
X008246Y028057D01*
X008167Y027979D01*
X008124Y027876D01*
X008124Y027292D01*
X008167Y027189D01*
X008221Y027135D01*
X008202Y027088D01*
X008202Y026898D01*
X008221Y026852D01*
X008167Y026798D01*
X008124Y026695D01*
X008124Y026111D01*
X008167Y026008D01*
X008225Y025950D01*
X008217Y025947D01*
X008138Y025868D01*
X008096Y025765D01*
X008096Y025024D01*
X008138Y024921D01*
X008216Y024843D01*
X008138Y024766D01*
X008110Y024697D01*
X007500Y024697D01*
X007472Y024766D01*
X007394Y024843D01*
X007472Y024921D01*
X007514Y025024D01*
X007514Y025765D01*
X007472Y025868D01*
X007393Y025947D01*
X007350Y025965D01*
X007393Y026008D01*
X007436Y026111D01*
X007436Y026695D01*
X007393Y026798D01*
X007358Y026832D01*
X007358Y026988D01*
X007309Y027108D01*
X007314Y027110D01*
X007393Y027189D01*
X007436Y027292D01*
X007436Y027876D01*
X007393Y027979D01*
X007314Y028057D01*
X007211Y028100D01*
X006549Y028100D01*
X006446Y028057D01*
X006367Y027979D01*
X006324Y027876D01*
X006324Y027292D01*
X006367Y027189D01*
X006446Y027110D01*
X006451Y027108D01*
X006402Y026988D01*
X006402Y026832D01*
X006367Y026798D01*
X006324Y026695D01*
X006324Y026111D01*
X006367Y026008D01*
X006410Y025965D01*
X006367Y025947D01*
X006288Y025868D01*
X006246Y025765D01*
X006246Y025024D01*
X006288Y024921D01*
X006366Y024843D01*
X006288Y024766D01*
X006246Y024663D01*
X006246Y023921D01*
X006288Y023819D01*
X006367Y023740D01*
X006470Y023697D01*
X007290Y023697D01*
X007393Y023740D01*
X007472Y023819D01*
X007500Y023887D01*
X008110Y023887D01*
X008138Y023819D01*
X008217Y023740D01*
X008320Y023697D01*
X009140Y023697D01*
X009243Y023740D01*
X009322Y023819D01*
X009350Y023887D01*
X009860Y023887D01*
X009888Y023819D01*
X009967Y023740D01*
X010070Y023697D01*
X010890Y023697D01*
X010993Y023740D01*
X011072Y023819D01*
X011100Y023887D01*
X011660Y023887D01*
X011688Y023819D01*
X011767Y023740D01*
X011870Y023697D01*
X012690Y023697D01*
X012793Y023740D01*
X012872Y023819D01*
X012900Y023887D01*
X013460Y023887D01*
X013488Y023819D01*
X013567Y023740D01*
X013670Y023697D01*
X014490Y023697D01*
X014593Y023740D01*
X014672Y023819D01*
X014700Y023887D01*
X015160Y023887D01*
X015188Y023819D01*
X015267Y023740D01*
X015370Y023697D01*
X016190Y023697D01*
X016293Y023740D01*
X016372Y023819D01*
X016400Y023887D01*
X016860Y023887D01*
X016888Y023819D01*
X016967Y023740D01*
X017070Y023697D01*
X017890Y023697D01*
X017993Y023740D01*
X018072Y023819D01*
X018100Y023887D01*
X021009Y023887D01*
X021158Y023949D01*
X021848Y024638D01*
X022290Y024638D01*
X022227Y024529D01*
X022150Y024242D01*
X022150Y023945D01*
X022227Y023657D01*
X022358Y023431D01*
X022280Y023431D01*
X022280Y022993D01*
X022280Y022193D01*
X022280Y022193D01*
X022280Y021831D01*
X022280Y021393D01*
X022280Y021393D01*
X022280Y021031D01*
X022280Y020593D01*
X022280Y020593D01*
X022717Y020593D01*
X022717Y020874D01*
X022705Y020920D01*
X022682Y020961D01*
X022650Y020993D01*
X022682Y021025D01*
X022705Y021066D01*
X022717Y021112D01*
X022717Y021393D01*
X022280Y021393D01*
X022280Y021393D01*
X022717Y021393D01*
X022717Y021674D01*
X022705Y021720D01*
X022682Y021761D01*
X022650Y021793D01*
X022682Y021825D01*
X022705Y021866D01*
X022717Y021912D01*
X022717Y022193D01*
X022280Y022193D01*
X022280Y022193D01*
X022717Y022193D01*
X022717Y022474D01*
X022705Y022520D01*
X022682Y022561D01*
X022650Y022593D01*
X022682Y022625D01*
X022705Y022666D01*
X022717Y022712D01*
X022717Y022993D01*
X022280Y022993D01*
X022280Y022993D01*
X022280Y022993D01*
X022717Y022993D01*
X022717Y023113D01*
X022844Y023040D01*
X023131Y022963D01*
X023429Y022963D01*
X023716Y023040D01*
X023974Y023189D01*
X024184Y023399D01*
X024333Y023657D01*
X024399Y023902D01*
X024675Y023626D01*
X024675Y019111D01*
X024374Y018810D01*
X024410Y018945D01*
X024410Y019242D01*
X024333Y019529D01*
X024184Y019787D01*
X023974Y019998D01*
X023716Y020146D01*
X023429Y020223D01*
X023131Y020223D01*
X022844Y020146D01*
X022586Y019998D01*
X022376Y019787D01*
X022227Y019529D01*
X022150Y019242D01*
X022150Y018945D01*
X022227Y018657D01*
X022376Y018399D01*
X022586Y018189D01*
X022844Y018040D01*
X023131Y017963D01*
X023429Y017963D01*
X023563Y017999D01*
X022501Y016937D01*
X022387Y016823D01*
X022325Y016674D01*
X022325Y016049D01*
X021945Y016049D01*
X021842Y016006D01*
X021763Y015928D01*
X021721Y015825D01*
X021721Y015162D01*
X021763Y015059D01*
X021842Y014980D01*
X021945Y014938D01*
X022344Y014938D01*
X022344Y012530D01*
X021762Y011948D01*
X021249Y011948D01*
X021146Y011906D01*
X021068Y011827D01*
X021025Y011724D01*
X021025Y010863D01*
X021054Y010793D01*
X021025Y010724D01*
X021025Y009863D01*
X021068Y009760D01*
X021127Y009700D01*
X021125Y009692D01*
X021125Y009338D01*
X021635Y009338D01*
X021635Y009248D01*
X021725Y009248D01*
X021725Y009338D01*
X022235Y009338D01*
X022235Y009407D02*
X024072Y009407D01*
X023980Y009248D02*
X021725Y009248D01*
X021635Y009248D02*
X021635Y008738D01*
X021281Y008738D01*
X021236Y008751D01*
X021194Y008774D01*
X021161Y008808D01*
X021137Y008849D01*
X021125Y008895D01*
X021125Y009248D01*
X021635Y009248D01*
X019294Y009248D01*
X019136Y009090D02*
X021125Y009090D01*
X021125Y008931D02*
X018977Y008931D01*
X018819Y008773D02*
X021197Y008773D01*
X021635Y008773D02*
X021725Y008773D01*
X021725Y008931D02*
X021635Y008931D01*
X021635Y009090D02*
X021725Y009090D01*
X021125Y009407D02*
X019453Y009407D01*
X019611Y009565D02*
X021125Y009565D01*
X021104Y009724D02*
X019720Y009724D01*
X019740Y009882D02*
X021025Y009882D01*
X021025Y010041D02*
X019740Y010041D01*
X019740Y010199D02*
X021025Y010199D01*
X021025Y010358D02*
X019740Y010358D01*
X019740Y010516D02*
X021025Y010516D01*
X021025Y010675D02*
X019740Y010675D01*
X019740Y010833D02*
X021037Y010833D01*
X021025Y010992D02*
X019740Y010992D01*
X019740Y011150D02*
X021025Y011150D01*
X021025Y011309D02*
X019740Y011309D01*
X019740Y011467D02*
X021025Y011467D01*
X021025Y011626D02*
X019740Y011626D01*
X019740Y011784D02*
X021050Y011784D01*
X021236Y011943D02*
X019740Y011943D01*
X019740Y012101D02*
X021915Y012101D01*
X022074Y012260D02*
X019740Y012260D01*
X019740Y012418D02*
X022232Y012418D01*
X022344Y012577D02*
X019740Y012577D01*
X019740Y012735D02*
X022344Y012735D01*
X022344Y012894D02*
X019740Y012894D01*
X019740Y013052D02*
X022344Y013052D01*
X022344Y013211D02*
X019740Y013211D01*
X019740Y013369D02*
X022344Y013369D01*
X022344Y013528D02*
X019740Y013528D01*
X019740Y013686D02*
X022344Y013686D01*
X022344Y013845D02*
X019740Y013845D01*
X019740Y014003D02*
X022344Y014003D01*
X022344Y014162D02*
X019740Y014162D01*
X019740Y014320D02*
X022344Y014320D01*
X022344Y014479D02*
X019740Y014479D01*
X019740Y014637D02*
X022344Y014637D01*
X022344Y014796D02*
X019740Y014796D01*
X019740Y014954D02*
X021905Y014954D01*
X021741Y015113D02*
X019740Y015113D01*
X019737Y015271D02*
X021721Y015271D01*
X021721Y015430D02*
X019653Y015430D01*
X019494Y015588D02*
X021721Y015588D01*
X021721Y015747D02*
X019336Y015747D01*
X019177Y015905D02*
X021754Y015905D01*
X022325Y016064D02*
X019019Y016064D01*
X018860Y016222D02*
X022325Y016222D01*
X022325Y016381D02*
X018702Y016381D01*
X018543Y016539D02*
X022325Y016539D01*
X022335Y016698D02*
X018385Y016698D01*
X018226Y016856D02*
X022420Y016856D01*
X022579Y017015D02*
X018108Y017015D01*
X018052Y017173D02*
X022737Y017173D01*
X022896Y017332D02*
X017918Y017332D01*
X017592Y017490D02*
X023054Y017490D01*
X023213Y017649D02*
X017434Y017649D01*
X017180Y017393D02*
X017630Y016943D01*
X019380Y015193D01*
X019380Y009843D01*
X016930Y007393D01*
X016930Y006043D01*
X016430Y005543D01*
X015930Y006043D02*
X015430Y005543D01*
X014930Y006043D02*
X014430Y005543D01*
X013930Y006043D02*
X013430Y005543D01*
X012930Y006043D02*
X012930Y009893D01*
X014730Y011693D01*
X014730Y012232D01*
X014230Y012232D02*
X014230Y011743D01*
X011930Y009443D01*
X011930Y006043D01*
X011430Y005543D01*
X010430Y005543D02*
X009829Y006144D01*
X009829Y008243D01*
X010189Y007609D02*
X010199Y007609D01*
X010302Y007652D01*
X010380Y007729D01*
X010458Y007652D01*
X010561Y007609D01*
X011302Y007609D01*
X011405Y007652D01*
X011484Y007730D01*
X011526Y007833D01*
X011526Y008653D01*
X011484Y008756D01*
X011405Y008835D01*
X011302Y008878D01*
X011291Y008878D01*
X011291Y010695D01*
X011934Y011338D01*
X012035Y011439D01*
X012090Y011572D01*
X012090Y011698D01*
X012230Y011698D01*
X012372Y011698D01*
X012418Y011710D01*
X012459Y011734D01*
X012480Y011755D01*
X012501Y011734D01*
X012542Y011710D01*
X012588Y011698D01*
X012730Y011698D01*
X012872Y011698D01*
X012918Y011710D01*
X012959Y011734D01*
X012980Y011755D01*
X013001Y011734D01*
X013042Y011710D01*
X013088Y011698D01*
X013230Y011698D01*
X013372Y011698D01*
X013418Y011710D01*
X013459Y011734D01*
X013480Y011755D01*
X013501Y011734D01*
X013542Y011710D01*
X013588Y011698D01*
X013676Y011698D01*
X011726Y009748D01*
X011625Y009647D01*
X011570Y009515D01*
X011570Y007110D01*
X011545Y007121D01*
X011315Y007121D01*
X011103Y007033D01*
X010940Y006870D01*
X010930Y006845D01*
X010920Y006870D01*
X010757Y007033D01*
X010545Y007121D01*
X010315Y007121D01*
X010189Y007068D01*
X010189Y007609D01*
X010189Y007505D02*
X011570Y007505D01*
X011570Y007663D02*
X011416Y007663D01*
X011521Y007822D02*
X011570Y007822D01*
X011570Y007980D02*
X011526Y007980D01*
X011526Y008139D02*
X011570Y008139D01*
X011570Y008297D02*
X011526Y008297D01*
X011526Y008456D02*
X011570Y008456D01*
X011570Y008614D02*
X011526Y008614D01*
X011570Y008773D02*
X011467Y008773D01*
X011570Y008931D02*
X011291Y008931D01*
X011291Y009090D02*
X011570Y009090D01*
X011570Y009248D02*
X011291Y009248D01*
X011291Y009407D02*
X011570Y009407D01*
X011591Y009565D02*
X011291Y009565D01*
X011291Y009724D02*
X011701Y009724D01*
X011860Y009882D02*
X011291Y009882D01*
X011291Y010041D02*
X012018Y010041D01*
X012177Y010199D02*
X011291Y010199D01*
X011291Y010358D02*
X012335Y010358D01*
X012494Y010516D02*
X011291Y010516D01*
X011291Y010675D02*
X012652Y010675D01*
X012811Y010833D02*
X011429Y010833D01*
X011588Y010992D02*
X012969Y010992D01*
X013128Y011150D02*
X011746Y011150D01*
X011905Y011309D02*
X013286Y011309D01*
X013445Y011467D02*
X012047Y011467D01*
X012090Y011626D02*
X013603Y011626D01*
X013230Y011698D02*
X013230Y012232D01*
X013230Y012232D01*
X013230Y011698D01*
X013230Y011784D02*
X013230Y011784D01*
X013230Y011943D02*
X013230Y011943D01*
X013230Y012101D02*
X013230Y012101D01*
X013230Y012232D02*
X013028Y012232D01*
X012730Y012232D01*
X012730Y011698D01*
X012730Y012232D01*
X012730Y012232D01*
X012730Y012232D01*
X012432Y012232D01*
X012230Y012232D01*
X012230Y011698D01*
X012230Y012232D01*
X012230Y012232D01*
X012230Y012232D01*
X012730Y012232D01*
X012730Y012232D01*
X013230Y012232D01*
X013230Y012232D01*
X013230Y012232D01*
X013432Y012232D01*
X013730Y012232D01*
X013730Y012232D01*
X013230Y012232D01*
X013230Y013043D01*
X013230Y012767D02*
X013088Y012767D01*
X013042Y012754D01*
X013001Y012731D01*
X012980Y012709D01*
X012959Y012731D01*
X012918Y012754D01*
X012872Y012767D01*
X012730Y012767D01*
X012588Y012767D01*
X012542Y012754D01*
X012501Y012731D01*
X012480Y012709D01*
X012459Y012731D01*
X012418Y012754D01*
X012372Y012767D01*
X012230Y012767D01*
X012088Y012767D01*
X012069Y012762D01*
X012007Y012824D01*
X011904Y012867D01*
X011556Y012867D01*
X011480Y012835D01*
X011404Y012867D01*
X011056Y012867D01*
X010980Y012835D01*
X010904Y012867D01*
X010556Y012867D01*
X010480Y012835D01*
X010404Y012867D01*
X010056Y012867D01*
X009953Y012824D01*
X009875Y012745D01*
X009832Y012642D01*
X009832Y012592D01*
X009690Y012592D01*
X008690Y013592D01*
X008690Y013874D01*
X009276Y013288D01*
X009408Y013233D01*
X014791Y013233D01*
X014752Y013138D01*
X014752Y012948D01*
X014786Y012867D01*
X014556Y012867D01*
X014480Y012835D01*
X014404Y012867D01*
X014056Y012867D01*
X013953Y012824D01*
X013891Y012762D01*
X013872Y012767D01*
X013730Y012767D01*
X013588Y012767D01*
X013542Y012754D01*
X013501Y012731D01*
X013480Y012709D01*
X013459Y012731D01*
X013418Y012754D01*
X013372Y012767D01*
X013230Y012767D01*
X013230Y012232D01*
X012730Y012232D01*
X012230Y012232D01*
X012230Y012767D01*
X012230Y012232D01*
X012230Y012232D01*
X012230Y012260D02*
X012230Y012260D01*
X012230Y012418D02*
X012230Y012418D01*
X012230Y012577D02*
X012230Y012577D01*
X012230Y012735D02*
X012230Y012735D01*
X012451Y012735D02*
X012509Y012735D01*
X012730Y012735D02*
X012730Y012735D01*
X012730Y012767D02*
X012730Y012232D01*
X012730Y012232D01*
X012730Y012767D01*
X012730Y012577D02*
X012730Y012577D01*
X012730Y012418D02*
X012730Y012418D01*
X012730Y012260D02*
X012730Y012260D01*
X012730Y012101D02*
X012730Y012101D01*
X012730Y011943D02*
X012730Y011943D01*
X012730Y011784D02*
X012730Y011784D01*
X012230Y011784D02*
X012230Y011784D01*
X012230Y011943D02*
X012230Y011943D01*
X012230Y012101D02*
X012230Y012101D01*
X011730Y012232D02*
X011730Y011643D01*
X010931Y010844D01*
X010931Y008243D01*
X010446Y007663D02*
X010314Y007663D01*
X010189Y007346D02*
X011570Y007346D01*
X011570Y007188D02*
X010189Y007188D01*
X010761Y007029D02*
X011099Y007029D01*
X010941Y006871D02*
X010919Y006871D01*
X012430Y005543D02*
X012930Y006043D01*
X013930Y006043D02*
X013930Y007193D01*
X017630Y010893D01*
X017630Y014993D01*
X016130Y016493D01*
X014930Y016493D01*
X014730Y016293D01*
X014730Y015854D01*
X014230Y015854D02*
X014230Y016343D01*
X014680Y016793D01*
X016430Y016793D01*
X017630Y015593D01*
X018180Y015043D01*
X018180Y010543D01*
X014930Y007293D01*
X014930Y006043D01*
X015930Y006043D02*
X015930Y007343D01*
X018780Y010193D01*
X018780Y015143D01*
X017630Y016293D01*
X016830Y017093D01*
X012530Y017093D01*
X011730Y016293D01*
X011730Y015854D01*
X012230Y015854D02*
X012230Y015854D01*
X012230Y015320D01*
X012372Y015320D01*
X012418Y015332D01*
X012459Y015356D01*
X012480Y015377D01*
X012501Y015356D01*
X012542Y015332D01*
X012588Y015320D01*
X012730Y015320D01*
X012872Y015320D01*
X012918Y015332D01*
X012959Y015356D01*
X012980Y015377D01*
X013001Y015356D01*
X013042Y015332D01*
X013088Y015320D01*
X013230Y015320D01*
X013372Y015320D01*
X013418Y015332D01*
X013459Y015356D01*
X013480Y015377D01*
X013501Y015356D01*
X013542Y015332D01*
X013588Y015320D01*
X013730Y015320D01*
X013872Y015320D01*
X013891Y015325D01*
X013953Y015263D01*
X014056Y015220D01*
X014404Y015220D01*
X014480Y015252D01*
X014556Y015220D01*
X014904Y015220D01*
X015007Y015263D01*
X015069Y015325D01*
X015088Y015320D01*
X015230Y015320D01*
X015370Y015320D01*
X015370Y014992D01*
X015281Y014903D01*
X011169Y014903D01*
X011208Y014998D01*
X011208Y015188D01*
X011195Y015220D01*
X011404Y015220D01*
X011480Y015252D01*
X011556Y015220D01*
X011904Y015220D01*
X012007Y015263D01*
X012069Y015325D01*
X012088Y015320D01*
X012230Y015320D01*
X012230Y015854D01*
X012230Y015854D01*
X012730Y015854D01*
X012730Y015320D01*
X012730Y015854D01*
X012730Y015854D01*
X012730Y015854D01*
X013230Y015854D01*
X013230Y015320D01*
X013230Y015854D01*
X013230Y015854D01*
X013230Y015854D01*
X013528Y015854D01*
X013730Y015854D01*
X013730Y015320D01*
X013730Y015854D01*
X013730Y015854D01*
X013730Y015854D01*
X013230Y015854D01*
X013230Y015854D01*
X012730Y015854D01*
X012730Y015854D01*
X012730Y015093D01*
X012730Y015430D02*
X012730Y015430D01*
X012730Y015588D02*
X012730Y015588D01*
X012730Y015747D02*
X012730Y015747D01*
X012730Y015854D02*
X012230Y015854D01*
X012528Y015854D01*
X012730Y015854D01*
X012932Y015854D01*
X013230Y015854D01*
X013730Y015854D01*
X013730Y016389D01*
X013588Y016389D01*
X013542Y016376D01*
X013501Y016353D01*
X013480Y016331D01*
X013459Y016353D01*
X013418Y016376D01*
X013372Y016389D01*
X013230Y016389D01*
X013088Y016389D01*
X013042Y016376D01*
X013001Y016353D01*
X012980Y016331D01*
X012959Y016353D01*
X012918Y016376D01*
X012872Y016389D01*
X012730Y016389D01*
X012588Y016389D01*
X012542Y016376D01*
X012501Y016353D01*
X012480Y016331D01*
X012459Y016353D01*
X012418Y016376D01*
X012372Y016389D01*
X012334Y016389D01*
X012679Y016733D01*
X014111Y016733D01*
X013925Y016547D01*
X013870Y016415D01*
X013870Y016389D01*
X013730Y016389D01*
X013730Y015854D01*
X013730Y015854D01*
X013730Y015905D02*
X013730Y015905D01*
X013730Y015747D02*
X013730Y015747D01*
X013730Y015588D02*
X013730Y015588D01*
X013730Y015430D02*
X013730Y015430D01*
X013945Y015271D02*
X012015Y015271D01*
X012230Y015430D02*
X012230Y015430D01*
X012230Y015588D02*
X012230Y015588D01*
X012230Y015747D02*
X012230Y015747D01*
X012730Y015854D02*
X012730Y016389D01*
X012730Y015854D01*
X012730Y015854D01*
X012730Y015905D02*
X012730Y015905D01*
X012730Y016064D02*
X012730Y016064D01*
X012730Y016222D02*
X012730Y016222D01*
X012730Y016381D02*
X012730Y016381D01*
X012559Y016381D02*
X012401Y016381D01*
X012485Y016539D02*
X013922Y016539D01*
X014075Y016698D02*
X012644Y016698D01*
X012901Y016381D02*
X013059Y016381D01*
X013230Y016381D02*
X013230Y016381D01*
X013230Y016389D02*
X013230Y015854D01*
X013230Y015854D01*
X013230Y016389D01*
X013230Y016222D02*
X013230Y016222D01*
X013230Y016064D02*
X013230Y016064D01*
X013230Y015905D02*
X013230Y015905D01*
X013230Y015747D02*
X013230Y015747D01*
X013230Y015588D02*
X013230Y015588D01*
X013230Y015430D02*
X013230Y015430D01*
X013730Y016064D02*
X013730Y016064D01*
X013730Y016222D02*
X013730Y016222D01*
X013730Y016381D02*
X013730Y016381D01*
X013559Y016381D02*
X013401Y016381D01*
X012280Y017393D02*
X017180Y017393D01*
X017108Y017807D02*
X023371Y017807D01*
X023438Y017966D02*
X023530Y017966D01*
X023122Y017966D02*
X017108Y017966D01*
X017052Y018124D02*
X022698Y018124D01*
X022492Y018283D02*
X016917Y018283D01*
X016630Y017893D02*
X014030Y017893D01*
X013891Y018032D01*
X013891Y018343D01*
X013891Y018304D01*
X013891Y018843D02*
X012730Y018843D01*
X012530Y018643D01*
X012530Y018193D01*
X012030Y017693D01*
X009930Y017693D01*
X009630Y017393D01*
X009630Y016143D01*
X009919Y015854D01*
X010230Y015854D01*
X010730Y015854D02*
X010730Y016293D01*
X010530Y016493D01*
X010330Y016493D01*
X010176Y016648D01*
X010176Y017193D01*
X010884Y017193D02*
X010884Y016777D01*
X010755Y016777D01*
X010934Y016598D01*
X010955Y016577D01*
X011711Y017333D01*
X011222Y017333D01*
X011222Y017193D01*
X010884Y017193D01*
X010884Y017193D01*
X010884Y016777D01*
X011066Y016777D01*
X011111Y016789D01*
X011152Y016813D01*
X011186Y016847D01*
X011210Y016888D01*
X011222Y016933D01*
X011222Y017193D01*
X010884Y017193D01*
X010884Y016698D01*
X010880Y016693D01*
X010835Y016698D02*
X011075Y016698D01*
X011191Y016856D02*
X011234Y016856D01*
X011222Y017015D02*
X011392Y017015D01*
X011551Y017173D02*
X011222Y017173D01*
X011222Y017332D02*
X011709Y017332D01*
X012280Y017393D02*
X011230Y016343D01*
X011230Y015854D01*
X010730Y015854D02*
X010730Y015093D01*
X011208Y015113D02*
X015370Y015113D01*
X015230Y015093D02*
X015230Y015854D01*
X015230Y015320D01*
X015230Y015854D01*
X015230Y015854D01*
X015230Y015747D02*
X015230Y015747D01*
X015230Y015588D02*
X015230Y015588D01*
X015230Y015430D02*
X015230Y015430D01*
X015370Y015271D02*
X015015Y015271D01*
X015332Y014954D02*
X011190Y014954D01*
X010080Y014543D02*
X008980Y015643D01*
X008980Y017843D01*
X009980Y018843D01*
X009980Y019239D01*
X009926Y019293D01*
X009280Y019293D01*
X008980Y019593D01*
X007780Y019593D01*
X007180Y020193D02*
X009130Y022143D01*
X012780Y022143D01*
X013080Y021843D01*
X013080Y020593D01*
X013330Y020343D01*
X013891Y020343D01*
X014530Y020343D01*
X014680Y020193D01*
X015334Y020193D01*
X015380Y020239D01*
X014630Y020843D02*
X014780Y020993D01*
X015334Y020993D01*
X015380Y020948D01*
X017734Y020948D01*
X019380Y022593D01*
X021580Y022593D01*
X021114Y023038D02*
X004846Y023038D01*
X004917Y022879D02*
X005469Y022879D01*
X005311Y022721D02*
X004917Y022721D01*
X004917Y022562D02*
X005040Y022562D01*
X005280Y022293D02*
X005080Y022093D01*
X004680Y022093D01*
X004380Y021793D01*
X004580Y021193D02*
X004380Y020993D01*
X004580Y021193D02*
X005580Y021193D01*
X005880Y021493D01*
X006680Y021493D01*
X007161Y020977D02*
X007455Y020977D01*
X007320Y021136D02*
X007613Y021136D01*
X007772Y021294D02*
X007385Y021294D01*
X007385Y021453D02*
X007930Y021453D01*
X008089Y021611D02*
X007385Y021611D01*
X007385Y021770D02*
X008247Y021770D01*
X008406Y021928D02*
X007242Y021928D01*
X007083Y022087D02*
X008564Y022087D01*
X008723Y022245D02*
X006585Y022245D01*
X006585Y022404D02*
X008881Y022404D01*
X009980Y021448D02*
X010926Y021448D01*
X011030Y021343D01*
X011669Y021343D01*
X012580Y021343D01*
X013440Y021770D02*
X018047Y021770D01*
X017889Y021611D02*
X014346Y021611D01*
X014356Y021605D02*
X014315Y021629D01*
X014269Y021641D01*
X013891Y021641D01*
X013891Y021343D01*
X013891Y021832D01*
X013880Y021843D01*
X013891Y021611D02*
X013891Y021611D01*
X013891Y021453D02*
X013891Y021453D01*
X013891Y021343D02*
X013891Y021343D01*
X014425Y021343D01*
X014425Y021485D01*
X014413Y021531D01*
X014389Y021572D01*
X014356Y021605D01*
X014425Y021453D02*
X017730Y021453D01*
X018206Y021928D02*
X013434Y021928D01*
X013346Y022087D02*
X018364Y022087D01*
X018523Y022245D02*
X013187Y022245D01*
X013029Y022404D02*
X018681Y022404D01*
X018840Y022562D02*
X006585Y022562D01*
X006449Y022721D02*
X018998Y022721D01*
X019157Y022879D02*
X006291Y022879D01*
X005880Y022293D02*
X005280Y022293D01*
X005873Y020977D02*
X006199Y020977D01*
X006357Y020819D02*
X004917Y020819D01*
X004909Y020660D02*
X007138Y020660D01*
X007003Y020819D02*
X007296Y020819D01*
X007180Y020193D02*
X004380Y020193D01*
X006280Y018293D01*
X007580Y018293D01*
X008330Y017543D01*
X008330Y013443D01*
X009541Y012232D01*
X010230Y012232D01*
X009870Y012735D02*
X009547Y012735D01*
X009389Y012894D02*
X014774Y012894D01*
X014752Y013052D02*
X009230Y013052D01*
X009072Y013211D02*
X014782Y013211D01*
X015230Y013043D02*
X015230Y012232D01*
X015230Y011643D01*
X014826Y011239D01*
X014826Y011043D01*
X014388Y010842D02*
X014388Y010751D01*
X014431Y010648D01*
X014510Y010570D01*
X014612Y010527D01*
X015039Y010527D01*
X015142Y010570D01*
X015221Y010648D01*
X015238Y010691D01*
X015266Y010663D01*
X015307Y010639D01*
X015353Y010627D01*
X015534Y010627D01*
X015534Y011043D01*
X015534Y011043D01*
X015534Y010627D01*
X015716Y010627D01*
X015761Y010639D01*
X015802Y010663D01*
X015836Y010697D01*
X015860Y010738D01*
X015872Y010783D01*
X015872Y011043D01*
X015534Y011043D01*
X015930Y011043D01*
X015872Y011043D02*
X015872Y011303D01*
X015860Y011349D01*
X015836Y011390D01*
X015802Y011424D01*
X015761Y011447D01*
X015716Y011460D01*
X015544Y011460D01*
X015590Y011572D01*
X015590Y011598D01*
X015904Y011598D01*
X016007Y011641D01*
X016085Y011719D01*
X016128Y011822D01*
X016128Y012642D01*
X016090Y012734D01*
X016090Y013415D01*
X016035Y013547D01*
X015934Y013648D01*
X015684Y013898D01*
X015552Y013953D01*
X009629Y013953D01*
X009040Y014542D01*
X009040Y015074D01*
X009876Y014238D01*
X010008Y014183D01*
X015502Y014183D01*
X015634Y014238D01*
X015735Y014339D01*
X016035Y014639D01*
X016090Y014772D01*
X016090Y015352D01*
X016128Y015444D01*
X016128Y015986D01*
X017152Y014962D01*
X017152Y014898D01*
X017225Y014722D01*
X017270Y014677D01*
X017270Y011042D01*
X013726Y007498D01*
X013625Y007397D01*
X013570Y007265D01*
X013570Y007110D01*
X013545Y007121D01*
X013315Y007121D01*
X013290Y007110D01*
X013290Y009744D01*
X014388Y010842D01*
X014388Y010833D02*
X014379Y010833D01*
X014420Y010675D02*
X014221Y010675D01*
X014062Y010516D02*
X016744Y010516D01*
X016585Y010358D02*
X013904Y010358D01*
X013745Y010199D02*
X016427Y010199D01*
X016268Y010041D02*
X013587Y010041D01*
X013428Y009882D02*
X016110Y009882D01*
X015951Y009724D02*
X013290Y009724D01*
X013290Y009565D02*
X015793Y009565D01*
X015634Y009407D02*
X013290Y009407D01*
X013290Y009248D02*
X015476Y009248D01*
X015317Y009090D02*
X013290Y009090D01*
X013290Y008931D02*
X015159Y008931D01*
X015000Y008773D02*
X013290Y008773D01*
X013290Y008614D02*
X014842Y008614D01*
X014683Y008456D02*
X013290Y008456D01*
X013290Y008297D02*
X014525Y008297D01*
X014366Y008139D02*
X013290Y008139D01*
X013290Y007980D02*
X014208Y007980D01*
X014049Y007822D02*
X013290Y007822D01*
X013290Y007663D02*
X013891Y007663D01*
X013732Y007505D02*
X013290Y007505D01*
X013290Y007346D02*
X013604Y007346D01*
X013570Y007188D02*
X013290Y007188D01*
X015231Y010675D02*
X015255Y010675D01*
X015534Y010675D02*
X015534Y010675D01*
X015534Y010833D02*
X015534Y010833D01*
X015534Y010992D02*
X015534Y010992D01*
X015534Y011043D02*
X015534Y011043D01*
X015872Y011043D01*
X015872Y010992D02*
X017219Y010992D01*
X017270Y011150D02*
X015872Y011150D01*
X015870Y011309D02*
X017270Y011309D01*
X017270Y011467D02*
X015547Y011467D01*
X015971Y011626D02*
X017270Y011626D01*
X017270Y011784D02*
X016112Y011784D01*
X016128Y011943D02*
X017270Y011943D01*
X017270Y012101D02*
X016128Y012101D01*
X016128Y012260D02*
X017270Y012260D01*
X017270Y012418D02*
X016128Y012418D01*
X016128Y012577D02*
X017270Y012577D01*
X017270Y012735D02*
X016090Y012735D01*
X016090Y012894D02*
X017270Y012894D01*
X017270Y013052D02*
X016090Y013052D01*
X016090Y013211D02*
X017270Y013211D01*
X017270Y013369D02*
X016090Y013369D01*
X016043Y013528D02*
X017270Y013528D01*
X017270Y013686D02*
X015896Y013686D01*
X015738Y013845D02*
X017270Y013845D01*
X017270Y014003D02*
X009579Y014003D01*
X009421Y014162D02*
X017270Y014162D01*
X017270Y014320D02*
X015716Y014320D01*
X015875Y014479D02*
X017270Y014479D01*
X017270Y014637D02*
X016033Y014637D01*
X016090Y014796D02*
X017194Y014796D01*
X017152Y014954D02*
X016090Y014954D01*
X016090Y015113D02*
X017001Y015113D01*
X016843Y015271D02*
X016090Y015271D01*
X016122Y015430D02*
X016684Y015430D01*
X016526Y015588D02*
X016128Y015588D01*
X016128Y015747D02*
X016367Y015747D01*
X016209Y015905D02*
X016128Y015905D01*
X015730Y015854D02*
X015730Y014843D01*
X015430Y014543D01*
X010080Y014543D01*
X009794Y014320D02*
X009262Y014320D01*
X009104Y014479D02*
X009635Y014479D01*
X009477Y014637D02*
X009040Y014637D01*
X009040Y014796D02*
X009318Y014796D01*
X009160Y014954D02*
X009040Y014954D01*
X008680Y014393D02*
X009480Y013593D01*
X015480Y013593D01*
X015730Y013343D01*
X015730Y012232D01*
X015872Y010833D02*
X017061Y010833D01*
X016902Y010675D02*
X015814Y010675D01*
X013730Y012232D02*
X013730Y012232D01*
X013230Y012232D01*
X013230Y012232D01*
X013230Y012767D01*
X013230Y012735D02*
X013230Y012735D01*
X013230Y012577D02*
X013230Y012577D01*
X013230Y012418D02*
X013230Y012418D01*
X013230Y012260D02*
X013230Y012260D01*
X013730Y012260D02*
X013730Y012260D01*
X013730Y012232D02*
X013730Y012767D01*
X013730Y012232D01*
X013730Y012418D02*
X013730Y012418D01*
X013730Y012577D02*
X013730Y012577D01*
X013730Y012735D02*
X013730Y012735D01*
X013509Y012735D02*
X013451Y012735D01*
X013009Y012735D02*
X012951Y012735D01*
X009580Y011593D02*
X007980Y013193D01*
X007980Y016993D01*
X007580Y017393D01*
X007330Y017807D02*
X004791Y017807D01*
X004950Y017966D02*
X006130Y017966D01*
X005940Y018124D02*
X005085Y018124D01*
X005085Y018283D02*
X005781Y018283D01*
X005623Y018441D02*
X005085Y018441D01*
X005085Y018600D02*
X005464Y018600D01*
X005306Y018758D02*
X005012Y018758D01*
X005147Y018917D02*
X004853Y018917D01*
X004989Y019075D02*
X004695Y019075D01*
X004830Y019234D02*
X003673Y019234D01*
X003680Y019392D02*
X003680Y019392D01*
X003680Y019551D02*
X003680Y019551D01*
X003680Y019709D02*
X003680Y019709D01*
X003680Y019793D02*
X003680Y019793D01*
X003680Y019868D02*
X003680Y019868D01*
X003680Y020026D02*
X003680Y020026D01*
X003680Y020185D02*
X003680Y020185D01*
X003680Y020343D02*
X003680Y020343D01*
X003680Y020502D02*
X003680Y020502D01*
X003680Y020593D02*
X003680Y020593D01*
X003680Y020660D02*
X003680Y020660D01*
X003680Y020819D02*
X003680Y020819D01*
X003680Y020977D02*
X003680Y020977D01*
X003680Y021136D02*
X003680Y021136D01*
X003680Y021294D02*
X003680Y021294D01*
X003680Y021393D02*
X003680Y021393D01*
X003680Y021453D02*
X003680Y021453D01*
X003680Y021611D02*
X003680Y021611D01*
X003680Y021770D02*
X003680Y021770D01*
X003680Y021928D02*
X003680Y021928D01*
X003680Y022087D02*
X003680Y022087D01*
X003680Y022245D02*
X003680Y022245D01*
X003680Y022404D02*
X003680Y022404D01*
X003680Y022562D02*
X003680Y022562D01*
X003843Y022721D02*
X003256Y022721D01*
X003374Y022789D02*
X003116Y022640D01*
X002829Y022563D01*
X002531Y022563D01*
X002244Y022640D01*
X001986Y022789D01*
X001776Y022999D01*
X001627Y023257D01*
X001550Y023545D01*
X001550Y023842D01*
X001627Y024129D01*
X001776Y024387D01*
X001986Y024598D01*
X002244Y024746D01*
X002531Y024823D01*
X002829Y024823D01*
X003116Y024746D01*
X003374Y024598D01*
X003584Y024387D01*
X003733Y024129D01*
X003810Y023842D01*
X003810Y023545D01*
X003733Y023257D01*
X003584Y022999D01*
X003374Y022789D01*
X003464Y022879D02*
X003843Y022879D01*
X003914Y023038D02*
X003606Y023038D01*
X003698Y023196D02*
X021843Y023196D01*
X021875Y023355D02*
X003759Y023355D01*
X003802Y023513D02*
X022310Y023513D01*
X022280Y023355D02*
X022280Y023355D01*
X022280Y023196D02*
X022280Y023196D01*
X022280Y023038D02*
X022280Y023038D01*
X022280Y022993D02*
X022280Y022993D01*
X022280Y022879D02*
X022280Y022879D01*
X022280Y022721D02*
X022280Y022721D01*
X022280Y022562D02*
X022280Y022562D01*
X022280Y022404D02*
X022280Y022404D01*
X022280Y022245D02*
X022280Y022245D01*
X022280Y022193D02*
X022280Y022193D01*
X022280Y022087D02*
X022280Y022087D01*
X022280Y021928D02*
X022280Y021928D01*
X022280Y021770D02*
X022280Y021770D01*
X022280Y021611D02*
X022280Y021611D01*
X022280Y021453D02*
X022280Y021453D01*
X022280Y021393D02*
X022280Y021393D01*
X022280Y021294D02*
X022280Y021294D01*
X022280Y021136D02*
X022280Y021136D01*
X022280Y020977D02*
X022280Y020977D01*
X022280Y020819D02*
X022280Y020819D01*
X022280Y020660D02*
X022280Y020660D01*
X022280Y020593D02*
X022280Y020593D01*
X022280Y020502D02*
X022280Y020502D01*
X022280Y020343D02*
X022280Y020343D01*
X022280Y020185D02*
X022280Y020185D01*
X022117Y020026D02*
X022636Y020026D01*
X022636Y020185D02*
X022988Y020185D01*
X022717Y020343D02*
X024675Y020343D01*
X024675Y020185D02*
X023572Y020185D01*
X023924Y020026D02*
X024675Y020026D01*
X024675Y019868D02*
X024104Y019868D01*
X024229Y019709D02*
X024675Y019709D01*
X024675Y019551D02*
X024321Y019551D01*
X024370Y019392D02*
X024675Y019392D01*
X024675Y019234D02*
X024410Y019234D01*
X024410Y019075D02*
X024639Y019075D01*
X024481Y018917D02*
X024403Y018917D01*
X024992Y018283D02*
X027670Y018283D01*
X027670Y018441D02*
X025151Y018441D01*
X025309Y018600D02*
X027670Y018600D01*
X027670Y018758D02*
X025442Y018758D01*
X025485Y018917D02*
X027670Y018917D01*
X027670Y019075D02*
X025485Y019075D01*
X025485Y019234D02*
X027670Y019234D01*
X027670Y019392D02*
X025485Y019392D01*
X025485Y019551D02*
X027670Y019551D01*
X027670Y019709D02*
X025485Y019709D01*
X025485Y019868D02*
X027670Y019868D01*
X027670Y020026D02*
X025485Y020026D01*
X025485Y020185D02*
X027670Y020185D01*
X027670Y020343D02*
X025485Y020343D01*
X025485Y020502D02*
X027670Y020502D01*
X027670Y020660D02*
X025485Y020660D01*
X025485Y020819D02*
X027670Y020819D01*
X027670Y020977D02*
X025485Y020977D01*
X025485Y021136D02*
X027670Y021136D01*
X027670Y021294D02*
X025485Y021294D01*
X025485Y021453D02*
X027670Y021453D01*
X027670Y021611D02*
X025485Y021611D01*
X025485Y021770D02*
X027670Y021770D01*
X027670Y021928D02*
X025485Y021928D01*
X025485Y022087D02*
X027670Y022087D01*
X027670Y022245D02*
X025485Y022245D01*
X025485Y022404D02*
X027670Y022404D01*
X027670Y022562D02*
X025485Y022562D01*
X025485Y022721D02*
X027670Y022721D01*
X027670Y022879D02*
X025485Y022879D01*
X025485Y023038D02*
X027670Y023038D01*
X027670Y023196D02*
X025485Y023196D01*
X025485Y023355D02*
X027670Y023355D01*
X027670Y023513D02*
X025485Y023513D01*
X025485Y023672D02*
X027670Y023672D01*
X027670Y023830D02*
X025485Y023830D01*
X025437Y023989D02*
X027670Y023989D01*
X027670Y024147D02*
X025299Y024147D01*
X025140Y024306D02*
X027670Y024306D01*
X027670Y024464D02*
X024982Y024464D01*
X024823Y024623D02*
X027670Y024623D01*
X027670Y024781D02*
X024665Y024781D01*
X024506Y024940D02*
X027670Y024940D01*
X027670Y025098D02*
X024348Y025098D01*
X024189Y025257D02*
X027670Y025257D01*
X027670Y025415D02*
X023990Y025415D01*
X025314Y026525D02*
X018036Y026525D01*
X018036Y026683D02*
X025206Y026683D01*
X025108Y026842D02*
X017955Y026842D01*
X017958Y027000D02*
X025059Y027000D01*
X025010Y027159D02*
X017963Y027159D01*
X018036Y027317D02*
X024969Y027317D01*
X024969Y027476D02*
X018036Y027476D01*
X018036Y027634D02*
X024969Y027634D01*
X024969Y027793D02*
X018036Y027793D01*
X018004Y027951D02*
X025017Y027951D01*
X025066Y028110D02*
X003253Y028110D01*
X003177Y028268D02*
X025115Y028268D01*
X025222Y028427D02*
X003084Y028427D01*
X003329Y027951D02*
X006356Y027951D01*
X006324Y027793D02*
X003357Y027793D01*
X003381Y027634D02*
X006324Y027634D01*
X006324Y027476D02*
X003405Y027476D01*
X003391Y027317D02*
X006324Y027317D01*
X006397Y027159D02*
X003367Y027159D01*
X003343Y027000D02*
X006407Y027000D01*
X006402Y026842D02*
X003284Y026842D01*
X003208Y026683D02*
X006324Y026683D01*
X006324Y026525D02*
X003132Y026525D01*
X002997Y026366D02*
X003956Y026366D01*
X004088Y026498D02*
X003675Y026085D01*
X003675Y025501D01*
X004088Y025088D01*
X004672Y025088D01*
X005085Y025501D01*
X005085Y026085D01*
X004672Y026498D01*
X004088Y026498D01*
X003798Y026208D02*
X002850Y026208D01*
X002638Y026049D02*
X003675Y026049D01*
X003675Y025891D02*
X002364Y025891D01*
X002375Y024781D02*
X000660Y024781D01*
X000660Y024623D02*
X002030Y024623D01*
X001853Y024464D02*
X000660Y024464D01*
X000660Y024306D02*
X001729Y024306D01*
X001637Y024147D02*
X000660Y024147D01*
X000660Y023989D02*
X001589Y023989D01*
X001550Y023830D02*
X000660Y023830D01*
X000660Y023672D02*
X001550Y023672D01*
X001558Y023513D02*
X000660Y023513D01*
X000660Y023355D02*
X001601Y023355D01*
X001662Y023196D02*
X000660Y023196D01*
X000660Y023038D02*
X001754Y023038D01*
X001896Y022879D02*
X000660Y022879D01*
X000660Y022721D02*
X002104Y022721D01*
X003243Y022404D02*
X000660Y022404D01*
X000660Y022562D02*
X003280Y022562D01*
X003243Y022245D02*
X000660Y022245D01*
X000660Y022087D02*
X003243Y022087D01*
X003243Y021928D02*
X000660Y021928D01*
X000660Y021770D02*
X003287Y021770D01*
X003243Y021611D02*
X000660Y021611D01*
X000660Y021453D02*
X003243Y021453D01*
X003243Y021294D02*
X000660Y021294D01*
X000660Y021136D02*
X003243Y021136D01*
X003295Y020977D02*
X000660Y020977D01*
X000660Y020819D02*
X003243Y020819D01*
X003243Y020660D02*
X000660Y020660D01*
X000660Y020502D02*
X003243Y020502D01*
X003243Y020343D02*
X000660Y020343D01*
X000660Y020185D02*
X003302Y020185D01*
X003243Y020026D02*
X000660Y020026D01*
X000660Y019868D02*
X003243Y019868D01*
X003243Y019709D02*
X003180Y019709D01*
X003747Y019075D02*
X004065Y019075D01*
X003907Y018917D02*
X003790Y018917D01*
X004049Y019392D02*
X004672Y019392D01*
X004513Y019551D02*
X004117Y019551D01*
X003675Y018124D02*
X003656Y018124D01*
X003551Y017966D02*
X003810Y017966D01*
X003969Y017807D02*
X003392Y017807D01*
X003131Y017649D02*
X007168Y017649D01*
X006980Y016493D02*
X005882Y016493D01*
X005248Y016539D02*
X004312Y016539D01*
X004312Y016381D02*
X005248Y016381D01*
X005248Y016222D02*
X004312Y016222D01*
X004312Y016064D02*
X005248Y016064D01*
X005248Y015905D02*
X004312Y015905D01*
X004287Y015747D02*
X005273Y015747D01*
X004931Y015588D02*
X004100Y015588D01*
X004407Y015430D02*
X002140Y015430D01*
X002140Y015588D02*
X003256Y015588D01*
X003069Y015747D02*
X002140Y015747D01*
X002201Y015905D02*
X003043Y015905D01*
X003043Y016064D02*
X002360Y016064D01*
X002280Y016493D02*
X001780Y015993D01*
X001780Y014784D01*
X002224Y014320D02*
X002436Y014320D01*
X002529Y014003D02*
X002131Y014003D01*
X002125Y014007D02*
X002079Y014019D01*
X001818Y014019D01*
X001818Y013641D01*
X001742Y013641D01*
X001742Y014019D01*
X001481Y014019D01*
X001435Y014007D01*
X001394Y013983D01*
X001360Y013949D01*
X001337Y013908D01*
X001324Y013863D01*
X001324Y013641D01*
X001742Y013641D01*
X001742Y013565D01*
X001324Y013565D01*
X001324Y013343D01*
X001337Y013297D01*
X001360Y013256D01*
X001394Y013222D01*
X001435Y013199D01*
X001481Y013187D01*
X001742Y013187D01*
X001742Y013565D01*
X001818Y013565D01*
X001818Y013641D01*
X002236Y013641D01*
X002236Y013863D01*
X002223Y013908D01*
X002200Y013949D01*
X002166Y013983D01*
X002125Y014007D01*
X002236Y013845D02*
X002424Y013845D01*
X002424Y013686D02*
X002236Y013686D01*
X002236Y013565D02*
X001818Y013565D01*
X001818Y013187D01*
X002079Y013187D01*
X002125Y013199D01*
X002166Y013222D01*
X002200Y013256D01*
X002223Y013297D01*
X002236Y013343D01*
X002236Y013565D01*
X002236Y013528D02*
X002424Y013528D01*
X002424Y013369D02*
X002236Y013369D01*
X002146Y013211D02*
X002514Y013211D01*
X002842Y013211D02*
X002918Y013211D01*
X002918Y013369D02*
X002842Y013369D01*
X002842Y013528D02*
X002918Y013528D01*
X002918Y013686D02*
X002842Y013686D01*
X002842Y013845D02*
X002918Y013845D01*
X002918Y014003D02*
X002842Y014003D01*
X003324Y014320D02*
X003464Y014320D01*
X002889Y014793D02*
X002880Y014784D01*
X002889Y014793D02*
X004280Y014793D01*
X004680Y015193D01*
X005326Y015193D01*
X004933Y014796D02*
X004792Y014796D01*
X004633Y014637D02*
X006420Y014637D01*
X006420Y014479D02*
X006163Y014479D01*
X006296Y014320D02*
X006420Y014320D01*
X006420Y014162D02*
X006296Y014162D01*
X006296Y014003D02*
X006420Y014003D01*
X006420Y013845D02*
X006248Y013845D01*
X005880Y014162D02*
X005880Y014162D01*
X005880Y014320D02*
X005880Y014320D01*
X005880Y014479D02*
X005880Y014479D01*
X005597Y014479D02*
X005163Y014479D01*
X005296Y014320D02*
X005464Y014320D01*
X005464Y014162D02*
X005296Y014162D01*
X005296Y014003D02*
X005464Y014003D01*
X005512Y013845D02*
X005248Y013845D01*
X004880Y014162D02*
X004880Y014162D01*
X004880Y014320D02*
X004880Y014320D01*
X004880Y014479D02*
X004880Y014479D01*
X004597Y014479D02*
X004461Y014479D01*
X004464Y014320D02*
X004296Y014320D01*
X004296Y014162D02*
X004464Y014162D01*
X004464Y014003D02*
X004296Y014003D01*
X004248Y013845D02*
X004512Y013845D01*
X004475Y012894D02*
X003232Y012894D01*
X003507Y012735D02*
X004475Y012735D01*
X004475Y012577D02*
X003665Y012577D01*
X003782Y012418D02*
X004475Y012418D01*
X004475Y012260D02*
X003873Y012260D01*
X003919Y012101D02*
X004475Y012101D01*
X004475Y011943D02*
X003960Y011943D01*
X003960Y011784D02*
X004475Y011784D01*
X004475Y011626D02*
X003957Y011626D01*
X003914Y011467D02*
X004475Y011467D01*
X004475Y011309D02*
X003863Y011309D01*
X003771Y011150D02*
X004475Y011150D01*
X004475Y010992D02*
X003647Y010992D01*
X003477Y010833D02*
X004475Y010833D01*
X004491Y010675D02*
X003165Y010675D01*
X003254Y009882D02*
X005525Y009882D01*
X005525Y009724D02*
X003518Y009724D01*
X003677Y009565D02*
X005525Y009565D01*
X005525Y009407D02*
X003788Y009407D01*
X003880Y009248D02*
X005525Y009248D01*
X005525Y009090D02*
X003922Y009090D01*
X003960Y008931D02*
X005525Y008931D01*
X005562Y008773D02*
X003960Y008773D01*
X003954Y008614D02*
X008420Y008614D01*
X008420Y008456D02*
X003911Y008456D01*
X003856Y008297D02*
X008420Y008297D01*
X008420Y008139D02*
X003765Y008139D01*
X003636Y007980D02*
X008420Y007980D01*
X008420Y007822D02*
X003457Y007822D01*
X003122Y007663D02*
X008420Y007663D01*
X008420Y008773D02*
X006798Y008773D01*
X006835Y008931D02*
X008420Y008931D01*
X008420Y009090D02*
X007286Y009090D01*
X007444Y009248D02*
X008420Y009248D01*
X008420Y009407D02*
X007534Y009407D01*
X007540Y009565D02*
X008420Y009565D01*
X008420Y009724D02*
X007540Y009724D01*
X007540Y009882D02*
X008420Y009882D01*
X008420Y010041D02*
X007540Y010041D01*
X007540Y010199D02*
X008420Y010199D01*
X008420Y010358D02*
X007540Y010358D01*
X007540Y010516D02*
X008420Y010516D01*
X008420Y010675D02*
X007540Y010675D01*
X007540Y010833D02*
X008370Y010833D01*
X008305Y010992D02*
X007540Y010992D01*
X007540Y011150D02*
X008302Y011150D01*
X008352Y011309D02*
X007540Y011309D01*
X007540Y011467D02*
X008478Y011467D01*
X006820Y011467D02*
X006735Y011467D01*
X006735Y011338D02*
X006735Y011692D01*
X006723Y011738D01*
X006699Y011779D01*
X006666Y011812D01*
X006624Y011836D01*
X006579Y011848D01*
X006225Y011848D01*
X006225Y011338D01*
X006735Y011338D01*
X006735Y011248D02*
X006225Y011248D01*
X006225Y011338D01*
X006135Y011338D01*
X006135Y011248D01*
X005625Y011248D01*
X005625Y010895D01*
X005627Y010886D01*
X005568Y010827D01*
X005525Y010724D01*
X005525Y010721D01*
X005285Y010961D01*
X005285Y013034D01*
X005510Y013034D01*
X005588Y013001D01*
X006172Y013001D01*
X006249Y013033D01*
X006652Y013033D01*
X006784Y013088D01*
X006820Y013124D01*
X006820Y010760D01*
X006792Y010827D01*
X006733Y010886D01*
X006735Y010895D01*
X006735Y011248D01*
X006735Y011150D02*
X006820Y011150D01*
X006820Y010992D02*
X006735Y010992D01*
X006786Y010833D02*
X006820Y010833D01*
X006820Y011309D02*
X006225Y011309D01*
X006135Y011309D02*
X005285Y011309D01*
X005285Y011467D02*
X005625Y011467D01*
X005625Y011338D02*
X005625Y011692D01*
X005637Y011738D01*
X005661Y011779D01*
X005694Y011812D01*
X005736Y011836D01*
X005781Y011848D01*
X006135Y011848D01*
X006135Y011338D01*
X005625Y011338D01*
X005625Y011150D02*
X005285Y011150D01*
X005285Y010992D02*
X005625Y010992D01*
X005574Y010833D02*
X005413Y010833D01*
X004901Y010199D02*
X000660Y010199D01*
X000660Y010041D02*
X005060Y010041D01*
X004743Y010358D02*
X000660Y010358D01*
X000660Y010516D02*
X004584Y010516D01*
X005285Y011626D02*
X005625Y011626D01*
X005666Y011784D02*
X005285Y011784D01*
X005285Y011943D02*
X006820Y011943D01*
X006820Y012101D02*
X005285Y012101D01*
X005285Y012260D02*
X006820Y012260D01*
X006820Y012418D02*
X005285Y012418D01*
X005285Y012577D02*
X006820Y012577D01*
X006820Y012735D02*
X005285Y012735D01*
X005285Y012894D02*
X006820Y012894D01*
X006820Y013052D02*
X006698Y013052D01*
X006580Y013393D02*
X005926Y013393D01*
X005880Y013439D01*
X006580Y013393D02*
X006780Y013593D01*
X006780Y014893D01*
X006480Y015193D01*
X006034Y015193D01*
X007180Y016293D02*
X007180Y009493D01*
X006980Y009293D01*
X006180Y009293D01*
X006135Y011467D02*
X006225Y011467D01*
X006225Y011626D02*
X006135Y011626D01*
X006135Y011784D02*
X006225Y011784D01*
X006694Y011784D02*
X006820Y011784D01*
X006820Y011626D02*
X006735Y011626D01*
X008755Y013528D02*
X009036Y013528D01*
X008913Y013369D02*
X009195Y013369D01*
X008878Y013686D02*
X008690Y013686D01*
X008690Y013845D02*
X008719Y013845D01*
X008680Y014393D02*
X008680Y018893D01*
X008580Y018993D01*
X009980Y019193D02*
X009980Y019239D01*
X010926Y019239D01*
X011080Y019343D01*
X011669Y019343D01*
X011669Y018843D02*
X012180Y018843D01*
X012580Y019243D01*
X012580Y019493D01*
X012930Y019843D01*
X012955Y019868D01*
X012980Y019843D01*
X012955Y019868D02*
X012480Y020343D01*
X011669Y020343D01*
X011669Y020843D02*
X011080Y020843D01*
X010926Y020739D01*
X009980Y020739D01*
X008926Y020739D01*
X008880Y020693D01*
X009980Y019948D02*
X010926Y019948D01*
X011030Y019843D01*
X011669Y019843D01*
X012380Y019843D01*
X012930Y019843D02*
X013891Y019843D01*
X013891Y019343D02*
X015334Y019343D01*
X015380Y019298D01*
X020684Y019298D01*
X021580Y020193D01*
X022112Y019868D02*
X022456Y019868D01*
X022331Y019709D02*
X022007Y019709D01*
X022239Y019551D02*
X021447Y019551D01*
X021288Y019392D02*
X022190Y019392D01*
X022150Y019234D02*
X021130Y019234D01*
X020971Y019075D02*
X022150Y019075D01*
X022157Y018917D02*
X015842Y018917D01*
X015896Y018758D02*
X022200Y018758D01*
X022260Y018600D02*
X015896Y018600D01*
X015896Y018441D02*
X022352Y018441D01*
X023724Y017015D02*
X027670Y017015D01*
X027670Y017173D02*
X023883Y017173D01*
X024041Y017332D02*
X027670Y017332D01*
X027670Y017490D02*
X024200Y017490D01*
X024358Y017649D02*
X027670Y017649D01*
X027670Y017807D02*
X024517Y017807D01*
X024675Y017966D02*
X027670Y017966D01*
X027670Y018124D02*
X024834Y018124D01*
X023566Y016856D02*
X027670Y016856D01*
X027670Y016698D02*
X023407Y016698D01*
X023249Y016539D02*
X027670Y016539D01*
X027670Y016381D02*
X023135Y016381D01*
X023135Y016222D02*
X027670Y016222D01*
X027670Y016064D02*
X023135Y016064D01*
X023743Y015905D02*
X024245Y015905D01*
X024253Y015913D02*
X024219Y015879D01*
X024195Y015838D01*
X024183Y015793D01*
X024183Y015551D01*
X025053Y015551D01*
X025053Y015436D01*
X024183Y015436D01*
X024183Y015194D01*
X024195Y015148D01*
X024219Y015107D01*
X024253Y015074D01*
X024294Y015050D01*
X024339Y015038D01*
X025053Y015038D01*
X025053Y015436D01*
X025169Y015436D01*
X025169Y015551D01*
X026039Y015551D01*
X026039Y015793D01*
X026027Y015838D01*
X026003Y015879D01*
X025970Y015913D01*
X025929Y015937D01*
X025883Y015949D01*
X025169Y015949D01*
X025169Y015551D01*
X025053Y015551D01*
X025053Y015949D01*
X024339Y015949D01*
X024294Y015937D01*
X024253Y015913D01*
X024183Y015747D02*
X023777Y015747D01*
X023777Y015588D02*
X024183Y015588D01*
X024183Y015430D02*
X023777Y015430D01*
X023777Y015271D02*
X024183Y015271D01*
X024216Y015113D02*
X023757Y015113D01*
X023593Y014954D02*
X027670Y014954D01*
X027670Y014796D02*
X023154Y014796D01*
X023154Y014637D02*
X027670Y014637D01*
X027670Y014479D02*
X023154Y014479D01*
X023154Y014320D02*
X027670Y014320D01*
X027670Y014162D02*
X023154Y014162D01*
X023154Y014003D02*
X027670Y014003D01*
X027670Y013845D02*
X023154Y013845D01*
X023154Y013686D02*
X027670Y013686D01*
X027670Y013528D02*
X023154Y013528D01*
X023154Y013369D02*
X027670Y013369D01*
X027670Y013211D02*
X023154Y013211D01*
X023154Y013052D02*
X027670Y013052D01*
X027670Y012894D02*
X025532Y012894D01*
X025535Y012893D02*
X025235Y012973D01*
X024925Y012973D01*
X024625Y012893D01*
X024355Y012738D01*
X024136Y012518D01*
X023980Y012249D01*
X023900Y011949D01*
X023900Y011638D01*
X023980Y011338D01*
X024136Y011069D01*
X024355Y010849D01*
X024625Y010694D01*
X024925Y010613D01*
X025235Y010613D01*
X025535Y010694D01*
X025805Y010849D01*
X026024Y011069D01*
X026180Y011338D01*
X026260Y011638D01*
X026260Y011949D01*
X026180Y012249D01*
X026024Y012518D01*
X025805Y012738D01*
X025535Y012893D01*
X025807Y012735D02*
X027670Y012735D01*
X027670Y012577D02*
X025965Y012577D01*
X026082Y012418D02*
X027670Y012418D01*
X027670Y012260D02*
X026173Y012260D01*
X026219Y012101D02*
X027670Y012101D01*
X027670Y011943D02*
X026260Y011943D01*
X026260Y011784D02*
X027670Y011784D01*
X027670Y011626D02*
X026257Y011626D01*
X026214Y011467D02*
X027670Y011467D01*
X027670Y011309D02*
X026163Y011309D01*
X026071Y011150D02*
X027670Y011150D01*
X027670Y010992D02*
X025947Y010992D01*
X025777Y010833D02*
X027670Y010833D01*
X027670Y010675D02*
X025465Y010675D01*
X024695Y010675D02*
X022335Y010675D01*
X022335Y010516D02*
X027670Y010516D01*
X027670Y010358D02*
X022335Y010358D01*
X022335Y010199D02*
X027670Y010199D01*
X027670Y010041D02*
X022335Y010041D01*
X022335Y009882D02*
X024606Y009882D01*
X024342Y009724D02*
X022256Y009724D01*
X022235Y009565D02*
X024183Y009565D01*
X024383Y010833D02*
X022323Y010833D01*
X022335Y010992D02*
X024213Y010992D01*
X024089Y011150D02*
X022335Y011150D01*
X022335Y011309D02*
X023997Y011309D01*
X023946Y011467D02*
X022427Y011467D01*
X022585Y011626D02*
X023903Y011626D01*
X023900Y011784D02*
X022744Y011784D01*
X022902Y011943D02*
X023900Y011943D01*
X023941Y012101D02*
X023061Y012101D01*
X023145Y012260D02*
X023987Y012260D01*
X024078Y012418D02*
X023154Y012418D01*
X023154Y012577D02*
X024195Y012577D01*
X024353Y012735D02*
X023154Y012735D01*
X023154Y012894D02*
X024628Y012894D01*
X025169Y015038D02*
X025883Y015038D01*
X025929Y015050D01*
X025970Y015074D01*
X026003Y015107D01*
X026027Y015148D01*
X026039Y015194D01*
X026039Y015436D01*
X025169Y015436D01*
X025169Y015038D01*
X025169Y015113D02*
X025053Y015113D01*
X025053Y015271D02*
X025169Y015271D01*
X025169Y015430D02*
X025053Y015430D01*
X025053Y015588D02*
X025169Y015588D01*
X025169Y015747D02*
X025053Y015747D01*
X025053Y015905D02*
X025169Y015905D01*
X025977Y015905D02*
X027670Y015905D01*
X027670Y015747D02*
X026039Y015747D01*
X026039Y015588D02*
X027670Y015588D01*
X027670Y015430D02*
X026039Y015430D01*
X026039Y015271D02*
X027670Y015271D01*
X027670Y015113D02*
X026006Y015113D01*
X025554Y009882D02*
X027670Y009882D01*
X027670Y009724D02*
X025818Y009724D01*
X025977Y009565D02*
X027670Y009565D01*
X027670Y009407D02*
X026088Y009407D01*
X026180Y009248D02*
X027670Y009248D01*
X027670Y009090D02*
X026222Y009090D01*
X026260Y008931D02*
X027670Y008931D01*
X027670Y008773D02*
X026260Y008773D01*
X026254Y008614D02*
X027670Y008614D01*
X027670Y008456D02*
X026211Y008456D01*
X026156Y008297D02*
X027670Y008297D01*
X027670Y008139D02*
X026065Y008139D01*
X025936Y007980D02*
X027670Y007980D01*
X027670Y007822D02*
X025757Y007822D01*
X025422Y007663D02*
X026211Y007663D01*
X026998Y007663D02*
X027670Y007663D01*
X027670Y007505D02*
X027421Y007505D01*
X016343Y018283D02*
X015858Y018283D01*
X015380Y018589D02*
X015326Y018643D01*
X014830Y018643D01*
X014630Y018843D01*
X013891Y018843D01*
X013891Y020843D02*
X014630Y020843D01*
X014572Y021294D02*
X014425Y021294D01*
X014677Y023830D02*
X015183Y023830D01*
X015204Y024781D02*
X014656Y024781D01*
X014680Y024940D02*
X015180Y024940D01*
X015146Y025098D02*
X014714Y025098D01*
X014714Y025257D02*
X015146Y025257D01*
X015146Y025415D02*
X014714Y025415D01*
X014714Y025574D02*
X015146Y025574D01*
X015146Y025732D02*
X014714Y025732D01*
X014649Y025891D02*
X015211Y025891D01*
X015250Y026049D02*
X014610Y026049D01*
X014636Y026208D02*
X015224Y026208D01*
X015224Y026366D02*
X014636Y026366D01*
X014636Y026525D02*
X015224Y026525D01*
X015224Y026683D02*
X014636Y026683D01*
X014549Y026842D02*
X015311Y026842D01*
X015297Y027159D02*
X014563Y027159D01*
X014558Y027000D02*
X017002Y027000D01*
X017005Y026842D02*
X016249Y026842D01*
X016336Y026683D02*
X016924Y026683D01*
X016924Y026525D02*
X016336Y026525D01*
X016336Y026366D02*
X016924Y026366D01*
X016924Y026208D02*
X016336Y026208D01*
X016310Y026049D02*
X016950Y026049D01*
X016911Y025891D02*
X016349Y025891D01*
X016414Y025732D02*
X016846Y025732D01*
X016846Y025574D02*
X016414Y025574D01*
X016414Y025415D02*
X016846Y025415D01*
X016846Y025257D02*
X016414Y025257D01*
X016414Y025098D02*
X016846Y025098D01*
X016880Y024940D02*
X016380Y024940D01*
X016356Y024781D02*
X016904Y024781D01*
X017480Y025394D02*
X017480Y026403D01*
X017480Y026943D02*
X017480Y027584D01*
X016997Y027159D02*
X016730Y027159D01*
X016330Y027159D02*
X016263Y027159D01*
X016521Y027584D02*
X016530Y027593D01*
X016521Y027584D02*
X015780Y027584D01*
X015224Y027634D02*
X014636Y027634D01*
X014636Y027476D02*
X015224Y027476D01*
X015224Y027317D02*
X014636Y027317D01*
X014636Y027793D02*
X015224Y027793D01*
X015256Y027951D02*
X014604Y027951D01*
X014080Y027584D02*
X014080Y026993D01*
X013602Y027000D02*
X012758Y027000D01*
X012749Y026842D02*
X013611Y026842D01*
X013524Y026683D02*
X012836Y026683D01*
X012836Y026525D02*
X013524Y026525D01*
X013524Y026366D02*
X012836Y026366D01*
X012836Y026208D02*
X013524Y026208D01*
X013550Y026049D02*
X012810Y026049D01*
X012849Y025891D02*
X013511Y025891D01*
X013446Y025732D02*
X012914Y025732D01*
X012914Y025574D02*
X013446Y025574D01*
X013446Y025415D02*
X012914Y025415D01*
X012914Y025257D02*
X013446Y025257D01*
X013446Y025098D02*
X012914Y025098D01*
X012880Y024940D02*
X013480Y024940D01*
X013504Y024781D02*
X012856Y024781D01*
X012280Y025394D02*
X012280Y026403D01*
X011724Y026366D02*
X011040Y026366D01*
X011036Y026208D02*
X011724Y026208D01*
X011750Y026049D02*
X011010Y026049D01*
X011049Y025891D02*
X011711Y025891D01*
X011646Y025732D02*
X011114Y025732D01*
X011114Y025574D02*
X011646Y025574D01*
X011646Y025415D02*
X011114Y025415D01*
X011114Y025257D02*
X011646Y025257D01*
X011646Y025098D02*
X011114Y025098D01*
X011080Y024940D02*
X011680Y024940D01*
X011704Y024781D02*
X011056Y024781D01*
X010480Y025394D02*
X010480Y026403D01*
X010680Y026403D01*
X010680Y026493D01*
X010480Y026493D01*
X009924Y026525D02*
X009236Y026525D01*
X009236Y026683D02*
X009924Y026683D01*
X010011Y026842D02*
X009149Y026842D01*
X009158Y027000D02*
X010002Y027000D01*
X009997Y027159D02*
X009163Y027159D01*
X009236Y027317D02*
X009924Y027317D01*
X009924Y027476D02*
X009236Y027476D01*
X009236Y027634D02*
X009924Y027634D01*
X009924Y027793D02*
X009236Y027793D01*
X009204Y027951D02*
X009956Y027951D01*
X010480Y027584D02*
X010480Y026993D01*
X010958Y027000D02*
X011802Y027000D01*
X011811Y026842D02*
X010949Y026842D01*
X011036Y026683D02*
X011724Y026683D01*
X011724Y026525D02*
X011040Y026525D01*
X010963Y027159D02*
X011797Y027159D01*
X011724Y027317D02*
X011036Y027317D01*
X011036Y027476D02*
X011724Y027476D01*
X011724Y027634D02*
X011036Y027634D01*
X011036Y027793D02*
X011724Y027793D01*
X011756Y027951D02*
X011004Y027951D01*
X012280Y027584D02*
X012280Y026993D01*
X012763Y027159D02*
X013597Y027159D01*
X013524Y027317D02*
X012836Y027317D01*
X012836Y027476D02*
X013524Y027476D01*
X013524Y027634D02*
X012836Y027634D01*
X012836Y027793D02*
X013524Y027793D01*
X013556Y027951D02*
X012804Y027951D01*
X014080Y026403D02*
X014080Y025394D01*
X013483Y023830D02*
X012877Y023830D01*
X011683Y023830D02*
X011077Y023830D01*
X009883Y023830D02*
X009327Y023830D01*
X009306Y024781D02*
X009904Y024781D01*
X009880Y024940D02*
X009330Y024940D01*
X009364Y025098D02*
X009846Y025098D01*
X009846Y025257D02*
X009364Y025257D01*
X009364Y025415D02*
X009846Y025415D01*
X009846Y025574D02*
X009364Y025574D01*
X009364Y025732D02*
X009846Y025732D01*
X009911Y025891D02*
X009299Y025891D01*
X009210Y026049D02*
X009950Y026049D01*
X009924Y026208D02*
X009236Y026208D01*
X009236Y026366D02*
X009924Y026366D01*
X008680Y026403D02*
X008680Y025444D01*
X008730Y025394D01*
X008096Y025415D02*
X007514Y025415D01*
X007514Y025257D02*
X008096Y025257D01*
X008096Y025098D02*
X007514Y025098D01*
X007480Y024940D02*
X008130Y024940D01*
X008154Y024781D02*
X007456Y024781D01*
X006880Y025394D02*
X006880Y026403D01*
X006880Y026893D02*
X006880Y027584D01*
X007436Y027634D02*
X008124Y027634D01*
X008124Y027476D02*
X007436Y027476D01*
X007436Y027317D02*
X008124Y027317D01*
X008197Y027159D02*
X007363Y027159D01*
X007353Y027000D02*
X008202Y027000D01*
X008211Y026842D02*
X007358Y026842D01*
X007436Y026683D02*
X008124Y026683D01*
X008124Y026525D02*
X007436Y026525D01*
X007436Y026366D02*
X008124Y026366D01*
X008124Y026208D02*
X007436Y026208D01*
X007410Y026049D02*
X008150Y026049D01*
X008161Y025891D02*
X007449Y025891D01*
X007514Y025732D02*
X008096Y025732D01*
X008096Y025574D02*
X007514Y025574D01*
X006311Y025891D02*
X005085Y025891D01*
X005085Y026049D02*
X006350Y026049D01*
X006324Y026208D02*
X004962Y026208D01*
X004804Y026366D02*
X006324Y026366D01*
X006246Y025732D02*
X005085Y025732D01*
X005085Y025574D02*
X006246Y025574D01*
X006246Y025415D02*
X004999Y025415D01*
X004841Y025257D02*
X006246Y025257D01*
X006246Y025098D02*
X004682Y025098D01*
X004078Y025098D02*
X000660Y025098D01*
X000660Y024940D02*
X006280Y024940D01*
X006304Y024781D02*
X002985Y024781D01*
X003330Y024623D02*
X006246Y024623D01*
X006246Y024464D02*
X003507Y024464D01*
X003631Y024306D02*
X006246Y024306D01*
X006246Y024147D02*
X003723Y024147D01*
X003771Y023989D02*
X006246Y023989D01*
X006283Y023830D02*
X003810Y023830D01*
X003810Y023672D02*
X022223Y023672D01*
X022181Y023830D02*
X018077Y023830D01*
X018056Y024781D02*
X020845Y024781D01*
X021004Y024940D02*
X018080Y024940D01*
X018114Y025098D02*
X021162Y025098D01*
X021321Y025257D02*
X018114Y025257D01*
X018114Y025415D02*
X021520Y025415D01*
X021832Y024623D02*
X022281Y024623D01*
X022210Y024464D02*
X021674Y024464D01*
X021515Y024306D02*
X022167Y024306D01*
X022150Y024147D02*
X021357Y024147D01*
X021198Y023989D02*
X022150Y023989D01*
X022717Y023038D02*
X022853Y023038D01*
X022717Y022879D02*
X024675Y022879D01*
X024675Y022721D02*
X022717Y022721D01*
X022680Y022562D02*
X024675Y022562D01*
X024675Y022404D02*
X022717Y022404D01*
X022717Y022245D02*
X024675Y022245D01*
X024675Y022087D02*
X022717Y022087D01*
X022717Y021928D02*
X024675Y021928D01*
X024675Y021770D02*
X022673Y021770D01*
X022717Y021611D02*
X024675Y021611D01*
X024675Y021453D02*
X022717Y021453D01*
X022717Y021294D02*
X024675Y021294D01*
X024675Y021136D02*
X022717Y021136D01*
X022665Y020977D02*
X024675Y020977D01*
X024675Y020819D02*
X022717Y020819D01*
X022717Y020660D02*
X024675Y020660D01*
X024675Y020502D02*
X022717Y020502D01*
X023707Y023038D02*
X024675Y023038D01*
X024675Y023196D02*
X023981Y023196D01*
X024140Y023355D02*
X024675Y023355D01*
X024675Y023513D02*
X024250Y023513D01*
X024337Y023672D02*
X024629Y023672D01*
X024470Y023830D02*
X024379Y023830D01*
X025889Y026049D02*
X018010Y026049D01*
X018036Y026208D02*
X025640Y026208D01*
X025441Y026366D02*
X018036Y026366D01*
X018049Y025891D02*
X026451Y025891D01*
X026856Y025891D02*
X027670Y025891D01*
X027670Y026049D02*
X027365Y026049D01*
X027639Y026208D02*
X027670Y026208D01*
X027670Y025732D02*
X018114Y025732D01*
X018114Y025574D02*
X027670Y025574D01*
X016883Y023830D02*
X016377Y023830D01*
X015780Y025394D02*
X015780Y026403D01*
X016848Y027951D02*
X016956Y027951D01*
X008680Y027584D02*
X008680Y026993D01*
X008124Y027793D02*
X007436Y027793D01*
X007404Y027951D02*
X008156Y027951D01*
X003675Y025732D02*
X000660Y025732D01*
X000660Y025574D02*
X003675Y025574D01*
X003761Y025415D02*
X000660Y025415D01*
X000660Y025257D02*
X003919Y025257D01*
X001139Y025891D02*
X000660Y025891D01*
X000660Y026049D02*
X000814Y026049D01*
X007477Y023830D02*
X008133Y023830D01*
X011669Y018843D02*
X011669Y018343D01*
X010780Y018343D01*
X010884Y017193D02*
X010884Y017193D01*
X010884Y017173D02*
X010884Y017173D01*
X010884Y017015D02*
X010884Y017015D01*
X010884Y016856D02*
X010884Y016856D01*
X007180Y016293D02*
X006980Y016493D01*
X005341Y017332D02*
X004219Y017332D01*
X004312Y017173D02*
X005248Y017173D01*
X005248Y017015D02*
X004312Y017015D01*
X004312Y016856D02*
X005248Y016856D01*
X005248Y016698D02*
X004312Y016698D01*
X003678Y016493D02*
X002280Y016493D01*
X002229Y017649D02*
X000660Y017649D01*
X000660Y017807D02*
X001968Y017807D01*
X001809Y017966D02*
X000660Y017966D01*
X000660Y018124D02*
X001704Y018124D01*
X001620Y018283D02*
X000660Y018283D01*
X000660Y018441D02*
X001578Y018441D01*
X001550Y018600D02*
X000660Y018600D01*
X000660Y018758D02*
X001550Y018758D01*
X001570Y018917D02*
X000660Y018917D01*
X000660Y019075D02*
X001613Y019075D01*
X001687Y019234D02*
X000660Y019234D01*
X000660Y019392D02*
X001781Y019392D01*
X001939Y019551D02*
X000660Y019551D01*
X000660Y019709D02*
X002180Y019709D01*
X002181Y015271D02*
X002479Y015271D01*
X002340Y015113D02*
X002320Y015113D01*
X003281Y015271D02*
X004249Y015271D01*
X001818Y014003D02*
X001742Y014003D01*
X001742Y013845D02*
X001818Y013845D01*
X001818Y013686D02*
X001742Y013686D01*
X001780Y013603D02*
X001871Y013603D01*
X001880Y013593D01*
X001818Y013528D02*
X001742Y013528D01*
X001742Y013369D02*
X001818Y013369D01*
X001818Y013211D02*
X001742Y013211D01*
X001414Y013211D02*
X000660Y013211D01*
X000660Y013369D02*
X001324Y013369D01*
X001324Y013528D02*
X000660Y013528D01*
X000660Y013686D02*
X001324Y013686D01*
X001324Y013845D02*
X000660Y013845D01*
X000660Y014003D02*
X001429Y014003D01*
X001311Y007663D02*
X000660Y007663D01*
X000660Y007505D02*
X000907Y007505D01*
X000700Y007346D02*
X000660Y007346D01*
D24*
X004880Y010793D02*
X004880Y013439D01*
X005880Y013439D01*
X004880Y013439D02*
X003880Y013439D01*
X002880Y013603D02*
X001780Y013603D01*
X001880Y013593D02*
X001880Y012793D01*
X002871Y013593D02*
X002880Y013603D01*
X004880Y010793D02*
X005380Y010293D01*
X006180Y010293D01*
X006880Y024292D02*
X008730Y024292D01*
X010480Y024292D01*
X012280Y024292D01*
X014080Y024292D01*
X015780Y024292D01*
X017480Y024292D01*
X020929Y024292D01*
X021680Y025043D01*
X023830Y025043D01*
X025080Y023793D01*
X025080Y018943D01*
X022730Y016593D01*
X022730Y015512D01*
X022749Y015493D01*
X022749Y012362D01*
X021680Y011293D01*
D25*
X017630Y014993D03*
X017630Y015593D03*
X017630Y016293D03*
X017630Y016943D03*
X016630Y017893D03*
X015230Y015093D03*
X015230Y013043D03*
X013230Y013043D03*
X012730Y015093D03*
X010730Y015093D03*
X010880Y016693D03*
X010780Y018343D03*
X012380Y019843D03*
X012580Y021343D03*
X013880Y021843D03*
X008880Y020693D03*
X007780Y019593D03*
X008580Y018993D03*
X007580Y017393D03*
X001880Y012793D03*
X008780Y011093D03*
X005680Y005993D03*
X005680Y005493D03*
X005180Y005493D03*
X004680Y005493D03*
X004680Y005993D03*
X005180Y005993D03*
X005180Y005993D03*
X015930Y011043D03*
X020680Y005993D03*
X020680Y005493D03*
X021180Y005493D03*
X021680Y005493D03*
X021680Y005993D03*
X021180Y005993D03*
X021180Y005993D03*
X020080Y023193D03*
X019580Y023193D03*
X019080Y023193D03*
X019080Y023693D03*
X019580Y023693D03*
X019580Y023693D03*
X020080Y023693D03*
X017480Y026943D03*
X016530Y027593D03*
X014080Y026993D03*
X012280Y026993D03*
X010480Y026993D03*
X008680Y026993D03*
X006880Y026893D03*
M02*
