%
M48
M72
T01C0.0236
T02C0.0315
T03C0.0395
T04C0.0500
T05C0.0520
T06C0.1102
T07C0.1300
T08C0.1400
%
T01
X4680Y5493
X5180Y5493
X5180Y5993
X5180Y5993
X4680Y5993
X5680Y5993
X5680Y5493
X8780Y11093
X10730Y15093
X10880Y16693
X10780Y18343
X12380Y19843
X12580Y21343
X13880Y21843
X16630Y17893
X17630Y16943
X17630Y16293
X17630Y15593
X17630Y14993
X15230Y15093
X15230Y13043
X13230Y13043
X12730Y15093
X15930Y11043
X20680Y5993
X20680Y5493
X21180Y5493
X21680Y5493
X21680Y5993
X21180Y5993
X21180Y5993
X7580Y17393
X8580Y18993
X7780Y19593
X8880Y20693
X6880Y26893
X8680Y26993
X10480Y26993
X12280Y26993
X14080Y26993
X16530Y27593
X17480Y26943
X19080Y23693
X19080Y23193
X19580Y23193
X20080Y23193
X20080Y23693
X19580Y23693
X19580Y23693
X1880Y12793
T02
X3680Y19793
X3680Y20593
X4380Y20193
X4380Y20993
X4380Y21793
X3680Y21393
X3680Y22193
X4380Y22593
X21580Y22593
X22280Y22193
X22280Y22993
X21580Y21793
X21580Y20993
X22280Y20593
X21580Y20193
X22280Y21393
T03
X17430Y6543
X17430Y5543
X16430Y5543
X15430Y5543
X14430Y5543
X13430Y5543
X12430Y5543
X11430Y5543
X10430Y5543
X10430Y6543
X11430Y6543
X12430Y6543
X13430Y6543
X14430Y6543
X15430Y6543
X16430Y6543
T04
X21680Y9293
X21680Y10293
X21680Y11293
X6180Y11293
X6180Y10293
X6180Y9293
T05
X4380Y18393
X6680Y21493
X5880Y22293
X4380Y25793
T06
X1730Y27443
X1730Y6043
X26630Y6043
X26630Y27543
T07
X23280Y24093
X23280Y19093
X2680Y18693
X2680Y23693
T08
X2780Y11793
X2780Y8793
X25080Y8793
X25080Y11793
M30
