G75*
%MOIN*%
%OFA0B0*%
%FSLAX24Y24*%
%IPPOS*%
%LPD*%
%AMOC8*
5,1,8,0,0,1.08239X$1,22.5*
%
%ADD10R,0.0515X0.0515*%
%ADD11R,0.0750X0.0750*%
%ADD12OC8,0.0850*%
%ADD13C,0.0595*%
%ADD14C,0.0396*%
%ADD15C,0.0160*%
%ADD16C,0.0750*%
%ADD17C,0.0600*%
%ADD18C,0.0500*%
D10*
X003680Y019793D03*
X003680Y020593D03*
X004380Y020193D03*
X004380Y020993D03*
X004380Y021793D03*
X003680Y021393D03*
X003680Y022193D03*
X004380Y022593D03*
X021580Y022593D03*
X022280Y022193D03*
X022280Y022993D03*
X021580Y021793D03*
X021580Y020993D03*
X022280Y020593D03*
X021580Y020193D03*
X022280Y021393D03*
D11*
X021680Y011293D03*
X021680Y010293D03*
X021680Y009293D03*
X006180Y009293D03*
X006180Y010293D03*
X006180Y011293D03*
D12*
X004380Y018393D03*
X006680Y021493D03*
X005880Y022293D03*
X004380Y025793D03*
D13*
X010430Y006543D03*
X010430Y005543D03*
X011430Y005543D03*
X012430Y005543D03*
X013430Y005543D03*
X014430Y005543D03*
X015430Y005543D03*
X016430Y005543D03*
X017430Y005543D03*
X017430Y006543D03*
X016430Y006543D03*
X015430Y006543D03*
X014430Y006543D03*
X013430Y006543D03*
X012430Y006543D03*
X011430Y006543D03*
D14*
X008780Y011093D03*
X010730Y015093D03*
X010880Y016693D03*
X010780Y018343D03*
X012380Y019843D03*
X012580Y021343D03*
X013880Y021843D03*
X016630Y017893D03*
X017630Y016943D03*
X017630Y016293D03*
X017630Y015593D03*
X017630Y014993D03*
X015230Y015093D03*
X015230Y013043D03*
X013230Y013043D03*
X012730Y015093D03*
X015930Y011043D03*
X020680Y005993D03*
X020680Y005493D03*
X021180Y005493D03*
X021680Y005493D03*
X021680Y005993D03*
X021180Y005993D03*
X021180Y005993D03*
X007580Y017393D03*
X008580Y018993D03*
X007780Y019593D03*
X008880Y020693D03*
X006880Y026893D03*
X008680Y026993D03*
X010480Y026993D03*
X012280Y026993D03*
X014080Y026993D03*
X016530Y027593D03*
X017480Y026943D03*
X019080Y023693D03*
X019080Y023193D03*
X019580Y023193D03*
X020080Y023193D03*
X020080Y023693D03*
X019580Y023693D03*
X019580Y023693D03*
X001880Y012793D03*
X004680Y005993D03*
X004680Y005493D03*
X005180Y005493D03*
X005180Y005993D03*
X005180Y005993D03*
X005680Y005993D03*
X005680Y005493D03*
D15*
X003118Y005097D02*
X003003Y004973D01*
X008190Y004973D01*
X008001Y005052D01*
X007838Y005215D01*
X005688Y007365D01*
X005600Y007578D01*
X005600Y008727D01*
X005568Y008760D01*
X005525Y008863D01*
X005525Y009724D01*
X005554Y009793D01*
X005525Y009863D01*
X005525Y010724D01*
X005568Y010827D01*
X005627Y010886D01*
X005625Y010895D01*
X005625Y011248D01*
X006135Y011248D01*
X006135Y011338D01*
X005625Y011338D01*
X005625Y011692D01*
X005637Y011738D01*
X005661Y011779D01*
X005694Y011812D01*
X005736Y011836D01*
X005781Y011848D01*
X006135Y011848D01*
X006135Y011338D01*
X006225Y011338D01*
X006735Y011338D01*
X006735Y011692D01*
X006723Y011738D01*
X006699Y011779D01*
X006666Y011812D01*
X006624Y011836D01*
X006579Y011848D01*
X006225Y011848D01*
X006225Y011338D01*
X006225Y011248D01*
X006735Y011248D01*
X006735Y010948D01*
X008323Y010948D01*
X008302Y010998D01*
X008302Y011062D01*
X007275Y012089D01*
X007220Y012222D01*
X007220Y016344D01*
X006931Y016633D01*
X001708Y016633D01*
X001576Y016688D01*
X001475Y016789D01*
X001075Y017189D01*
X001020Y017322D01*
X001020Y024065D01*
X001075Y024197D01*
X001176Y024298D01*
X001976Y025098D01*
X000660Y025098D01*
X000660Y024940D02*
X001817Y024940D01*
X001659Y024781D02*
X000660Y024781D01*
X000660Y024623D02*
X001500Y024623D01*
X001342Y024464D02*
X000660Y024464D01*
X000660Y024306D02*
X001183Y024306D01*
X001054Y024147D02*
X000660Y024147D01*
X000660Y023989D02*
X001020Y023989D01*
X001020Y023830D02*
X000660Y023830D01*
X000660Y023672D02*
X001020Y023672D01*
X001020Y023513D02*
X000660Y023513D01*
X000660Y023355D02*
X001020Y023355D01*
X001020Y023196D02*
X000660Y023196D01*
X000660Y023038D02*
X001020Y023038D01*
X001020Y022879D02*
X000660Y022879D01*
X000660Y022721D02*
X001020Y022721D01*
X001020Y022562D02*
X000660Y022562D01*
X000660Y022404D02*
X001020Y022404D01*
X001020Y022245D02*
X000660Y022245D01*
X000660Y022087D02*
X001020Y022087D01*
X001020Y021928D02*
X000660Y021928D01*
X000660Y021770D02*
X001020Y021770D01*
X001020Y021611D02*
X000660Y021611D01*
X000660Y021453D02*
X001020Y021453D01*
X001020Y021294D02*
X000660Y021294D01*
X000660Y021136D02*
X001020Y021136D01*
X001020Y020977D02*
X000660Y020977D01*
X000660Y020819D02*
X001020Y020819D01*
X001020Y020660D02*
X000660Y020660D01*
X000660Y020502D02*
X001020Y020502D01*
X001020Y020343D02*
X000660Y020343D01*
X000660Y020185D02*
X001020Y020185D01*
X001020Y020026D02*
X000660Y020026D01*
X000660Y019868D02*
X001020Y019868D01*
X001020Y019709D02*
X000660Y019709D01*
X000660Y019551D02*
X001020Y019551D01*
X001020Y019392D02*
X000660Y019392D01*
X000660Y019234D02*
X001020Y019234D01*
X001020Y019075D02*
X000660Y019075D01*
X000660Y018917D02*
X001020Y018917D01*
X001020Y018758D02*
X000660Y018758D01*
X000660Y018600D02*
X001020Y018600D01*
X001020Y018441D02*
X000660Y018441D01*
X000660Y018283D02*
X001020Y018283D01*
X001020Y018124D02*
X000660Y018124D01*
X000660Y017966D02*
X001020Y017966D01*
X001020Y017807D02*
X000660Y017807D01*
X000660Y017649D02*
X001020Y017649D01*
X001020Y017490D02*
X000660Y017490D01*
X000660Y017332D02*
X001020Y017332D01*
X001091Y017173D02*
X000660Y017173D01*
X000660Y017015D02*
X001249Y017015D01*
X001408Y016856D02*
X000660Y016856D01*
X000660Y016698D02*
X001566Y016698D01*
X001780Y016993D02*
X007080Y016993D01*
X007580Y016493D01*
X007580Y012293D01*
X008780Y011093D01*
X009208Y011309D02*
X016100Y011309D01*
X016100Y011467D02*
X009082Y011467D01*
X009051Y011499D02*
X008875Y011571D01*
X008811Y011571D01*
X007940Y012442D01*
X007940Y016565D01*
X007885Y016697D01*
X007784Y016798D01*
X007667Y016915D01*
X007675Y016915D01*
X007851Y016988D01*
X007985Y017122D01*
X008058Y017298D01*
X008058Y017488D01*
X007985Y017664D01*
X007851Y017799D01*
X007675Y017871D01*
X007485Y017871D01*
X007309Y017799D01*
X007264Y017753D01*
X004737Y017753D01*
X005085Y018101D01*
X005085Y018685D01*
X004740Y019030D01*
X004740Y019675D01*
X004796Y019698D01*
X004875Y019777D01*
X004917Y019880D01*
X004917Y020506D01*
X004882Y020593D01*
X004898Y020633D01*
X005331Y020633D01*
X005520Y020444D01*
X005520Y019222D01*
X005575Y019089D01*
X005875Y018789D01*
X005976Y018688D01*
X006108Y018633D01*
X008264Y018633D01*
X008309Y018588D01*
X008485Y018515D01*
X008675Y018515D01*
X008851Y018588D01*
X008985Y018722D01*
X009058Y018898D01*
X009058Y019088D01*
X008985Y019264D01*
X008940Y019309D01*
X008940Y020215D01*
X008975Y020215D01*
X009151Y020288D01*
X009285Y020422D01*
X009358Y020598D01*
X009358Y020788D01*
X009285Y020964D01*
X009151Y021099D01*
X008975Y021171D01*
X008785Y021171D01*
X008609Y021099D01*
X008475Y020964D01*
X008402Y020788D01*
X008402Y020724D01*
X008275Y020597D01*
X008220Y020465D01*
X008220Y019780D01*
X008185Y019864D01*
X008051Y019999D01*
X007875Y020071D01*
X007685Y020071D01*
X007509Y019999D01*
X007464Y019953D01*
X007040Y019953D01*
X007040Y020465D01*
X006985Y020597D01*
X006884Y020698D01*
X006794Y020788D01*
X006972Y020788D01*
X007385Y021201D01*
X007385Y021785D01*
X006972Y022198D01*
X006585Y022198D01*
X006585Y022585D01*
X006172Y022998D01*
X005588Y022998D01*
X005175Y022585D01*
X005175Y022153D01*
X004898Y022153D01*
X004882Y022193D01*
X004917Y022280D01*
X004917Y022906D01*
X004875Y023009D01*
X004796Y023088D01*
X004740Y023111D01*
X004740Y024433D01*
X004852Y024433D01*
X004984Y024488D01*
X005085Y024589D01*
X006911Y026415D01*
X006975Y026415D01*
X007151Y026488D01*
X007285Y026622D01*
X007358Y026798D01*
X007358Y026988D01*
X007285Y027164D01*
X007151Y027299D01*
X006975Y027371D01*
X006785Y027371D01*
X006609Y027299D01*
X006475Y027164D01*
X006402Y026988D01*
X006402Y026924D01*
X005085Y025607D01*
X005085Y026085D01*
X004672Y026498D01*
X004088Y026498D01*
X003675Y026085D01*
X003675Y025501D01*
X004020Y025156D01*
X004020Y025153D01*
X002108Y025153D01*
X001976Y025098D01*
X002180Y024793D02*
X001380Y023993D01*
X001380Y017393D01*
X001780Y016993D01*
X002080Y017393D02*
X001780Y017693D01*
X001780Y021393D01*
X003280Y022893D01*
X004080Y022893D01*
X004380Y022593D01*
X004380Y025793D01*
X004804Y026366D02*
X005844Y026366D01*
X005685Y026208D02*
X004962Y026208D01*
X005085Y026049D02*
X005527Y026049D01*
X005368Y025891D02*
X005085Y025891D01*
X005085Y025732D02*
X005210Y025732D01*
X005753Y025257D02*
X009407Y025257D01*
X009249Y025415D02*
X005911Y025415D01*
X006070Y025574D02*
X009090Y025574D01*
X008932Y025732D02*
X006228Y025732D01*
X006387Y025891D02*
X008773Y025891D01*
X008615Y026049D02*
X006545Y026049D01*
X006704Y026208D02*
X008456Y026208D01*
X008375Y026289D02*
X009875Y024789D01*
X009976Y024688D01*
X010108Y024633D01*
X022287Y024633D01*
X022227Y024529D01*
X022150Y024242D01*
X022150Y023945D01*
X022227Y023657D01*
X022358Y023431D01*
X022280Y023431D01*
X021999Y023431D01*
X021953Y023419D01*
X021912Y023395D01*
X021878Y023361D01*
X021855Y023320D01*
X021843Y023274D01*
X021843Y023131D01*
X021267Y023131D01*
X021164Y023088D01*
X021085Y023009D01*
X021043Y022906D01*
X021043Y022280D01*
X021078Y022193D01*
X021062Y022153D01*
X019908Y022153D01*
X019776Y022098D01*
X017981Y020303D01*
X013379Y020303D01*
X012940Y020742D01*
X012940Y021027D01*
X012985Y021072D01*
X013058Y021248D01*
X013058Y021438D01*
X012985Y021614D01*
X012851Y021749D01*
X012675Y021821D01*
X012485Y021821D01*
X012309Y021749D01*
X012175Y021614D01*
X012102Y021438D01*
X012102Y021248D01*
X012175Y021072D01*
X012220Y021027D01*
X012220Y020522D01*
X012275Y020389D01*
X012343Y020321D01*
X012285Y020321D01*
X012109Y020249D01*
X011975Y020114D01*
X011902Y019938D01*
X011902Y019748D01*
X011975Y019572D01*
X012109Y019438D01*
X012285Y019365D01*
X012349Y019365D01*
X012376Y019338D01*
X012508Y019283D01*
X018752Y019283D01*
X018884Y019338D01*
X018985Y019439D01*
X020179Y020633D01*
X021062Y020633D01*
X021078Y020593D01*
X021043Y020506D01*
X021043Y019880D01*
X021085Y019777D01*
X021164Y019698D01*
X021267Y019656D01*
X021633Y019656D01*
X019281Y017303D01*
X017946Y017303D01*
X017901Y017349D01*
X017725Y017421D01*
X017535Y017421D01*
X017359Y017349D01*
X017225Y017214D01*
X017160Y017058D01*
X017160Y017999D01*
X017079Y018194D01*
X016930Y018343D01*
X016735Y018423D01*
X016525Y018423D01*
X016330Y018343D01*
X016181Y018194D01*
X016100Y017999D01*
X016100Y014453D01*
X011090Y014453D01*
X011090Y014777D01*
X011135Y014822D01*
X011208Y014998D01*
X011208Y015188D01*
X011135Y015364D01*
X011001Y015499D01*
X010825Y015571D01*
X010635Y015571D01*
X010459Y015499D01*
X010414Y015453D01*
X010279Y015453D01*
X009690Y016042D01*
X009690Y017494D01*
X010179Y017983D01*
X010464Y017983D01*
X010509Y017938D01*
X010685Y017865D01*
X010875Y017865D01*
X011051Y017938D01*
X011185Y018072D01*
X011258Y018248D01*
X011258Y018438D01*
X011185Y018614D01*
X011051Y018749D01*
X010875Y018821D01*
X010685Y018821D01*
X010509Y018749D01*
X010464Y018703D01*
X009958Y018703D01*
X009826Y018648D01*
X009126Y017948D01*
X009025Y017847D01*
X008970Y017715D01*
X008970Y015822D01*
X009025Y015689D01*
X009825Y014889D01*
X009926Y014788D01*
X010058Y014733D01*
X010370Y014733D01*
X010370Y014222D01*
X010425Y014089D01*
X010526Y013988D01*
X010726Y013788D01*
X010858Y013733D01*
X016100Y013733D01*
X016100Y013403D01*
X015546Y013403D01*
X015501Y013449D01*
X015325Y013521D01*
X015135Y013521D01*
X014959Y013449D01*
X014825Y013314D01*
X014752Y013138D01*
X014752Y012948D01*
X014825Y012772D01*
X014959Y012638D01*
X015135Y012565D01*
X015325Y012565D01*
X015501Y012638D01*
X015546Y012683D01*
X016100Y012683D01*
X016100Y010948D01*
X009237Y010948D01*
X009258Y010998D01*
X009258Y011188D01*
X009185Y011364D01*
X009051Y011499D01*
X008757Y011626D02*
X016100Y011626D01*
X016100Y011784D02*
X008598Y011784D01*
X008440Y011943D02*
X016100Y011943D01*
X016100Y012101D02*
X008281Y012101D01*
X008123Y012260D02*
X016100Y012260D01*
X016100Y012418D02*
X007964Y012418D01*
X007940Y012577D02*
X015107Y012577D01*
X015353Y012577D02*
X016100Y012577D01*
X016530Y013043D02*
X015230Y013043D01*
X014752Y013052D02*
X007940Y013052D01*
X007940Y012894D02*
X014774Y012894D01*
X014862Y012735D02*
X007940Y012735D01*
X007940Y013211D02*
X014782Y013211D01*
X014880Y013369D02*
X007940Y013369D01*
X007940Y013528D02*
X016100Y013528D01*
X016100Y013686D02*
X007940Y013686D01*
X007940Y013845D02*
X010669Y013845D01*
X010511Y014003D02*
X007940Y014003D01*
X007940Y014162D02*
X010395Y014162D01*
X010370Y014320D02*
X007940Y014320D01*
X007940Y014479D02*
X010370Y014479D01*
X010370Y014637D02*
X007940Y014637D01*
X007940Y014796D02*
X009918Y014796D01*
X009760Y014954D02*
X007940Y014954D01*
X007940Y015113D02*
X009601Y015113D01*
X009443Y015271D02*
X007940Y015271D01*
X007940Y015430D02*
X009284Y015430D01*
X009126Y015588D02*
X007940Y015588D01*
X007940Y015747D02*
X009001Y015747D01*
X008970Y015905D02*
X007940Y015905D01*
X007940Y016064D02*
X008970Y016064D01*
X008970Y016222D02*
X007940Y016222D01*
X007940Y016381D02*
X008970Y016381D01*
X008970Y016539D02*
X007940Y016539D01*
X007885Y016698D02*
X008970Y016698D01*
X008970Y016856D02*
X007726Y016856D01*
X007878Y017015D02*
X008970Y017015D01*
X008970Y017173D02*
X008006Y017173D01*
X008058Y017332D02*
X008970Y017332D01*
X008970Y017490D02*
X008057Y017490D01*
X007992Y017649D02*
X008970Y017649D01*
X009008Y017807D02*
X007830Y017807D01*
X007580Y017393D02*
X002080Y017393D01*
X000660Y016539D02*
X007025Y016539D01*
X007183Y016381D02*
X000660Y016381D01*
X000660Y016222D02*
X007220Y016222D01*
X007220Y016064D02*
X000660Y016064D01*
X000660Y015905D02*
X007220Y015905D01*
X007220Y015747D02*
X000660Y015747D01*
X000660Y015588D02*
X007220Y015588D01*
X007220Y015430D02*
X000660Y015430D01*
X000660Y015271D02*
X007220Y015271D01*
X007220Y015113D02*
X000660Y015113D01*
X000660Y014954D02*
X007220Y014954D01*
X007220Y014796D02*
X000660Y014796D01*
X000660Y014637D02*
X007220Y014637D01*
X007220Y014479D02*
X000660Y014479D01*
X000660Y014320D02*
X007220Y014320D01*
X007220Y014162D02*
X000660Y014162D01*
X000660Y014003D02*
X007220Y014003D01*
X007220Y013845D02*
X000660Y013845D01*
X000660Y013686D02*
X007220Y013686D01*
X007220Y013528D02*
X000660Y013528D01*
X000660Y013369D02*
X007220Y013369D01*
X007220Y013211D02*
X000660Y013211D01*
X000660Y013052D02*
X007220Y013052D01*
X007220Y012894D02*
X003232Y012894D01*
X003235Y012893D02*
X002935Y012973D01*
X002625Y012973D01*
X002325Y012893D01*
X002055Y012738D01*
X001836Y012518D01*
X001680Y012249D01*
X001600Y011949D01*
X001600Y011638D01*
X001680Y011338D01*
X001836Y011069D01*
X002055Y010849D01*
X002325Y010694D01*
X002625Y010613D01*
X002935Y010613D01*
X003235Y010694D01*
X003505Y010849D01*
X003724Y011069D01*
X003880Y011338D01*
X003960Y011638D01*
X003960Y011949D01*
X003880Y012249D01*
X003724Y012518D01*
X003505Y012738D01*
X003235Y012893D01*
X003507Y012735D02*
X007220Y012735D01*
X007220Y012577D02*
X003665Y012577D01*
X003782Y012418D02*
X007220Y012418D01*
X007220Y012260D02*
X003873Y012260D01*
X003919Y012101D02*
X007270Y012101D01*
X007421Y011943D02*
X003960Y011943D01*
X003960Y011784D02*
X005666Y011784D01*
X005625Y011626D02*
X003957Y011626D01*
X003914Y011467D02*
X005625Y011467D01*
X005625Y011150D02*
X003771Y011150D01*
X003863Y011309D02*
X006135Y011309D01*
X006225Y011309D02*
X008055Y011309D01*
X007897Y011467D02*
X006735Y011467D01*
X006735Y011626D02*
X007738Y011626D01*
X007580Y011784D02*
X006694Y011784D01*
X006225Y011784D02*
X006135Y011784D01*
X006135Y011626D02*
X006225Y011626D01*
X006225Y011467D02*
X006135Y011467D01*
X005625Y010992D02*
X003647Y010992D01*
X003477Y010833D02*
X005574Y010833D01*
X005525Y010675D02*
X003165Y010675D01*
X002395Y010675D02*
X000660Y010675D01*
X000660Y010833D02*
X002083Y010833D01*
X001913Y010992D02*
X000660Y010992D01*
X000660Y011150D02*
X001789Y011150D01*
X001697Y011309D02*
X000660Y011309D01*
X000660Y011467D02*
X001646Y011467D01*
X001603Y011626D02*
X000660Y011626D01*
X000660Y011784D02*
X001600Y011784D01*
X001600Y011943D02*
X000660Y011943D01*
X000660Y012101D02*
X001641Y012101D01*
X001687Y012260D02*
X000660Y012260D01*
X000660Y012418D02*
X001778Y012418D01*
X001895Y012577D02*
X000660Y012577D01*
X000660Y012735D02*
X002053Y012735D01*
X002328Y012894D02*
X000660Y012894D01*
X000660Y010516D02*
X005525Y010516D01*
X005525Y010358D02*
X000660Y010358D01*
X000660Y010199D02*
X005525Y010199D01*
X005525Y010041D02*
X000660Y010041D01*
X000660Y009882D02*
X002306Y009882D01*
X002325Y009893D02*
X002055Y009738D01*
X001836Y009518D01*
X001680Y009249D01*
X001600Y008949D01*
X001600Y008638D01*
X001680Y008338D01*
X001836Y008069D01*
X002055Y007849D01*
X002325Y007694D01*
X002625Y007613D01*
X002935Y007613D01*
X003235Y007694D01*
X003505Y007849D01*
X003724Y008069D01*
X003880Y008338D01*
X003960Y008638D01*
X003960Y008949D01*
X003880Y009249D01*
X003724Y009518D01*
X003505Y009738D01*
X003235Y009893D01*
X002935Y009973D01*
X002625Y009973D01*
X002325Y009893D01*
X002042Y009724D02*
X000660Y009724D01*
X000660Y009565D02*
X001883Y009565D01*
X001772Y009407D02*
X000660Y009407D01*
X000660Y009248D02*
X001680Y009248D01*
X001638Y009090D02*
X000660Y009090D01*
X000660Y008931D02*
X001600Y008931D01*
X001600Y008773D02*
X000660Y008773D01*
X000660Y008614D02*
X001606Y008614D01*
X001649Y008456D02*
X000660Y008456D01*
X000660Y008297D02*
X001704Y008297D01*
X001795Y008139D02*
X000660Y008139D01*
X000660Y007980D02*
X001924Y007980D01*
X002103Y007822D02*
X000660Y007822D01*
X000660Y007663D02*
X001311Y007663D01*
X001356Y007681D02*
X000890Y007498D01*
X000660Y007315D01*
X000660Y026172D01*
X000890Y025988D01*
X001356Y025805D01*
X001856Y025768D01*
X002344Y025879D01*
X002777Y026130D01*
X002777Y026130D01*
X003118Y026497D01*
X003335Y026948D01*
X003410Y027443D01*
X003335Y027938D01*
X003118Y028390D01*
X003022Y028493D01*
X025267Y028493D01*
X025116Y028272D01*
X024969Y027794D01*
X024969Y027293D01*
X025116Y026814D01*
X025398Y026401D01*
X025398Y026401D01*
X025398Y026401D01*
X025790Y026088D01*
X026256Y025905D01*
X026756Y025868D01*
X027244Y025979D01*
X027670Y026226D01*
X027670Y007361D01*
X027244Y007607D01*
X026756Y007719D01*
X026256Y007681D01*
X025790Y007498D01*
X025398Y007186D01*
X025116Y006772D01*
X024969Y006294D01*
X024969Y005793D01*
X025116Y005314D01*
X025349Y004973D01*
X016563Y004973D01*
X016757Y005054D01*
X016920Y005216D01*
X016984Y005371D01*
X016988Y005360D01*
X017022Y005293D01*
X017066Y005232D01*
X017119Y005179D01*
X017180Y005135D01*
X017247Y005101D01*
X017318Y005078D01*
X017392Y005066D01*
X017411Y005066D01*
X017411Y005525D01*
X017449Y005525D01*
X017449Y005562D01*
X017907Y005562D01*
X017907Y005581D01*
X017896Y005655D01*
X017872Y005727D01*
X017838Y005794D01*
X017794Y005854D01*
X017741Y005908D01*
X017680Y005952D01*
X017613Y005986D01*
X017602Y005989D01*
X017757Y006054D01*
X017920Y006216D01*
X018007Y006428D01*
X018007Y006658D01*
X017920Y006870D01*
X017757Y007033D01*
X017635Y007083D01*
X019081Y007083D01*
X019776Y006388D01*
X019908Y006333D01*
X023102Y006333D01*
X023234Y006388D01*
X023335Y006489D01*
X024435Y007589D01*
X024490Y007722D01*
X024490Y007771D01*
X024625Y007694D01*
X024925Y007613D01*
X025235Y007613D01*
X025535Y007694D01*
X025805Y007849D01*
X026024Y008069D01*
X026180Y008338D01*
X026260Y008638D01*
X026260Y008949D01*
X026180Y009249D01*
X026024Y009518D01*
X025805Y009738D01*
X025535Y009893D01*
X025235Y009973D01*
X024925Y009973D01*
X024625Y009893D01*
X024490Y009815D01*
X024490Y010771D01*
X024625Y010694D01*
X024925Y010613D01*
X025235Y010613D01*
X025535Y010694D01*
X025805Y010849D01*
X026024Y011069D01*
X026180Y011338D01*
X026260Y011638D01*
X026260Y011949D01*
X026180Y012249D01*
X026024Y012518D01*
X025805Y012738D01*
X025535Y012893D01*
X025235Y012973D01*
X024925Y012973D01*
X024625Y012893D01*
X024490Y012815D01*
X024490Y017044D01*
X025535Y018089D01*
X025590Y018222D01*
X025590Y022444D01*
X026185Y023039D01*
X026240Y023172D01*
X026240Y024965D01*
X026185Y025097D01*
X026084Y025198D01*
X023384Y027898D01*
X023252Y027953D01*
X016846Y027953D01*
X016801Y027999D01*
X016625Y028071D01*
X016435Y028071D01*
X016259Y027999D01*
X016125Y027864D01*
X016052Y027688D01*
X016052Y027498D01*
X016125Y027322D01*
X016259Y027188D01*
X016435Y027115D01*
X016625Y027115D01*
X016801Y027188D01*
X016846Y027233D01*
X017094Y027233D01*
X017075Y027214D01*
X017002Y027038D01*
X017002Y026848D01*
X017075Y026672D01*
X017120Y026627D01*
X017120Y026522D01*
X017175Y026389D01*
X017276Y026288D01*
X017311Y026253D01*
X015029Y026253D01*
X014507Y026775D01*
X014558Y026898D01*
X014558Y027088D01*
X014485Y027264D01*
X014351Y027399D01*
X014175Y027471D01*
X013985Y027471D01*
X013809Y027399D01*
X013675Y027264D01*
X013602Y027088D01*
X013602Y026898D01*
X013675Y026722D01*
X013720Y026677D01*
X013720Y026622D01*
X013775Y026489D01*
X014311Y025953D01*
X013429Y025953D01*
X012673Y026710D01*
X012685Y026722D01*
X012758Y026898D01*
X012758Y027088D01*
X012685Y027264D01*
X012551Y027399D01*
X012375Y027471D01*
X012185Y027471D01*
X012009Y027399D01*
X011875Y027264D01*
X011802Y027088D01*
X011802Y026898D01*
X011875Y026722D01*
X011920Y026677D01*
X011920Y026522D01*
X011975Y026389D01*
X012711Y025653D01*
X011829Y025653D01*
X010840Y026642D01*
X010840Y026677D01*
X010885Y026722D01*
X010958Y026898D01*
X010958Y027088D01*
X010885Y027264D01*
X010751Y027399D01*
X010575Y027471D01*
X010385Y027471D01*
X010209Y027399D01*
X010075Y027264D01*
X010002Y027088D01*
X010002Y026898D01*
X010075Y026722D01*
X010120Y026677D01*
X010120Y026422D01*
X010175Y026289D01*
X011111Y025353D01*
X010329Y025353D01*
X009040Y026642D01*
X009040Y026677D01*
X009085Y026722D01*
X009158Y026898D01*
X009158Y027088D01*
X009085Y027264D01*
X008951Y027399D01*
X008775Y027471D01*
X008585Y027471D01*
X008409Y027399D01*
X008275Y027264D01*
X008202Y027088D01*
X008202Y026898D01*
X008275Y026722D01*
X008320Y026677D01*
X008320Y026422D01*
X008375Y026289D01*
X008343Y026366D02*
X006862Y026366D01*
X007188Y026525D02*
X008320Y026525D01*
X008314Y026683D02*
X007311Y026683D01*
X007358Y026842D02*
X008225Y026842D01*
X008202Y027000D02*
X007353Y027000D01*
X007288Y027159D02*
X008231Y027159D01*
X008328Y027317D02*
X007106Y027317D01*
X006654Y027317D02*
X003391Y027317D01*
X003405Y027476D02*
X016061Y027476D01*
X016052Y027634D02*
X003381Y027634D01*
X003357Y027793D02*
X016095Y027793D01*
X016212Y027951D02*
X003329Y027951D01*
X003335Y027938D02*
X003335Y027938D01*
X003253Y028110D02*
X025066Y028110D01*
X025115Y028268D02*
X003177Y028268D01*
X003118Y028390D02*
X003118Y028390D01*
X003084Y028427D02*
X025222Y028427D01*
X025116Y028272D02*
X025116Y028272D01*
X025017Y027951D02*
X023256Y027951D01*
X023490Y027793D02*
X024969Y027793D01*
X024969Y027634D02*
X023648Y027634D01*
X023807Y027476D02*
X024969Y027476D01*
X024969Y027317D02*
X023965Y027317D01*
X024124Y027159D02*
X025010Y027159D01*
X025059Y027000D02*
X024282Y027000D01*
X024441Y026842D02*
X025108Y026842D01*
X025116Y026814D02*
X025116Y026814D01*
X025206Y026683D02*
X024599Y026683D01*
X024758Y026525D02*
X025314Y026525D01*
X025441Y026366D02*
X024916Y026366D01*
X025075Y026208D02*
X025640Y026208D01*
X025790Y026088D02*
X025790Y026088D01*
X025889Y026049D02*
X025233Y026049D01*
X025392Y025891D02*
X026451Y025891D01*
X026256Y025905D02*
X026256Y025905D01*
X026756Y025868D02*
X026756Y025868D01*
X026856Y025891D02*
X027670Y025891D01*
X027670Y026049D02*
X027365Y026049D01*
X027244Y025979D02*
X027244Y025979D01*
X027639Y026208D02*
X027670Y026208D01*
X027670Y025732D02*
X025550Y025732D01*
X025709Y025574D02*
X027670Y025574D01*
X027670Y025415D02*
X025867Y025415D01*
X026026Y025257D02*
X027670Y025257D01*
X027670Y025098D02*
X026184Y025098D01*
X026240Y024940D02*
X027670Y024940D01*
X027670Y024781D02*
X026240Y024781D01*
X026240Y024623D02*
X027670Y024623D01*
X027670Y024464D02*
X026240Y024464D01*
X026240Y024306D02*
X027670Y024306D01*
X027670Y024147D02*
X026240Y024147D01*
X026240Y023989D02*
X027670Y023989D01*
X027670Y023830D02*
X026240Y023830D01*
X026240Y023672D02*
X027670Y023672D01*
X027670Y023513D02*
X026240Y023513D01*
X026240Y023355D02*
X027670Y023355D01*
X027670Y023196D02*
X026240Y023196D01*
X026184Y023038D02*
X027670Y023038D01*
X027670Y022879D02*
X026025Y022879D01*
X025867Y022721D02*
X027670Y022721D01*
X027670Y022562D02*
X025708Y022562D01*
X025590Y022404D02*
X027670Y022404D01*
X027670Y022245D02*
X025590Y022245D01*
X025590Y022087D02*
X027670Y022087D01*
X027670Y021928D02*
X025590Y021928D01*
X025590Y021770D02*
X027670Y021770D01*
X027670Y021611D02*
X025590Y021611D01*
X025590Y021453D02*
X027670Y021453D01*
X027670Y021294D02*
X025590Y021294D01*
X025590Y021136D02*
X027670Y021136D01*
X027670Y020977D02*
X025590Y020977D01*
X025590Y020819D02*
X027670Y020819D01*
X027670Y020660D02*
X025590Y020660D01*
X025590Y020502D02*
X027670Y020502D01*
X027670Y020343D02*
X025590Y020343D01*
X025590Y020185D02*
X027670Y020185D01*
X027670Y020026D02*
X025590Y020026D01*
X025590Y019868D02*
X027670Y019868D01*
X027670Y019709D02*
X025590Y019709D01*
X025590Y019551D02*
X027670Y019551D01*
X027670Y019392D02*
X025590Y019392D01*
X025590Y019234D02*
X027670Y019234D01*
X027670Y019075D02*
X025590Y019075D01*
X025590Y018917D02*
X027670Y018917D01*
X027670Y018758D02*
X025590Y018758D01*
X025590Y018600D02*
X027670Y018600D01*
X027670Y018441D02*
X025590Y018441D01*
X025590Y018283D02*
X027670Y018283D01*
X027670Y018124D02*
X025550Y018124D01*
X025412Y017966D02*
X027670Y017966D01*
X027670Y017807D02*
X025253Y017807D01*
X025095Y017649D02*
X027670Y017649D01*
X027670Y017490D02*
X024936Y017490D01*
X024778Y017332D02*
X027670Y017332D01*
X027670Y017173D02*
X024619Y017173D01*
X024490Y017015D02*
X027670Y017015D01*
X027670Y016856D02*
X024490Y016856D01*
X024490Y016698D02*
X027670Y016698D01*
X027670Y016539D02*
X024490Y016539D01*
X024490Y016381D02*
X027670Y016381D01*
X027670Y016222D02*
X024490Y016222D01*
X024490Y016064D02*
X027670Y016064D01*
X027670Y015905D02*
X024490Y015905D01*
X024490Y015747D02*
X027670Y015747D01*
X027670Y015588D02*
X024490Y015588D01*
X024490Y015430D02*
X027670Y015430D01*
X027670Y015271D02*
X024490Y015271D01*
X024490Y015113D02*
X027670Y015113D01*
X027670Y014954D02*
X024490Y014954D01*
X024490Y014796D02*
X027670Y014796D01*
X027670Y014637D02*
X024490Y014637D01*
X024490Y014479D02*
X027670Y014479D01*
X027670Y014320D02*
X024490Y014320D01*
X024490Y014162D02*
X027670Y014162D01*
X027670Y014003D02*
X024490Y014003D01*
X024490Y013845D02*
X027670Y013845D01*
X027670Y013686D02*
X024490Y013686D01*
X024490Y013528D02*
X027670Y013528D01*
X027670Y013369D02*
X024490Y013369D01*
X024490Y013211D02*
X027670Y013211D01*
X027670Y013052D02*
X024490Y013052D01*
X024490Y012894D02*
X024628Y012894D01*
X025532Y012894D02*
X027670Y012894D01*
X027670Y012735D02*
X025807Y012735D01*
X025965Y012577D02*
X027670Y012577D01*
X027670Y012418D02*
X026082Y012418D01*
X026173Y012260D02*
X027670Y012260D01*
X027670Y012101D02*
X026219Y012101D01*
X026260Y011943D02*
X027670Y011943D01*
X027670Y011784D02*
X026260Y011784D01*
X026257Y011626D02*
X027670Y011626D01*
X027670Y011467D02*
X026214Y011467D01*
X026163Y011309D02*
X027670Y011309D01*
X027670Y011150D02*
X026071Y011150D01*
X025947Y010992D02*
X027670Y010992D01*
X027670Y010833D02*
X025777Y010833D01*
X025465Y010675D02*
X027670Y010675D01*
X027670Y010516D02*
X024490Y010516D01*
X024490Y010358D02*
X027670Y010358D01*
X027670Y010199D02*
X024490Y010199D01*
X024490Y010041D02*
X027670Y010041D01*
X027670Y009882D02*
X025554Y009882D01*
X025818Y009724D02*
X027670Y009724D01*
X027670Y009565D02*
X025977Y009565D01*
X026088Y009407D02*
X027670Y009407D01*
X027670Y009248D02*
X026180Y009248D01*
X026222Y009090D02*
X027670Y009090D01*
X027670Y008931D02*
X026260Y008931D01*
X026260Y008773D02*
X027670Y008773D01*
X027670Y008614D02*
X026254Y008614D01*
X026211Y008456D02*
X027670Y008456D01*
X027670Y008297D02*
X026156Y008297D01*
X026065Y008139D02*
X027670Y008139D01*
X027670Y007980D02*
X025936Y007980D01*
X025757Y007822D02*
X027670Y007822D01*
X027670Y007663D02*
X026998Y007663D01*
X027421Y007505D02*
X027670Y007505D01*
X026211Y007663D02*
X025422Y007663D01*
X025600Y007346D02*
X024192Y007346D01*
X024034Y007188D02*
X025401Y007188D01*
X025398Y007186D02*
X025398Y007186D01*
X025398Y007186D01*
X025292Y007029D02*
X023875Y007029D01*
X023717Y006871D02*
X025184Y006871D01*
X025116Y006772D02*
X025116Y006772D01*
X025098Y006712D02*
X023558Y006712D01*
X023400Y006554D02*
X025049Y006554D01*
X025000Y006395D02*
X023241Y006395D01*
X023030Y006693D02*
X019980Y006693D01*
X019230Y007443D01*
X013280Y007443D01*
X012930Y007093D01*
X012930Y006043D01*
X012430Y005543D01*
X011930Y006043D02*
X011430Y005543D01*
X011930Y006043D02*
X011930Y006893D01*
X012830Y007793D01*
X019430Y007793D01*
X020130Y007093D01*
X022880Y007093D01*
X023730Y007943D01*
X023730Y017293D01*
X024880Y018443D01*
X024880Y022693D01*
X025530Y023343D01*
X025530Y024843D01*
X024180Y026193D01*
X017880Y026193D01*
X017480Y026593D01*
X017480Y026943D01*
X017052Y027159D02*
X016730Y027159D01*
X017002Y027000D02*
X014558Y027000D01*
X014535Y026842D02*
X017005Y026842D01*
X017070Y026683D02*
X014599Y026683D01*
X014758Y026525D02*
X017120Y026525D01*
X017198Y026366D02*
X014916Y026366D01*
X014880Y025893D02*
X024080Y025893D01*
X025180Y024793D01*
X025180Y023393D01*
X024580Y022793D01*
X024580Y018593D01*
X023780Y017793D01*
X021680Y017793D01*
X018880Y014993D01*
X017630Y014993D01*
X017630Y015593D02*
X019030Y015593D01*
X021530Y018093D01*
X023680Y018093D01*
X024280Y018693D01*
X024280Y022893D01*
X024880Y023493D01*
X024880Y024693D01*
X023980Y025593D01*
X013280Y025593D01*
X012280Y026593D01*
X012280Y026993D01*
X012758Y027000D02*
X013602Y027000D01*
X013625Y026842D02*
X012735Y026842D01*
X012699Y026683D02*
X013714Y026683D01*
X013760Y026525D02*
X012858Y026525D01*
X013016Y026366D02*
X013898Y026366D01*
X014056Y026208D02*
X013175Y026208D01*
X013333Y026049D02*
X014215Y026049D01*
X014080Y026693D02*
X014880Y025893D01*
X014080Y026693D02*
X014080Y026993D01*
X013631Y027159D02*
X012729Y027159D01*
X012632Y027317D02*
X013728Y027317D01*
X014432Y027317D02*
X016130Y027317D01*
X016330Y027159D02*
X014529Y027159D01*
X012632Y025732D02*
X011750Y025732D01*
X011592Y025891D02*
X012473Y025891D01*
X012315Y026049D02*
X011433Y026049D01*
X011275Y026208D02*
X012156Y026208D01*
X011998Y026366D02*
X011116Y026366D01*
X010958Y026525D02*
X011920Y026525D01*
X011914Y026683D02*
X010846Y026683D01*
X010935Y026842D02*
X011825Y026842D01*
X011802Y027000D02*
X010958Y027000D01*
X010929Y027159D02*
X011831Y027159D01*
X011928Y027317D02*
X010832Y027317D01*
X010480Y026993D02*
X010480Y026493D01*
X011680Y025293D01*
X023880Y025293D01*
X024580Y024593D01*
X024580Y023593D01*
X023180Y022193D01*
X023180Y020293D01*
X019180Y016293D01*
X017630Y016293D01*
X017630Y016943D02*
X019430Y016943D01*
X022880Y020393D01*
X022880Y022293D01*
X024280Y023693D01*
X024280Y024493D01*
X023780Y024993D01*
X010180Y024993D01*
X008680Y026493D01*
X008680Y026993D01*
X009158Y027000D02*
X010002Y027000D01*
X010025Y026842D02*
X009135Y026842D01*
X009046Y026683D02*
X010114Y026683D01*
X010120Y026525D02*
X009158Y026525D01*
X009316Y026366D02*
X010143Y026366D01*
X010256Y026208D02*
X009475Y026208D01*
X009633Y026049D02*
X010415Y026049D01*
X010573Y025891D02*
X009792Y025891D01*
X009950Y025732D02*
X010732Y025732D01*
X010890Y025574D02*
X010109Y025574D01*
X010267Y025415D02*
X011049Y025415D01*
X009883Y024781D02*
X005277Y024781D01*
X005119Y024623D02*
X022281Y024623D01*
X022210Y024464D02*
X004927Y024464D01*
X004740Y024306D02*
X022167Y024306D01*
X022150Y024147D02*
X004740Y024147D01*
X004740Y023989D02*
X022150Y023989D01*
X022181Y023830D02*
X004740Y023830D01*
X004740Y023672D02*
X022223Y023672D01*
X022310Y023513D02*
X004740Y023513D01*
X004740Y023355D02*
X021875Y023355D01*
X021843Y023196D02*
X004740Y023196D01*
X004846Y023038D02*
X021114Y023038D01*
X021043Y022879D02*
X006291Y022879D01*
X006449Y022721D02*
X021043Y022721D01*
X021043Y022562D02*
X006585Y022562D01*
X006585Y022404D02*
X021043Y022404D01*
X021057Y022245D02*
X006585Y022245D01*
X007083Y022087D02*
X019764Y022087D01*
X019606Y021928D02*
X007242Y021928D01*
X007385Y021770D02*
X012360Y021770D01*
X012174Y021611D02*
X007385Y021611D01*
X007385Y021453D02*
X012108Y021453D01*
X012102Y021294D02*
X007385Y021294D01*
X007320Y021136D02*
X008699Y021136D01*
X008488Y020977D02*
X007161Y020977D01*
X007003Y020819D02*
X008414Y020819D01*
X008338Y020660D02*
X006922Y020660D01*
X007025Y020502D02*
X008235Y020502D01*
X008220Y020343D02*
X007040Y020343D01*
X007040Y020185D02*
X008220Y020185D01*
X008220Y020026D02*
X007984Y020026D01*
X008182Y019868D02*
X008220Y019868D01*
X007780Y019593D02*
X006880Y019593D01*
X006680Y019793D01*
X006680Y020393D01*
X005280Y021793D01*
X004380Y021793D01*
X004903Y022245D02*
X005175Y022245D01*
X005175Y022404D02*
X004917Y022404D01*
X004917Y022562D02*
X005175Y022562D01*
X005311Y022721D02*
X004917Y022721D01*
X004917Y022879D02*
X005469Y022879D01*
X003680Y022193D02*
X003680Y021756D01*
X003680Y021393D01*
X003680Y020956D01*
X003680Y020593D01*
X003680Y020156D01*
X003680Y019793D01*
X003680Y019356D01*
X003961Y019356D01*
X004007Y019368D01*
X004020Y019376D01*
X004020Y019030D01*
X003810Y018820D01*
X003810Y018842D01*
X003733Y019129D01*
X003602Y019356D01*
X003680Y019356D01*
X003680Y019793D01*
X003680Y019793D01*
X003243Y019793D01*
X003243Y019673D01*
X003116Y019746D01*
X002829Y019823D01*
X002531Y019823D01*
X002244Y019746D01*
X002140Y019686D01*
X002140Y021244D01*
X003243Y022347D01*
X003243Y022193D01*
X003243Y021912D01*
X003255Y021866D01*
X003278Y021825D01*
X003310Y021793D01*
X003278Y021761D01*
X003255Y021720D01*
X003243Y021674D01*
X003243Y021393D01*
X003243Y021112D01*
X003255Y021066D01*
X003278Y021025D01*
X003310Y020993D01*
X003278Y020961D01*
X003255Y020920D01*
X003243Y020874D01*
X003243Y020593D01*
X003243Y020312D01*
X003255Y020266D01*
X003278Y020225D01*
X003310Y020193D01*
X003278Y020161D01*
X003255Y020120D01*
X003243Y020074D01*
X003243Y019793D01*
X003680Y019793D01*
X003680Y019793D01*
X003680Y020593D01*
X003680Y020593D01*
X003243Y020593D01*
X003680Y020593D01*
X003680Y020593D01*
X003680Y021393D01*
X003680Y021393D01*
X003243Y021393D01*
X003680Y021393D01*
X003680Y021393D01*
X003680Y022193D01*
X003680Y022193D01*
X003243Y022193D01*
X003680Y022193D01*
X003680Y022193D01*
X003680Y022087D02*
X003680Y022087D01*
X003680Y021928D02*
X003680Y021928D01*
X003680Y021770D02*
X003680Y021770D01*
X003680Y021611D02*
X003680Y021611D01*
X003680Y021453D02*
X003680Y021453D01*
X003680Y021393D02*
X003680Y021393D01*
X003680Y021294D02*
X003680Y021294D01*
X003680Y021136D02*
X003680Y021136D01*
X003680Y020977D02*
X003680Y020977D01*
X003680Y020819D02*
X003680Y020819D01*
X003680Y020660D02*
X003680Y020660D01*
X003680Y020593D02*
X003680Y020593D01*
X003680Y020502D02*
X003680Y020502D01*
X003680Y020343D02*
X003680Y020343D01*
X003680Y020185D02*
X003680Y020185D01*
X003680Y020026D02*
X003680Y020026D01*
X003680Y019868D02*
X003680Y019868D01*
X003680Y019793D02*
X003680Y019793D01*
X003680Y019709D02*
X003680Y019709D01*
X003680Y019551D02*
X003680Y019551D01*
X003680Y019392D02*
X003680Y019392D01*
X003673Y019234D02*
X004020Y019234D01*
X004020Y019075D02*
X003747Y019075D01*
X003790Y018917D02*
X003907Y018917D01*
X004380Y018393D02*
X004380Y020193D01*
X004917Y020185D02*
X005520Y020185D01*
X005520Y020343D02*
X004917Y020343D01*
X004917Y020502D02*
X005462Y020502D01*
X005880Y020593D02*
X005880Y019293D01*
X006180Y018993D01*
X008580Y018993D01*
X008580Y020393D01*
X008880Y020693D01*
X009206Y020343D02*
X012321Y020343D01*
X012228Y020502D02*
X009318Y020502D01*
X009358Y020660D02*
X012220Y020660D01*
X012220Y020819D02*
X009346Y020819D01*
X009272Y020977D02*
X012220Y020977D01*
X012148Y021136D02*
X009061Y021136D01*
X008940Y020185D02*
X012045Y020185D01*
X011938Y020026D02*
X008940Y020026D01*
X008940Y019868D02*
X011902Y019868D01*
X011918Y019709D02*
X008940Y019709D01*
X008940Y019551D02*
X011996Y019551D01*
X012219Y019392D02*
X008940Y019392D01*
X008998Y019234D02*
X021211Y019234D01*
X021053Y019075D02*
X009058Y019075D01*
X009058Y018917D02*
X020894Y018917D01*
X020736Y018758D02*
X011027Y018758D01*
X011191Y018600D02*
X020577Y018600D01*
X020419Y018441D02*
X011257Y018441D01*
X011258Y018283D02*
X016270Y018283D01*
X016152Y018124D02*
X011207Y018124D01*
X011079Y017966D02*
X016100Y017966D01*
X016100Y017807D02*
X010003Y017807D01*
X009845Y017649D02*
X016100Y017649D01*
X016100Y017490D02*
X009690Y017490D01*
X009690Y017332D02*
X016100Y017332D01*
X016100Y017173D02*
X009690Y017173D01*
X009690Y017015D02*
X016100Y017015D01*
X016100Y016856D02*
X009690Y016856D01*
X009690Y016698D02*
X016100Y016698D01*
X016100Y016539D02*
X009690Y016539D01*
X009690Y016381D02*
X016100Y016381D01*
X016100Y016222D02*
X009690Y016222D01*
X009690Y016064D02*
X016100Y016064D01*
X016100Y015905D02*
X009827Y015905D01*
X009986Y015747D02*
X016100Y015747D01*
X016100Y015588D02*
X010144Y015588D01*
X010130Y015093D02*
X010730Y015093D01*
X010730Y014293D01*
X010930Y014093D01*
X016530Y014093D01*
X016630Y013993D01*
X016100Y014479D02*
X011090Y014479D01*
X011090Y014637D02*
X016100Y014637D01*
X016100Y014796D02*
X011109Y014796D01*
X011190Y014954D02*
X016100Y014954D01*
X016100Y015113D02*
X011208Y015113D01*
X011174Y015271D02*
X016100Y015271D01*
X016100Y015430D02*
X011070Y015430D01*
X010130Y015093D02*
X009330Y015893D01*
X009330Y017643D01*
X010030Y018343D01*
X010780Y018343D01*
X010481Y017966D02*
X010162Y017966D01*
X009619Y018441D02*
X005085Y018441D01*
X005085Y018283D02*
X009460Y018283D01*
X009302Y018124D02*
X005085Y018124D01*
X004950Y017966D02*
X009143Y017966D01*
X008863Y018600D02*
X009777Y018600D01*
X010533Y018758D02*
X009000Y018758D01*
X008297Y018600D02*
X005085Y018600D01*
X005012Y018758D02*
X005906Y018758D01*
X005875Y018789D02*
X005875Y018789D01*
X005747Y018917D02*
X004853Y018917D01*
X004740Y019075D02*
X005589Y019075D01*
X005520Y019234D02*
X004740Y019234D01*
X004740Y019392D02*
X005520Y019392D01*
X005520Y019551D02*
X004740Y019551D01*
X004807Y019709D02*
X005520Y019709D01*
X005520Y019868D02*
X004912Y019868D01*
X004917Y020026D02*
X005520Y020026D01*
X005880Y020593D02*
X005480Y020993D01*
X004380Y020993D01*
X003295Y020977D02*
X002140Y020977D01*
X002140Y020819D02*
X003243Y020819D01*
X003243Y020660D02*
X002140Y020660D01*
X002140Y020502D02*
X003243Y020502D01*
X003243Y020343D02*
X002140Y020343D01*
X002140Y020185D02*
X003302Y020185D01*
X003243Y020026D02*
X002140Y020026D01*
X002140Y019868D02*
X003243Y019868D01*
X003243Y019709D02*
X003180Y019709D01*
X002180Y019709D02*
X002140Y019709D01*
X002140Y021136D02*
X003243Y021136D01*
X003243Y021294D02*
X002190Y021294D01*
X002349Y021453D02*
X003243Y021453D01*
X003243Y021611D02*
X002507Y021611D01*
X002666Y021770D02*
X003287Y021770D01*
X003243Y021928D02*
X002824Y021928D01*
X002983Y022087D02*
X003243Y022087D01*
X003243Y022245D02*
X003141Y022245D01*
X002180Y024793D02*
X004780Y024793D01*
X006880Y026893D01*
X006407Y027000D02*
X003343Y027000D01*
X003335Y026948D02*
X003335Y026948D01*
X003284Y026842D02*
X006319Y026842D01*
X006161Y026683D02*
X003208Y026683D01*
X003132Y026525D02*
X006002Y026525D01*
X006472Y027159D02*
X003367Y027159D01*
X003118Y026497D02*
X003118Y026497D01*
X002997Y026366D02*
X003956Y026366D01*
X003798Y026208D02*
X002850Y026208D01*
X002638Y026049D02*
X003675Y026049D01*
X003675Y025891D02*
X002364Y025891D01*
X002344Y025879D02*
X002344Y025879D01*
X001856Y025768D02*
X001856Y025768D01*
X001356Y025805D02*
X001356Y025805D01*
X001139Y025891D02*
X000660Y025891D01*
X000660Y026049D02*
X000814Y026049D01*
X000660Y025732D02*
X003675Y025732D01*
X003675Y025574D02*
X000660Y025574D01*
X000660Y025415D02*
X003761Y025415D01*
X003919Y025257D02*
X000660Y025257D01*
X005436Y024940D02*
X009724Y024940D01*
X009566Y025098D02*
X005594Y025098D01*
X009129Y027159D02*
X010031Y027159D01*
X010128Y027317D02*
X009032Y027317D01*
X012800Y021770D02*
X019447Y021770D01*
X019289Y021611D02*
X012986Y021611D01*
X013052Y021453D02*
X019130Y021453D01*
X018972Y021294D02*
X013058Y021294D01*
X013012Y021136D02*
X018813Y021136D01*
X018655Y020977D02*
X012940Y020977D01*
X012940Y020819D02*
X018496Y020819D01*
X018338Y020660D02*
X013022Y020660D01*
X013181Y020502D02*
X018179Y020502D01*
X018021Y020343D02*
X013339Y020343D01*
X013230Y019943D02*
X012580Y020593D01*
X012580Y021343D01*
X012380Y019843D02*
X012580Y019643D01*
X018680Y019643D01*
X020030Y020993D01*
X021580Y020993D01*
X022280Y020977D02*
X022280Y020977D01*
X022280Y021031D02*
X022280Y020593D01*
X022280Y020593D01*
X022280Y021393D01*
X022280Y021393D01*
X022280Y021031D01*
X022280Y021136D02*
X022280Y021136D01*
X022280Y021294D02*
X022280Y021294D01*
X022280Y021393D02*
X022280Y021831D01*
X022280Y022193D01*
X022280Y021393D01*
X022280Y021393D01*
X022280Y021453D02*
X022280Y021453D01*
X022280Y021611D02*
X022280Y021611D01*
X022280Y021770D02*
X022280Y021770D01*
X022280Y021928D02*
X022280Y021928D01*
X022280Y022087D02*
X022280Y022087D01*
X022280Y022193D02*
X022280Y022193D01*
X022280Y022631D01*
X022280Y022993D01*
X022280Y022193D01*
X022280Y022193D01*
X022280Y022245D02*
X022280Y022245D01*
X022280Y022404D02*
X022280Y022404D01*
X022280Y022562D02*
X022280Y022562D01*
X022280Y022721D02*
X022280Y022721D01*
X022280Y022879D02*
X022280Y022879D01*
X022280Y022993D02*
X022280Y022993D01*
X022280Y022993D01*
X022717Y022993D01*
X022717Y022712D01*
X022705Y022666D01*
X022682Y022625D01*
X022650Y022593D01*
X022660Y022583D01*
X023060Y022982D01*
X022844Y023040D01*
X022717Y023113D01*
X022717Y022993D01*
X022280Y022993D01*
X022280Y023431D01*
X022280Y022993D01*
X022280Y022993D01*
X022280Y023038D02*
X022280Y023038D01*
X022280Y023196D02*
X022280Y023196D01*
X022280Y023355D02*
X022280Y023355D01*
X022717Y023038D02*
X022853Y023038D01*
X022957Y022879D02*
X022717Y022879D01*
X022717Y022721D02*
X022798Y022721D01*
X021580Y021793D02*
X019980Y021793D01*
X018130Y019943D01*
X013230Y019943D01*
X016990Y018283D02*
X020260Y018283D01*
X020102Y018124D02*
X017108Y018124D01*
X017160Y017966D02*
X019943Y017966D01*
X019785Y017807D02*
X017160Y017807D01*
X017160Y017649D02*
X019626Y017649D01*
X019468Y017490D02*
X017160Y017490D01*
X017160Y017332D02*
X017342Y017332D01*
X017208Y017173D02*
X017160Y017173D01*
X017918Y017332D02*
X019309Y017332D01*
X018938Y019392D02*
X021370Y019392D01*
X021528Y019551D02*
X019097Y019551D01*
X019255Y019709D02*
X021153Y019709D01*
X021048Y019868D02*
X019414Y019868D01*
X019572Y020026D02*
X021043Y020026D01*
X021043Y020185D02*
X019731Y020185D01*
X019889Y020343D02*
X021043Y020343D01*
X021043Y020502D02*
X020048Y020502D01*
X022280Y020660D02*
X022280Y020660D01*
X022280Y020819D02*
X022280Y020819D01*
X025230Y022593D02*
X025230Y018293D01*
X024130Y017193D01*
X024130Y007793D01*
X023030Y006693D01*
X024351Y007505D02*
X025807Y007505D01*
X024738Y007663D02*
X024466Y007663D01*
X024969Y006237D02*
X017928Y006237D01*
X017994Y006395D02*
X019769Y006395D01*
X019610Y006554D02*
X018007Y006554D01*
X017985Y006712D02*
X019452Y006712D01*
X019293Y006871D02*
X017919Y006871D01*
X017761Y007029D02*
X019135Y007029D01*
X017782Y006078D02*
X024969Y006078D01*
X024969Y005920D02*
X017724Y005920D01*
X017855Y005761D02*
X024979Y005761D01*
X025027Y005603D02*
X017904Y005603D01*
X017907Y005525D02*
X017449Y005525D01*
X017449Y005066D01*
X017468Y005066D01*
X017542Y005078D01*
X017613Y005101D01*
X017680Y005135D01*
X017741Y005179D01*
X017794Y005232D01*
X017838Y005293D01*
X017872Y005360D01*
X017896Y005431D01*
X017907Y005506D01*
X017907Y005525D01*
X017898Y005444D02*
X025076Y005444D01*
X025116Y005314D02*
X025116Y005314D01*
X025136Y005286D02*
X017833Y005286D01*
X017665Y005127D02*
X025244Y005127D01*
X022225Y008648D02*
X020951Y008648D01*
X020835Y008765D01*
X020835Y009224D01*
X020735Y009464D01*
X020561Y009638D01*
X021125Y009638D01*
X021125Y009338D01*
X021635Y009338D01*
X021635Y009248D01*
X021725Y009248D01*
X021725Y008738D01*
X022079Y008738D01*
X022124Y008751D01*
X022166Y008774D01*
X022199Y008808D01*
X022223Y008849D01*
X022225Y008857D01*
X022225Y008648D01*
X022225Y008773D02*
X022163Y008773D01*
X021725Y008773D02*
X021635Y008773D01*
X021635Y008738D02*
X021635Y009248D01*
X021125Y009248D01*
X021125Y008895D01*
X021137Y008849D01*
X021161Y008808D01*
X021194Y008774D01*
X021236Y008751D01*
X021281Y008738D01*
X021635Y008738D01*
X021635Y008931D02*
X021725Y008931D01*
X021725Y009090D02*
X021635Y009090D01*
X021635Y009248D02*
X020825Y009248D01*
X020835Y009090D02*
X021125Y009090D01*
X021125Y008931D02*
X020835Y008931D01*
X020835Y008773D02*
X021197Y008773D01*
X021125Y009407D02*
X020759Y009407D01*
X020634Y009565D02*
X021125Y009565D01*
X024490Y009882D02*
X024606Y009882D01*
X024695Y010675D02*
X024490Y010675D01*
X017449Y005444D02*
X017411Y005444D01*
X017411Y005286D02*
X017449Y005286D01*
X017449Y005127D02*
X017411Y005127D01*
X017195Y005127D02*
X016831Y005127D01*
X016948Y005286D02*
X017027Y005286D01*
X016100Y010992D02*
X009255Y010992D01*
X009258Y011150D02*
X016100Y011150D01*
X016530Y013043D02*
X016630Y013143D01*
X008305Y010992D02*
X006735Y010992D01*
X006735Y011150D02*
X008214Y011150D01*
X005525Y009882D02*
X003254Y009882D01*
X003518Y009724D02*
X005525Y009724D01*
X005525Y009565D02*
X003677Y009565D01*
X003788Y009407D02*
X005525Y009407D01*
X005525Y009248D02*
X003880Y009248D01*
X003922Y009090D02*
X005525Y009090D01*
X005525Y008931D02*
X003960Y008931D01*
X003960Y008773D02*
X005562Y008773D01*
X005600Y008614D02*
X003954Y008614D01*
X003911Y008456D02*
X005600Y008456D01*
X005600Y008297D02*
X003856Y008297D01*
X003765Y008139D02*
X005600Y008139D01*
X005600Y007980D02*
X003636Y007980D01*
X003457Y007822D02*
X005600Y007822D01*
X005600Y007663D02*
X003122Y007663D01*
X002787Y007346D02*
X005707Y007346D01*
X005630Y007505D02*
X002521Y007505D01*
X002438Y007663D02*
X002098Y007663D01*
X001856Y007719D02*
X001856Y007719D01*
X001356Y007681D01*
X001356Y007681D01*
X001856Y007719D02*
X002344Y007607D01*
X002344Y007607D01*
X002777Y007357D01*
X002777Y007357D01*
X003118Y006990D01*
X003118Y006990D01*
X003335Y006538D01*
X003335Y006538D01*
X003410Y006043D01*
X003335Y005548D01*
X003335Y005548D01*
X003118Y005097D01*
X003118Y005097D01*
X003133Y005127D02*
X007926Y005127D01*
X007767Y005286D02*
X003209Y005286D01*
X003285Y005444D02*
X007609Y005444D01*
X007450Y005603D02*
X003344Y005603D01*
X003367Y005761D02*
X007292Y005761D01*
X007133Y005920D02*
X003391Y005920D01*
X003405Y006078D02*
X006975Y006078D01*
X006816Y006237D02*
X003381Y006237D01*
X003357Y006395D02*
X006658Y006395D01*
X006499Y006554D02*
X003328Y006554D01*
X003252Y006712D02*
X006341Y006712D01*
X006182Y006871D02*
X003175Y006871D01*
X003081Y007029D02*
X006024Y007029D01*
X005865Y007188D02*
X002934Y007188D01*
X000907Y007505D02*
X000660Y007505D01*
X000660Y007346D02*
X000700Y007346D01*
X000890Y007498D02*
X000890Y007498D01*
X004791Y017807D02*
X007330Y017807D01*
X007576Y020026D02*
X007040Y020026D01*
X016530Y027593D02*
X023180Y027593D01*
X025880Y024893D01*
X025880Y023243D01*
X025230Y022593D01*
X017276Y026288D02*
X017276Y026288D01*
D16*
X021680Y011293D02*
X022580Y011293D01*
X022880Y010993D01*
X022880Y008293D01*
X022580Y007993D01*
X020680Y007993D01*
X020180Y008493D01*
X020180Y009093D01*
X019980Y009293D01*
X006180Y009293D01*
X006180Y010293D02*
X016730Y010293D01*
X021680Y010293D01*
D17*
X010430Y005543D02*
X008330Y005543D01*
X006180Y007693D01*
X006180Y009293D01*
D18*
X016630Y010393D02*
X016730Y010293D01*
X016630Y010393D02*
X016630Y013143D01*
X016630Y013993D01*
X016630Y017893D01*
M02*
