%
M48
M72
T01C0.0236
T02C0.0315
T03C0.0400
T04C0.0500
T05C0.0520
T06C0.1300
T07C0.1400
%
T01
X1880Y2433
X2480Y2433
X3080Y2433
X3080Y3033
X2480Y3033
X1880Y3033
X1880Y9833
X7580Y14433
X8580Y16033
X7780Y16633
X8880Y17733
X10780Y15383
X12380Y16883
X12580Y18383
X13880Y18883
X13080Y14883
X12730Y12133
X10730Y12133
X13230Y10083
X15230Y10083
X15230Y12133
X17280Y12333
X17280Y13833
X17280Y14933
X17280Y10733
X17580Y9533
X17280Y8333
X19880Y4633
X19330Y4283
X18780Y3833
X25380Y2933
X25380Y2333
X25980Y2333
X25980Y2933
X26580Y2933
X26580Y2333
X25120Y11753
X17480Y24033
X15780Y24033
X14080Y24033
X12280Y24033
X10480Y24033
X8680Y24033
X6880Y23933
X2680Y24533
X2080Y24533
X1480Y24533
X1480Y25133
X2080Y25133
X2680Y25133
X8780Y8133
T02
X3680Y16833
X4380Y17233
X3680Y17633
X4380Y18033
X3680Y18433
X4380Y18833
X3680Y19233
X4380Y19633
X21580Y19633
X22280Y19233
X21580Y18833
X22280Y18433
X21580Y18033
X22280Y17633
X21580Y17233
X22280Y20033
T03
X15730Y5283
X14730Y5283
X14730Y4283
X15730Y4283
X13730Y4283
X12730Y4283
X11730Y4283
X10730Y4283
X9730Y4283
X8730Y4283
X8730Y5283
X9730Y5283
X10730Y5283
X11730Y5283
X12730Y5283
X13730Y5283
T04
X6180Y6333
X6180Y7333
X6180Y8333
X21680Y8333
X21680Y7333
X21680Y6333
T05
X6680Y18533
X5880Y19333
X4380Y22833
X4380Y15433
T06
X2680Y15733
X2680Y20733
X23280Y21133
X23280Y16133
T07
X25080Y8833
X25080Y5833
X2780Y5833
X2780Y8833
M30
