G75*
%MOIN*%
%OFA0B0*%
%FSLAX24Y24*%
%IPPOS*%
%LPD*%
%AMOC8*
5,1,8,0,0,1.08239X$1,22.5*
%
%ADD10C,0.0060*%
%ADD11C,0.0030*%
%ADD12C,0.0040*%
%ADD13C,0.0100*%
%ADD14C,0.0010*%
%ADD15C,0.0050*%
%ADD16C,0.0080*%
%ADD17C,0.0260*%
%ADD18C,0.0008*%
D10*
X000580Y006043D02*
X000582Y006110D01*
X000588Y006178D01*
X000598Y006245D01*
X000612Y006311D01*
X000629Y006376D01*
X000651Y006440D01*
X000676Y006503D01*
X000705Y006564D01*
X000737Y006623D01*
X000773Y006680D01*
X000812Y006735D01*
X000854Y006788D01*
X000899Y006838D01*
X000947Y006885D01*
X000998Y006930D01*
X001051Y006971D01*
X001107Y007010D01*
X001165Y007045D01*
X001225Y007076D01*
X001286Y007104D01*
X001349Y007128D01*
X001413Y007149D01*
X001479Y007165D01*
X001545Y007178D01*
X001612Y007187D01*
X001679Y007192D01*
X001747Y007193D01*
X001814Y007190D01*
X001881Y007183D01*
X001948Y007172D01*
X002014Y007157D01*
X002079Y007139D01*
X002143Y007116D01*
X002205Y007090D01*
X002266Y007061D01*
X002324Y007027D01*
X002381Y006991D01*
X002436Y006951D01*
X002488Y006908D01*
X002537Y006862D01*
X002584Y006813D01*
X002628Y006762D01*
X002668Y006708D01*
X002706Y006652D01*
X002740Y006593D01*
X002770Y006533D01*
X002797Y006471D01*
X002821Y006408D01*
X002840Y006343D01*
X002856Y006278D01*
X002868Y006211D01*
X002876Y006144D01*
X002880Y006077D01*
X002880Y006009D01*
X002876Y005942D01*
X002868Y005875D01*
X002856Y005808D01*
X002840Y005743D01*
X002821Y005678D01*
X002797Y005615D01*
X002770Y005553D01*
X002740Y005493D01*
X002706Y005434D01*
X002668Y005378D01*
X002628Y005324D01*
X002584Y005273D01*
X002537Y005224D01*
X002488Y005178D01*
X002436Y005135D01*
X002381Y005095D01*
X002324Y005059D01*
X002266Y005025D01*
X002205Y004996D01*
X002143Y004970D01*
X002079Y004947D01*
X002014Y004929D01*
X001948Y004914D01*
X001881Y004903D01*
X001814Y004896D01*
X001747Y004893D01*
X001679Y004894D01*
X001612Y004899D01*
X001545Y004908D01*
X001479Y004921D01*
X001413Y004937D01*
X001349Y004958D01*
X001286Y004982D01*
X001225Y005010D01*
X001165Y005041D01*
X001107Y005076D01*
X001051Y005115D01*
X000998Y005156D01*
X000947Y005201D01*
X000899Y005248D01*
X000854Y005298D01*
X000812Y005351D01*
X000773Y005406D01*
X000737Y005463D01*
X000705Y005522D01*
X000676Y005583D01*
X000651Y005646D01*
X000629Y005710D01*
X000612Y005775D01*
X000598Y005841D01*
X000588Y005908D01*
X000582Y005976D01*
X000580Y006043D01*
X003810Y006873D02*
X003810Y007514D01*
X004130Y007514D01*
X004237Y007407D01*
X004237Y007194D01*
X004130Y007087D01*
X003810Y007087D01*
X004455Y006873D02*
X004668Y007087D01*
X004882Y006873D01*
X004882Y007514D01*
X005099Y007514D02*
X005419Y007514D01*
X005526Y007407D01*
X005526Y007194D01*
X005419Y007087D01*
X005099Y007087D01*
X005313Y007087D02*
X005526Y006873D01*
X005099Y006873D02*
X005099Y007514D01*
X004455Y007514D02*
X004455Y006873D01*
X006388Y006873D02*
X006602Y006873D01*
X006495Y006873D02*
X006495Y007514D01*
X006388Y007514D02*
X006602Y007514D01*
X006818Y007514D02*
X007245Y006873D01*
X007245Y007514D01*
X006818Y007514D02*
X006818Y006873D01*
X006116Y013675D02*
X006116Y013911D01*
X005644Y013911D02*
X005644Y013675D01*
X005116Y013675D02*
X005116Y013911D01*
X004644Y013911D02*
X004644Y013675D01*
X004116Y013675D02*
X004116Y013911D01*
X003644Y013911D02*
X003644Y013675D01*
X005562Y014957D02*
X005798Y014957D01*
X005798Y015430D02*
X005562Y015430D01*
X009744Y019475D02*
X009744Y019711D01*
X010216Y019711D02*
X010216Y019475D01*
X010216Y020975D02*
X010216Y021211D01*
X009744Y021211D02*
X009744Y020975D01*
X009806Y022023D02*
X010126Y022023D01*
X009806Y022023D02*
X009699Y022130D01*
X009699Y022344D01*
X009806Y022450D01*
X010126Y022450D01*
X009913Y022923D02*
X009699Y022923D01*
X009806Y022923D02*
X009806Y023564D01*
X009699Y023564D02*
X009913Y023564D01*
X009482Y023457D02*
X009482Y023244D01*
X009375Y023137D01*
X009055Y023137D01*
X009055Y022923D02*
X009055Y023564D01*
X009375Y023564D01*
X009482Y023457D01*
X008837Y023457D02*
X008730Y023564D01*
X008517Y023564D01*
X008410Y023457D01*
X008410Y023350D01*
X008517Y023244D01*
X008730Y023244D01*
X008837Y023137D01*
X008837Y023030D01*
X008730Y022923D01*
X008517Y022923D01*
X008410Y023030D01*
X008410Y022664D02*
X008730Y022664D01*
X008837Y022557D01*
X008837Y022130D01*
X008730Y022023D01*
X008410Y022023D01*
X008410Y022664D01*
X009055Y022344D02*
X009055Y022130D01*
X009161Y022023D01*
X009375Y022023D01*
X009482Y022237D02*
X009055Y022237D01*
X009055Y022344D02*
X009161Y022450D01*
X009375Y022450D01*
X009482Y022344D01*
X009482Y022237D01*
X010773Y022923D02*
X010773Y023564D01*
X011094Y023564D01*
X011200Y023457D01*
X011200Y023030D01*
X011094Y022923D01*
X010773Y022923D01*
X011095Y022664D02*
X010988Y022557D01*
X011095Y022664D02*
X011308Y022664D01*
X011415Y022557D01*
X011415Y022450D01*
X010988Y022023D01*
X011415Y022023D01*
X011633Y022130D02*
X012060Y022557D01*
X012060Y022130D01*
X011953Y022023D01*
X011740Y022023D01*
X011633Y022130D01*
X011633Y022557D01*
X011740Y022664D01*
X011953Y022664D01*
X012060Y022557D01*
X012277Y022450D02*
X012491Y022664D01*
X012491Y022023D01*
X012704Y022023D02*
X012277Y022023D01*
X012922Y022130D02*
X013029Y022023D01*
X013242Y022023D01*
X013349Y022130D01*
X013349Y022237D01*
X013242Y022344D01*
X013135Y022344D01*
X013242Y022344D02*
X013349Y022450D01*
X013349Y022557D01*
X013242Y022664D01*
X013029Y022664D01*
X012922Y022557D01*
X013136Y022923D02*
X013029Y023030D01*
X013029Y023244D01*
X013136Y023350D01*
X013350Y023350D01*
X013456Y023244D01*
X013456Y023137D01*
X013029Y023137D01*
X013136Y022923D02*
X013350Y022923D01*
X013674Y022923D02*
X013674Y023350D01*
X013674Y023137D02*
X013887Y023350D01*
X013994Y023350D01*
X014855Y023244D02*
X015176Y023244D01*
X015283Y023137D01*
X015283Y023030D01*
X015176Y022923D01*
X014855Y022923D01*
X014855Y023564D01*
X015176Y023564D01*
X015283Y023457D01*
X015283Y023350D01*
X015176Y023244D01*
X015500Y023244D02*
X015500Y023030D01*
X015607Y022923D01*
X015820Y022923D01*
X015927Y023030D01*
X015927Y023244D01*
X015820Y023350D01*
X015607Y023350D01*
X015500Y023244D01*
X016145Y023030D02*
X016251Y023137D01*
X016572Y023137D01*
X016572Y023244D02*
X016572Y022923D01*
X016251Y022923D01*
X016145Y023030D01*
X016251Y023350D02*
X016465Y023350D01*
X016572Y023244D01*
X016789Y023350D02*
X016789Y022923D01*
X016789Y023137D02*
X017003Y023350D01*
X017109Y023350D01*
X017326Y023244D02*
X017326Y023030D01*
X017433Y022923D01*
X017753Y022923D01*
X017753Y023564D01*
X017753Y023350D02*
X017433Y023350D01*
X017326Y023244D01*
X017700Y022764D02*
X017700Y022123D01*
X017913Y022123D02*
X017486Y022123D01*
X017055Y022123D02*
X017269Y022550D01*
X017486Y022550D02*
X017700Y022764D01*
X016842Y022550D02*
X017055Y022123D01*
X016624Y022337D02*
X016197Y022337D01*
X016197Y022230D02*
X016197Y022444D01*
X016304Y022550D01*
X016517Y022550D01*
X016624Y022444D01*
X016624Y022337D01*
X016517Y022123D02*
X016304Y022123D01*
X016197Y022230D01*
X015980Y022550D02*
X015874Y022550D01*
X015660Y022337D01*
X015660Y022550D02*
X015660Y022123D01*
X015616Y020711D02*
X015616Y020475D01*
X015144Y020475D02*
X015144Y020711D01*
X015144Y019061D02*
X015144Y018825D01*
X015616Y018825D02*
X015616Y019061D01*
X012598Y022923D02*
X012812Y023350D01*
X012385Y023350D02*
X012598Y022923D01*
X012169Y022923D02*
X011955Y022923D01*
X012062Y022923D02*
X012062Y023350D01*
X011955Y023350D01*
X011738Y023350D02*
X011631Y023350D01*
X011418Y023137D01*
X011418Y023350D02*
X011418Y022923D01*
X012062Y023564D02*
X012062Y023671D01*
X018110Y027430D02*
X018217Y027323D01*
X018430Y027323D01*
X018537Y027430D01*
X018755Y027323D02*
X018755Y027964D01*
X018537Y027857D02*
X018430Y027964D01*
X018217Y027964D01*
X018110Y027857D01*
X018110Y027430D01*
X018755Y027644D02*
X019182Y027644D01*
X019399Y027750D02*
X019613Y027964D01*
X019613Y027323D01*
X019826Y027323D02*
X019399Y027323D01*
X019182Y027323D02*
X019182Y027964D01*
X025509Y023406D02*
X025509Y022979D01*
X025509Y023192D02*
X026150Y023192D01*
X026043Y022761D02*
X025509Y022761D01*
X026043Y022761D02*
X026150Y022654D01*
X026150Y022441D01*
X026043Y022334D01*
X025509Y022334D01*
X025616Y022117D02*
X025509Y022010D01*
X025509Y021796D01*
X025616Y021690D01*
X026043Y021690D01*
X026150Y021796D01*
X026150Y022010D01*
X026043Y022117D01*
X025616Y022117D01*
X025509Y020829D02*
X025509Y020615D01*
X025509Y020722D02*
X026150Y020722D01*
X026150Y020615D02*
X026150Y020829D01*
X025830Y020398D02*
X025936Y020291D01*
X025936Y019971D01*
X026150Y019971D02*
X025509Y019971D01*
X025509Y020291D01*
X025616Y020398D01*
X025830Y020398D01*
X025936Y019753D02*
X026043Y019753D01*
X026150Y019647D01*
X026150Y019433D01*
X026043Y019326D01*
X025830Y019433D02*
X025830Y019647D01*
X025936Y019753D01*
X025616Y019753D02*
X025509Y019647D01*
X025509Y019433D01*
X025616Y019326D01*
X025723Y019326D01*
X025830Y019433D01*
X025480Y027543D02*
X025482Y027610D01*
X025488Y027678D01*
X025498Y027745D01*
X025512Y027811D01*
X025529Y027876D01*
X025551Y027940D01*
X025576Y028003D01*
X025605Y028064D01*
X025637Y028123D01*
X025673Y028180D01*
X025712Y028235D01*
X025754Y028288D01*
X025799Y028338D01*
X025847Y028385D01*
X025898Y028430D01*
X025951Y028471D01*
X026007Y028510D01*
X026065Y028545D01*
X026125Y028576D01*
X026186Y028604D01*
X026249Y028628D01*
X026313Y028649D01*
X026379Y028665D01*
X026445Y028678D01*
X026512Y028687D01*
X026579Y028692D01*
X026647Y028693D01*
X026714Y028690D01*
X026781Y028683D01*
X026848Y028672D01*
X026914Y028657D01*
X026979Y028639D01*
X027043Y028616D01*
X027105Y028590D01*
X027166Y028561D01*
X027224Y028527D01*
X027281Y028491D01*
X027336Y028451D01*
X027388Y028408D01*
X027437Y028362D01*
X027484Y028313D01*
X027528Y028262D01*
X027568Y028208D01*
X027606Y028152D01*
X027640Y028093D01*
X027670Y028033D01*
X027697Y027971D01*
X027721Y027908D01*
X027740Y027843D01*
X027756Y027778D01*
X027768Y027711D01*
X027776Y027644D01*
X027780Y027577D01*
X027780Y027509D01*
X027776Y027442D01*
X027768Y027375D01*
X027756Y027308D01*
X027740Y027243D01*
X027721Y027178D01*
X027697Y027115D01*
X027670Y027053D01*
X027640Y026993D01*
X027606Y026934D01*
X027568Y026878D01*
X027528Y026824D01*
X027484Y026773D01*
X027437Y026724D01*
X027388Y026678D01*
X027336Y026635D01*
X027281Y026595D01*
X027224Y026559D01*
X027166Y026525D01*
X027105Y026496D01*
X027043Y026470D01*
X026979Y026447D01*
X026914Y026429D01*
X026848Y026414D01*
X026781Y026403D01*
X026714Y026396D01*
X026647Y026393D01*
X026579Y026394D01*
X026512Y026399D01*
X026445Y026408D01*
X026379Y026421D01*
X026313Y026437D01*
X026249Y026458D01*
X026186Y026482D01*
X026125Y026510D01*
X026065Y026541D01*
X026007Y026576D01*
X025951Y026615D01*
X025898Y026656D01*
X025847Y026701D01*
X025799Y026748D01*
X025754Y026798D01*
X025712Y026851D01*
X025673Y026906D01*
X025637Y026963D01*
X025605Y027022D01*
X025576Y027083D01*
X025551Y027146D01*
X025529Y027210D01*
X025512Y027275D01*
X025498Y027341D01*
X025488Y027408D01*
X025482Y027476D01*
X025480Y027543D01*
X010648Y017430D02*
X010412Y017430D01*
X010412Y016957D02*
X010648Y016957D01*
X015062Y011280D02*
X015298Y011280D01*
X015298Y010807D02*
X015062Y010807D01*
X020260Y007564D02*
X020260Y006923D01*
X020260Y007137D02*
X020580Y007137D01*
X020687Y007244D01*
X020687Y007457D01*
X020580Y007564D01*
X020260Y007564D01*
X020905Y007564D02*
X020905Y006923D01*
X021118Y007137D01*
X021332Y006923D01*
X021332Y007564D01*
X021549Y007564D02*
X021869Y007564D01*
X021976Y007457D01*
X021976Y007244D01*
X021869Y007137D01*
X021549Y007137D01*
X021763Y007137D02*
X021976Y006923D01*
X021549Y006923D02*
X021549Y007564D01*
X022838Y007457D02*
X022838Y007030D01*
X022945Y006923D01*
X023158Y006923D01*
X023265Y007030D01*
X023265Y007457D01*
X023158Y007564D01*
X022945Y007564D01*
X022838Y007457D01*
X023483Y007564D02*
X023483Y007030D01*
X023590Y006923D01*
X023803Y006923D01*
X023910Y007030D01*
X023910Y007564D01*
X024127Y007564D02*
X024554Y007564D01*
X024341Y007564D02*
X024341Y006923D01*
X025480Y006043D02*
X025482Y006110D01*
X025488Y006178D01*
X025498Y006245D01*
X025512Y006311D01*
X025529Y006376D01*
X025551Y006440D01*
X025576Y006503D01*
X025605Y006564D01*
X025637Y006623D01*
X025673Y006680D01*
X025712Y006735D01*
X025754Y006788D01*
X025799Y006838D01*
X025847Y006885D01*
X025898Y006930D01*
X025951Y006971D01*
X026007Y007010D01*
X026065Y007045D01*
X026125Y007076D01*
X026186Y007104D01*
X026249Y007128D01*
X026313Y007149D01*
X026379Y007165D01*
X026445Y007178D01*
X026512Y007187D01*
X026579Y007192D01*
X026647Y007193D01*
X026714Y007190D01*
X026781Y007183D01*
X026848Y007172D01*
X026914Y007157D01*
X026979Y007139D01*
X027043Y007116D01*
X027105Y007090D01*
X027166Y007061D01*
X027224Y007027D01*
X027281Y006991D01*
X027336Y006951D01*
X027388Y006908D01*
X027437Y006862D01*
X027484Y006813D01*
X027528Y006762D01*
X027568Y006708D01*
X027606Y006652D01*
X027640Y006593D01*
X027670Y006533D01*
X027697Y006471D01*
X027721Y006408D01*
X027740Y006343D01*
X027756Y006278D01*
X027768Y006211D01*
X027776Y006144D01*
X027780Y006077D01*
X027780Y006009D01*
X027776Y005942D01*
X027768Y005875D01*
X027756Y005808D01*
X027740Y005743D01*
X027721Y005678D01*
X027697Y005615D01*
X027670Y005553D01*
X027640Y005493D01*
X027606Y005434D01*
X027568Y005378D01*
X027528Y005324D01*
X027484Y005273D01*
X027437Y005224D01*
X027388Y005178D01*
X027336Y005135D01*
X027281Y005095D01*
X027224Y005059D01*
X027166Y005025D01*
X027105Y004996D01*
X027043Y004970D01*
X026979Y004947D01*
X026914Y004929D01*
X026848Y004914D01*
X026781Y004903D01*
X026714Y004896D01*
X026647Y004893D01*
X026579Y004894D01*
X026512Y004899D01*
X026445Y004908D01*
X026379Y004921D01*
X026313Y004937D01*
X026249Y004958D01*
X026186Y004982D01*
X026125Y005010D01*
X026065Y005041D01*
X026007Y005076D01*
X025951Y005115D01*
X025898Y005156D01*
X025847Y005201D01*
X025799Y005248D01*
X025754Y005298D01*
X025712Y005351D01*
X025673Y005406D01*
X025637Y005463D01*
X025605Y005522D01*
X025576Y005583D01*
X025551Y005646D01*
X025529Y005710D01*
X025512Y005775D01*
X025498Y005841D01*
X025488Y005908D01*
X025482Y005976D01*
X025480Y006043D01*
X005799Y027323D02*
X005799Y027430D01*
X006226Y027857D01*
X006226Y027964D01*
X005799Y027964D01*
X005582Y027964D02*
X005582Y027323D01*
X005582Y027644D02*
X005155Y027644D01*
X004937Y027857D02*
X004830Y027964D01*
X004617Y027964D01*
X004510Y027857D01*
X004510Y027430D01*
X004617Y027323D01*
X004830Y027323D01*
X004937Y027430D01*
X005155Y027323D02*
X005155Y027964D01*
X000580Y027443D02*
X000582Y027510D01*
X000588Y027578D01*
X000598Y027645D01*
X000612Y027711D01*
X000629Y027776D01*
X000651Y027840D01*
X000676Y027903D01*
X000705Y027964D01*
X000737Y028023D01*
X000773Y028080D01*
X000812Y028135D01*
X000854Y028188D01*
X000899Y028238D01*
X000947Y028285D01*
X000998Y028330D01*
X001051Y028371D01*
X001107Y028410D01*
X001165Y028445D01*
X001225Y028476D01*
X001286Y028504D01*
X001349Y028528D01*
X001413Y028549D01*
X001479Y028565D01*
X001545Y028578D01*
X001612Y028587D01*
X001679Y028592D01*
X001747Y028593D01*
X001814Y028590D01*
X001881Y028583D01*
X001948Y028572D01*
X002014Y028557D01*
X002079Y028539D01*
X002143Y028516D01*
X002205Y028490D01*
X002266Y028461D01*
X002324Y028427D01*
X002381Y028391D01*
X002436Y028351D01*
X002488Y028308D01*
X002537Y028262D01*
X002584Y028213D01*
X002628Y028162D01*
X002668Y028108D01*
X002706Y028052D01*
X002740Y027993D01*
X002770Y027933D01*
X002797Y027871D01*
X002821Y027808D01*
X002840Y027743D01*
X002856Y027678D01*
X002868Y027611D01*
X002876Y027544D01*
X002880Y027477D01*
X002880Y027409D01*
X002876Y027342D01*
X002868Y027275D01*
X002856Y027208D01*
X002840Y027143D01*
X002821Y027078D01*
X002797Y027015D01*
X002770Y026953D01*
X002740Y026893D01*
X002706Y026834D01*
X002668Y026778D01*
X002628Y026724D01*
X002584Y026673D01*
X002537Y026624D01*
X002488Y026578D01*
X002436Y026535D01*
X002381Y026495D01*
X002324Y026459D01*
X002266Y026425D01*
X002205Y026396D01*
X002143Y026370D01*
X002079Y026347D01*
X002014Y026329D01*
X001948Y026314D01*
X001881Y026303D01*
X001814Y026296D01*
X001747Y026293D01*
X001679Y026294D01*
X001612Y026299D01*
X001545Y026308D01*
X001479Y026321D01*
X001413Y026337D01*
X001349Y026358D01*
X001286Y026382D01*
X001225Y026410D01*
X001165Y026441D01*
X001107Y026476D01*
X001051Y026515D01*
X000998Y026556D01*
X000947Y026601D01*
X000899Y026648D01*
X000854Y026698D01*
X000812Y026751D01*
X000773Y026806D01*
X000737Y026863D01*
X000705Y026922D01*
X000676Y026983D01*
X000651Y027046D01*
X000629Y027110D01*
X000612Y027175D01*
X000598Y027241D01*
X000588Y027308D01*
X000582Y027376D01*
X000580Y027443D01*
X000809Y022706D02*
X001450Y022706D01*
X000809Y022279D01*
X001450Y022279D01*
X001450Y022063D02*
X001450Y021849D01*
X001450Y021956D02*
X000809Y021956D01*
X000809Y021849D02*
X000809Y022063D01*
X000809Y020988D02*
X000809Y020775D01*
X000809Y020882D02*
X001450Y020882D01*
X001450Y020988D02*
X001450Y020775D01*
X001130Y020557D02*
X001236Y020451D01*
X001236Y020130D01*
X001450Y020130D02*
X000809Y020130D01*
X000809Y020451D01*
X000916Y020557D01*
X001130Y020557D01*
X001236Y019913D02*
X001343Y019913D01*
X001450Y019806D01*
X001450Y019592D01*
X001343Y019486D01*
X001130Y019592D02*
X001130Y019806D01*
X001236Y019913D01*
X000916Y019913D02*
X000809Y019806D01*
X000809Y019592D01*
X000916Y019486D01*
X001023Y019486D01*
X001130Y019592D01*
D11*
X003495Y019163D02*
X003618Y019040D01*
X003495Y019163D02*
X003865Y019163D01*
X003865Y019040D02*
X003865Y019287D01*
X004256Y022840D02*
X004318Y022840D01*
X004380Y022902D01*
X004380Y023025D01*
X004442Y023087D01*
X004503Y023087D01*
X004565Y023025D01*
X004565Y022902D01*
X004503Y022840D01*
X004442Y022840D01*
X004380Y022902D01*
X004380Y023025D02*
X004318Y023087D01*
X004256Y023087D01*
X004195Y023025D01*
X004195Y022902D01*
X004256Y022840D01*
X021395Y019793D02*
X021395Y019670D01*
X021456Y019608D01*
X021518Y019608D01*
X021580Y019670D01*
X021580Y019793D01*
X021642Y019855D01*
X021703Y019855D01*
X021765Y019793D01*
X021765Y019670D01*
X021703Y019608D01*
X021642Y019608D01*
X021580Y019670D01*
X021580Y019793D02*
X021518Y019855D01*
X021456Y019855D01*
X021395Y019793D01*
X022218Y023408D02*
X022095Y023532D01*
X022465Y023532D01*
X022465Y023655D02*
X022465Y023408D01*
X018560Y006829D02*
X018437Y006767D01*
X018313Y006643D01*
X018498Y006643D01*
X018560Y006582D01*
X018560Y006520D01*
X018498Y006458D01*
X018375Y006458D01*
X018313Y006520D01*
X018313Y006643D01*
X018192Y006458D02*
X017945Y006458D01*
X018068Y006458D02*
X018068Y006829D01*
X017945Y006705D01*
X018068Y005729D02*
X018068Y005358D01*
X017945Y005358D02*
X018192Y005358D01*
X018313Y005420D02*
X018375Y005358D01*
X018498Y005358D01*
X018560Y005420D01*
X018560Y005543D01*
X018498Y005605D01*
X018437Y005605D01*
X018313Y005543D01*
X018313Y005729D01*
X018560Y005729D01*
X018068Y005729D02*
X017945Y005605D01*
X009792Y005358D02*
X009545Y005358D01*
X009668Y005358D02*
X009668Y005729D01*
X009545Y005605D01*
X009545Y006358D02*
X009792Y006605D01*
X009792Y006667D01*
X009730Y006729D01*
X009607Y006729D01*
X009545Y006667D01*
X009545Y006358D02*
X009792Y006358D01*
D12*
X016200Y013893D02*
X016583Y013893D01*
X016660Y013969D01*
X016660Y014123D01*
X016583Y014199D01*
X016200Y014199D01*
X016353Y014353D02*
X016200Y014506D01*
X016660Y014506D01*
X016660Y014353D02*
X016660Y014660D01*
X013097Y017413D02*
X012790Y017413D01*
X013097Y017720D01*
X013097Y017797D01*
X013020Y017874D01*
X012866Y017874D01*
X012790Y017797D01*
X012636Y017874D02*
X012636Y017490D01*
X012559Y017413D01*
X012406Y017413D01*
X012329Y017490D01*
X012329Y017874D01*
X003167Y024990D02*
X003091Y024913D01*
X002937Y024913D01*
X002860Y024990D01*
X003014Y025144D02*
X003091Y025144D01*
X003167Y025067D01*
X003167Y024990D01*
X003091Y025144D02*
X003167Y025220D01*
X003167Y025297D01*
X003091Y025374D01*
X002937Y025374D01*
X002860Y025297D01*
X002707Y025374D02*
X002553Y025374D01*
X002630Y025374D02*
X002630Y024990D01*
X002553Y024913D01*
X002477Y024913D01*
X002400Y024990D01*
X000730Y010181D02*
X000730Y009874D01*
X000500Y010104D01*
X000960Y010104D01*
X000500Y009720D02*
X000500Y009567D01*
X000500Y009644D02*
X000883Y009644D01*
X000960Y009567D01*
X000960Y009490D01*
X000883Y009413D01*
X022679Y017490D02*
X022756Y017413D01*
X022833Y017413D01*
X022909Y017490D01*
X022909Y017874D01*
X022833Y017874D02*
X022986Y017874D01*
X023140Y017797D02*
X023216Y017874D01*
X023370Y017874D01*
X023447Y017797D01*
X023447Y017720D01*
X023140Y017413D01*
X023447Y017413D01*
X026900Y011060D02*
X026900Y010753D01*
X027130Y010753D01*
X027053Y010906D01*
X027053Y010983D01*
X027130Y011060D01*
X027283Y011060D01*
X027360Y010983D01*
X027360Y010830D01*
X027283Y010753D01*
X027283Y010523D02*
X026900Y010523D01*
X026900Y010599D02*
X026900Y010446D01*
X027283Y010523D02*
X027360Y010446D01*
X027360Y010369D01*
X027283Y010293D01*
D13*
X026680Y012693D02*
X026680Y007893D01*
X021680Y007893D01*
X021680Y008793D01*
X021680Y011793D02*
X021680Y012693D01*
X026680Y012693D01*
X006180Y012693D02*
X006180Y011793D01*
X006180Y012693D02*
X001180Y012693D01*
X001180Y007893D01*
X006180Y007893D01*
X006180Y008793D01*
D14*
X010443Y007788D02*
X010518Y007788D01*
X010543Y007763D01*
X010543Y007713D01*
X010518Y007688D01*
X010443Y007688D01*
X010443Y007638D02*
X010443Y007788D01*
X010493Y007688D02*
X010543Y007638D01*
X010590Y007638D02*
X010690Y007638D01*
X010640Y007638D02*
X010640Y007788D01*
X010590Y007738D01*
X010738Y007763D02*
X010763Y007788D01*
X010813Y007788D01*
X010838Y007763D01*
X010838Y007738D01*
X010813Y007713D01*
X010838Y007688D01*
X010838Y007663D01*
X010813Y007638D01*
X010763Y007638D01*
X010738Y007663D01*
X010788Y007713D02*
X010813Y007713D01*
X014885Y011398D02*
X014910Y011373D01*
X014960Y011373D01*
X014985Y011398D01*
X015032Y011373D02*
X015132Y011373D01*
X015082Y011373D02*
X015082Y011523D01*
X015032Y011473D01*
X014985Y011498D02*
X014960Y011523D01*
X014910Y011523D01*
X014885Y011498D01*
X014885Y011398D01*
X010457Y017523D02*
X010407Y017523D01*
X010382Y017548D01*
X010335Y017548D02*
X010310Y017523D01*
X010260Y017523D01*
X010235Y017548D01*
X010235Y017648D01*
X010260Y017673D01*
X010310Y017673D01*
X010335Y017648D01*
X010382Y017673D02*
X010382Y017598D01*
X010432Y017623D01*
X010457Y017623D01*
X010482Y017598D01*
X010482Y017548D01*
X010457Y017523D01*
X010482Y017673D02*
X010382Y017673D01*
X009650Y019298D02*
X009500Y019298D01*
X009500Y019373D01*
X009525Y019398D01*
X009575Y019398D01*
X009600Y019373D01*
X009600Y019298D01*
X009600Y019348D02*
X009650Y019398D01*
X009575Y019446D02*
X009575Y019546D01*
X009650Y019521D02*
X009500Y019521D01*
X009575Y019446D01*
X009600Y020798D02*
X009600Y020873D01*
X009575Y020898D01*
X009525Y020898D01*
X009500Y020873D01*
X009500Y020798D01*
X009650Y020798D01*
X009600Y020848D02*
X009650Y020898D01*
X009625Y020946D02*
X009650Y020971D01*
X009650Y021021D01*
X009625Y021046D01*
X009600Y021046D01*
X009575Y021021D01*
X009575Y020996D01*
X009575Y021021D02*
X009550Y021046D01*
X009525Y021046D01*
X009500Y021021D01*
X009500Y020971D01*
X009525Y020946D01*
X009335Y024906D02*
X009185Y024906D01*
X009185Y024981D01*
X009210Y025006D01*
X009260Y025006D01*
X009285Y024981D01*
X009285Y024906D01*
X009285Y024956D02*
X009335Y025006D01*
X009335Y025054D02*
X009335Y025154D01*
X009335Y025201D02*
X009335Y025301D01*
X009335Y025251D02*
X009185Y025251D01*
X009235Y025201D01*
X009185Y025104D02*
X009335Y025104D01*
X009235Y025054D02*
X009185Y025104D01*
X009775Y026648D02*
X009925Y026648D01*
X009925Y026748D01*
X009925Y026796D02*
X009925Y026896D01*
X009925Y026943D02*
X009925Y027018D01*
X009900Y027043D01*
X009800Y027043D01*
X009775Y027018D01*
X009775Y026943D01*
X009925Y026943D01*
X009850Y026846D02*
X009850Y026796D01*
X009775Y026796D02*
X009925Y026796D01*
X009775Y026796D02*
X009775Y026896D01*
X009775Y027090D02*
X009850Y027090D01*
X009825Y027140D01*
X009825Y027165D01*
X009850Y027190D01*
X009900Y027190D01*
X009925Y027165D01*
X009925Y027115D01*
X009900Y027090D01*
X009775Y027090D02*
X009775Y027190D01*
X008125Y027165D02*
X008100Y027190D01*
X008075Y027190D01*
X008050Y027165D01*
X008050Y027090D01*
X008100Y027090D01*
X008125Y027115D01*
X008125Y027165D01*
X008050Y027090D02*
X008000Y027140D01*
X007975Y027190D01*
X008000Y027043D02*
X007975Y027018D01*
X007975Y026943D01*
X008125Y026943D01*
X008125Y027018D01*
X008100Y027043D01*
X008000Y027043D01*
X007975Y026896D02*
X007975Y026796D01*
X008125Y026796D01*
X008125Y026896D01*
X008050Y026846D02*
X008050Y026796D01*
X008125Y026748D02*
X008125Y026648D01*
X007975Y026648D01*
X007485Y025301D02*
X007485Y025201D01*
X007385Y025301D01*
X007360Y025301D01*
X007335Y025276D01*
X007335Y025226D01*
X007360Y025201D01*
X007335Y025104D02*
X007485Y025104D01*
X007485Y025054D02*
X007485Y025154D01*
X007385Y025054D02*
X007335Y025104D01*
X007360Y025006D02*
X007410Y025006D01*
X007435Y024981D01*
X007435Y024906D01*
X007485Y024906D02*
X007335Y024906D01*
X007335Y024981D01*
X007360Y025006D01*
X007435Y024956D02*
X007485Y025006D01*
X006325Y026648D02*
X006175Y026648D01*
X006175Y026796D02*
X006325Y026796D01*
X006325Y026896D01*
X006325Y026943D02*
X006325Y027018D01*
X006300Y027043D01*
X006200Y027043D01*
X006175Y027018D01*
X006175Y026943D01*
X006325Y026943D01*
X006250Y026846D02*
X006250Y026796D01*
X006175Y026796D02*
X006175Y026896D01*
X006175Y027090D02*
X006175Y027190D01*
X006200Y027190D01*
X006300Y027090D01*
X006325Y027090D01*
X006325Y026748D02*
X006325Y026648D01*
X010935Y025276D02*
X010960Y025301D01*
X011060Y025201D01*
X011085Y025226D01*
X011085Y025276D01*
X011060Y025301D01*
X010960Y025301D01*
X010935Y025276D02*
X010935Y025226D01*
X010960Y025201D01*
X011060Y025201D01*
X011085Y025154D02*
X011085Y025054D01*
X011085Y025006D02*
X011035Y024956D01*
X011035Y024981D02*
X011035Y024906D01*
X011085Y024906D02*
X010935Y024906D01*
X010935Y024981D01*
X010960Y025006D01*
X011010Y025006D01*
X011035Y024981D01*
X010985Y025054D02*
X010935Y025104D01*
X011085Y025104D01*
X011575Y026648D02*
X011725Y026648D01*
X011725Y026748D01*
X011725Y026796D02*
X011725Y026896D01*
X011725Y026943D02*
X011725Y027018D01*
X011700Y027043D01*
X011600Y027043D01*
X011575Y027018D01*
X011575Y026943D01*
X011725Y026943D01*
X011650Y026846D02*
X011650Y026796D01*
X011575Y026796D02*
X011725Y026796D01*
X011575Y026796D02*
X011575Y026896D01*
X011650Y027090D02*
X011575Y027165D01*
X011725Y027165D01*
X011650Y027190D02*
X011650Y027090D01*
X013375Y027115D02*
X013375Y027165D01*
X013400Y027190D01*
X013425Y027190D01*
X013450Y027165D01*
X013475Y027190D01*
X013500Y027190D01*
X013525Y027165D01*
X013525Y027115D01*
X013500Y027090D01*
X013500Y027043D02*
X013400Y027043D01*
X013375Y027018D01*
X013375Y026943D01*
X013525Y026943D01*
X013525Y027018D01*
X013500Y027043D01*
X013450Y027140D02*
X013450Y027165D01*
X013400Y027090D02*
X013375Y027115D01*
X013375Y026896D02*
X013375Y026796D01*
X013525Y026796D01*
X013525Y026896D01*
X013450Y026846D02*
X013450Y026796D01*
X013525Y026748D02*
X013525Y026648D01*
X013375Y026648D01*
X012860Y025301D02*
X012760Y025301D01*
X012735Y025276D01*
X012735Y025226D01*
X012760Y025201D01*
X012785Y025201D01*
X012810Y025226D01*
X012810Y025301D01*
X012860Y025301D02*
X012885Y025276D01*
X012885Y025226D01*
X012860Y025201D01*
X012885Y025154D02*
X012835Y025104D01*
X012835Y025129D02*
X012835Y025054D01*
X012885Y025054D02*
X012735Y025054D01*
X012735Y025129D01*
X012760Y025154D01*
X012810Y025154D01*
X012835Y025129D01*
X014535Y025129D02*
X014560Y025154D01*
X014610Y025154D01*
X014635Y025129D01*
X014635Y025054D01*
X014635Y025104D02*
X014685Y025154D01*
X014660Y025201D02*
X014635Y025201D01*
X014610Y025226D01*
X014610Y025276D01*
X014635Y025301D01*
X014660Y025301D01*
X014685Y025276D01*
X014685Y025226D01*
X014660Y025201D01*
X014610Y025226D02*
X014585Y025201D01*
X014560Y025201D01*
X014535Y025226D01*
X014535Y025276D01*
X014560Y025301D01*
X014585Y025301D01*
X014610Y025276D01*
X014535Y025129D02*
X014535Y025054D01*
X014685Y025054D01*
X016235Y025054D02*
X016235Y025129D01*
X016260Y025154D01*
X016310Y025154D01*
X016335Y025129D01*
X016335Y025054D01*
X016335Y025104D02*
X016385Y025154D01*
X016385Y025201D02*
X016360Y025201D01*
X016260Y025301D01*
X016235Y025301D01*
X016235Y025201D01*
X016235Y025054D02*
X016385Y025054D01*
X017935Y025054D02*
X017935Y025129D01*
X017960Y025154D01*
X018010Y025154D01*
X018035Y025129D01*
X018035Y025054D01*
X018035Y025104D02*
X018085Y025154D01*
X018060Y025201D02*
X018085Y025226D01*
X018085Y025276D01*
X018060Y025301D01*
X018035Y025301D01*
X018010Y025276D01*
X018010Y025201D01*
X018060Y025201D01*
X018010Y025201D02*
X017960Y025251D01*
X017935Y025301D01*
X017935Y025054D02*
X018085Y025054D01*
X016925Y026648D02*
X016775Y026648D01*
X016775Y026796D02*
X016925Y026796D01*
X016925Y026896D01*
X016925Y026943D02*
X016925Y027018D01*
X016900Y027043D01*
X016800Y027043D01*
X016775Y027018D01*
X016775Y026943D01*
X016925Y026943D01*
X016850Y026846D02*
X016850Y026796D01*
X016775Y026796D02*
X016775Y026896D01*
X016825Y027090D02*
X016775Y027140D01*
X016925Y027140D01*
X016925Y027090D02*
X016925Y027190D01*
X016925Y026748D02*
X016925Y026648D01*
X015225Y026648D02*
X015225Y026748D01*
X015225Y026796D02*
X015225Y026896D01*
X015225Y026943D02*
X015225Y027018D01*
X015200Y027043D01*
X015100Y027043D01*
X015075Y027018D01*
X015075Y026943D01*
X015225Y026943D01*
X015150Y026846D02*
X015150Y026796D01*
X015075Y026796D02*
X015225Y026796D01*
X015225Y026648D02*
X015075Y026648D01*
X015075Y026796D02*
X015075Y026896D01*
X015100Y027090D02*
X015075Y027115D01*
X015075Y027165D01*
X015100Y027190D01*
X015125Y027190D01*
X015225Y027090D01*
X015225Y027190D01*
X015050Y020546D02*
X015050Y020446D01*
X014950Y020546D01*
X014925Y020546D01*
X014900Y020521D01*
X014900Y020471D01*
X014925Y020446D01*
X014925Y020398D02*
X014975Y020398D01*
X015000Y020373D01*
X015000Y020298D01*
X015050Y020298D02*
X014900Y020298D01*
X014900Y020373D01*
X014925Y020398D01*
X015000Y020348D02*
X015050Y020398D01*
X015050Y018896D02*
X015050Y018796D01*
X015050Y018748D02*
X015000Y018698D01*
X015000Y018723D02*
X015000Y018648D01*
X015050Y018648D02*
X014900Y018648D01*
X014900Y018723D01*
X014925Y018748D01*
X014975Y018748D01*
X015000Y018723D01*
X014950Y018796D02*
X014900Y018846D01*
X015050Y018846D01*
X024140Y014963D02*
X024140Y014863D01*
X024165Y014838D01*
X024215Y014838D01*
X024240Y014863D01*
X024288Y014863D02*
X024288Y014838D01*
X024288Y014863D02*
X024388Y014963D01*
X024388Y014988D01*
X024288Y014988D01*
X024240Y014963D02*
X024215Y014988D01*
X024165Y014988D01*
X024140Y014963D01*
X005780Y015598D02*
X005680Y015598D01*
X005755Y015673D01*
X005755Y015523D01*
X005632Y015523D02*
X005532Y015523D01*
X005485Y015523D02*
X005435Y015573D01*
X005460Y015573D02*
X005385Y015573D01*
X005385Y015523D02*
X005385Y015673D01*
X005460Y015673D01*
X005485Y015648D01*
X005485Y015598D01*
X005460Y015573D01*
X005532Y015623D02*
X005582Y015673D01*
X005582Y015523D01*
X005550Y013746D02*
X005550Y013646D01*
X005450Y013746D01*
X005425Y013746D01*
X005400Y013721D01*
X005400Y013671D01*
X005425Y013646D01*
X005425Y013598D02*
X005400Y013573D01*
X005400Y013523D01*
X005425Y013498D01*
X005525Y013498D01*
X005550Y013523D01*
X005550Y013573D01*
X005525Y013598D01*
X004550Y013573D02*
X004525Y013598D01*
X004550Y013573D02*
X004550Y013523D01*
X004525Y013498D01*
X004425Y013498D01*
X004400Y013523D01*
X004400Y013573D01*
X004425Y013598D01*
X004425Y013646D02*
X004400Y013671D01*
X004400Y013721D01*
X004425Y013746D01*
X004450Y013746D01*
X004475Y013721D01*
X004500Y013746D01*
X004525Y013746D01*
X004550Y013721D01*
X004550Y013671D01*
X004525Y013646D01*
X004475Y013696D02*
X004475Y013721D01*
X003585Y013959D02*
X003585Y014059D01*
X003585Y014106D02*
X003585Y014206D01*
X003585Y014254D02*
X003585Y014329D01*
X003560Y014354D01*
X003460Y014354D01*
X003435Y014329D01*
X003435Y014254D01*
X003585Y014254D01*
X003510Y014156D02*
X003510Y014106D01*
X003435Y014106D02*
X003585Y014106D01*
X003585Y013959D02*
X003435Y013959D01*
X003435Y014106D02*
X003435Y014206D01*
X003460Y014401D02*
X003485Y014401D01*
X003510Y014426D01*
X003510Y014501D01*
X003560Y014501D02*
X003460Y014501D01*
X003435Y014476D01*
X003435Y014426D01*
X003460Y014401D01*
X003560Y014401D02*
X003585Y014426D01*
X003585Y014476D01*
X003560Y014501D01*
X003475Y013746D02*
X003475Y013646D01*
X003400Y013721D01*
X003550Y013721D01*
X003525Y013598D02*
X003550Y013573D01*
X003550Y013523D01*
X003525Y013498D01*
X003425Y013498D01*
X003400Y013523D01*
X003400Y013573D01*
X003425Y013598D01*
X002485Y013959D02*
X002485Y014059D01*
X002485Y014106D02*
X002485Y014206D01*
X002485Y014254D02*
X002485Y014329D01*
X002460Y014354D01*
X002360Y014354D01*
X002335Y014329D01*
X002335Y014254D01*
X002485Y014254D01*
X002410Y014156D02*
X002410Y014106D01*
X002335Y014106D02*
X002485Y014106D01*
X002485Y013959D02*
X002335Y013959D01*
X002335Y014106D02*
X002335Y014206D01*
X002360Y014401D02*
X002385Y014401D01*
X002410Y014426D01*
X002410Y014476D01*
X002435Y014501D01*
X002460Y014501D01*
X002485Y014476D01*
X002485Y014426D01*
X002460Y014401D01*
X002435Y014401D01*
X002410Y014426D01*
X002410Y014476D02*
X002385Y014501D01*
X002360Y014501D01*
X002335Y014476D01*
X002335Y014426D01*
X002360Y014401D01*
X002985Y016748D02*
X002985Y016898D01*
X003060Y016898D01*
X003085Y016873D01*
X003085Y016823D01*
X003060Y016798D01*
X002985Y016798D01*
X003035Y016798D02*
X003085Y016748D01*
X003132Y016773D02*
X003157Y016748D01*
X003207Y016748D01*
X003232Y016773D01*
X003232Y016823D01*
X003207Y016848D01*
X003182Y016848D01*
X003132Y016823D01*
X003132Y016898D01*
X003232Y016898D01*
D15*
X004080Y018918D02*
X004230Y018918D01*
X004305Y018993D01*
X004465Y018918D02*
X004766Y018918D01*
X004926Y018918D02*
X004926Y019369D01*
X005001Y019143D02*
X005226Y018918D01*
X004926Y019068D02*
X005226Y019369D01*
X004465Y019369D02*
X004465Y018918D01*
X004080Y018918D02*
X004005Y018993D01*
X004005Y019294D01*
X004080Y019369D01*
X004230Y019369D01*
X004305Y019294D01*
X006305Y022018D02*
X006305Y022469D01*
X006530Y022469D01*
X006605Y022394D01*
X006605Y022243D01*
X006530Y022168D01*
X006305Y022168D01*
X006455Y022168D02*
X006605Y022018D01*
X006765Y022093D02*
X006840Y022018D01*
X006991Y022018D01*
X007066Y022093D01*
X007066Y022168D01*
X006991Y022243D01*
X006840Y022243D01*
X006765Y022319D01*
X006765Y022394D01*
X006840Y022469D01*
X006991Y022469D01*
X007066Y022394D01*
X007226Y022469D02*
X007526Y022469D01*
X007376Y022469D02*
X007376Y022018D01*
X006266Y022818D02*
X005965Y022818D01*
X005965Y023269D01*
X006266Y023269D01*
X006116Y023043D02*
X005965Y023043D01*
X005805Y022893D02*
X005730Y022818D01*
X005580Y022818D01*
X005505Y022893D01*
X005505Y023194D01*
X005580Y023269D01*
X005730Y023269D01*
X005805Y023194D01*
X005686Y026318D02*
X005686Y026619D01*
X005536Y026769D01*
X005386Y026619D01*
X005386Y026318D01*
X005386Y026543D02*
X005686Y026543D01*
X005226Y026769D02*
X004926Y026769D01*
X005076Y026769D02*
X005076Y026318D01*
X004766Y026318D02*
X004766Y026619D01*
X004616Y026769D01*
X004465Y026619D01*
X004465Y026318D01*
X004305Y026393D02*
X004305Y026694D01*
X004230Y026769D01*
X004005Y026769D01*
X004005Y026318D01*
X004230Y026318D01*
X004305Y026393D01*
X004465Y026543D02*
X004766Y026543D01*
X008930Y007243D02*
X008930Y004743D01*
X013130Y004743D01*
X013130Y004643D01*
X014730Y004643D01*
X014730Y004743D01*
X018930Y004743D01*
X018930Y007243D01*
X008930Y007243D01*
D16*
X001139Y006043D02*
X001141Y006091D01*
X001147Y006139D01*
X001157Y006186D01*
X001170Y006232D01*
X001188Y006277D01*
X001208Y006321D01*
X001233Y006363D01*
X001261Y006402D01*
X001291Y006439D01*
X001325Y006473D01*
X001362Y006505D01*
X001400Y006534D01*
X001441Y006559D01*
X001484Y006581D01*
X001529Y006599D01*
X001575Y006613D01*
X001622Y006624D01*
X001670Y006631D01*
X001718Y006634D01*
X001766Y006633D01*
X001814Y006628D01*
X001862Y006619D01*
X001908Y006607D01*
X001953Y006590D01*
X001997Y006570D01*
X002039Y006547D01*
X002079Y006520D01*
X002117Y006490D01*
X002152Y006457D01*
X002184Y006421D01*
X002214Y006383D01*
X002240Y006342D01*
X002262Y006299D01*
X002282Y006255D01*
X002297Y006210D01*
X002309Y006163D01*
X002317Y006115D01*
X002321Y006067D01*
X002321Y006019D01*
X002317Y005971D01*
X002309Y005923D01*
X002297Y005876D01*
X002282Y005831D01*
X002262Y005787D01*
X002240Y005744D01*
X002214Y005703D01*
X002184Y005665D01*
X002152Y005629D01*
X002117Y005596D01*
X002079Y005566D01*
X002039Y005539D01*
X001997Y005516D01*
X001953Y005496D01*
X001908Y005479D01*
X001862Y005467D01*
X001814Y005458D01*
X001766Y005453D01*
X001718Y005452D01*
X001670Y005455D01*
X001622Y005462D01*
X001575Y005473D01*
X001529Y005487D01*
X001484Y005505D01*
X001441Y005527D01*
X001400Y005552D01*
X001362Y005581D01*
X001325Y005613D01*
X001291Y005647D01*
X001261Y005684D01*
X001233Y005723D01*
X001208Y005765D01*
X001188Y005809D01*
X001170Y005854D01*
X001157Y005900D01*
X001147Y005947D01*
X001141Y005995D01*
X001139Y006043D01*
X001386Y013248D02*
X001386Y013800D01*
X001504Y014075D02*
X001780Y014075D01*
X001544Y014311D01*
X002016Y014311D01*
X001780Y014075D01*
X002056Y014075D01*
X002174Y013800D02*
X002174Y013248D01*
X001386Y013248D01*
X002486Y013248D02*
X002486Y013800D01*
X002604Y014075D02*
X002880Y014075D01*
X002644Y014311D01*
X003116Y014311D01*
X002880Y014075D01*
X003156Y014075D01*
X003274Y013800D02*
X003274Y013248D01*
X002486Y013248D01*
X002486Y014587D02*
X002486Y015138D01*
X003274Y015138D01*
X003274Y014587D01*
X002174Y014587D02*
X002174Y015138D01*
X001386Y015138D01*
X001386Y014587D01*
X009996Y015403D02*
X009996Y012587D01*
X012023Y018109D02*
X013537Y018109D01*
X015964Y015403D02*
X015964Y012587D01*
X022316Y014785D02*
X022316Y015139D01*
X022316Y014785D02*
X023221Y013879D01*
X025544Y013879D01*
X025544Y015139D01*
X025544Y015848D02*
X025544Y017107D01*
X023221Y017107D01*
X022316Y016202D01*
X022316Y015848D01*
X013537Y021678D02*
X012023Y021678D01*
X011886Y026048D02*
X012674Y026048D01*
X012674Y026600D01*
X012516Y026875D02*
X012280Y027111D01*
X012044Y026875D01*
X012516Y026875D01*
X012556Y027111D02*
X012280Y027111D01*
X012004Y027111D01*
X011886Y027387D02*
X011886Y027938D01*
X012674Y027938D01*
X012674Y027387D01*
X013686Y027387D02*
X013686Y027938D01*
X014474Y027938D01*
X014474Y027387D01*
X014356Y027111D02*
X014080Y027111D01*
X014316Y026875D01*
X013844Y026875D01*
X014080Y027111D01*
X013804Y027111D01*
X013686Y026600D02*
X013686Y026048D01*
X014474Y026048D01*
X014474Y026600D01*
X015386Y026600D02*
X015386Y026048D01*
X016174Y026048D01*
X016174Y026600D01*
X016016Y026875D02*
X015780Y027111D01*
X015544Y026875D01*
X016016Y026875D01*
X016056Y027111D02*
X015780Y027111D01*
X015504Y027111D01*
X015386Y027387D02*
X015386Y027938D01*
X016174Y027938D01*
X016174Y027387D01*
X017086Y027387D02*
X017086Y027938D01*
X017874Y027938D01*
X017874Y027387D01*
X017756Y027111D02*
X017480Y027111D01*
X017716Y026875D01*
X017244Y026875D01*
X017480Y027111D01*
X017204Y027111D01*
X017086Y026600D02*
X017086Y026048D01*
X017874Y026048D01*
X017874Y026600D01*
X011886Y026600D02*
X011886Y026048D01*
X010874Y026048D02*
X010874Y026600D01*
X010716Y026875D02*
X010480Y027111D01*
X010244Y026875D01*
X010716Y026875D01*
X010756Y027111D02*
X010480Y027111D01*
X010204Y027111D01*
X010086Y027387D02*
X010086Y027938D01*
X010874Y027938D01*
X010874Y027387D01*
X010086Y026600D02*
X010086Y026048D01*
X010874Y026048D01*
X009074Y026048D02*
X009074Y026600D01*
X008916Y026875D02*
X008680Y027111D01*
X008444Y026875D01*
X008916Y026875D01*
X008956Y027111D02*
X008680Y027111D01*
X008404Y027111D01*
X008286Y027387D02*
X008286Y027938D01*
X009074Y027938D01*
X009074Y027387D01*
X008286Y026600D02*
X008286Y026048D01*
X009074Y026048D01*
X007274Y026048D02*
X007274Y026600D01*
X007116Y026875D02*
X006644Y026875D01*
X006880Y027111D01*
X007116Y026875D01*
X007156Y027111D02*
X006880Y027111D01*
X006604Y027111D01*
X006486Y027387D02*
X006486Y027938D01*
X007274Y027938D01*
X007274Y027387D01*
X006486Y026600D02*
X006486Y026048D01*
X007274Y026048D01*
X001139Y027443D02*
X001141Y027491D01*
X001147Y027539D01*
X001157Y027586D01*
X001170Y027632D01*
X001188Y027677D01*
X001208Y027721D01*
X001233Y027763D01*
X001261Y027802D01*
X001291Y027839D01*
X001325Y027873D01*
X001362Y027905D01*
X001400Y027934D01*
X001441Y027959D01*
X001484Y027981D01*
X001529Y027999D01*
X001575Y028013D01*
X001622Y028024D01*
X001670Y028031D01*
X001718Y028034D01*
X001766Y028033D01*
X001814Y028028D01*
X001862Y028019D01*
X001908Y028007D01*
X001953Y027990D01*
X001997Y027970D01*
X002039Y027947D01*
X002079Y027920D01*
X002117Y027890D01*
X002152Y027857D01*
X002184Y027821D01*
X002214Y027783D01*
X002240Y027742D01*
X002262Y027699D01*
X002282Y027655D01*
X002297Y027610D01*
X002309Y027563D01*
X002317Y027515D01*
X002321Y027467D01*
X002321Y027419D01*
X002317Y027371D01*
X002309Y027323D01*
X002297Y027276D01*
X002282Y027231D01*
X002262Y027187D01*
X002240Y027144D01*
X002214Y027103D01*
X002184Y027065D01*
X002152Y027029D01*
X002117Y026996D01*
X002079Y026966D01*
X002039Y026939D01*
X001997Y026916D01*
X001953Y026896D01*
X001908Y026879D01*
X001862Y026867D01*
X001814Y026858D01*
X001766Y026853D01*
X001718Y026852D01*
X001670Y026855D01*
X001622Y026862D01*
X001575Y026873D01*
X001529Y026887D01*
X001484Y026905D01*
X001441Y026927D01*
X001400Y026952D01*
X001362Y026981D01*
X001325Y027013D01*
X001291Y027047D01*
X001261Y027084D01*
X001233Y027123D01*
X001208Y027165D01*
X001188Y027209D01*
X001170Y027254D01*
X001157Y027300D01*
X001147Y027347D01*
X001141Y027395D01*
X001139Y027443D01*
X026039Y027543D02*
X026041Y027591D01*
X026047Y027639D01*
X026057Y027686D01*
X026070Y027732D01*
X026088Y027777D01*
X026108Y027821D01*
X026133Y027863D01*
X026161Y027902D01*
X026191Y027939D01*
X026225Y027973D01*
X026262Y028005D01*
X026300Y028034D01*
X026341Y028059D01*
X026384Y028081D01*
X026429Y028099D01*
X026475Y028113D01*
X026522Y028124D01*
X026570Y028131D01*
X026618Y028134D01*
X026666Y028133D01*
X026714Y028128D01*
X026762Y028119D01*
X026808Y028107D01*
X026853Y028090D01*
X026897Y028070D01*
X026939Y028047D01*
X026979Y028020D01*
X027017Y027990D01*
X027052Y027957D01*
X027084Y027921D01*
X027114Y027883D01*
X027140Y027842D01*
X027162Y027799D01*
X027182Y027755D01*
X027197Y027710D01*
X027209Y027663D01*
X027217Y027615D01*
X027221Y027567D01*
X027221Y027519D01*
X027217Y027471D01*
X027209Y027423D01*
X027197Y027376D01*
X027182Y027331D01*
X027162Y027287D01*
X027140Y027244D01*
X027114Y027203D01*
X027084Y027165D01*
X027052Y027129D01*
X027017Y027096D01*
X026979Y027066D01*
X026939Y027039D01*
X026897Y027016D01*
X026853Y026996D01*
X026808Y026979D01*
X026762Y026967D01*
X026714Y026958D01*
X026666Y026953D01*
X026618Y026952D01*
X026570Y026955D01*
X026522Y026962D01*
X026475Y026973D01*
X026429Y026987D01*
X026384Y027005D01*
X026341Y027027D01*
X026300Y027052D01*
X026262Y027081D01*
X026225Y027113D01*
X026191Y027147D01*
X026161Y027184D01*
X026133Y027223D01*
X026108Y027265D01*
X026088Y027309D01*
X026070Y027354D01*
X026057Y027400D01*
X026047Y027447D01*
X026041Y027495D01*
X026039Y027543D01*
X026039Y006043D02*
X026041Y006091D01*
X026047Y006139D01*
X026057Y006186D01*
X026070Y006232D01*
X026088Y006277D01*
X026108Y006321D01*
X026133Y006363D01*
X026161Y006402D01*
X026191Y006439D01*
X026225Y006473D01*
X026262Y006505D01*
X026300Y006534D01*
X026341Y006559D01*
X026384Y006581D01*
X026429Y006599D01*
X026475Y006613D01*
X026522Y006624D01*
X026570Y006631D01*
X026618Y006634D01*
X026666Y006633D01*
X026714Y006628D01*
X026762Y006619D01*
X026808Y006607D01*
X026853Y006590D01*
X026897Y006570D01*
X026939Y006547D01*
X026979Y006520D01*
X027017Y006490D01*
X027052Y006457D01*
X027084Y006421D01*
X027114Y006383D01*
X027140Y006342D01*
X027162Y006299D01*
X027182Y006255D01*
X027197Y006210D01*
X027209Y006163D01*
X027217Y006115D01*
X027221Y006067D01*
X027221Y006019D01*
X027217Y005971D01*
X027209Y005923D01*
X027197Y005876D01*
X027182Y005831D01*
X027162Y005787D01*
X027140Y005744D01*
X027114Y005703D01*
X027084Y005665D01*
X027052Y005629D01*
X027017Y005596D01*
X026979Y005566D01*
X026939Y005539D01*
X026897Y005516D01*
X026853Y005496D01*
X026808Y005479D01*
X026762Y005467D01*
X026714Y005458D01*
X026666Y005453D01*
X026618Y005452D01*
X026570Y005455D01*
X026522Y005462D01*
X026475Y005473D01*
X026429Y005487D01*
X026384Y005505D01*
X026341Y005527D01*
X026300Y005552D01*
X026262Y005581D01*
X026225Y005613D01*
X026191Y005647D01*
X026161Y005684D01*
X026133Y005723D01*
X026108Y005765D01*
X026088Y005809D01*
X026070Y005854D01*
X026057Y005900D01*
X026047Y005947D01*
X026041Y005995D01*
X026039Y006043D01*
D17*
X016180Y015843D03*
X013880Y017893D03*
D18*
X025480Y015859D02*
X025410Y015843D01*
X025391Y015917D01*
X025367Y015991D01*
X025340Y016063D01*
X025310Y016133D01*
X025276Y016202D01*
X025238Y016269D01*
X025197Y016334D01*
X025153Y016397D01*
X025106Y016457D01*
X025056Y016516D01*
X025003Y016571D01*
X024947Y016624D01*
X024889Y016674D01*
X024828Y016721D01*
X024765Y016765D01*
X024699Y016805D01*
X024632Y016842D01*
X024563Y016876D01*
X024493Y016906D01*
X024420Y016933D01*
X024347Y016956D01*
X024273Y016975D01*
X024197Y016990D01*
X024122Y017002D01*
X024045Y017010D01*
X023968Y017014D01*
X023892Y017014D01*
X023815Y017010D01*
X023738Y017002D01*
X023663Y016990D01*
X023587Y016975D01*
X023513Y016956D01*
X023440Y016933D01*
X023367Y016906D01*
X023297Y016876D01*
X023228Y016842D01*
X023161Y016805D01*
X023095Y016765D01*
X023032Y016721D01*
X022971Y016674D01*
X022913Y016624D01*
X022857Y016571D01*
X022804Y016516D01*
X022754Y016457D01*
X022707Y016397D01*
X022663Y016334D01*
X022622Y016269D01*
X022584Y016202D01*
X022550Y016133D01*
X022520Y016063D01*
X022493Y015991D01*
X022469Y015917D01*
X022450Y015843D01*
X022380Y015859D01*
X022380Y015860D01*
X022400Y015936D01*
X022424Y016011D01*
X022451Y016085D01*
X022482Y016158D01*
X022517Y016229D01*
X022555Y016298D01*
X022597Y016365D01*
X022642Y016430D01*
X022690Y016493D01*
X022741Y016553D01*
X022795Y016611D01*
X022852Y016665D01*
X022911Y016717D01*
X022973Y016766D01*
X023037Y016812D01*
X023104Y016855D01*
X023172Y016894D01*
X023243Y016930D01*
X023315Y016962D01*
X023388Y016991D01*
X023463Y017016D01*
X023539Y017037D01*
X023616Y017055D01*
X023694Y017068D01*
X023772Y017078D01*
X023851Y017084D01*
X023930Y017086D01*
X024009Y017084D01*
X024088Y017078D01*
X024166Y017068D01*
X024244Y017055D01*
X024321Y017037D01*
X024397Y017016D01*
X024472Y016991D01*
X024545Y016962D01*
X024617Y016930D01*
X024688Y016894D01*
X024756Y016855D01*
X024823Y016812D01*
X024887Y016766D01*
X024949Y016717D01*
X025008Y016665D01*
X025065Y016611D01*
X025119Y016553D01*
X025170Y016493D01*
X025218Y016430D01*
X025263Y016365D01*
X025305Y016298D01*
X025343Y016229D01*
X025378Y016158D01*
X025409Y016085D01*
X025436Y016011D01*
X025460Y015936D01*
X025480Y015860D01*
X025473Y015858D01*
X025453Y015934D01*
X025430Y016009D01*
X025402Y016083D01*
X025371Y016155D01*
X025337Y016225D01*
X025299Y016294D01*
X025257Y016361D01*
X025213Y016426D01*
X025165Y016488D01*
X025114Y016548D01*
X025060Y016606D01*
X025004Y016660D01*
X024945Y016712D01*
X024883Y016761D01*
X024819Y016806D01*
X024753Y016849D01*
X024685Y016888D01*
X024614Y016924D01*
X024543Y016956D01*
X024469Y016984D01*
X024395Y017009D01*
X024319Y017031D01*
X024242Y017048D01*
X024165Y017061D01*
X024087Y017071D01*
X024009Y017077D01*
X023930Y017079D01*
X023851Y017077D01*
X023773Y017071D01*
X023695Y017061D01*
X023618Y017048D01*
X023541Y017031D01*
X023465Y017009D01*
X023391Y016984D01*
X023317Y016956D01*
X023246Y016924D01*
X023175Y016888D01*
X023107Y016849D01*
X023041Y016806D01*
X022977Y016761D01*
X022915Y016712D01*
X022856Y016660D01*
X022800Y016606D01*
X022746Y016548D01*
X022695Y016488D01*
X022647Y016426D01*
X022603Y016361D01*
X022561Y016294D01*
X022523Y016225D01*
X022489Y016155D01*
X022458Y016083D01*
X022430Y016009D01*
X022407Y015934D01*
X022387Y015858D01*
X022393Y015856D01*
X022413Y015932D01*
X022437Y016007D01*
X022464Y016080D01*
X022495Y016152D01*
X022529Y016222D01*
X022567Y016291D01*
X022609Y016357D01*
X022653Y016422D01*
X022701Y016484D01*
X022751Y016544D01*
X022805Y016601D01*
X022861Y016655D01*
X022920Y016707D01*
X022981Y016755D01*
X023045Y016801D01*
X023111Y016843D01*
X023179Y016882D01*
X023249Y016917D01*
X023320Y016949D01*
X023393Y016978D01*
X023467Y017003D01*
X023543Y017024D01*
X023619Y017041D01*
X023696Y017055D01*
X023774Y017064D01*
X023852Y017070D01*
X023930Y017072D01*
X024008Y017070D01*
X024086Y017064D01*
X024164Y017055D01*
X024241Y017041D01*
X024317Y017024D01*
X024393Y017003D01*
X024467Y016978D01*
X024540Y016949D01*
X024611Y016917D01*
X024681Y016882D01*
X024749Y016843D01*
X024815Y016801D01*
X024879Y016755D01*
X024940Y016707D01*
X024999Y016655D01*
X025055Y016601D01*
X025109Y016544D01*
X025159Y016484D01*
X025207Y016422D01*
X025251Y016357D01*
X025293Y016291D01*
X025331Y016222D01*
X025365Y016152D01*
X025396Y016080D01*
X025423Y016007D01*
X025447Y015932D01*
X025467Y015856D01*
X025460Y015855D01*
X025440Y015930D01*
X025416Y016004D01*
X025389Y016077D01*
X025359Y016149D01*
X025324Y016219D01*
X025287Y016287D01*
X025246Y016353D01*
X025201Y016418D01*
X025154Y016479D01*
X025104Y016539D01*
X025050Y016596D01*
X024994Y016650D01*
X024936Y016701D01*
X024874Y016750D01*
X024811Y016795D01*
X024745Y016837D01*
X024678Y016876D01*
X024608Y016911D01*
X024537Y016943D01*
X024465Y016971D01*
X024391Y016996D01*
X024316Y017017D01*
X024240Y017034D01*
X024163Y017048D01*
X024086Y017057D01*
X024008Y017063D01*
X023930Y017065D01*
X023852Y017063D01*
X023774Y017057D01*
X023697Y017048D01*
X023620Y017034D01*
X023544Y017017D01*
X023469Y016996D01*
X023395Y016971D01*
X023323Y016943D01*
X023252Y016911D01*
X023182Y016876D01*
X023115Y016837D01*
X023049Y016795D01*
X022986Y016750D01*
X022924Y016701D01*
X022866Y016650D01*
X022810Y016596D01*
X022756Y016539D01*
X022706Y016479D01*
X022659Y016418D01*
X022614Y016353D01*
X022573Y016287D01*
X022536Y016219D01*
X022501Y016149D01*
X022471Y016077D01*
X022444Y016004D01*
X022420Y015930D01*
X022400Y015855D01*
X022407Y015853D01*
X022427Y015928D01*
X022450Y016002D01*
X022477Y016075D01*
X022508Y016146D01*
X022542Y016216D01*
X022579Y016284D01*
X022620Y016350D01*
X022664Y016414D01*
X022712Y016475D01*
X022762Y016534D01*
X022815Y016591D01*
X022871Y016645D01*
X022929Y016696D01*
X022990Y016744D01*
X023053Y016789D01*
X023118Y016831D01*
X023186Y016870D01*
X023255Y016905D01*
X023325Y016937D01*
X023398Y016965D01*
X023471Y016989D01*
X023546Y017010D01*
X023622Y017027D01*
X023698Y017041D01*
X023775Y017050D01*
X023852Y017056D01*
X023930Y017058D01*
X024008Y017056D01*
X024085Y017050D01*
X024162Y017041D01*
X024238Y017027D01*
X024314Y017010D01*
X024389Y016989D01*
X024462Y016965D01*
X024535Y016937D01*
X024605Y016905D01*
X024674Y016870D01*
X024742Y016831D01*
X024807Y016789D01*
X024870Y016744D01*
X024931Y016696D01*
X024989Y016645D01*
X025045Y016591D01*
X025098Y016534D01*
X025148Y016475D01*
X025196Y016414D01*
X025240Y016350D01*
X025281Y016284D01*
X025318Y016216D01*
X025352Y016146D01*
X025383Y016075D01*
X025410Y016002D01*
X025433Y015928D01*
X025453Y015853D01*
X025446Y015852D01*
X025427Y015926D01*
X025403Y016000D01*
X025376Y016072D01*
X025346Y016143D01*
X025312Y016213D01*
X025275Y016280D01*
X025234Y016346D01*
X025190Y016409D01*
X025143Y016471D01*
X025093Y016530D01*
X025040Y016586D01*
X024985Y016640D01*
X024927Y016691D01*
X024866Y016738D01*
X024803Y016783D01*
X024738Y016825D01*
X024671Y016863D01*
X024602Y016898D01*
X024532Y016930D01*
X024460Y016958D01*
X024387Y016983D01*
X024312Y017003D01*
X024237Y017020D01*
X024161Y017034D01*
X024084Y017043D01*
X024007Y017049D01*
X023930Y017051D01*
X023853Y017049D01*
X023776Y017043D01*
X023699Y017034D01*
X023623Y017020D01*
X023548Y017003D01*
X023473Y016983D01*
X023400Y016958D01*
X023328Y016930D01*
X023258Y016898D01*
X023189Y016863D01*
X023122Y016825D01*
X023057Y016783D01*
X022994Y016738D01*
X022933Y016691D01*
X022875Y016640D01*
X022820Y016586D01*
X022767Y016530D01*
X022717Y016471D01*
X022670Y016409D01*
X022626Y016346D01*
X022585Y016280D01*
X022548Y016213D01*
X022514Y016143D01*
X022484Y016072D01*
X022457Y016000D01*
X022433Y015926D01*
X022414Y015852D01*
X022421Y015850D01*
X022441Y015926D01*
X022464Y016000D01*
X022492Y016074D01*
X022523Y016146D01*
X022558Y016216D01*
X022596Y016284D01*
X022638Y016351D01*
X022683Y016415D01*
X022731Y016476D01*
X022782Y016536D01*
X022836Y016592D01*
X022893Y016646D01*
X022952Y016697D01*
X023014Y016745D01*
X023079Y016790D01*
X023145Y016831D01*
X023214Y016869D01*
X023284Y016903D01*
X023356Y016934D01*
X023430Y016961D01*
X023505Y016985D01*
X023580Y017004D01*
X023657Y017020D01*
X023735Y017032D01*
X023813Y017040D01*
X023891Y017044D01*
X023969Y017044D01*
X024047Y017040D01*
X024125Y017032D01*
X024203Y017020D01*
X024280Y017004D01*
X024355Y016985D01*
X024430Y016961D01*
X024504Y016934D01*
X024576Y016903D01*
X024646Y016869D01*
X024715Y016831D01*
X024781Y016790D01*
X024846Y016745D01*
X024908Y016697D01*
X024967Y016646D01*
X025024Y016592D01*
X025078Y016536D01*
X025129Y016476D01*
X025177Y016415D01*
X025222Y016351D01*
X025264Y016284D01*
X025302Y016216D01*
X025337Y016146D01*
X025368Y016074D01*
X025396Y016000D01*
X025419Y015926D01*
X025439Y015850D01*
X025433Y015848D01*
X025413Y015924D01*
X025389Y015998D01*
X025362Y016071D01*
X025331Y016143D01*
X025296Y016213D01*
X025258Y016281D01*
X025217Y016347D01*
X025172Y016411D01*
X025124Y016472D01*
X025073Y016531D01*
X025019Y016587D01*
X024962Y016641D01*
X024903Y016692D01*
X024841Y016739D01*
X024777Y016784D01*
X024711Y016825D01*
X024643Y016863D01*
X024573Y016897D01*
X024501Y016928D01*
X024428Y016955D01*
X024353Y016978D01*
X024278Y016997D01*
X024202Y017013D01*
X024124Y017025D01*
X024047Y017033D01*
X023969Y017037D01*
X023891Y017037D01*
X023813Y017033D01*
X023736Y017025D01*
X023658Y017013D01*
X023582Y016997D01*
X023507Y016978D01*
X023432Y016955D01*
X023359Y016928D01*
X023287Y016897D01*
X023217Y016863D01*
X023149Y016825D01*
X023083Y016784D01*
X023019Y016739D01*
X022957Y016692D01*
X022898Y016641D01*
X022841Y016587D01*
X022787Y016531D01*
X022736Y016472D01*
X022688Y016411D01*
X022643Y016347D01*
X022602Y016281D01*
X022564Y016213D01*
X022529Y016143D01*
X022498Y016071D01*
X022471Y015998D01*
X022447Y015924D01*
X022427Y015848D01*
X022434Y015847D01*
X022454Y015922D01*
X022478Y015996D01*
X022505Y016068D01*
X022536Y016140D01*
X022570Y016209D01*
X022608Y016277D01*
X022649Y016343D01*
X022694Y016406D01*
X022742Y016468D01*
X022792Y016526D01*
X022846Y016583D01*
X022902Y016636D01*
X022961Y016686D01*
X023023Y016734D01*
X023087Y016778D01*
X023153Y016819D01*
X023220Y016856D01*
X023290Y016890D01*
X023362Y016921D01*
X023434Y016948D01*
X023508Y016971D01*
X023584Y016990D01*
X023660Y017006D01*
X023736Y017018D01*
X023814Y017026D01*
X023891Y017030D01*
X023969Y017030D01*
X024046Y017026D01*
X024124Y017018D01*
X024200Y017006D01*
X024276Y016990D01*
X024352Y016971D01*
X024426Y016948D01*
X024498Y016921D01*
X024570Y016890D01*
X024640Y016856D01*
X024707Y016819D01*
X024773Y016778D01*
X024837Y016734D01*
X024899Y016686D01*
X024958Y016636D01*
X025014Y016583D01*
X025068Y016526D01*
X025118Y016468D01*
X025166Y016406D01*
X025211Y016343D01*
X025252Y016277D01*
X025290Y016209D01*
X025324Y016140D01*
X025355Y016068D01*
X025382Y015996D01*
X025406Y015922D01*
X025426Y015847D01*
X025419Y015845D01*
X025399Y015920D01*
X025376Y015994D01*
X025349Y016066D01*
X025318Y016137D01*
X025284Y016206D01*
X025246Y016273D01*
X025205Y016339D01*
X025161Y016402D01*
X025113Y016463D01*
X025063Y016522D01*
X025009Y016578D01*
X024953Y016631D01*
X024894Y016681D01*
X024833Y016728D01*
X024770Y016772D01*
X024704Y016813D01*
X024636Y016850D01*
X024567Y016884D01*
X024496Y016915D01*
X024423Y016941D01*
X024350Y016964D01*
X024275Y016984D01*
X024199Y016999D01*
X024123Y017011D01*
X024046Y017019D01*
X023969Y017023D01*
X023891Y017023D01*
X023814Y017019D01*
X023737Y017011D01*
X023661Y016999D01*
X023585Y016984D01*
X023510Y016964D01*
X023437Y016941D01*
X023364Y016915D01*
X023293Y016884D01*
X023224Y016850D01*
X023156Y016813D01*
X023090Y016772D01*
X023027Y016728D01*
X022966Y016681D01*
X022907Y016631D01*
X022851Y016578D01*
X022797Y016522D01*
X022747Y016463D01*
X022699Y016402D01*
X022655Y016339D01*
X022614Y016273D01*
X022576Y016206D01*
X022542Y016137D01*
X022511Y016066D01*
X022484Y015994D01*
X022461Y015920D01*
X022441Y015845D01*
X022448Y015844D01*
X022467Y015918D01*
X022491Y015991D01*
X022518Y016063D01*
X022548Y016134D01*
X022583Y016203D01*
X022620Y016270D01*
X022661Y016335D01*
X022705Y016398D01*
X022752Y016459D01*
X022803Y016517D01*
X022856Y016573D01*
X022912Y016625D01*
X022970Y016675D01*
X023031Y016722D01*
X023094Y016766D01*
X023160Y016807D01*
X023227Y016844D01*
X023296Y016878D01*
X023367Y016908D01*
X023439Y016935D01*
X023512Y016958D01*
X023587Y016977D01*
X023662Y016992D01*
X023738Y017004D01*
X023815Y017012D01*
X023892Y017016D01*
X023968Y017016D01*
X024045Y017012D01*
X024122Y017004D01*
X024198Y016992D01*
X024273Y016977D01*
X024348Y016958D01*
X024421Y016935D01*
X024493Y016908D01*
X024564Y016878D01*
X024633Y016844D01*
X024700Y016807D01*
X024766Y016766D01*
X024829Y016722D01*
X024890Y016675D01*
X024948Y016625D01*
X025004Y016573D01*
X025057Y016517D01*
X025108Y016459D01*
X025155Y016398D01*
X025199Y016335D01*
X025240Y016270D01*
X025277Y016203D01*
X025312Y016134D01*
X025342Y016063D01*
X025369Y015991D01*
X025393Y015918D01*
X025412Y015844D01*
X022380Y015127D02*
X022450Y015143D01*
X022469Y015069D01*
X022493Y014995D01*
X022520Y014923D01*
X022550Y014853D01*
X022584Y014784D01*
X022622Y014717D01*
X022663Y014652D01*
X022707Y014589D01*
X022754Y014529D01*
X022804Y014470D01*
X022857Y014415D01*
X022913Y014362D01*
X022971Y014312D01*
X023032Y014265D01*
X023095Y014221D01*
X023161Y014181D01*
X023228Y014144D01*
X023297Y014110D01*
X023367Y014080D01*
X023440Y014053D01*
X023513Y014030D01*
X023587Y014011D01*
X023663Y013996D01*
X023738Y013984D01*
X023815Y013976D01*
X023892Y013972D01*
X023968Y013972D01*
X024045Y013976D01*
X024122Y013984D01*
X024197Y013996D01*
X024273Y014011D01*
X024347Y014030D01*
X024420Y014053D01*
X024493Y014080D01*
X024563Y014110D01*
X024632Y014144D01*
X024699Y014181D01*
X024765Y014221D01*
X024828Y014265D01*
X024889Y014312D01*
X024947Y014362D01*
X025003Y014415D01*
X025056Y014470D01*
X025106Y014529D01*
X025153Y014589D01*
X025197Y014652D01*
X025238Y014717D01*
X025276Y014784D01*
X025310Y014853D01*
X025340Y014923D01*
X025367Y014995D01*
X025391Y015069D01*
X025410Y015143D01*
X025480Y015127D01*
X025480Y015126D01*
X025460Y015050D01*
X025436Y014975D01*
X025409Y014901D01*
X025378Y014828D01*
X025343Y014757D01*
X025305Y014688D01*
X025263Y014621D01*
X025218Y014556D01*
X025170Y014493D01*
X025119Y014433D01*
X025065Y014375D01*
X025008Y014321D01*
X024949Y014269D01*
X024887Y014220D01*
X024823Y014174D01*
X024756Y014131D01*
X024688Y014092D01*
X024617Y014056D01*
X024545Y014024D01*
X024472Y013995D01*
X024397Y013970D01*
X024321Y013949D01*
X024244Y013931D01*
X024166Y013918D01*
X024088Y013908D01*
X024009Y013902D01*
X023930Y013900D01*
X023851Y013902D01*
X023772Y013908D01*
X023694Y013918D01*
X023616Y013931D01*
X023539Y013949D01*
X023463Y013970D01*
X023388Y013995D01*
X023315Y014024D01*
X023243Y014056D01*
X023172Y014092D01*
X023104Y014131D01*
X023037Y014174D01*
X022973Y014220D01*
X022911Y014269D01*
X022852Y014321D01*
X022795Y014375D01*
X022741Y014433D01*
X022690Y014493D01*
X022642Y014556D01*
X022597Y014621D01*
X022555Y014688D01*
X022517Y014757D01*
X022482Y014828D01*
X022451Y014901D01*
X022424Y014975D01*
X022400Y015050D01*
X022380Y015126D01*
X022387Y015128D01*
X022407Y015052D01*
X022430Y014977D01*
X022458Y014903D01*
X022489Y014831D01*
X022523Y014761D01*
X022561Y014692D01*
X022603Y014625D01*
X022647Y014560D01*
X022695Y014498D01*
X022746Y014438D01*
X022800Y014380D01*
X022856Y014326D01*
X022915Y014274D01*
X022977Y014225D01*
X023041Y014180D01*
X023107Y014137D01*
X023175Y014098D01*
X023246Y014062D01*
X023317Y014030D01*
X023391Y014002D01*
X023465Y013977D01*
X023541Y013955D01*
X023618Y013938D01*
X023695Y013925D01*
X023773Y013915D01*
X023851Y013909D01*
X023930Y013907D01*
X024009Y013909D01*
X024087Y013915D01*
X024165Y013925D01*
X024242Y013938D01*
X024319Y013955D01*
X024395Y013977D01*
X024469Y014002D01*
X024543Y014030D01*
X024614Y014062D01*
X024685Y014098D01*
X024753Y014137D01*
X024819Y014180D01*
X024883Y014225D01*
X024945Y014274D01*
X025004Y014326D01*
X025060Y014380D01*
X025114Y014438D01*
X025165Y014498D01*
X025213Y014560D01*
X025257Y014625D01*
X025299Y014692D01*
X025337Y014761D01*
X025371Y014831D01*
X025402Y014903D01*
X025430Y014977D01*
X025453Y015052D01*
X025473Y015128D01*
X025467Y015130D01*
X025447Y015054D01*
X025423Y014979D01*
X025396Y014906D01*
X025365Y014834D01*
X025331Y014764D01*
X025293Y014695D01*
X025251Y014629D01*
X025207Y014564D01*
X025159Y014502D01*
X025109Y014442D01*
X025055Y014385D01*
X024999Y014331D01*
X024940Y014279D01*
X024879Y014231D01*
X024815Y014185D01*
X024749Y014143D01*
X024681Y014104D01*
X024611Y014069D01*
X024540Y014037D01*
X024467Y014008D01*
X024393Y013983D01*
X024317Y013962D01*
X024241Y013945D01*
X024164Y013931D01*
X024086Y013922D01*
X024008Y013916D01*
X023930Y013914D01*
X023852Y013916D01*
X023774Y013922D01*
X023696Y013931D01*
X023619Y013945D01*
X023543Y013962D01*
X023467Y013983D01*
X023393Y014008D01*
X023320Y014037D01*
X023249Y014069D01*
X023179Y014104D01*
X023111Y014143D01*
X023045Y014185D01*
X022981Y014231D01*
X022920Y014279D01*
X022861Y014331D01*
X022805Y014385D01*
X022751Y014442D01*
X022701Y014502D01*
X022653Y014564D01*
X022609Y014629D01*
X022567Y014695D01*
X022529Y014764D01*
X022495Y014834D01*
X022464Y014906D01*
X022437Y014979D01*
X022413Y015054D01*
X022393Y015130D01*
X022400Y015131D01*
X022420Y015056D01*
X022444Y014982D01*
X022471Y014909D01*
X022501Y014837D01*
X022536Y014767D01*
X022573Y014699D01*
X022614Y014633D01*
X022659Y014568D01*
X022706Y014507D01*
X022756Y014447D01*
X022810Y014390D01*
X022866Y014336D01*
X022924Y014285D01*
X022986Y014236D01*
X023049Y014191D01*
X023115Y014149D01*
X023182Y014110D01*
X023252Y014075D01*
X023323Y014043D01*
X023395Y014015D01*
X023469Y013990D01*
X023544Y013969D01*
X023620Y013952D01*
X023697Y013938D01*
X023774Y013929D01*
X023852Y013923D01*
X023930Y013921D01*
X024008Y013923D01*
X024086Y013929D01*
X024163Y013938D01*
X024240Y013952D01*
X024316Y013969D01*
X024391Y013990D01*
X024465Y014015D01*
X024537Y014043D01*
X024608Y014075D01*
X024678Y014110D01*
X024745Y014149D01*
X024811Y014191D01*
X024874Y014236D01*
X024936Y014285D01*
X024994Y014336D01*
X025050Y014390D01*
X025104Y014447D01*
X025154Y014507D01*
X025201Y014568D01*
X025246Y014633D01*
X025287Y014699D01*
X025324Y014767D01*
X025359Y014837D01*
X025389Y014909D01*
X025416Y014982D01*
X025440Y015056D01*
X025460Y015131D01*
X025453Y015133D01*
X025433Y015058D01*
X025410Y014984D01*
X025383Y014911D01*
X025352Y014840D01*
X025318Y014770D01*
X025281Y014702D01*
X025240Y014636D01*
X025196Y014572D01*
X025148Y014511D01*
X025098Y014452D01*
X025045Y014395D01*
X024989Y014341D01*
X024931Y014290D01*
X024870Y014242D01*
X024807Y014197D01*
X024742Y014155D01*
X024674Y014116D01*
X024605Y014081D01*
X024535Y014049D01*
X024462Y014021D01*
X024389Y013997D01*
X024314Y013976D01*
X024238Y013959D01*
X024162Y013945D01*
X024085Y013936D01*
X024008Y013930D01*
X023930Y013928D01*
X023852Y013930D01*
X023775Y013936D01*
X023698Y013945D01*
X023622Y013959D01*
X023546Y013976D01*
X023471Y013997D01*
X023398Y014021D01*
X023325Y014049D01*
X023255Y014081D01*
X023186Y014116D01*
X023118Y014155D01*
X023053Y014197D01*
X022990Y014242D01*
X022929Y014290D01*
X022871Y014341D01*
X022815Y014395D01*
X022762Y014452D01*
X022712Y014511D01*
X022664Y014572D01*
X022620Y014636D01*
X022579Y014702D01*
X022542Y014770D01*
X022508Y014840D01*
X022477Y014911D01*
X022450Y014984D01*
X022427Y015058D01*
X022407Y015133D01*
X022414Y015134D01*
X022433Y015060D01*
X022457Y014986D01*
X022484Y014914D01*
X022514Y014843D01*
X022548Y014773D01*
X022585Y014706D01*
X022626Y014640D01*
X022670Y014577D01*
X022717Y014515D01*
X022767Y014456D01*
X022820Y014400D01*
X022875Y014346D01*
X022933Y014295D01*
X022994Y014248D01*
X023057Y014203D01*
X023122Y014161D01*
X023189Y014123D01*
X023258Y014088D01*
X023328Y014056D01*
X023400Y014028D01*
X023473Y014003D01*
X023548Y013983D01*
X023623Y013966D01*
X023699Y013952D01*
X023776Y013943D01*
X023853Y013937D01*
X023930Y013935D01*
X024007Y013937D01*
X024084Y013943D01*
X024161Y013952D01*
X024237Y013966D01*
X024312Y013983D01*
X024387Y014003D01*
X024460Y014028D01*
X024532Y014056D01*
X024602Y014088D01*
X024671Y014123D01*
X024738Y014161D01*
X024803Y014203D01*
X024866Y014248D01*
X024927Y014295D01*
X024985Y014346D01*
X025040Y014400D01*
X025093Y014456D01*
X025143Y014515D01*
X025190Y014577D01*
X025234Y014640D01*
X025275Y014706D01*
X025312Y014773D01*
X025346Y014843D01*
X025376Y014914D01*
X025403Y014986D01*
X025427Y015060D01*
X025446Y015134D01*
X025439Y015136D01*
X025419Y015060D01*
X025396Y014986D01*
X025368Y014912D01*
X025337Y014840D01*
X025302Y014770D01*
X025264Y014702D01*
X025222Y014635D01*
X025177Y014571D01*
X025129Y014510D01*
X025078Y014450D01*
X025024Y014394D01*
X024967Y014340D01*
X024908Y014289D01*
X024846Y014241D01*
X024781Y014196D01*
X024715Y014155D01*
X024646Y014117D01*
X024576Y014083D01*
X024504Y014052D01*
X024430Y014025D01*
X024355Y014001D01*
X024280Y013982D01*
X024203Y013966D01*
X024125Y013954D01*
X024047Y013946D01*
X023969Y013942D01*
X023891Y013942D01*
X023813Y013946D01*
X023735Y013954D01*
X023657Y013966D01*
X023580Y013982D01*
X023505Y014001D01*
X023430Y014025D01*
X023356Y014052D01*
X023284Y014083D01*
X023214Y014117D01*
X023145Y014155D01*
X023079Y014196D01*
X023014Y014241D01*
X022952Y014289D01*
X022893Y014340D01*
X022836Y014394D01*
X022782Y014450D01*
X022731Y014510D01*
X022683Y014571D01*
X022638Y014635D01*
X022596Y014702D01*
X022558Y014770D01*
X022523Y014840D01*
X022492Y014912D01*
X022464Y014986D01*
X022441Y015060D01*
X022421Y015136D01*
X022427Y015138D01*
X022447Y015062D01*
X022471Y014988D01*
X022498Y014915D01*
X022529Y014843D01*
X022564Y014773D01*
X022602Y014705D01*
X022643Y014639D01*
X022688Y014575D01*
X022736Y014514D01*
X022787Y014455D01*
X022841Y014399D01*
X022898Y014345D01*
X022957Y014294D01*
X023019Y014247D01*
X023083Y014202D01*
X023149Y014161D01*
X023217Y014123D01*
X023287Y014089D01*
X023359Y014058D01*
X023432Y014031D01*
X023507Y014008D01*
X023582Y013989D01*
X023658Y013973D01*
X023736Y013961D01*
X023813Y013953D01*
X023891Y013949D01*
X023969Y013949D01*
X024047Y013953D01*
X024124Y013961D01*
X024202Y013973D01*
X024278Y013989D01*
X024353Y014008D01*
X024428Y014031D01*
X024501Y014058D01*
X024573Y014089D01*
X024643Y014123D01*
X024711Y014161D01*
X024777Y014202D01*
X024841Y014247D01*
X024903Y014294D01*
X024962Y014345D01*
X025019Y014399D01*
X025073Y014455D01*
X025124Y014514D01*
X025172Y014575D01*
X025217Y014639D01*
X025258Y014705D01*
X025296Y014773D01*
X025331Y014843D01*
X025362Y014915D01*
X025389Y014988D01*
X025413Y015062D01*
X025433Y015138D01*
X025426Y015139D01*
X025406Y015064D01*
X025382Y014990D01*
X025355Y014918D01*
X025324Y014846D01*
X025290Y014777D01*
X025252Y014709D01*
X025211Y014643D01*
X025166Y014580D01*
X025118Y014518D01*
X025068Y014460D01*
X025014Y014403D01*
X024958Y014350D01*
X024899Y014300D01*
X024837Y014252D01*
X024773Y014208D01*
X024707Y014167D01*
X024640Y014130D01*
X024570Y014096D01*
X024498Y014065D01*
X024426Y014038D01*
X024352Y014015D01*
X024276Y013996D01*
X024200Y013980D01*
X024124Y013968D01*
X024046Y013960D01*
X023969Y013956D01*
X023891Y013956D01*
X023814Y013960D01*
X023736Y013968D01*
X023660Y013980D01*
X023584Y013996D01*
X023508Y014015D01*
X023434Y014038D01*
X023362Y014065D01*
X023290Y014096D01*
X023220Y014130D01*
X023153Y014167D01*
X023087Y014208D01*
X023023Y014252D01*
X022961Y014300D01*
X022902Y014350D01*
X022846Y014403D01*
X022792Y014460D01*
X022742Y014518D01*
X022694Y014580D01*
X022649Y014643D01*
X022608Y014709D01*
X022570Y014777D01*
X022536Y014846D01*
X022505Y014918D01*
X022478Y014990D01*
X022454Y015064D01*
X022434Y015139D01*
X022441Y015141D01*
X022461Y015066D01*
X022484Y014992D01*
X022511Y014920D01*
X022542Y014849D01*
X022576Y014780D01*
X022614Y014713D01*
X022655Y014647D01*
X022699Y014584D01*
X022747Y014523D01*
X022797Y014464D01*
X022851Y014408D01*
X022907Y014355D01*
X022966Y014305D01*
X023027Y014258D01*
X023090Y014214D01*
X023156Y014173D01*
X023224Y014136D01*
X023293Y014102D01*
X023364Y014071D01*
X023437Y014045D01*
X023510Y014022D01*
X023585Y014002D01*
X023661Y013987D01*
X023737Y013975D01*
X023814Y013967D01*
X023891Y013963D01*
X023969Y013963D01*
X024046Y013967D01*
X024123Y013975D01*
X024199Y013987D01*
X024275Y014002D01*
X024350Y014022D01*
X024423Y014045D01*
X024496Y014071D01*
X024567Y014102D01*
X024636Y014136D01*
X024704Y014173D01*
X024770Y014214D01*
X024833Y014258D01*
X024894Y014305D01*
X024953Y014355D01*
X025009Y014408D01*
X025063Y014464D01*
X025113Y014523D01*
X025161Y014584D01*
X025205Y014647D01*
X025246Y014713D01*
X025284Y014780D01*
X025318Y014849D01*
X025349Y014920D01*
X025376Y014992D01*
X025399Y015066D01*
X025419Y015141D01*
X025412Y015142D01*
X025393Y015068D01*
X025369Y014995D01*
X025342Y014923D01*
X025312Y014852D01*
X025277Y014783D01*
X025240Y014716D01*
X025199Y014651D01*
X025155Y014588D01*
X025108Y014527D01*
X025057Y014469D01*
X025004Y014413D01*
X024948Y014361D01*
X024890Y014311D01*
X024829Y014264D01*
X024766Y014220D01*
X024700Y014179D01*
X024633Y014142D01*
X024564Y014108D01*
X024493Y014078D01*
X024421Y014051D01*
X024348Y014028D01*
X024273Y014009D01*
X024198Y013994D01*
X024122Y013982D01*
X024045Y013974D01*
X023968Y013970D01*
X023892Y013970D01*
X023815Y013974D01*
X023738Y013982D01*
X023662Y013994D01*
X023587Y014009D01*
X023512Y014028D01*
X023439Y014051D01*
X023367Y014078D01*
X023296Y014108D01*
X023227Y014142D01*
X023160Y014179D01*
X023094Y014220D01*
X023031Y014264D01*
X022970Y014311D01*
X022912Y014361D01*
X022856Y014413D01*
X022803Y014469D01*
X022752Y014527D01*
X022705Y014588D01*
X022661Y014651D01*
X022620Y014716D01*
X022583Y014783D01*
X022548Y014852D01*
X022518Y014923D01*
X022491Y014995D01*
X022467Y015068D01*
X022448Y015142D01*
M02*
