G75*
%MOIN*%
%OFA0B0*%
%FSLAX24Y24*%
%IPPOS*%
%LPD*%
%AMOC8*
5,1,8,0,0,1.08239X$1,22.5*
%
%ADD10R,0.0472X0.0315*%
%ADD11R,0.0709X0.0236*%
%ADD12R,0.0236X0.0709*%
%ADD13R,0.1496X0.0551*%
%ADD14R,0.0551X0.0472*%
%ADD15R,0.0709X0.1260*%
%ADD16R,0.1260X0.0709*%
%ADD17R,0.0315X0.0472*%
D10*
X003880Y010479D03*
X003880Y011188D03*
X004880Y011188D03*
X004880Y010479D03*
X005880Y010479D03*
X005880Y011188D03*
X009980Y016279D03*
X009980Y016988D03*
X009980Y017779D03*
X009980Y018488D03*
X015380Y017988D03*
X015380Y017279D03*
X015380Y016338D03*
X015380Y015629D03*
D11*
X013891Y015383D03*
X013891Y015883D03*
X013891Y016383D03*
X013891Y016883D03*
X013891Y017383D03*
X013891Y017883D03*
X013891Y018383D03*
X011669Y018383D03*
X011669Y017883D03*
X011669Y017383D03*
X011669Y016883D03*
X011669Y016383D03*
X011669Y015883D03*
X011669Y015383D03*
D12*
X010230Y009272D03*
X010730Y009272D03*
X011230Y009272D03*
X011730Y009272D03*
X012230Y009272D03*
X012730Y009272D03*
X013230Y009272D03*
X013730Y009272D03*
X014230Y009272D03*
X014730Y009272D03*
X015230Y009272D03*
X015730Y009272D03*
X015730Y012894D03*
X015230Y012894D03*
X014730Y012894D03*
X014230Y012894D03*
X013730Y012894D03*
X013230Y012894D03*
X012730Y012894D03*
X012230Y012894D03*
X011730Y012894D03*
X011230Y012894D03*
X010730Y012894D03*
X010230Y012894D03*
D13*
X022749Y012533D03*
X025111Y012533D03*
D14*
X017480Y023443D03*
X017480Y024624D03*
X015780Y024624D03*
X015780Y023443D03*
X014080Y023443D03*
X014080Y024624D03*
X012280Y024624D03*
X012280Y023443D03*
X010480Y023443D03*
X010480Y024624D03*
X008680Y024624D03*
X008680Y023443D03*
X006880Y023443D03*
X006880Y024624D03*
X002880Y011824D03*
X001780Y011824D03*
X001780Y010643D03*
X002880Y010643D03*
D15*
X003678Y013533D03*
X005882Y013533D03*
X011678Y007133D03*
X013882Y007133D03*
D16*
X014080Y020231D03*
X015780Y020231D03*
X017480Y020231D03*
X017480Y022436D03*
X015780Y022436D03*
X014080Y022436D03*
X012280Y022436D03*
X010480Y022436D03*
X008680Y022436D03*
X006880Y022436D03*
X006880Y020231D03*
X008680Y020231D03*
X010480Y020231D03*
X012280Y020231D03*
D17*
X006034Y012233D03*
X005326Y012233D03*
M02*
