G75*
%MOIN*%
%OFA0B0*%
%FSLAX24Y24*%
%IPPOS*%
%LPD*%
%AMOC8*
5,1,8,0,0,1.08239X$1,22.5*
%
%ADD10R,0.0472X0.0315*%
%ADD11R,0.0709X0.0236*%
%ADD12R,0.0236X0.0709*%
%ADD13R,0.1496X0.0551*%
%ADD14R,0.0551X0.0472*%
%ADD15R,0.0709X0.1260*%
%ADD16R,0.0315X0.0472*%
%ADD17R,0.0709X0.0630*%
%ADD18R,0.0630X0.0709*%
D10*
X003880Y013439D03*
X003880Y014148D03*
X004880Y014148D03*
X004880Y013439D03*
X005880Y013439D03*
X005880Y014148D03*
X009980Y019239D03*
X009980Y019948D03*
X009980Y020739D03*
X009980Y021448D03*
X015380Y020948D03*
X015380Y020239D03*
X015380Y019298D03*
X015380Y018589D03*
D11*
X013891Y018343D03*
X013891Y018843D03*
X013891Y019343D03*
X013891Y019843D03*
X013891Y020343D03*
X013891Y020843D03*
X013891Y021343D03*
X011669Y021343D03*
X011669Y020843D03*
X011669Y020343D03*
X011669Y019843D03*
X011669Y019343D03*
X011669Y018843D03*
X011669Y018343D03*
D12*
X011730Y015854D03*
X012230Y015854D03*
X012730Y015854D03*
X013230Y015854D03*
X013730Y015854D03*
X014230Y015854D03*
X014730Y015854D03*
X015230Y015854D03*
X015730Y015854D03*
X015730Y012232D03*
X015230Y012232D03*
X014730Y012232D03*
X014230Y012232D03*
X013730Y012232D03*
X013230Y012232D03*
X012730Y012232D03*
X012230Y012232D03*
X011730Y012232D03*
X011230Y012232D03*
X010730Y012232D03*
X010230Y012232D03*
X010230Y015854D03*
X010730Y015854D03*
X011230Y015854D03*
D13*
X022749Y015493D03*
X025111Y015493D03*
D14*
X017480Y026403D03*
X017480Y027584D03*
X015780Y027584D03*
X015780Y026403D03*
X014080Y026403D03*
X014080Y027584D03*
X012280Y027584D03*
X012280Y026403D03*
X010480Y026403D03*
X010480Y027584D03*
X008680Y027584D03*
X008680Y026403D03*
X006880Y026403D03*
X006880Y027584D03*
X002880Y014784D03*
X001780Y014784D03*
X001780Y013603D03*
X002880Y013603D03*
D15*
X003678Y016493D03*
X005882Y016493D03*
D16*
X006034Y015193D03*
X005326Y015193D03*
X010176Y017193D03*
X010884Y017193D03*
X014826Y011043D03*
X015534Y011043D03*
D17*
X015780Y024292D03*
X015780Y025394D03*
X014080Y025394D03*
X014080Y024292D03*
X012280Y024292D03*
X012280Y025394D03*
X010480Y025394D03*
X010480Y024292D03*
X008730Y024292D03*
X008730Y025394D03*
X006880Y025394D03*
X006880Y024292D03*
X017480Y024292D03*
X017480Y025394D03*
D18*
X009829Y008243D03*
X010931Y008243D03*
M02*
